999
The file was created in CADSoftTools software
999
ABViewer 14; 
  0
SECTION
  2
HEADER
  9
$ACADVER
  1
AC1021
  9
$DWGCODEPAGE
  3
ANSI_1252
  9
$CLAYER
  8
0
  9
$CELTYPE
  6
BYLAYER
  9
$CELTSCALE
 40
1
  9
$CELWEIGHT
370
-1
  9
$DIMALT
 70
0
  9
$DIMALTF
 40
25.4
  9
$DIMPOST
  1

  9
$DIMAPOST
  1

  9
$DIMSCALE
 40
1
  9
$DIMASZ
 40
0.13
  9
$DIMCLRD
 70
0
  9
$DIMCLRE
 70
0
  9
$DIMCLRT
 70
0
  9
$DIMEXE
 40
0.125
  9
$DIMEXO
 40
0.05
  9
$DIMGAP
 40
0.06
  9
$DIMLFAC
 40
1
  9
$DIMDEC
 70
3
  9
$DIMTAD
 70
0
  9
$DIMCEN
 40
0.09
  9
$DIMTIH
 70
1
  9
$DIMTIX
 70
0
  9
$DIMTOH
 70
1
  9
$DIMSE1
 70
0
  9
$DIMSE2
 70
0
  9
$DIMSD1
 70
0
  9
$DIMSD2
 70
0
  9
$DIMLWD
 70
-2
  9
$DIMLWE
 70
-2
  9
$DIMSAH
 70
0
  9
$DIMBLK
  1

  9
$DIMBLK1
  1

  9
$DIMBLK2
  1

  9
$DIMLDRBLK
  1

  9
$DIMSTYLE
  2
Standard
  9
$DIMTP
 40
0
  9
$DIMTM
 40
0
  9
$DIMTXT
 40
0.125
  9
$DIMLUNIT
 70
2
  9
$DIMDSEP
 70
46
  9
$DIMTXSTY
  7
STANDARD
  9
$TEXTSIZE
 40
0.125
  9
$TEXTSTYLE
  7
Standard
  9
$HANDSEED
  5
0000000000000610
  9
$FILLETRAD
 40
0.5
  9
$INSUNITS
 70
1
  9
$LIMMIN
 10
0.42600994952592
 20
0.207622012020224
  9
$LIMMAX
 10
16.5583537595912
 20
10.8372850881386
  9
$FILLMODE
 70
1
  9
$LTSCALE
 40
1
  9
$MEASUREMENT
 70
0
  9
$ATTMODE
 70
1
  9
$PDMODE
 70
0
  9
$PDSIZE
 40
-1
  9
$TILEMODE
 70
1
  9
$UCSORG
 10
0
 20
0
 30
0
  9
$UCSXDIR
 10
1
 20
0
 30
0
  9
$UCSYDIR
 10
0
 20
1
 30
0
  9
$INSBASE
 10
0
 20
0
 30
0
  9
$XCLIPFRAME
290
1
  9
$DIMASSOC
280
2
  9
$TDCREATE
 40
2456392.76724858
  9
$TDINDWG
 40
1.15740740740741E-8
  9
$TDUPDATE
 40
2459338.33990973
  0
ENDSEC
  0
SECTION
  2
CLASSES
  0
CLASS
  1
IMAGE
  2
AcDbRasterImage
  3
ISM
 90
2175
 91
1
280
0
281
1
  0
CLASS
  1
IMAGEDEF
  2
AcDbRasterImageDef
  3
ISM
 90
0
 91
1
280
0
281
0
  0
CLASS
  1
WIPEOUT
  2
AcDbWipeout
  3
"WipeOut"
 90
2175
 91
1
280
0
281
1
  0
CLASS
  1
WIPEOUTVARIABLES
  2
AcDbWipeoutVariables
  3
"WipeOut"
 90
0
 91
1
280
0
281
0
  0
CLASS
  1
MPOLYGON
  2
AcDbMPolygon
  3
"AcMPolygonObj15"
 90
3071
 91
1
280
0
281
1
  0
ENDSEC
  0
SECTION
  2
TABLES
  0
TABLE
  2
APPID
  5
5DE
100
AcDbSymbolTable
  0
APPID
  5
12
100
AcDbSymbolTableRecord
100
AcDbRegAppTableRecord
  2
ACAD
 70
64
  0
APPID
  5
592
100
AcDbSymbolTableRecord
100
AcDbRegAppTableRecord
  2
CSTINVENTORY
 70
0
  0
APPID
  5
5DF
100
AcDbSymbolTableRecord
100
AcDbRegAppTableRecord
  2
PE_URL
 70
0
  0
ENDTAB
  0
TABLE
  2
BLOCK_RECORD
  5
5E0
100
AcDbSymbolTable
  0
BLOCK_RECORD
  5
1F
100
AcDbSymbolTableRecord
100
AcDbBlockTableRecord
  2
*MODEL_SPACE
  0
BLOCK_RECORD
  5
1B
100
AcDbSymbolTableRecord
100
AcDbBlockTableRecord
  2
*PAPER_SPACE
  0
BLOCK_RECORD
  5
46
100
AcDbSymbolTableRecord
100
AcDbBlockTableRecord
  2
logo
  0
BLOCK_RECORD
  5
51
100
AcDbSymbolTableRecord
100
AcDbBlockTableRecord
  2
ThirdAngleProjectionBlock
  0
BLOCK_RECORD
  5
5F
100
AcDbSymbolTableRecord
100
AcDbBlockTableRecord
  2
SW_NOTE_0
  0
BLOCK_RECORD
  5
5C
100
AcDbSymbolTableRecord
100
AcDbBlockTableRecord
  2
POLYCASE LOGO
  0
BLOCK_RECORD
  5
A7
100
AcDbSymbolTableRecord
100
AcDbBlockTableRecord
  2
SW_NOTE_1
  0
BLOCK_RECORD
  5
CE
100
AcDbSymbolTableRecord
100
AcDbBlockTableRecord
  2
SW_NOTE_2
  0
BLOCK_RECORD
  5
E1
100
AcDbSymbolTableRecord
100
AcDbBlockTableRecord
  2
SW_NOTE_3
  0
BLOCK_RECORD
  5
FA
100
AcDbSymbolTableRecord
100
AcDbBlockTableRecord
  2
SW_TABLEANNOTATION_0
  0
BLOCK_RECORD
  5
178
100
AcDbSymbolTableRecord
100
AcDbBlockTableRecord
  2
_D
  0
BLOCK_RECORD
  5
183
100
AcDbSymbolTableRecord
100
AcDbBlockTableRecord
  2
_D_1
  0
BLOCK_RECORD
  5
18E
100
AcDbSymbolTableRecord
100
AcDbBlockTableRecord
  2
_D_2
  0
BLOCK_RECORD
  5
199
100
AcDbSymbolTableRecord
100
AcDbBlockTableRecord
  2
_D_3
  0
BLOCK_RECORD
  5
1A6
100
AcDbSymbolTableRecord
100
AcDbBlockTableRecord
  2
_D_4
  0
BLOCK_RECORD
  5
1B2
100
AcDbSymbolTableRecord
100
AcDbBlockTableRecord
  2
_D_5
  0
BLOCK_RECORD
  5
1BE
100
AcDbSymbolTableRecord
100
AcDbBlockTableRecord
  2
_D_6
  0
BLOCK_RECORD
  5
1C8
100
AcDbSymbolTableRecord
100
AcDbBlockTableRecord
  2
_D_7
  0
BLOCK_RECORD
  5
1D2
100
AcDbSymbolTableRecord
100
AcDbBlockTableRecord
  2
_D_8
  0
BLOCK_RECORD
  5
1DD
100
AcDbSymbolTableRecord
100
AcDbBlockTableRecord
  2
_D_9
  0
BLOCK_RECORD
  5
1E9
100
AcDbSymbolTableRecord
100
AcDbBlockTableRecord
  2
_D_10
  0
BLOCK_RECORD
  5
1F3
100
AcDbSymbolTableRecord
100
AcDbBlockTableRecord
  2
_D_11
  0
BLOCK_RECORD
  5
1FD
100
AcDbSymbolTableRecord
100
AcDbBlockTableRecord
  2
SW_CENTERMARKSYMBOL_0
  0
BLOCK_RECORD
  5
211
100
AcDbSymbolTableRecord
100
AcDbBlockTableRecord
  2
SW_CENTERMARKSYMBOL_1
  0
BLOCK_RECORD
  5
21D
100
AcDbSymbolTableRecord
100
AcDbBlockTableRecord
  2
SW_CENTERMARKSYMBOL_2
  0
BLOCK_RECORD
  5
279
100
AcDbSymbolTableRecord
100
AcDbBlockTableRecord
  2
_D_12
  0
BLOCK_RECORD
  5
2AC
100
AcDbSymbolTableRecord
100
AcDbBlockTableRecord
  2
_CLOSEDFILLED
  0
BLOCK_RECORD
  5
59A
100
AcDbSymbolTableRecord
100
AcDbBlockTableRecord
  2
ABViewer_RedLine
  0
BLOCK_RECORD
  5
5DD
100
AcDbSymbolTableRecord
100
AcDbBlockTableRecord
  2
ABViewer
  0
ENDTAB
  0
TABLE
  2
STYLE
  5
3
100
AcDbSymbolTable
  0
STYLE
  5
11
100
AcDbSymbolTableRecord
100
AcDbTextStyleTableRecord
  2
Standard
 70
0
 40
0
 41
1
 50
0
 71
0
 42
0.125
  3
txt
  4

1001
ACAD
1000

1071
0
  0
STYLE
  5
62
100
AcDbSymbolTableRecord
100
AcDbTextStyleTableRecord
  2
SLDTEXTSTYLE0
 70
0
 40
0
 41
0.525406360626221
 50
0
 71
0
 42
0.200000002980232
  3
TXT
  4

1001
ACAD
1000

1071
0
  0
STYLE
  5
AA
100
AcDbSymbolTableRecord
100
AcDbTextStyleTableRecord
  2
SLDTEXTSTYLE1
 70
0
 40
0
 41
0.75
 50
0
 71
0
 42
0.200000002980232
  3
TXT
  4

1001
ACAD
1000

1071
0
  0
STYLE
  5
C7
100
AcDbSymbolTableRecord
100
AcDbTextStyleTableRecord
  2
SLDTEXTSTYLE2
 70
0
 40
0
 41
0.6875
 50
0
 71
0
 42
0.200000002980232
  3
TXT
  4

1001
ACAD
1000

1071
0
  0
STYLE
  5
CB
100
AcDbSymbolTableRecord
100
AcDbTextStyleTableRecord
  2
SLDTEXTSTYLE3
 70
0
 40
0
 41
0.694444417953491
 50
0
 71
0
 42
0.200000002980232
  3
TXT
  4

1001
ACAD
1000

1071
0
  0
ENDTAB
  0
TABLE
  2
LTYPE
  5
5
100
AcDbSymbolTable
  0
LTYPE
  5
16
100
AcDbSymbolTableRecord
100
AcDbLinetypeTableRecord
  2
CONTINUOUS
 70
0
  3

 72
65
 73
0
 40
0
  0
LTYPE
  5
14
100
AcDbSymbolTableRecord
100
AcDbLinetypeTableRecord
  2
BYBLOCK
 70
0
  3

 72
65
 73
0
 40
0
  0
LTYPE
  5
15
100
AcDbSymbolTableRecord
100
AcDbLinetypeTableRecord
  2
BYLAYER
 70
0
  3

 72
65
 73
0
 40
0
  0
LTYPE
  5
3F
100
AcDbSymbolTableRecord
100
AcDbLinetypeTableRecord
  2
HIDDEN
 70
0
  3
_ 
 72
65
 73
2
 40
0.075
 49
0.05
 74
0
 49
-0.025
 74
0
  0
LTYPE
  5
40
100
AcDbSymbolTableRecord
100
AcDbLinetypeTableRecord
  2
PHANTOM
 70
0
  3
_ _ _ 
 72
65
 73
6
 40
0.5
 49
0.25
 74
0
 49
-0.05
 74
0
 49
0.05
 74
0
 49
-0.05
 74
0
 49
0.05
 74
0
 49
-0.05
 74
0
  0
LTYPE
  5
41
100
AcDbSymbolTableRecord
100
AcDbLinetypeTableRecord
  2
CENTER
 70
0
  3
_ _ 
 72
65
 73
4
 40
0.4
 49
0.25
 74
0
 49
-0.05
 74
0
 49
0.05
 74
0
 49
-0.05
 74
0
  0
LTYPE
  5
42
100
AcDbSymbolTableRecord
100
AcDbLinetypeTableRecord
  2
CENTERX2
 70
0
  3
_ _ 
 72
65
 73
4
 40
0.8
 49
0.5
 74
0
 49
-0.1
 74
0
 49
0.1
 74
0
 49
-0.1
 74
0
  0
LTYPE
  5
43
100
AcDbSymbolTableRecord
100
AcDbLinetypeTableRecord
  2
DOT2
 70
0
  3
. 
 72
65
 73
2
 40
0.025
 49
0
 74
0
 49
-0.025
 74
0
  0
LTYPE
  5
59B
100
AcDbSymbolTableRecord
100
AcDbLinetypeTableRecord
  2
ISO dash
 70
0
  3
_ 
 72
65
 73
2
 40
1.5
 49
1.2
 74
0
 49
-0.3
 74
0
  0
LTYPE
  5
59C
100
AcDbSymbolTableRecord
100
AcDbLinetypeTableRecord
  2
ISO dot
 70
0
  3
. 
 72
65
 73
2
 40
0.3
 49
0
 74
0
 49
-0.3
 74
0
  0
LTYPE
  5
59D
100
AcDbSymbolTableRecord
100
AcDbLinetypeTableRecord
  2
ISO dash dot
 70
0
  3
_ . 
 72
65
 73
4
 40
1.8
 49
1.2
 74
0
 49
-0.3
 74
0
 49
0
 74
0
 49
-0.3
 74
0
  0
LTYPE
  5
59E
100
AcDbSymbolTableRecord
100
AcDbLinetypeTableRecord
  2
ISO dash double-dot
 70
0
  3
_ . . 
 72
65
 73
6
 40
2.1
 49
1.2
 74
0
 49
-0.3
 74
0
 49
0
 74
0
 49
-0.3
 74
0
 49
0
 74
0
 49
-0.3
 74
0
  0
LTYPE
  5
59F
100
AcDbSymbolTableRecord
100
AcDbLinetypeTableRecord
  2
ISO dash triple-dot
 70
0
  3
_ . . . 
 72
65
 73
8
 40
2.4
 49
1.2
 74
0
 49
-0.3
 74
0
 49
0
 74
0
 49
-0.3
 74
0
 49
0
 74
0
 49
-0.3
 74
0
 49
0
 74
0
 49
-0.3
 74
0
  0
LTYPE
  5
5A0
100
AcDbSymbolTableRecord
100
AcDbLinetypeTableRecord
  2
ISO dash long gaps
 70
0
  3
_ 
 72
65
 73
2
 40
3
 49
1.2
 74
0
 49
-1.8
 74
0
  0
ENDTAB
  0
TABLE
  2
LAYER
  5
2
100
AcDbSymbolTable
  0
LAYER
  5
10
100
AcDbSymbolTableRecord
100
AcDbLayerTableRecord
  2
0
 70
0
 62
7
  6
CONTINUOUS
290
1
370
-3
390
0
  0
LAYER
  5
44
100
AcDbSymbolTableRecord
100
AcDbLayerTableRecord
  2
FORMAT
 70
0
 62
7
  6
CONTINUOUS
290
1
370
-3
390
0
  0
LAYER
  5
45
100
AcDbSymbolTableRecord
100
AcDbLayerTableRecord
  2
SLD-0
 70
0
 62
7
  6
CONTINUOUS
290
1
370
-3
390
0
  0
ENDTAB
  0
TABLE
  2
VPORT
  5
5E1
100
AcDbSymbolTable
  0
VPORT
  5
5E3
100
AcDbSymbolTableRecord
100
AcDbViewportTableRecord
  2
*ACTIVE
 70
0
 10
0
 20
0
 11
1
 21
1
 12
9.73967450271247
 22
6.77345388788427
 32
0
 13
0
 23
0
 14
1
 24
1
 15
1
 25
1
 16
0
 26
0
 36
1
 17
0
 27
0
 37
0
 40
7.04
 41
2.28933092224231
 42
50
 43
0
 44
0
 50
0
 51
0
 71
0
 72
100
 73
1
 74
1
 75
0
 76
0
 77
0
 78
0
  0
ENDTAB
  0
TABLE
  2
VIEW
  5
5E4
100
AcDbSymbolTable
  0
ENDTAB
  0
TABLE
  2
UCS
  5
5E5
100
AcDbSymbolTable
  0
ENDTAB
  0
TABLE
  2
DIMSTYLE
  5
A
100
AcDbSymbolTable
 70
8
100
AcDbDimStyleTable
 71
0
  0
DIMSTYLE
105
27
100
AcDbSymbolTableRecord
100
AcDbDimStyleTableRecord
  2
Standard
 70
0
  3

 40
1
 41
0.18
 42
0.0625
 44
0.18
 47
0
 48
0
 73
1
 74
1
 75
0
 76
0
 77
0
140
0.18
141
0.09
144
1
147
0.09
173
0
174
0
176
0
177
0
178
0
277
2
278
46
281
0
282
0
271
4
340
11
371
-2
372
-2
  0
DIMSTYLE
105
182
100
AcDbSymbolTableRecord
100
AcDbDimStyleTableRecord
  2
SLDDIMSTYLE1
 70
0
  3

 40
1
 41
0.13
 42
0.0625
 44
0
 47
0
 48
0
 73
1
 74
1
 75
0
 76
0
 77
0
140
0.125
141
0.09
144
1
147
0.03125
173
1
174
0
176
0
177
0
178
0
277
2
278
46
281
0
282
0
271
3
340
AA
371
-2
372
-2
  0
DIMSTYLE
105
1A5
100
AcDbSymbolTableRecord
100
AcDbDimStyleTableRecord
  2
SLDDIMSTYLE2
 70
0
  3

 40
1
 41
0.13
 42
0.0625
 44
0
 47
0
 48
0
 73
1
 74
1
 75
0
 76
0
 77
0
140
0.125
141
0.09
144
1
147
0.03125
173
1
174
0
176
0
177
0
178
0
277
2
278
46
281
0
282
0
271
3
340
AA
371
-2
372
-2
  0
DIMSTYLE
105
1BD
100
AcDbSymbolTableRecord
100
AcDbDimStyleTableRecord
  2
SLDDIMSTYLE3
 70
0
  3

 40
1
 41
0.13
 42
0.0625
 44
0
 47
0
 48
0
 73
1
 74
1
 75
0
 76
0
 77
0
140
0.125
141
0
144
1
147
0.03125
173
1
174
0
176
0
177
0
178
0
277
2
278
46
281
0
282
0
271
3
340
AA
371
-2
372
-2
  0
DIMSTYLE
105
1C7
100
AcDbSymbolTableRecord
100
AcDbDimStyleTableRecord
  2
SLDDIMSTYLE4
 70
0
  3

 40
1
 41
0.13
 42
0.0625
 44
0
 47
0
 48
0
 73
1
 74
1
 75
0
 76
0
 77
0
140
0.125
141
0
144
1
147
0.03125
173
1
174
0
176
0
177
0
178
0
277
2
278
46
281
0
282
0
271
3
340
AA
371
-2
372
-2
  0
DIMSTYLE
105
1E8
100
AcDbSymbolTableRecord
100
AcDbDimStyleTableRecord
  2
SLDDIMSTYLE5
 70
0
  3

 40
1
 41
0.13
 42
0.0625
 44
0
 47
0
 48
0
 73
1
 74
1
 75
0
 76
0
 77
0
140
0.125
141
0
144
1
147
0.03125
173
1
174
0
176
0
177
0
178
0
277
2
278
46
281
0
282
0
271
3
340
AA
371
-2
372
-2
  0
DIMSTYLE
105
278
100
AcDbSymbolTableRecord
100
AcDbDimStyleTableRecord
  2
SLDDIMSTYLE6
 70
0
  3

 40
1
 41
0.13
 42
0.0625
 44
0
 47
0
 48
0
 73
1
 74
1
 75
0
 76
0
 77
0
140
0.125
141
0.09
144
1
147
0.03125
173
1
174
0
176
0
177
0
178
0
277
2
278
46
281
0
282
0
271
3
340
AA
371
-2
372
-2
  0
DIMSTYLE
105
177
100
AcDbSymbolTableRecord
100
AcDbDimStyleTableRecord
  2
SLDDIMSTYLE0
 70
0
  3

 40
1
 41
0.13
 42
0.0625
 44
0
 47
0
 48
0
 73
1
 74
1
 75
0
 76
0
 77
0
140
0.125
141
0
144
1
147
0.03125
173
1
174
0
176
0
177
0
178
0
277
2
278
46
281
0
282
0
271
3
340
AA
371
-2
372
-2
  0
ENDTAB
  0
ENDSEC
  0
SECTION
  2
BLOCKS
  0
BLOCK
  5
5E6
100
AcDbEntity
  8
0
100
AcDbBlockBegin
  2
*MODEL_SPACE
 70
0
 10
0
 20
0
  0
ENDBLK
  5
5E7
100
AcDbEntity
  8
0
100
AcDbBlockEnd
  0
BLOCK
  5
5E8
100
AcDbEntity
  8
0
100
AcDbBlockBegin
  2
*PAPER_SPACE
 70
0
 10
0
 20
0
  0
ENDBLK
  5
5E9
100
AcDbEntity
  8
0
100
AcDbBlockEnd
  0
BLOCK
  5
47
100
AcDbEntity
  8
0
100
AcDbBlockBegin
  2
logo
 70
64
 10
0
 20
0
 30
0
  3
logo
  1

  0
HATCH
  5
49
100
AcDbEntity
  8
0
100
AcDbHatch
370
-1
 62
7
 10
0
 20
0
 30
0
210
0
220
0
230
1
  2
SOLID
 70
1
 71
0
 91
2
 92
0
 93
11
 72
4
 94
3
 73
0
 74
0
 95
8
 96
4
 40
4
 40
4
 40
4
 40
4
 40
5
 40
5
 40
5
 40
5
 10
0.121887287409144
 20
0.451823214618979
 10
0.169596466006114
 20
0.38159883020226
 10
0.245110567452775
 20
0.333889651605288
 10
0.332567222347802
 20
0.333889651605288
 72
4
 94
3
 73
0
 74
0
 95
8
 96
4
 40
3
 40
3
 40
3
 40
3
 40
4
 40
4
 40
4
 40
4
 10
0.332567222347802
 20
0.333889651605288
 10
0.52336324660468
 20
0.333889651605288
 10
0.629361037858502
 20
0.491570690917035
 10
0.629361037858502
 20
0.669115295845061
 72
4
 94
3
 73
0
 74
0
 95
8
 96
4
 40
2
 40
2
 40
2
 40
2
 40
3
 40
3
 40
3
 40
3
 10
0.629361037858502
 20
0.669115295845061
 10
0.629361037858502
 20
0.838711761851175
 10
0.516737536940253
 20
0.99374116095945
 10
0.337863721066244
 20
0.99374116095945
 72
4
 94
3
 73
0
 74
0
 95
8
 96
4
 40
1
 40
1
 40
1
 40
1
 40
2
 40
2
 40
2
 40
2
 10
0.337863721066244
 20
0.99374116095945
 10
0.245110567452775
 20
0.99374116095945
 10
0.170918895263599
 20
0.946031982362482
 10
0.121887287409144
 20
0.871833528484806
 72
1
 10
0.121887287409144
 20
0.871833528484806
 11
0.119235647205674
 21
0.871833528484806
 72
1
 10
0.119235647205674
 20
0.871833528484806
 11
0.119235647205674
 21
0.975186461223659
 72
1
 10
0.119235647205674
 20
0.975186461223659
 11
0
 21
0.975186461223659
 72
1
 10
0
 20
0.975186461223659
 11
0
 21
1.99840144432528E-15
 72
1
 10
0
 20
2.03042756285857E-15
 11
0.119235647205674
 21
2.03042756285857E-15
 72
1
 10
0.119235647205674
 20
2.03042756285857E-15
 11
0.119235647205674
 21
0.451823214618979
 72
1
 10
0.119235647205674
 20
0.451823214618979
 11
0.121887287409144
 21
0.451823214618979
 97
0
 92
0
 93
2
 72
4
 94
3
 73
0
 74
0
 95
11
 96
7
 40
0
 40
0
 40
0
 40
0
 40
1
 40
1
 40
1
 40
2
 40
2
 40
2
 40
2
 10
0.112623500918248
 20
0.665141226384106
 10
0.112623500918248
 20
0.780402804128824
 10
0.185485962161437
 20
0.887736588017129
 10
0.308722805582066
 20
0.887736588017129
 10
0.437235802655637
 20
0.887736588017129
 10
0.510111827275827
 20
0.785712866224265
 10
0.510111827275827
 20
0.665141226384106
 72
4
 94
3
 73
0
 74
0
 95
11
 96
7
 40
2
 40
2
 40
2
 40
2
 40
3
 40
3
 40
3
 40
4
 40
4
 40
4
 40
4
 10
0.510111827275827
 20
0.665141226384106
 10
0.510111827275827
 20
0.543240375597962
 10
0.438571795290123
 20
0.43989422454761
 10
0.308722805582066
 20
0.43989422454761
 10
0.182847885334967
 20
0.43989422454761
 10
0.112623500918248
 20
0.548543656004902
 10
0.112623500918248
 20
0.665141226384106
 97
0
 75
0
 76
1
 98
0
  0
HATCH
  5
4A
100
AcDbEntity
  8
0
100
AcDbHatch
370
-1
 62
7
 10
0
 20
0
 30
0
210
0
220
0
230
1
  2
SOLID
 70
1
 71
0
 91
2
 92
0
 93
2
 72
4
 94
3
 73
0
 74
0
 95
11
 96
7
 40
0
 40
0
 40
0
 40
0
 40
1
 40
1
 40
1
 40
2
 40
2
 40
2
 40
2
 10
0.690301290718823
 20
0.663812015438121
 10
0.690301290718823
 20
0.476990060642199
 10
0.836053339959202
 20
0.333896433293791
 10
1.02155286549764
 20
0.333896433293791
 10
1.20705239103608
 20
0.333896433293791
 10
1.35279087689946
 20
0.476990060642199
 10
1.35279087689946
 20
0.663812015438121
 72
4
 94
3
 73
0
 74
0
 95
11
 96
7
 40
2
 40
2
 40
2
 40
2
 40
3
 40
3
 40
3
 40
4
 40
4
 40
4
 40
4
 10
1.35279087689946
 20
0.663812015438121
 10
1.35279087689946
 20
0.850633970234044
 10
1.20705239103608
 20
0.993727597582452
 10
1.02155286549764
 20
0.993727597582452
 10
0.836053339959202
 20
0.993727597582452
 10
0.690301290718823
 20
0.850633970234044
 10
0.690301290718823
 20
0.663812015438121
 97
0
 92
0
 93
2
 72
4
 94
3
 73
0
 74
0
 95
11
 96
7
 40
0
 40
0
 40
0
 40
0
 40
1
 40
1
 40
1
 40
2
 40
2
 40
2
 40
2
 10
1.23353488462828
 20
0.663812015438121
 10
1.23353488462828
 20
0.547214445058918
 10
1.13946608344583
 20
0.447842363469521
 10
1.02155286549764
 20
0.447842363469521
 10
0.903619302483951
 20
0.447842363469521
 10
0.809550501301498
 20
0.547214445058918
 10
0.809550501301498
 20
0.663812015438121
 72
4
 94
3
 73
0
 74
0
 95
11
 96
7
 40
2
 40
2
 40
2
 40
2
 40
3
 40
3
 40
3
 40
4
 40
4
 40
4
 40
4
 10
0.809550501301498
 20
0.663812015438121
 10
0.809550501301498
 20
0.78174557845181
 10
0.903619302483951
 20
0.879781667406719
 10
1.02155286549764
 20
0.879781667406719
 10
1.13946608344583
 20
0.879781667406719
 10
1.23353488462828
 20
0.78174557845181
 10
1.23353488462828
 20
0.663812015438121
 97
0
 75
0
 76
1
 98
0
  0
HATCH
  5
4B
100
AcDbEntity
  8
0
100
AcDbHatch
370
-1
 62
7
 10
0
 20
0
 30
0
210
0
220
0
230
1
  2
SOLID
 70
1
 71
0
 91
1
 92
0
 93
4
 72
1
 10
1.55946283393466
 20
0.355095991544553
 11
1.55946283393466
 21
1.50518219918126
 72
1
 10
1.55946283393466
 20
1.50518219918127
 11
1.44022718672899
 21
1.50518219918127
 72
1
 10
1.44022718672899
 20
1.50518219918127
 11
1.44022718672899
 21
0.355095991544553
 72
1
 10
1.44022718672899
 20
0.355095991544553
 11
1.55946283393466
 21
0.355095991544553
 97
0
 75
0
 76
1
 98
0
  0
HATCH
  5
4C
100
AcDbEntity
  8
0
100
AcDbHatch
370
-1
 62
7
 10
0
 20
0
 30
0
210
0
220
0
230
1
  2
SOLID
 70
1
 71
0
 91
2
 92
0
 93
16
 72
4
 94
3
 73
0
 74
0
 95
8
 96
4
 40
7
 40
7
 40
7
 40
7
 40
8
 40
8
 40
8
 40
8
 10
4.66949770822224
 20
0.412896322613018
 10
4.66949770822224
 20
0.3157757616056
 10
4.59049103719812
 20
0.23675552720448
 10
4.4933636945022
 20
0.23675552720448
 72
1
 10
4.4933636945022
 20
0.23675552720448
 11
2.35614847219347
 21
0.23675552720448
 72
4
 94
3
 73
0
 74
0
 95
8
 96
4
 40
1
 40
1
 40
1
 40
1
 40
2
 40
2
 40
2
 40
2
 10
2.35614847219347
 20
0.23675552720448
 10
2.25902112949755
 20
0.23675552720448
 10
2.18000767678493
 20
0.3157757616056
 10
2.18000767678493
 20
0.412896322613018
 72
1
 10
2.18000767678493
 20
0.412896322613018
 11
2.18000767678493
 21
0.780524545991209
 72
1
 10
2.18000767678493
 20
0.780524545991209
 11
1.77808412610673
 21
6.78168850476446E-6
 72
1
 10
1.77808412610673
 20
6.78168850472774E-6
 11
1.64292507430323
 21
6.78168850472774E-6
 72
1
 10
1.64292507430323
 20
6.78168850472774E-6
 11
1.88671999418702
 21
0.461087001109876
 72
1
 10
1.88671999418702
 20
0.461087001109876
 11
1.60317759800517
 21
0.975186461223659
 72
1
 10
1.60317759800517
 20
0.975186461223659
 11
1.74230393758113
 21
0.975186461223659
 72
1
 10
1.74230393758113
 20
0.975186461223659
 11
1.9516478798853
 21
0.581672204327034
 72
1
 10
1.9516478798853
 20
0.581672204327034
 11
2.14641119191463
 21
0.975186461223659
 72
1
 10
2.14641119191463
 20
0.975186461223659
 11
2.19215273887356
 21
0.975186461223659
 72
4
 94
3
 73
0
 74
0
 95
8
 96
4
 40
3.23346423527987
 40
3.23346423527987
 40
3.23346423527987
 40
3.23346423527987
 40
4
 40
4
 40
4
 40
4
 10
2.19215273887356
 20
0.975186461223659
 10
2.21788861493454
 20
1.04061035592193
 10
2.28169689028482
 20
1.08703684963652
 10
2.35614847219347
 20
1.08703684963652
 72
1
 10
2.35614847219347
 20
1.08703684963652
 11
4.4933636945022
 21
1.08703684963652
 72
4
 94
3
 73
0
 74
0
 95
8
 96
4
 40
5
 40
5
 40
5
 40
5
 40
6
 40
6
 40
6
 40
6
 10
4.4933636945022
 20
1.08703684963652
 10
4.59049103719812
 20
1.08703684963652
 10
4.66949770822224
 20
1.0080233969239
 10
4.66949770822224
 20
0.910896054227983
 72
1
 10
4.66949770822224
 20
0.910896054227983
 11
4.66949770822224
 21
0.412896322613018
 97
0
 92
0
 93
10
 72
1
 10
2.21477849645043
 20
0.975186461223659
 11
2.28024781446064
 21
0.975186461223659
 72
1
 10
2.28024781446064
 20
0.975186461223659
 11
2.20084102385632
 21
0.820981984854067
 72
1
 10
2.20084102385632
 20
0.820981984854067
 11
2.20084102385632
 21
0.412896322610564
 72
4
 94
3
 73
0
 74
0
 95
8
 96
4
 40
2
 40
2
 40
2
 40
2
 40
3
 40
3
 40
3
 40
3
 10
2.20084102385632
 20
0.412896322610564
 10
2.20084102385632
 20
0.327257160233518
 10
2.27050930981604
 20
0.257588874273794
 10
2.35614847219309
 20
0.257588874273794
 72
1
 10
2.35614847219309
 20
0.257588874273794
 11
4.49336369450183
 21
0.257588874273794
 72
4
 94
3
 73
0
 74
0
 95
8
 96
4
 40
4
 40
4
 40
4
 40
4
 40
5
 40
5
 40
5
 40
5
 10
4.49336369450183
 20
0.257588874273794
 10
4.57900285687887
 20
0.257588874273794
 10
4.6486643611501
 20
0.327257160233518
 10
4.6486643611501
 20
0.412896322610564
 72
1
 10
4.6486643611501
 20
0.412896322610564
 11
4.6486643611501
 21
0.910896054225529
 72
4
 94
3
 73
0
 74
0
 95
8
 96
4
 40
6
 40
6
 40
6
 40
6
 40
7
 40
7
 40
7
 40
7
 10
4.6486643611501
 20
0.910896054225529
 10
4.6486643611501
 20
0.996535216602575
 10
4.57900285687887
 20
1.0662035025623
 10
4.49336369450183
 20
1.0662035025623
 72
1
 10
4.49336369450183
 20
1.0662035025623
 11
2.35614847219309
 21
1.0662035025623
 72
4
 94
3
 73
0
 74
0
 95
8
 96
4
 40
0
 40
0
 40
0
 40
0
 40
0.732403228702693
 40
0.732403228702693
 40
0.732403228702693
 40
0.732403228702693
 10
2.35614847219309
 20
1.0662035025623
 10
2.29342607316475
 20
1.0662035025623
 10
2.2392706836553
 20
1.02883242452086
 10
2.21477849645043
 20
0.975186461223659
 97
0
 75
0
 76
1
 98
0
  0
HATCH
  5
4D
100
AcDbEntity
  8
0
100
AcDbHatch
370
-1
 62
7
 10
0
 20
0
 30
0
210
0
220
0
230
1
  2
SOLID
 70
1
 71
0
 91
1
 92
0
 93
10
 72
4
 94
3
 73
0
 74
0
 95
8
 96
4
 40
8
 40
8
 40
8
 40
8
 40
9
 40
9
 40
9
 40
9
 10
2.80624235620329
 20
0.904962076806938
 10
2.74528853996597
 20
0.956624979799365
 10
2.67241251534578
 20
0.980489741630597
 10
2.59292434443816
 20
0.980489741630597
 72
4
 94
3
 73
0
 74
0
 95
8
 96
4
 40
7
 40
7
 40
7
 40
7
 40
8
 40
8
 40
8
 40
8
 10
2.59292434443816
 20
0.980489741630597
 10
2.41272809930667
 20
0.980489741630597
 10
2.27757582919167
 20
0.840027409420161
 10
2.27757582919167
 20
0.662489586180637
 72
4
 94
3
 73
0
 74
0
 95
8
 96
4
 40
6
 40
6
 40
6
 40
6
 40
7
 40
7
 40
7
 40
7
 10
2.27757582919167
 20
0.662489586180637
 10
2.27757582919167
 20
0.483608988618125
 10
2.4100764591032
 20
0.341844572215702
 10
2.59158835180368
 20
0.341844572215702
 72
4
 94
3
 73
0
 74
0
 95
8
 96
4
 40
5
 40
5
 40
5
 40
5
 40
6
 40
6
 40
6
 40
6
 10
2.59158835180368
 20
0.341844572215702
 10
2.67374172629177
 20
0.341844572215702
 10
2.7519210313189
 20
0.372321480334362
 10
2.8141904951252
 20
0.426642805218756
 72
1
 10
2.8141904951252
 20
0.426642805218757
 11
2.8141904951252
 21
0.507460187072359
 72
4
 94
3
 73
0
 74
0
 95
8
 96
4
 40
3
 40
3
 40
3
 40
3
 40
4
 40
4
 40
4
 40
4
 10
2.8141904951252
 20
0.507460187072359
 10
2.75853995929482
 20
0.439887442859109
 10
2.67638658480674
 20
0.397501889734581
 10
2.58893671160021
 20
0.397501889734581
 72
4
 94
3
 73
0
 74
0
 95
8
 96
4
 40
2
 40
2
 40
2
 40
2
 40
3
 40
3
 40
3
 40
3
 10
2.58893671160021
 20
0.397501889734581
 10
2.44452065499432
 20
0.397501889734581
 10
2.33720043448301
 20
0.523376809981682
 10
2.33720043448301
 20
0.662489586180637
 72
4
 94
3
 73
0
 74
0
 95
8
 96
4
 40
1
 40
1
 40
1
 40
1
 40
2
 40
2
 40
2
 40
2
 10
2.33720043448301
 20
0.662489586180637
 10
2.33720043448301
 20
0.801615925756588
 10
2.4458566476288
 20
0.92483242411172
 10
2.59027270423469
 20
0.92483242411172
 72
4
 94
3
 73
0
 74
0
 95
8
 96
4
 40
0
 40
0
 40
0
 40
0
 40
1
 40
1
 40
1
 40
1
 10
2.59027270423469
 20
0.92483242411172
 10
2.67771579575272
 20
0.92483242411172
 10
2.74794696185794
 20
0.889059017274615
 10
2.80624235620329
 20
0.825460342522321
 72
1
 10
2.80624235620329
 20
0.825460342522321
 11
2.80624235620329
 21
0.904962076806938
 97
0
 75
0
 76
1
 98
0
  0
HATCH
  5
4E
100
AcDbEntity
  8
0
100
AcDbHatch
370
-1
 62
7
 10
0
 20
0
 30
0
210
0
220
0
230
1
  2
SOLID
 70
1
 71
0
 91
2
 92
0
 93
8
 72
4
 94
3
 73
0
 74
0
 95
8
 96
4
 40
6
 40
6
 40
6
 40
6
 40
7
 40
7
 40
7
 40
7
 10
4.55385635587986
 20
0.65586387651621
 10
4.55517200344884
 20
0.83207927049825
 10
4.44520014273407
 20
0.980489741630597
 10
4.25970739888413
 20
0.980489741630597
 72
4
 94
3
 73
0
 74
0
 95
8
 96
4
 40
5
 40
5
 40
5
 40
5
 40
6
 40
6
 40
6
 40
6
 10
4.25970739888413
 20
0.980489741630597
 10
4.08083358301012
 20
0.980489741630597
 10
3.96291358337343
 20
0.833401699755734
 10
3.96291358337343
 20
0.662482804492134
 72
4
 94
3
 73
0
 74
0
 95
8
 96
4
 40
4
 40
4
 40
4
 40
4
 40
5
 40
5
 40
5
 40
5
 10
3.96291358337343
 20
0.662482804492134
 10
3.96291358337343
 20
0.488919050713564
 10
4.07818872449515
 20
0.341844572215702
 10
4.25970739888413
 20
0.341844572215702
 72
4
 94
3
 73
0
 74
0
 95
8
 96
4
 40
3
 40
3
 40
3
 40
3
 40
4
 40
4
 40
4
 40
4
 10
4.25970739888413
 20
0.341844572215702
 10
4.38028582041279
 20
0.341844572215702
 10
4.4783083459907
 20
0.401469177507038
 10
4.53397244519808
 20
0.50747375044936
 72
1
 10
4.53397244519808
 20
0.507473750449359
 11
4.48362518977464
 21
0.536607884245035
 72
4
 94
3
 73
0
 74
0
 95
8
 96
4
 40
1
 40
1
 40
1
 40
1
 40
2
 40
2
 40
2
 40
2
 10
4.48362518977464
 20
0.536607884245035
 10
4.43989686232713
 20
0.454474854822448
 10
4.36306033162298
 20
0.397501889734581
 10
4.26765553780604
 20
0.397501889734581
 72
4
 94
3
 73
0
 74
0
 95
8
 96
4
 40
0
 40
0
 40
0
 40
0
 40
1
 40
1
 40
1
 40
1
 10
4.26765553780604
 20
0.397501889734581
 10
4.12587755802662
 20
0.397501889734581
 10
4.01856411920381
 20
0.500848040784933
 10
4.02253818866477
 20
0.65586387651621
 72
1
 10
4.02253818866477
 20
0.65586387651621
 11
4.55385635587986
 21
0.65586387651621
 97
0
 92
0
 93
3
 72
4
 94
3
 73
0
 74
0
 95
8
 96
4
 40
1
 40
1
 40
1
 40
1
 40
2
 40
2
 40
2
 40
2
 10
4.02253818866477
 20
0.711514412346591
 10
4.03313118610165
 20
0.826789553468308
 10
4.1364841188405
 20
0.92483242411172
 10
4.26103660983012
 20
0.92483242411172
 72
4
 94
3
 73
0
 74
0
 95
8
 96
4
 40
0
 40
0
 40
0
 40
0
 40
1
 40
1
 40
1
 40
1
 10
4.26103660983012
 20
0.92483242411172
 10
4.38689118501171
 20
0.92483242411172
 10
4.47965112031368
 20
0.824137913264837
 10
4.49423175058852
 20
0.711514412346591
 72
1
 10
4.49423175058852
 20
0.711514412346591
 11
4.02253818866477
 21
0.711514412346591
 97
0
 75
0
 76
1
 98
0
  0
HATCH
  5
4F
100
AcDbEntity
  8
0
100
AcDbHatch
370
-1
 62
7
 10
0
 20
0
 30
0
210
0
220
0
230
1
  2
SOLID
 70
1
 71
0
 91
2
 92
0
 93
11
 72
4
 94
3
 73
0
 74
0
 95
8
 96
4
 40
6
 40
6
 40
6
 40
6
 40
7
 40
7
 40
7
 40
7
 10
3.39186828492578
 20
0.861240531047924
 10
3.34019181855635
 20
0.938083843440569
 10
3.25009030514636
 20
0.980489741630597
 10
3.1560147222754
 20
0.980489741630597
 72
4
 94
3
 73
0
 74
0
 95
8
 96
4
 40
5
 40
5
 40
5
 40
5
 40
6
 40
6
 40
6
 40
6
 10
3.1560147222754
 20
0.980489741630597
 10
2.97185118937145
 20
0.980489741630597
 10
2.85657604824973
 20
0.844001478881117
 10
2.85657604824973
 20
0.665141226384106
 72
4
 94
3
 73
0
 74
0
 95
8
 96
4
 40
4
 40
4
 40
4
 40
4
 40
5
 40
5
 40
5
 40
5
 10
2.85657604824973
 20
0.665141226384106
 10
2.85657604824973
 20
0.486267410510095
 10
2.97318040031744
 20
0.3418513539042
 10
3.15867314416737
 20
0.3418513539042
 72
4
 94
3
 73
0
 74
0
 95
8
 96
4
 40
3
 40
3
 40
3
 40
3
 40
4
 40
4
 40
4
 40
4
 10
3.15867314416737
 20
0.3418513539042
 10
3.24876109420037
 20
0.3418513539042
 10
3.34681074653228
 20
0.3868885472322
 10
3.39186828492578
 20
0.46507463394783
 72
1
 10
3.39186828492578
 20
0.46507463394783
 11
3.39451314344075
 21
0.46507463394783
 72
1
 10
3.39451314344075
 20
0.46507463394783
 11
3.39451314344075
 21
0.355102773233053
 72
1
 10
3.39451314344075
 20
0.355102773233053
 11
3.45413774873209
 21
0.355102773233053
 72
1
 10
3.45413774873209
 20
0.355102773233053
 11
3.45413774873209
 21
0.967224758924745
 72
1
 10
3.45413774873209
 20
0.967224758924745
 11
3.39451314344075
 21
0.967224758924744
 72
1
 10
3.39451314344075
 20
0.967224758924744
 11
3.39451314344075
 21
0.861240531047924
 72
1
 10
3.39451314344075
 20
0.861240531047924
 11
3.39186828492578
 21
0.861240531047924
 97
0
 92
0
 93
2
 72
4
 94
3
 73
0
 74
0
 95
11
 96
7
 40
0
 40
0
 40
0
 40
0
 40
1
 40
1
 40
1
 40
2
 40
2
 40
2
 40
2
 10
3.39848721290171
 20
0.671766936048533
 10
3.39848721290171
 20
0.524699239239167
 10
3.31368897989865
 20
0.397488326357582
 10
3.15734393322139
 20
0.397488326357582
 10
3.00894702546604
 20
0.397488326357582
 10
2.91620065354107
 20
0.524699239239167
 10
2.91620065354107
 20
0.665141226384106
 72
4
 94
3
 73
0
 74
0
 95
11
 96
7
 40
2
 40
2
 40
2
 40
2
 40
3
 40
3
 40
3
 40
4
 40
4
 40
4
 40
4
 10
2.91620065354107
 20
0.665141226384106
 10
2.91620065354107
 20
0.797641856295632
 10
3.01292109492699
 20
0.924839205800216
 10
3.15336986376043
 20
0.924839205800216
 10
3.30176677151578
 20
0.924839205800216
 10
3.39848721290171
 20
0.813544915827957
 10
3.39848721290171
 20
0.671766936048533
 97
0
 75
0
 76
1
 98
0
  0
HATCH
  5
50
100
AcDbEntity
  8
0
100
AcDbHatch
370
-1
 62
7
 10
0
 20
0
 30
0
210
0
220
0
230
1
  2
SOLID
 70
1
 71
0
 91
1
 92
0
 93
13
 72
4
 94
3
 73
0
 74
0
 95
8
 96
4
 40
11
 40
11
 40
11
 40
11
 40
12
 40
12
 40
12
 40
12
 10
3.73104765356101
 20
0.980476178253598
 10
3.79331711736732
 20
0.980476178253598
 10
3.86088986158056
 20
0.939413054386554
 10
3.88739270023827
 20
0.882440089298689
 72
1
 10
3.88739270023827
 20
0.882440089298689
 11
3.83571623386885
 21
0.855937250640984
 72
4
 94
3
 73
0
 74
0
 95
8
 96
4
 40
0
 40
0
 40
0
 40
0
 40
1
 40
1
 40
1
 40
1
 10
3.83571623386885
 20
0.855937250640984
 10
3.81584588656406
 20
0.898343148831014
 10
3.77609162857751
 20
0.924825642423218
 10
3.72840279504604
 20
0.924825642423218
 72
4
 94
3
 73
0
 74
0
 95
8
 96
4
 40
1
 40
1
 40
1
 40
1
 40
2
 40
2
 40
2
 40
2
 10
3.72840279504604
 20
0.924825642423218
 10
3.67672632867661
 20
0.924825642423218
 10
3.6237206513612
 20
0.882440089298689
 10
3.6237206513612
 20
0.829434411983279
 72
4
 94
3
 73
0
 74
0
 95
8
 96
4
 40
2
 40
2
 40
2
 40
2
 40
3
 40
3
 40
3
 40
3
 10
3.6237206513612
 20
0.829434411983279
 10
3.6237206513612
 20
0.682366715173915
 10
3.92184367781789
 20
0.753913528848118
 10
3.92184367781789
 20
0.532647378161078
 72
4
 94
3
 73
0
 74
0
 95
8
 96
4
 40
3
 40
3
 40
3
 40
3
 40
4
 40
4
 40
4
 40
4
 10
3.92184367781789
 20
0.532647378161078
 10
3.92184367781789
 20
0.420023877242832
 10
3.83440058629986
 20
0.341837790527202
 10
3.72442872558508
 20
0.341837790527202
 72
4
 94
3
 73
0
 74
0
 95
8
 96
4
 40
4
 40
4
 40
4
 40
4
 40
5
 40
5
 40
5
 40
5
 10
3.72442872558508
 20
0.341837790527202
 10
3.62240500379222
 20
0.341837790527202
 10
3.53892241835815
 20
0.40412081771051
 10
3.51374879064643
 20
0.503492899299902
 72
1
 10
3.51374879064643
 20
0.503492899299902
 11
3.57205774836877
 21
0.522034035658697
 72
4
 94
3
 73
0
 74
0
 95
8
 96
4
 40
6
 40
6
 40
6
 40
6
 40
7
 40
7
 40
7
 40
7
 10
3.57205774836877
 20
0.522034035658697
 10
3.59457295418853
 20
0.449171574415508
 10
3.64360456204298
 20
0.397495108046083
 10
3.72442872558508
 20
0.397495108046083
 72
4
 94
3
 73
0
 74
0
 95
8
 96
4
 40
7
 40
7
 40
7
 40
7
 40
8
 40
8
 40
8
 40
8
 10
3.72442872558508
 20
0.397495108046083
 10
3.80126525628923
 20
0.397495108046083
 10
3.86221907252655
 20
0.458435360906405
 10
3.86221907252655
 20
0.535299018364549
 72
4
 94
3
 73
0
 74
0
 95
8
 96
4
 40
8
 40
8
 40
8
 40
8
 40
9
 40
9
 40
9
 40
9
 10
3.86221907252655
 20
0.535299018364549
 10
3.86221907252655
 20
0.61081311981121
 10
3.8039236781812
 20
0.634657536576945
 10
3.74296986194387
 20
0.655870658204708
 72
4
 94
3
 73
0
 74
0
 95
8
 96
4
 40
9
 40
9
 40
9
 40
9
 40
10
 40
10
 40
10
 40
10
 10
3.74296986194387
 20
0.655870658204708
 10
3.6594872765098
 20
0.686340784634871
 10
3.56409604606987
 20
0.722120973160472
 10
3.56409604606987
 20
0.825467124210824
 72
4
 94
3
 73
0
 74
0
 95
8
 96
4
 40
10
 40
10
 40
10
 40
10
 40
11
 40
11
 40
11
 40
11
 10
3.56409604606987
 20
0.825467124210824
 10
3.56409604606987
 20
0.918199932758791
 10
3.642275351097
 20
0.980476178253598
 10
3.73104765356101
 20
0.980476178253598
 97
0
 75
0
 76
1
 98
0
  0
ENDBLK
  5
5EA
100
AcDbEntity
  8
0
100
AcDbBlockEnd
  0
BLOCK
  5
52
100
AcDbEntity
  8
0
100
AcDbBlockBegin
  2
ThirdAngleProjectionBlock
 70
64
 10
0
 20
0
 30
0
  3
ThirdAngleProjectionBlock
  1

  0
CIRCLE
  5
54
100
AcDbEntity
  8
0
100
AcDbCircle
 62
7
  6
CONTINUOUS
 10
0.275362605674648
 20
0.25323707939932
 30
0
 40
0.205676263764071
  0
CIRCLE
  5
55
100
AcDbEntity
  8
0
100
AcDbCircle
 62
7
  6
CONTINUOUS
 10
0.275362605674648
 20
0.25323707939932
 30
0
 40
0.078850638039724
  0
LINE
  5
56
100
AcDbEntity
  8
0
100
AcDbLine
 62
7
  6
CENTERX2
 10
-4.86268942872239E-14
 20
0.25323707939932
 30
0
 11
1.20158167242649
 21
0.25323707939932
 31
0
  0
LINE
  5
57
100
AcDbEntity
  8
0
100
AcDbLine
 62
7
  6
CONTINUOUS
 10
0.632306039919218
 20
0.332087717439044
 30
0
 11
0.632306039919218
 21
0.174386441359597
 31
0
  0
LINE
  5
58
100
AcDbEntity
  8
0
100
AcDbLine
 62
7
  6
CONTINUOUS
 10
1.13036839008526
 20
0.458913343163391
 30
0
 11
1.13036839008526
 21
0.0475608156352483
 31
0
  0
LINE
  5
59
100
AcDbEntity
  8
0
100
AcDbLine
 62
7
  6
CONTINUOUS
 10
0.632306039919218
 20
0.332087717439044
 30
0
 11
1.13036839008526
 21
0.458913343163391
 31
0
  0
LINE
  5
5A
100
AcDbEntity
  8
0
100
AcDbLine
 62
7
  6
CONTINUOUS
 10
0.632306039919218
 20
0.174386441359597
 30
0
 11
1.13036839008526
 21
0.0475608156352483
 31
0
  0
LINE
  5
5B
100
AcDbEntity
  8
0
100
AcDbLine
 62
7
  6
CENTERX2
 10
0.275362605674642
 20
0.506474158798637
 30
0
 11
0.275362605674648
 21
0
 31
0
  0
ENDBLK
  5
5EB
100
AcDbEntity
  8
0
100
AcDbBlockEnd
  0
BLOCK
  5
60
100
AcDbEntity
  8
0
100
AcDbBlockBegin
  2
SW_NOTE_0
 70
64
 10
0
 20
0
 30
0
  3
SW_NOTE_0
  1

  0
MTEXT
  5
63
100
AcDbEntity
  8
0
100
AcDbMText
 62
0
 10
0.742300694786505
 20
0.0708987256874581
 30
0
 40
0.055
  1
1305 CHESTER IND. PARKWAY AVON, OHIO 44011-1083 U.S.A.
 50
0
 41
0
  7
SLDTEXTSTYLE0
 71
2
 11
1
 21
0
 31
0
 73
1
 44
1
  0
MTEXT
  5
64
100
AcDbEntity
  8
0
100
AcDbMText
 62
0
 10
0.756426242660403
 20
-0.000219330250690979
 30
0
 40
0.055
  1
PH#: 1-800-248-1233, 440-934-0444 FAX#: 440-934-0088
 50
0
 41
0
  7
SLDTEXTSTYLE0
 71
2
 11
1
 21
0
 31
0
 73
1
 44
1
  0
ENDBLK
  5
5EC
100
AcDbEntity
  8
0
100
AcDbBlockEnd
  0
BLOCK
  5
5D
100
AcDbEntity
  8
0
100
AcDbBlockBegin
  2
POLYCASE LOGO
 70
64
 10
0
 20
0
 30
0
  3
POLYCASE LOGO
  1

  0
INSERT
  5
65
100
AcDbEntity
  8
0
100
AcDbBlockReference
 62
7
  6
CONTINUOUS
  2
SW_NOTE_0
 10
0.834881348495816
 20
-0.564377242308023
 30
0
 41
1
 42
1
 43
1
  0
INSERT
  5
66
100
AcDbEntity
  8
0
100
AcDbBlockReference
370
-1
 62
7
  6
CONTINUOUS
  2
logo
 10
0.101458424104024
 20
-0.571418384460174
 30
0
 41
0.37
 42
0.37
 43
0.37
  0
ENDBLK
  5
5ED
100
AcDbEntity
  8
0
100
AcDbBlockEnd
  0
BLOCK
  5
A8
100
AcDbEntity
  8
0
100
AcDbBlockBegin
  2
SW_NOTE_1
 70
64
 10
0
 20
0
 30
0
  3
SW_NOTE_1
  1

  0
MTEXT
  5
AB
100
AcDbEntity
  8
SLD-0
100
AcDbMText
370
-1
 62
0
 10
0
 20
0.161133467471496
 30
0
 40
0.125
  1
NOTES:
 50
0
 41
0
  7
SLDTEXTSTYLE1
 71
1
 11
1
 21
0
 31
0
 73
1
 44
1
  0
MTEXT
  5
AC
100
AcDbEntity
  8
SLD-0
100
AcDbMText
370
-1
 62
0
 10
0.196850389300838
 20
-0.00323660704471056
 30
0
 40
0.125
  1
INCLUDES .031 CLEARANCE
 50
0
 41
0
  7
SLDTEXTSTYLE1
 71
1
 11
1
 21
0
 31
0
 73
1
 44
1
  0
MTEXT
  5
AD
100
AcDbEntity
  8
SLD-0
100
AcDbMText
370
-1
 62
0
 10
0
 20
-0.00323660704471056
 30
0
 40
0.125
  1
1.
 50
0
 41
0
  7
SLDTEXTSTYLE1
 71
1
 11
1
 21
0
 31
0
 73
1
 44
1
  0
ENDBLK
  5
5EE
100
AcDbEntity
  8
0
100
AcDbBlockEnd
  0
BLOCK
  5
CF
100
AcDbEntity
  8
0
100
AcDbBlockBegin
  2
SW_NOTE_2
 70
64
 10
0
 20
0
 30
0
  3
SW_NOTE_2
  1

  0
MTEXT
  5
D1
100
AcDbEntity
  8
0
100
AcDbMText
 62
0
 10
0.5671875
 20
0.0773440643863179
 30
0
 40
0.06
  1
UNLESS OTHERWISE SPECIFIED:
 50
0
 41
0
  7
SLDTEXTSTYLE1
 71
2
 11
1
 21
0
 31
0
 73
1
 44
1
  0
MTEXT
  5
D2
100
AcDbEntity
  8
0
100
AcDbMText
 62
0
 10
0.56478642416986
 20
-0.0220260101821011
 30
0
 40
0.06
  1
DIMENSIONS ARE IN: INCHES[mm]
 50
0
 41
0
  7
SLDTEXTSTYLE1
 71
2
 11
1
 21
0
 31
0
 73
1
 44
1
  0
MTEXT
  5
D3
100
AcDbEntity
  8
0
100
AcDbMText
 62
0
 10
0.470020895344536
 20
-0.12139608475052
 30
0
 40
0.06
  1
TOLERANCES: ANGULAR:
 50
0
 41
0
  7
SLDTEXTSTYLE1
 71
2
 11
1
 21
0
 31
0
 73
1
 44
1
  0
MTEXT
  5
D4
100
AcDbEntity
  8
0
100
AcDbMText
 62
0
 10
0.985937561104147
 20
-0.12139608475052
 30
0
 40
0.06
  1
%%p
 50
0
 41
0
  7
SLDTEXTSTYLE1
 71
2
 11
1
 21
0
 31
0
 73
1
 44
1
  0
MTEXT
  5
D5
100
AcDbEntity
  8
0
100
AcDbMText
 62
0
 10
1.03746254756929
 20
-0.121396076729779
 30
0
 40
0.06
  1
2
 50
0
 41
0
  7
SLDTEXTSTYLE1
 71
2
 11
1
 21
0
 31
0
 73
1
 44
1
  0
MTEXT
  5
D6
100
AcDbEntity
  8
0
100
AcDbMText
 62
0
 10
1.07737925646108
 20
-0.12139608475052
 30
0
 40
0.06
  1
%%d
 50
0
 41
0
  7
SLDTEXTSTYLE1
 71
2
 11
1
 21
0
 31
0
 73
1
 44
1
  0
MTEXT
  5
D7
100
AcDbEntity
  8
0
100
AcDbMText
 62
0
 10
0.438425064661841
 20
-0.220766159318939
 30
0
 40
0.06
  1
TWO PLACE DECIMAL:
 50
0
 41
0
  7
SLDTEXTSTYLE1
 71
2
 11
1
 21
0
 31
0
 73
1
 44
1
  0
MTEXT
  5
D8
100
AcDbEntity
  8
0
100
AcDbMText
 62
0
 10
0.906612564139948
 20
-0.220766159318939
 30
0
 40
0.06
  1
%%p
 50
0
 41
0
  7
SLDTEXTSTYLE1
 71
2
 11
1
 21
0
 31
0
 73
1
 44
1
  0
MTEXT
  5
D9
100
AcDbEntity
  8
0
100
AcDbMText
 62
0
 10
1.01157505060509
 20
-0.220766151298198
 30
0
 40
0.06
  1
.010
 50
0
 41
0
  7
SLDTEXTSTYLE1
 71
2
 11
1
 21
0
 31
0
 73
1
 44
1
  0
MTEXT
  5
DA
100
AcDbEntity
  8
0
100
AcDbMText
 62
0
 10
0.438055267195534
 20
-0.320136233887358
 30
0
 40
0.06
  1
THREE PLACE DECIMAL:
 50
0
 41
0
  7
SLDTEXTSTYLE1
 71
2
 11
1
 21
0
 31
0
 73
1
 44
1
  0
MTEXT
  5
DB
100
AcDbEntity
  8
0
100
AcDbMText
 62
0
 10
0.924753187911247
 20
-0.320136233887358
 30
0
 40
0.06
  1
%%p
 50
0
 41
0
  7
SLDTEXTSTYLE1
 71
2
 11
1
 21
0
 31
0
 73
1
 44
1
  0
MTEXT
  5
DC
100
AcDbEntity
  8
0
100
AcDbMText
 62
0
 10
1.02971567437639
 20
-0.320136225866617
 30
0
 40
0.06
  1
.005
 50
0
 41
0
  7
SLDTEXTSTYLE1
 71
2
 11
1
 21
0
 31
0
 73
1
 44
1
  0
MTEXT
  5
DD
100
AcDbEntity
  8
0
100
AcDbMText
 62
0
 10
0.444320834206315
 20
-0.419506308455777
 30
0
 40
0.06
  1
PRINTED GRAPHICS:
 50
0
 41
0
  7
SLDTEXTSTYLE1
 71
2
 11
1
 21
0
 31
0
 73
1
 44
1
  0
MTEXT
  5
DE
100
AcDbEntity
  8
0
100
AcDbMText
 62
0
 10
0.856654147930502
 20
-0.419506308455777
 30
0
 40
0.06
  1
%%p
 50
0
 41
0
  7
SLDTEXTSTYLE1
 71
2
 11
1
 21
0
 31
0
 73
1
 44
1
  0
MTEXT
  5
DF
100
AcDbEntity
  8
0
100
AcDbMText
 62
0
 10
0.961616634395648
 20
-0.419506300435036
 30
0
 40
0.06
  1
.010
 50
0
 41
0
  7
SLDTEXTSTYLE1
 71
2
 11
1
 21
0
 31
0
 73
1
 44
1
  0
ENDBLK
  5
5EF
100
AcDbEntity
  8
0
100
AcDbBlockEnd
  0
BLOCK
  5
E2
100
AcDbEntity
  8
0
100
AcDbBlockBegin
  2
SW_NOTE_3
 70
64
 10
0
 20
0
 30
0
  3
SW_NOTE_3
  1

  0
MTEXT
  5
E4
100
AcDbEntity
  8
0
100
AcDbMText
 62
0
 10
0.58265625
 20
0.0708987256874581
 30
0
 40
0.055
  1
PROPRIETARY AND CONFIDENTIAL
 50
0
 41
0
  7
SLDTEXTSTYLE1
 71
2
 11
1
 21
0
 31
0
 73
1
 44
1
  0
MTEXT
  5
E5
100
AcDbEntity
  8
0
100
AcDbMText
 62
0
 10
0.589173076314719
 20
-0.0234713566412979
 30
0
 40
0.055
  1
THE INFORMATION CONTAINED IN THIS
 50
0
 41
0
  7
SLDTEXTSTYLE1
 71
2
 11
1
 21
0
 31
0
 73
1
 44
1
  0
MTEXT
  5
E6
100
AcDbEntity
  8
0
100
AcDbMText
 62
0
 10
0.587454386022617
 20
-0.117841438970054
 30
0
 40
0.055
  1
DRAWING IS THE SOLE PROPERTY OF
 50
0
 41
0
  7
SLDTEXTSTYLE1
 71
2
 11
1
 21
0
 31
0
 73
1
 44
1
  0
MTEXT
  5
E7
100
AcDbEntity
  8
0
100
AcDbMText
 62
0
 10
0.583157531316355
 20
-0.21221152129881
 30
0
 40
0.055
  1
POLYCASE.  ANY REPRODUCTION IN PART
 50
0
 41
0
  7
SLDTEXTSTYLE1
 71
2
 11
1
 21
0
 31
0
 73
1
 44
1
  0
MTEXT
  5
E8
100
AcDbEntity
  8
0
100
AcDbMText
 62
0
 10
0.587378032993613
 20
-0.306581603627566
 30
0
 40
0.055
  1
OR AS A WHOLE WITHOUT THE WRITTEN
 50
0
 41
0
  7
SLDTEXTSTYLE1
 71
2
 11
1
 21
0
 31
0
 73
1
 44
1
  0
MTEXT
  5
E9
100
AcDbEntity
  8
0
100
AcDbMText
 62
0
 10
0.592257399237531
 20
-0.400951685956322
 30
0
 40
0.055
  1
PERMISSION OF POLYCASE IS PROHIBITED.
 50
0
 41
0
  7
SLDTEXTSTYLE1
 71
2
 11
1
 21
0
 31
0
 73
1
 44
1
  0
ENDBLK
  5
5F0
100
AcDbEntity
  8
0
100
AcDbBlockEnd
  0
BLOCK
  5
FB
100
AcDbEntity
  8
0
100
AcDbBlockBegin
  2
SW_TABLEANNOTATION_0
 70
64
 10
0
 20
0
 30
0
  3
SW_TABLEANNOTATION_0
  1

  0
LINE
  5
FD
100
AcDbEntity
  8
SLD-0
100
AcDbLine
370
-1
 62
0
  6
BYLAYER
 10
0
 20
0
 30
0
 11
0
 21
-0.333256283709356
 31
0
  0
LINE
  5
FE
100
AcDbEntity
  8
SLD-0
100
AcDbLine
370
-1
 62
0
  6
BYLAYER
 10
0
 20
-0.333256283709356
 30
0
 11
4.47509419352263
 21
-0.333256283709356
 31
0
  0
LINE
  5
FF
100
AcDbEntity
  8
SLD-0
100
AcDbLine
370
-1
 62
0
  6
BYLAYER
 10
4.47509419352263
 20
-0.333256283709356
 30
0
 11
4.47509419352263
 21
0
 31
0
  0
LINE
  5
100
100
AcDbEntity
  8
SLD-0
100
AcDbLine
370
-1
 62
0
  6
BYLAYER
 10
4.47509419352263
 20
0
 30
0
 11
0
 21
0
 31
0
  0
LINE
  5
101
100
AcDbEntity
  8
SLD-0
100
AcDbLine
370
-1
 62
0
  6
BYLAYER
 10
0.277534762787539
 20
0
 30
0
 11
0.277534762787539
 21
-0.203599386854549
 31
0
  0
LINE
  5
102
100
AcDbEntity
  8
SLD-0
100
AcDbLine
370
-1
 62
0
  6
BYLAYER
 10
0.615462061421728
 20
0
 30
0
 11
0.615462061421728
 21
-0.203599386854549
 31
0
  0
LINE
  5
103
100
AcDbEntity
  8
SLD-0
100
AcDbLine
370
-1
 62
0
  6
BYLAYER
 10
3.01526604236104
 20
0
 30
0
 11
3.01526604236104
 21
-0.203599386854549
 31
0
  0
LINE
  5
104
100
AcDbEntity
  8
SLD-0
100
AcDbLine
370
-1
 62
0
  6
BYLAYER
 10
3.38812973852751
 20
0
 30
0
 11
3.38812973852751
 21
-0.203599386854549
 31
0
  0
LINE
  5
105
100
AcDbEntity
  8
SLD-0
100
AcDbLine
370
-1
 62
0
  6
BYLAYER
 10
3.8156644885024
 20
0
 30
0
 11
3.8156644885024
 21
-0.203599386854549
 31
0
  0
LINE
  5
106
100
AcDbEntity
  8
SLD-0
100
AcDbLine
370
-1
 62
0
  6
BYLAYER
 10
1.09273919746571E-15
 20
-0.203599386854549
 30
0
 11
4.47509419352263
 21
-0.203599386854549
 31
0
  0
MTEXT
  5
107
100
AcDbEntity
  8
SLD-0
100
AcDbMText
370
-1
 62
0
 10
0.0208661417322836
 20
-0.0601780392862629
 30
0
 40
0.0833333333333333
  1
REV.
 50
0
 41
0
  7
SLDTEXTSTYLE1
 71
1
 11
1
 21
0
 31
0
 73
1
 44
1
  0
MTEXT
  5
108
100
AcDbEntity
  8
SLD-0
100
AcDbMText
370
-1
 62
0
 10
0.30058792100841
 20
-0.0601780392862629
 30
0
 40
0.0833333333333333
  1
ZONE
 50
0
 41
0
  7
SLDTEXTSTYLE1
 71
1
 11
1
 21
0
 31
0
 73
1
 44
1
  0
MTEXT
  5
109
100
AcDbEntity
  8
SLD-0
100
AcDbMText
370
-1
 62
0
 10
1.46652145175087
 20
-0.0601780392862629
 30
0
 40
0.0833333333333333
  1
DESCRIPTION
 50
0
 41
0
  7
SLDTEXTSTYLE1
 71
1
 11
1
 21
0
 31
0
 73
1
 44
1
  0
MTEXT
  5
10A
100
AcDbEntity
  8
SLD-0
100
AcDbMText
370
-1
 62
0
 10
3.13696023746583
 20
-0.0601780324113423
 30
0
 40
0.0833333333333333
  1
BY
 50
0
 41
0
  7
SLDTEXTSTYLE1
 71
1
 11
1
 21
0
 31
0
 73
1
 44
1
  0
MTEXT
  5
10B
100
AcDbEntity
  8
SLD-0
100
AcDbMText
370
-1
 62
0
 10
3.40899588025979
 20
-0.0601780392862629
 30
0
 40
0.0833333333333333
  1
APPR'D
 50
0
 41
0
  7
SLDTEXTSTYLE1
 71
1
 11
1
 21
0
 31
0
 73
1
 44
1
  0
MTEXT
  5
10C
100
AcDbEntity
  8
SLD-0
100
AcDbMText
370
-1
 62
0
 10
4.00942255243027
 20
-0.0601780392862629
 30
0
 40
0.0833333333333333
  1
DATE
 50
0
 41
0
  7
SLDTEXTSTYLE1
 71
1
 11
1
 21
0
 31
0
 73
1
 44
1
  0
MTEXT
  5
10D
100
AcDbEntity
  8
SLD-0
100
AcDbMText
370
-1
 62
0
 10
1.9650162250612
 20
-0.22680617426602
 30
0
 40
0.0833333333333333
  1
REVISIONS
 50
0
 41
0
  7
SLDTEXTSTYLE1
 71
1
 11
1
 21
0
 31
0
 73
1
 44
1
  0
ENDBLK
  5
5F1
100
AcDbEntity
  8
0
100
AcDbBlockEnd
  0
BLOCK
  5
179
100
AcDbEntity
  8
0
100
AcDbBlockBegin
  2
_D
 70
64
 10
0
 20
0
 30
0
  3
_D
  1

  0
SOLID
  5
17B
100
AcDbEntity
  8
SLD-0
100
AcDbTrace
370
-1
  6
BYLAYER
 10
8.09053325672598
 20
7.63225927696758
 30
0
 11
8.2131081238591
 21
7.67996045040489
 31
0
 12
8.19310199694694
 22
7.71459792845936
 32
0
 13
8.19310199694694
 23
7.71459792845936
 33
0
  0
LINE
  5
17C
100
AcDbEntity
  8
SLD-0
100
AcDbLine
370
-1
  6
BYLAYER
 10
8.09053325672598
 20
7.63225927696758
 30
0
 11
8.9374541742554
 21
8.1214290523772
 31
0
  0
LINE
  5
17D
100
AcDbEntity
  8
SLD-0
100
AcDbLine
370
-1
  6
BYLAYER
 10
8.9374541742554
 20
8.1214290523772
 30
0
 11
9.0874541742554
 21
8.1214290523772
 31
0
  0
MTEXT
  5
17E
100
AcDbEntity
  8
SLD-0
100
AcDbMText
370
-1
 10
9.1499541742554
 20
8.18528890653744
 30
-5.67871683418572E-14
 40
0.125
  1
8X
 50
0
 41
0
  7
SLDTEXTSTYLE1
 71
1
 11
1
 21
0
 31
0
 73
1
 44
1
  0
MTEXT
  5
17F
100
AcDbEntity
  8
SLD-0
100
AcDbMText
370
-1
 10
9.39005833721829
 20
8.18337918422372
 30
-5.67871683418572E-14
 40
0.125
  1
%%c
 50
0
 41
0
  7
SLDTEXTSTYLE1
 71
1
 11
1
 21
0
 31
0
 73
1
 44
1
  0
MTEXT
  5
180
100
AcDbEntity
  8
SLD-0
100
AcDbMText
370
-1
 10
9.57846528536651
 20
8.1833792002652
 30
-5.67871683418572E-14
 40
0.125
  1
.135
 50
0
 41
0
  7
SLDTEXTSTYLE1
 71
1
 11
1
 21
0
 31
0
 73
1
 44
1
  0
ENDBLK
  5
5F2
100
AcDbEntity
  8
0
100
AcDbBlockEnd
  0
BLOCK
  5
184
100
AcDbEntity
  8
0
100
AcDbBlockBegin
  2
_D_1
 70
64
 10
0
 20
0
 30
0
  3
_D_1
  1

  0
SOLID
  5
186
100
AcDbEntity
  8
SLD-0
100
AcDbTrace
370
-1
  6
BYLAYER
 10
8.29788594253795
 20
9.71994419328294
 30
0
 11
8.16788594253795
 21
9.73994419328294
 31
0
 12
8.16788594253795
 22
9.69994419328294
 32
0
 13
8.16788594253795
 23
9.69994419328294
 33
0
  0
SOLID
  5
187
100
AcDbEntity
  8
SLD-0
100
AcDbTrace
370
-1
  6
BYLAYER
 10
3.90801136594472
 20
9.71994419328294
 30
0
 11
4.03801136594472
 21
9.69994419328294
 31
0
 12
4.03801136594472
 22
9.73994419328294
 32
0
 13
4.03801136594472
 23
9.73994419328294
 33
0
  0
LINE
  5
188
100
AcDbEntity
  8
SLD-0
100
AcDbLine
370
-1
  6
BYLAYER
 10
8.29788594253795
 20
7.83550681181905
 30
0
 11
8.29788594253795
 21
9.84494419328294
 31
0
  0
LINE
  5
189
100
AcDbEntity
  8
SLD-0
100
AcDbLine
370
-1
  6
BYLAYER
 10
3.90801136594472
 20
7.83550681181905
 30
0
 11
3.90801136594472
 21
9.84494419328294
 31
0
  0
LINE
  5
18A
100
AcDbEntity
  8
SLD-0
100
AcDbLine
370
-1
  6
BYLAYER
 10
8.29788594253795
 20
9.71994419328294
 30
0
 11
6.36154239361106
 21
9.71994419328294
 31
0
  0
LINE
  5
18B
100
AcDbEntity
  8
SLD-0
100
AcDbLine
370
-1
  6
BYLAYER
 10
3.90801136594472
 20
9.71994419328294
 30
0
 11
5.84435491487161
 21
9.71994419328294
 31
0
  0
MTEXT
  5
18C
100
AcDbEntity
  8
SLD-0
100
AcDbMText
370
-1
 10
5.84435491487161
 20
9.78185892152111
 30
-0.0273129921259843
 40
0.125
  1
4.390
 50
0
 41
0
  7
SLDTEXTSTYLE1
 71
1
 11
1
 21
0
 31
0
 73
1
 44
1
  0
ENDBLK
  5
5F3
100
AcDbEntity
  8
0
100
AcDbBlockEnd
  0
BLOCK
  5
18F
100
AcDbEntity
  8
0
100
AcDbBlockBegin
  2
_D_2
 70
64
 10
0
 20
0
 30
0
  3
_D_2
  1

  0
SOLID
  5
191
100
AcDbEntity
  8
SLD-0
100
AcDbTrace
370
-1
  6
BYLAYER
 10
2.59895624783448
 20
8.6910740213755
 30
0
 11
2.57895624783448
 21
8.5610740213755
 31
0
 12
2.61895624783448
 22
8.5610740213755
 32
0
 13
2.61895624783448
 23
8.5610740213755
 33
0
  0
SOLID
  5
192
100
AcDbEntity
  8
SLD-0
100
AcDbTrace
370
-1
  6
BYLAYER
 10
2.59895624783448
 20
4.30119944478227
 30
0
 11
2.61895624783448
 21
4.43119944478227
 31
0
 12
2.57895624783448
 22
4.43119944478227
 32
0
 13
2.57895624783448
 23
4.43119944478227
 33
0
  0
LINE
  5
193
100
AcDbEntity
  8
SLD-0
100
AcDbLine
370
-1
  6
BYLAYER
 10
4.50767306369015
 20
8.6910740213755
 30
0
 11
2.47395624783448
 21
8.6910740213755
 31
0
  0
LINE
  5
194
100
AcDbEntity
  8
SLD-0
100
AcDbLine
370
-1
  6
BYLAYER
 10
4.50767306369015
 20
4.30119944478227
 30
0
 11
2.47395624783448
 21
4.30119944478227
 31
0
  0
LINE
  5
195
100
AcDbEntity
  8
SLD-0
100
AcDbLine
370
-1
  6
BYLAYER
 10
2.59895624783448
 20
8.6910740213755
 30
0
 11
2.59895624783448
 21
6.59535548606205
 31
0
  0
LINE
  5
196
100
AcDbEntity
  8
SLD-0
100
AcDbLine
370
-1
  6
BYLAYER
 10
2.59895624783448
 20
4.30119944478227
 30
0
 11
2.59895624783448
 21
6.39691798009572
 31
0
  0
MTEXT
  5
197
100
AcDbEntity
  8
SLD-0
100
AcDbMText
370
-1
 10
2.34036250846476
 20
6.55805146131706
 30
-0.0273129921259842
 40
0.125
  1
4.390
 50
0
 41
0
  7
SLDTEXTSTYLE1
 71
1
 11
1
 21
0
 31
0
 73
1
 44
1
  0
ENDBLK
  5
5F4
100
AcDbEntity
  8
0
100
AcDbBlockEnd
  0
BLOCK
  5
19A
100
AcDbEntity
  8
0
100
AcDbBlockBegin
  2
_D_3
 70
64
 10
0
 20
0
 30
0
  3
_D_3
  1

  0
SOLID
  5
19C
100
AcDbEntity
  8
SLD-0
100
AcDbTrace
370
-1
  6
BYLAYER
 10
3.31569532147701
 20
7.87119213161172
 30
0
 11
3.29569532147701
 21
7.74119213161172
 31
0
 12
3.33569532147701
 22
7.74119213161172
 32
0
 13
3.33569532147701
 23
7.74119213161172
 33
0
  0
SOLID
  5
19D
100
AcDbEntity
  8
SLD-0
100
AcDbTrace
370
-1
  6
BYLAYER
 10
3.31569532147702
 20
5.12108133454605
 30
0
 11
3.33569532147702
 21
5.25108133454605
 31
0
 12
3.29569532147702
 22
5.25108133454605
 32
0
 13
3.29569532147702
 23
5.25108133454605
 33
0
  0
LINE
  5
19E
100
AcDbEntity
  8
SLD-0
100
AcDbLine
370
-1
  6
BYLAYER
 10
3.9436966857374
 20
7.87119213161172
 30
0
 11
3.19069532147701
 21
7.87119213161172
 31
0
  0
LINE
  5
19F
100
AcDbEntity
  8
SLD-0
100
AcDbLine
370
-1
  6
BYLAYER
 10
3.9436966857374
 20
5.12108133454605
 30
0
 11
3.19069532147702
 21
5.12108133454605
 31
0
  0
LINE
  5
1A0
100
AcDbEntity
  8
SLD-0
100
AcDbLine
370
-1
  6
BYLAYER
 10
3.31569532147701
 20
7.87119213161172
 30
0
 11
3.31569532147701
 21
6.59535548606205
 31
0
  0
LINE
  5
1A1
100
AcDbEntity
  8
SLD-0
100
AcDbLine
370
-1
  6
BYLAYER
 10
3.31569532147702
 20
5.12108133454605
 30
0
 11
3.31569532147702
 21
6.39691798009572
 31
0
  0
MTEXT
  5
1A2
100
AcDbEntity
  8
SLD-0
100
AcDbMText
370
-1
 10
2.93704951895897
 20
6.55805146131706
 30
-0.0273129921259842
 40
0.125
  1
2X
 50
0
 41
0
  7
SLDTEXTSTYLE1
 71
1
 11
1
 21
0
 31
0
 73
1
 44
1
  0
MTEXT
  5
1A3
100
AcDbEntity
  8
SLD-0
100
AcDbMText
370
-1
 10
3.17715368192186
 20
6.55805146131706
 30
-0.0273129921259842
 40
0.125
  1
2.750
 50
0
 41
0
  7
SLDTEXTSTYLE1
 71
1
 11
1
 21
0
 31
0
 73
1
 44
1
  0
ENDBLK
  5
5F5
100
AcDbEntity
  8
0
100
AcDbBlockEnd
  0
BLOCK
  5
1A7
100
AcDbEntity
  8
0
100
AcDbBlockBegin
  2
_D_4
 70
64
 10
0
 20
0
 30
0
  3
_D_4
  1

  0
SOLID
  5
1A9
100
AcDbEntity
  8
SLD-0
100
AcDbTrace
370
-1
  6
BYLAYER
 10
4.47198774389747
 20
9.26119443573502
 30
0
 11
4.60198774389747
 21
9.24119443573503
 31
0
 12
4.60198774389747
 22
9.28119443573502
 32
0
 13
4.60198774389747
 23
9.28119443573502
 33
0
  0
SOLID
  5
1AA
100
AcDbEntity
  8
SLD-0
100
AcDbTrace
370
-1
  6
BYLAYER
 10
7.7339095645852
 20
9.26119443573502
 30
0
 11
7.6039095645852
 21
9.28119443573502
 31
0
 12
7.6039095645852
 22
9.24119443573503
 32
0
 13
7.6039095645852
 23
9.24119443573503
 33
0
  0
LINE
  5
1AB
100
AcDbEntity
  8
SLD-0
100
AcDbLine
370
-1
  6
BYLAYER
 10
4.47198774389747
 20
8.65538870158283
 30
0
 11
4.47198774389747
 21
9.38619443573502
 31
0
  0
LINE
  5
1AC
100
AcDbEntity
  8
SLD-0
100
AcDbLine
370
-1
  6
BYLAYER
 10
7.7339095645852
 20
8.65538870158282
 30
0
 11
7.7339095645852
 21
9.38619443573502
 31
0
  0
LINE
  5
1AD
100
AcDbEntity
  8
SLD-0
100
AcDbLine
370
-1
  6
BYLAYER
 10
4.47198774389747
 20
9.26119443573502
 30
0
 11
5.72430285172329
 21
9.26119443573502
 31
0
  0
LINE
  5
1AE
100
AcDbEntity
  8
SLD-0
100
AcDbLine
370
-1
  6
BYLAYER
 10
7.7339095645852
 20
9.26119443573502
 30
0
 11
6.48159445675938
 21
9.26119443573502
 31
0
  0
MTEXT
  5
1AF
100
AcDbEntity
  8
SLD-0
100
AcDbMText
370
-1
 10
5.72430285172329
 20
9.32310916397319
 30
-0.0273129921259842
 40
0.125
  1
2X
 50
0
 41
0
  7
SLDTEXTSTYLE1
 71
1
 11
1
 21
0
 31
0
 73
1
 44
1
  0
MTEXT
  5
1B0
100
AcDbEntity
  8
SLD-0
100
AcDbMText
370
-1
 10
5.96440701468618
 20
9.32310916397319
 30
-0.0273129921259842
 40
0.125
  1
3.262
 50
0
 41
0
  7
SLDTEXTSTYLE1
 71
1
 11
1
 21
0
 31
0
 73
1
 44
1
  0
ENDBLK
  5
5F6
100
AcDbEntity
  8
0
100
AcDbBlockEnd
  0
BLOCK
  5
1B3
100
AcDbEntity
  8
0
100
AcDbBlockBegin
  2
_D_5
 70
64
 10
0
 20
0
 30
0
  3
_D_5
  1

  0
SOLID
  5
1B5
100
AcDbEntity
  8
SLD-0
100
AcDbTrace
370
-1
  6
BYLAYER
 10
9.40024814726236
 20
7.5984989378033
 30
0
 11
9.38024814726236
 21
7.4684989378033
 31
0
 12
9.42024814726236
 22
7.4684989378033
 32
0
 13
9.42024814726236
 23
7.4684989378033
 33
0
  0
SOLID
  5
1B6
100
AcDbEntity
  8
SLD-0
100
AcDbTrace
370
-1
  6
BYLAYER
 10
9.40024814726236
 20
5.39377452835448
 30
0
 11
9.42024814726236
 21
5.52377452835448
 31
0
 12
9.38024814726236
 22
5.52377452835448
 32
0
 13
9.38024814726236
 23
5.52377452835448
 33
0
  0
LINE
  5
1B7
100
AcDbEntity
  8
SLD-0
100
AcDbLine
370
-1
  6
BYLAYER
 10
8.08208251250905
 20
7.5984989378033
 30
0
 11
9.52524814726236
 21
7.5984989378033
 31
0
  0
LINE
  5
1B8
100
AcDbEntity
  8
SLD-0
100
AcDbLine
370
-1
  6
BYLAYER
 10
8.08208251250905
 20
5.39377452835448
 30
0
 11
9.52524814726236
 21
5.39377452835448
 31
0
  0
LINE
  5
1B9
100
AcDbEntity
  8
SLD-0
100
AcDbLine
370
-1
  6
BYLAYER
 10
9.40024814726236
 20
7.5984989378033
 30
0
 11
9.40024814726236
 21
6.59535548606205
 31
0
  0
LINE
  5
1BA
100
AcDbEntity
  8
SLD-0
100
AcDbLine
370
-1
  6
BYLAYER
 10
9.40024814726236
 20
5.39377452835448
 30
0
 11
9.40024814726236
 21
6.39691798009572
 31
0
  0
MTEXT
  5
1BB
100
AcDbEntity
  8
SLD-0
100
AcDbMText
370
-1
 10
9.14165440789264
 20
6.55805146131706
 30
-0.0273129921259842
 40
0.125
  1
2.205
 50
0
 41
0
  7
SLDTEXTSTYLE1
 71
1
 11
1
 21
0
 31
0
 73
1
 44
1
  0
ENDBLK
  5
5F7
100
AcDbEntity
  8
0
100
AcDbBlockEnd
  0
BLOCK
  5
1BF
100
AcDbEntity
  8
0
100
AcDbBlockBegin
  2
_D_6
 70
64
 10
0
 20
0
 30
0
  3
_D_6
  1

  0
SOLID
  5
1C1
100
AcDbEntity
  8
SLD-0
100
AcDbTrace
370
-1
  6
BYLAYER
 10
7.70261305316445
 20
4.32067425519876
 30
0
 11
7.76967629007285
 21
4.20752602385877
 31
0
 12
7.80058497293073
 22
4.23291604796257
 32
0
 13
7.80058497293073
 23
4.23291604796257
 33
0
  0
LINE
  5
1C2
100
AcDbEntity
  8
SLD-0
100
AcDbLine
370
-1
  6
BYLAYER
 10
7.70261305316445
 20
4.32067425519876
 30
0
 11
8.01433018166663
 21
3.94120372666149
 31
0
  0
LINE
  5
1C3
100
AcDbEntity
  8
SLD-0
100
AcDbLine
370
-1
  6
BYLAYER
 10
8.01433018166663
 20
3.94120372666149
 30
0
 11
8.16433018166663
 21
3.94120372666149
 31
0
  0
MTEXT
  5
1C4
100
AcDbEntity
  8
SLD-0
100
AcDbMText
370
-1
 10
8.16433018166663
 20
4.00311845489966
 30
-0.0273129921259842
 40
0.125
  1
8X
 50
0
 41
0
  7
SLDTEXTSTYLE1
 71
1
 11
1
 21
0
 31
0
 73
1
 44
1
  0
MTEXT
  5
1C5
100
AcDbEntity
  8
SLD-0
100
AcDbMText
370
-1
 10
8.40443434462951
 20
4.00311845489966
 30
-0.0273129921259842
 40
0.125
  1
R.086
 50
0
 41
0
  7
SLDTEXTSTYLE1
 71
1
 11
1
 21
0
 31
0
 73
1
 44
1
  0
ENDBLK
  5
5F8
100
AcDbEntity
  8
0
100
AcDbBlockEnd
  0
BLOCK
  5
1C9
100
AcDbEntity
  8
0
100
AcDbBlockBegin
  2
_D_7
 70
64
 10
0
 20
0
 30
0
  3
_D_7
  1

  0
SOLID
  5
1CB
100
AcDbEntity
  8
SLD-0
100
AcDbTrace
370
-1
  6
BYLAYER
 10
7.82504553694171
 20
5.03185391080454
 30
0
 11
7.74772944453803
 21
5.13825984041105
 31
0
 12
7.71932146996977
 22
5.11009981589172
 32
0
 13
7.71932146996977
 23
5.11009981589172
 33
0
  0
LINE
  5
1CC
100
AcDbEntity
  8
SLD-0
100
AcDbLine
370
-1
  6
BYLAYER
 10
7.82504553694171
 20
5.03185391080454
 30
0
 11
8.56430940380614
 21
4.28608079847275
 31
0
  0
LINE
  5
1CD
100
AcDbEntity
  8
SLD-0
100
AcDbLine
370
-1
  6
BYLAYER
 10
7.82504553694171
 20
5.03185391080454
 30
0
 11
7.64904538369591
 21
5.20940375185617
 31
0
  0
LINE
  5
1CE
100
AcDbEntity
  8
SLD-0
100
AcDbLine
370
-1
  6
BYLAYER
 10
8.56430940380614
 20
4.28608079847275
 30
0
 11
8.71430940380614
 21
4.28608079847275
 31
0
  0
MTEXT
  5
1CF
100
AcDbEntity
  8
SLD-0
100
AcDbMText
370
-1
 10
8.71430940380614
 20
4.34799552671092
 30
-0.0273129921259842
 40
0.125
  1
4X
 50
0
 41
0
  7
SLDTEXTSTYLE1
 71
1
 11
1
 21
0
 31
0
 73
1
 44
1
  0
MTEXT
  5
1D0
100
AcDbEntity
  8
SLD-0
100
AcDbMText
370
-1
 10
8.95441356676903
 20
4.34799552671092
 30
-0.0273129921259842
 40
0.125
  1
R.308
 50
0
 41
0
  7
SLDTEXTSTYLE1
 71
1
 11
1
 21
0
 31
0
 73
1
 44
1
  0
ENDBLK
  5
5F9
100
AcDbEntity
  8
0
100
AcDbBlockEnd
  0
BLOCK
  5
1D3
100
AcDbEntity
  8
0
100
AcDbBlockBegin
  2
_D_8
 70
64
 10
0
 20
0
 30
0
  3
_D_8
  1

  0
SOLID
  5
1D5
100
AcDbEntity
  8
SLD-0
100
AcDbTrace
370
-1
  6
BYLAYER
 10
8.03208251250905
 20
9.52532969373038
 30
0
 11
7.90208251250905
 21
9.54532969373038
 31
0
 12
7.90208251250905
 22
9.50532969373038
 32
0
 13
7.90208251250905
 23
9.50532969373038
 33
0
  0
SOLID
  5
1D6
100
AcDbEntity
  8
SLD-0
100
AcDbTrace
370
-1
  6
BYLAYER
 10
4.17381479597362
 20
9.52532969373038
 30
0
 11
4.30381479597362
 21
9.50532969373038
 31
0
 12
4.30381479597362
 22
9.54532969373038
 32
0
 13
4.30381479597362
 23
9.54532969373038
 33
0
  0
LINE
  5
1D7
100
AcDbEntity
  8
SLD-0
100
AcDbLine
370
-1
  6
BYLAYER
 10
8.03208251250905
 20
7.6484989378033
 30
0
 11
8.03208251250905
 21
9.65032969373038
 31
0
  0
LINE
  5
1D8
100
AcDbEntity
  8
SLD-0
100
AcDbLine
370
-1
  6
BYLAYER
 10
4.17381479597362
 20
7.6484989378033
 30
0
 11
4.17381479597362
 21
9.65032969373038
 31
0
  0
LINE
  5
1D9
100
AcDbEntity
  8
SLD-0
100
AcDbLine
370
-1
  6
BYLAYER
 10
8.03208251250905
 20
9.52532969373038
 30
0
 11
6.36154239361106
 21
9.52532969373038
 31
0
  0
LINE
  5
1DA
100
AcDbEntity
  8
SLD-0
100
AcDbLine
370
-1
  6
BYLAYER
 10
4.17381479597362
 20
9.52532969373038
 30
0
 11
5.84435491487161
 21
9.52532969373038
 31
0
  0
MTEXT
  5
1DB
100
AcDbEntity
  8
SLD-0
100
AcDbMText
370
-1
 10
5.84435491487161
 20
9.58724442196855
 30
-0.0273129921259843
 40
0.125
  1
3.858
 50
0
 41
0
  7
SLDTEXTSTYLE1
 71
1
 11
1
 21
0
 31
0
 73
1
 44
1
  0
ENDBLK
  5
5FA
100
AcDbEntity
  8
0
100
AcDbBlockEnd
  0
BLOCK
  5
1DE
100
AcDbEntity
  8
0
100
AcDbBlockBegin
  2
_D_9
 70
64
 10
0
 20
0
 30
0
  3
_D_9
  1

  0
SOLID
  5
1E0
100
AcDbEntity
  8
SLD-0
100
AcDbTrace
370
-1
  6
BYLAYER
 10
10.0003350713137
 20
8.46464067008721
 30
0
 11
9.98033507131375
 21
8.33464067008721
 31
0
 12
10.0203350713137
 22
8.33464067008721
 32
0
 13
10.0203350713137
 23
8.33464067008721
 33
0
  0
SOLID
  5
1E1
100
AcDbEntity
  8
SLD-0
100
AcDbTrace
370
-1
  6
BYLAYER
 10
10.0003350713137
 20
4.52763279607057
 30
0
 11
10.0203350713137
 21
4.65763279607057
 31
0
 12
9.98033507131375
 22
4.65763279607057
 32
0
 13
9.98033507131375
 23
4.65763279607057
 33
0
  0
LINE
  5
1E2
100
AcDbEntity
  8
SLD-0
100
AcDbLine
370
-1
  6
BYLAYER
 10
6.15294865424133
 20
8.46464067008721
 30
0
 11
10.1253350713137
 21
8.46464067008721
 31
0
  0
LINE
  5
1E3
100
AcDbEntity
  8
SLD-0
100
AcDbLine
370
-1
  6
BYLAYER
 10
6.15294865424133
 20
4.52763279607057
 30
0
 11
10.1253350713137
 21
4.52763279607057
 31
0
  0
LINE
  5
1E4
100
AcDbEntity
  8
SLD-0
100
AcDbLine
370
-1
  6
BYLAYER
 10
10.0003350713137
 20
8.46464067008721
 30
0
 11
10.0003350713137
 21
6.59535548606205
 31
0
  0
LINE
  5
1E5
100
AcDbEntity
  8
SLD-0
100
AcDbLine
370
-1
  6
BYLAYER
 10
10.0003350713137
 20
4.52763279607057
 30
0
 11
10.0003350713137
 21
6.39691798009572
 31
0
  0
MTEXT
  5
1E6
100
AcDbEntity
  8
SLD-0
100
AcDbMText
370
-1
 10
9.74174133194403
 20
6.55805146131706
 30
-0.0273129921259842
 40
0.125
  1
3.937
 50
0
 41
0
  7
SLDTEXTSTYLE1
 71
1
 11
1
 21
0
 31
0
 73
1
 44
1
  0
ENDBLK
  5
5FB
100
AcDbEntity
  8
0
100
AcDbBlockEnd
  0
BLOCK
  5
1EA
100
AcDbEntity
  8
0
100
AcDbBlockBegin
  2
_D_10
 70
64
 10
0
 20
0
 30
0
  3
_D_10
  1

  0
SOLID
  5
1EC
100
AcDbEntity
  8
SLD-0
100
AcDbTrace
370
-1
  6
BYLAYER
 10
8.12722931995645
 20
7.30419601464633
 30
0
 11
8.24784834820756
 21
7.35664646768305
 31
0
 12
8.22650513558375
 22
7.39047644366435
 32
0
 13
8.22650513558375
 23
7.39047644366435
 33
0
  0
LINE
  5
1ED
100
AcDbEntity
  8
SLD-0
100
AcDbLine
370
-1
  6
BYLAYER
 10
8.12722931995645
 20
7.30419601464633
 30
0
 11
8.87792197379983
 21
7.77780536438299
 31
0
  0
LINE
  5
1EE
100
AcDbEntity
  8
SLD-0
100
AcDbLine
370
-1
  6
BYLAYER
 10
8.87792197379983
 20
7.77780536438299
 30
0
 11
9.02792197379983
 21
7.77780536438299
 31
0
  0
MTEXT
  5
1EF
100
AcDbEntity
  8
SLD-0
100
AcDbMText
370
-1
 10
9.02792197379983
 20
7.84034754370612
 30
-0.0273129921259843
 40
0.125
  1
4X
 50
0
 41
0
  7
SLDTEXTSTYLE1
 71
1
 11
1
 21
0
 31
0
 73
1
 44
1
  0
MTEXT
  5
1F0
100
AcDbEntity
  8
SLD-0
100
AcDbMText
370
-1
 10
9.26802613676272
 20
7.8384378213924
 30
-0.0273129921259843
 40
0.125
  1
%%c
 50
0
 41
0
  7
SLDTEXTSTYLE1
 71
1
 11
1
 21
0
 31
0
 73
1
 44
1
  0
MTEXT
  5
1F1
100
AcDbEntity
  8
SLD-0
100
AcDbMText
370
-1
 10
9.45654177568064
 20
7.84034754370612
 30
-0.0273129921259843
 40
0.125
  1
.225
 50
0
 41
0
  7
SLDTEXTSTYLE1
 71
1
 11
1
 21
0
 31
0
 73
1
 44
1
  0
ENDBLK
  5
5FC
100
AcDbEntity
  8
0
100
AcDbBlockEnd
  0
BLOCK
  5
1F4
100
AcDbEntity
  8
0
100
AcDbBlockBegin
  2
_D_11
 70
64
 10
0
 20
0
 30
0
  3
_D_11
  1

  0
SOLID
  5
1F6
100
AcDbEntity
  8
SLD-0
100
AcDbTrace
370
-1
  6
BYLAYER
 10
8.80421669831527
 20
7.24416822914188
 30
0
 11
8.78421669831527
 21
7.11416822914188
 31
0
 12
8.82421669831527
 22
7.11416822914188
 32
0
 13
8.82421669831527
 23
7.11416822914188
 33
0
  0
SOLID
  5
1F7
100
AcDbEntity
  8
SLD-0
100
AcDbTrace
370
-1
  6
BYLAYER
 10
8.80421669831527
 20
5.7481052370159
 30
0
 11
8.82421669831527
 21
5.8781052370159
 31
0
 12
8.78421669831527
 22
5.8781052370159
 32
0
 13
8.78421669831527
 23
5.8781052370159
 33
0
  0
LINE
  5
1F8
100
AcDbEntity
  8
SLD-0
100
AcDbLine
370
-1
  6
BYLAYER
 10
8.08208251250905
 20
7.24416822914188
 30
0
 11
8.92921669831527
 21
7.24416822914188
 31
0
  0
LINE
  5
1F9
100
AcDbEntity
  8
SLD-0
100
AcDbLine
370
-1
  6
BYLAYER
 10
8.08208251250905
 20
5.7481052370159
 30
0
 11
8.92921669831527
 21
5.7481052370159
 31
0
  0
LINE
  5
1FA
100
AcDbEntity
  8
SLD-0
100
AcDbLine
370
-1
  6
BYLAYER
 10
8.80421669831527
 20
7.24416822914188
 30
0
 11
8.80421669831527
 21
6.59535548606205
 31
0
  0
LINE
  5
1FB
100
AcDbEntity
  8
SLD-0
100
AcDbLine
370
-1
  6
BYLAYER
 10
8.80421669831527
 20
5.7481052370159
 30
0
 11
8.80421669831527
 21
6.39691798009572
 31
0
  0
MTEXT
  5
1FC
100
AcDbEntity
  8
SLD-0
100
AcDbMText
370
-1
 10
8.54562295894555
 20
6.55805146131706
 30
-0.0273129921259842
 40
0.125
  1
1.496
 50
0
 41
0
  7
SLDTEXTSTYLE1
 71
1
 11
1
 21
0
 31
0
 73
1
 44
1
  0
ENDBLK
  5
5FD
100
AcDbEntity
  8
0
100
AcDbBlockEnd
  0
BLOCK
  5
1FE
100
AcDbEntity
  8
0
100
AcDbBlockBegin
  2
SW_CENTERMARKSYMBOL_0
 70
64
 10
0
 20
0
 30
0
  3
SW_CENTERMARKSYMBOL_0
  1

  0
LINE
  5
200
100
AcDbEntity
  8
SLD-0
100
AcDbLine
370
-1
 62
0
  6
BYLAYER
 10
0
 20
0
 30
0
 11
0
 21
0.035
 31
0
  0
LINE
  5
201
100
AcDbEntity
  8
SLD-0
100
AcDbLine
370
-1
 62
0
  6
BYLAYER
 10
0
 20
0
 30
0
 11
-0.035
 21
0
 31
0
  0
LINE
  5
202
100
AcDbEntity
  8
SLD-0
100
AcDbLine
370
-1
 62
0
  6
BYLAYER
 10
0
 20
0
 30
0
 11
0
 21
-0.035
 31
0
  0
LINE
  5
203
100
AcDbEntity
  8
SLD-0
100
AcDbLine
370
-1
 62
0
  6
BYLAYER
 10
0
 20
0
 30
0
 11
0.035
 21
0
 31
0
  0
LINE
  5
204
100
AcDbEntity
  8
SLD-0
100
AcDbLine
370
-1
 62
0
  6
BYLAYER
 10
0
 20
-3.36589566929134
 30
0
 11
0
 21
-3.33089566929134
 31
0
  0
LINE
  5
205
100
AcDbEntity
  8
SLD-0
100
AcDbLine
370
-1
 62
0
  6
BYLAYER
 10
0
 20
-3.36589566929134
 30
0
 11
-0.035
 21
-3.36589566929134
 31
0
  0
LINE
  5
206
100
AcDbEntity
  8
SLD-0
100
AcDbLine
370
-1
 62
0
  6
BYLAYER
 10
0
 20
-3.36589566929134
 30
0
 11
0
 21
-3.40089566929134
 31
0
  0
LINE
  5
207
100
AcDbEntity
  8
SLD-0
100
AcDbLine
370
-1
 62
0
  6
BYLAYER
 10
0
 20
-3.36589566929134
 30
0
 11
0.035
 21
-3.36589566929134
 31
0
  0
LINE
  5
208
100
AcDbEntity
  8
SLD-0
100
AcDbLine
370
-1
 62
0
  6
BYLAYER
 10
3.87770669291339
 20
-3.36589566929134
 30
0
 11
3.87770669291339
 21
-3.33089566929134
 31
0
  0
LINE
  5
209
100
AcDbEntity
  8
SLD-0
100
AcDbLine
370
-1
 62
0
  6
BYLAYER
 10
3.87770669291339
 20
-3.36589566929134
 30
0
 11
3.84270669291339
 21
-3.36589566929134
 31
0
  0
LINE
  5
20A
100
AcDbEntity
  8
SLD-0
100
AcDbLine
370
-1
 62
0
  6
BYLAYER
 10
3.87770669291339
 20
-3.36589566929134
 30
0
 11
3.87770669291339
 21
-3.40089566929134
 31
0
  0
LINE
  5
20B
100
AcDbEntity
  8
SLD-0
100
AcDbLine
370
-1
 62
0
  6
BYLAYER
 10
3.87770669291339
 20
-3.36589566929134
 30
0
 11
3.91270669291339
 21
-3.36589566929134
 31
0
  0
LINE
  5
20C
100
AcDbEntity
  8
SLD-0
100
AcDbLine
370
-1
 62
0
  6
BYLAYER
 10
3.87770669291339
 20
0
 30
0
 11
3.87770669291339
 21
0.035
 31
0
  0
LINE
  5
20D
100
AcDbEntity
  8
SLD-0
100
AcDbLine
370
-1
 62
0
  6
BYLAYER
 10
3.87770669291339
 20
0
 30
0
 11
3.84270669291339
 21
0
 31
0
  0
LINE
  5
20E
100
AcDbEntity
  8
SLD-0
100
AcDbLine
370
-1
 62
0
  6
BYLAYER
 10
3.87770669291339
 20
0
 30
0
 11
3.87770669291339
 21
-0.035
 31
0
  0
LINE
  5
20F
100
AcDbEntity
  8
SLD-0
100
AcDbLine
370
-1
 62
0
  6
BYLAYER
 10
3.87770669291339
 20
0
 30
0
 11
3.91270669291339
 21
0
 31
0
  0
ENDBLK
  5
5FE
100
AcDbEntity
  8
0
100
AcDbBlockEnd
  0
BLOCK
  5
212
100
AcDbEntity
  8
0
100
AcDbBlockBegin
  2
SW_CENTERMARKSYMBOL_1
 70
64
 10
0
 20
0
 30
0
  3
SW_CENTERMARKSYMBOL_1
  1

  0
LINE
  5
214
100
AcDbEntity
  8
SLD-0
100
AcDbLine
370
-1
 62
0
  6
BYLAYER
 10
0
 20
0
 30
0
 11
0.035
 21
5.46369598732853E-16
 31
0
  0
LINE
  5
215
100
AcDbEntity
  8
SLD-0
100
AcDbLine
370
-1
 62
0
  6
BYLAYER
 10
0
 20
0
 30
0
 11
0
 21
0.035
 31
0
  0
LINE
  5
216
100
AcDbEntity
  8
SLD-0
100
AcDbLine
370
-1
 62
0
  6
BYLAYER
 10
0
 20
0
 30
0
 11
-0.035
 21
-5.46369598732853E-16
 31
0
  0
LINE
  5
217
100
AcDbEntity
  8
SLD-0
100
AcDbLine
370
-1
 62
0
  6
BYLAYER
 10
0
 20
0
 30
0
 11
0
 21
-0.035
 31
0
  0
LINE
  5
218
100
AcDbEntity
  8
SLD-0
100
AcDbLine
370
-1
 62
0
  6
BYLAYER
 10
0
 20
3.93700787401664
 30
0
 11
0.035
 21
3.93700787401664
 31
0
  0
LINE
  5
219
100
AcDbEntity
  8
SLD-0
100
AcDbLine
370
-1
 62
0
  6
BYLAYER
 10
0
 20
3.93700787401664
 30
0
 11
0
 21
3.97200787401664
 31
0
  0
LINE
  5
21A
100
AcDbEntity
  8
SLD-0
100
AcDbLine
370
-1
 62
0
  6
BYLAYER
 10
0
 20
3.93700787401664
 30
0
 11
-0.035
 21
3.93700787401664
 31
0
  0
LINE
  5
21B
100
AcDbEntity
  8
SLD-0
100
AcDbLine
370
-1
 62
0
  6
BYLAYER
 10
0
 20
3.93700787401664
 30
0
 11
0
 21
3.90200787401664
 31
0
  0
ENDBLK
  5
5FF
100
AcDbEntity
  8
0
100
AcDbBlockEnd
  0
BLOCK
  5
21E
100
AcDbEntity
  8
0
100
AcDbBlockBegin
  2
SW_CENTERMARKSYMBOL_2
 70
64
 10
0
 20
0
 30
0
  3
SW_CENTERMARKSYMBOL_2
  1

  0
LINE
  5
220
100
AcDbEntity
  8
SLD-0
100
AcDbLine
370
-1
 62
0
  6
BYLAYER
 10
0
 20
0
 30
0
 11
0.035
 21
0
 31
0
  0
LINE
  5
221
100
AcDbEntity
  8
SLD-0
100
AcDbLine
370
-1
 62
0
  6
BYLAYER
 10
0
 20
0
 30
0
 11
-5.46369598732853E-16
 21
0.0349999999999989
 31
0
  0
LINE
  5
222
100
AcDbEntity
  8
SLD-0
100
AcDbLine
370
-1
 62
0
  6
BYLAYER
 10
0
 20
0
 30
0
 11
-0.035
 21
-1.09273919746571E-15
 31
0
  0
LINE
  5
223
100
AcDbEntity
  8
SLD-0
100
AcDbLine
370
-1
 62
0
  6
BYLAYER
 10
0
 20
0
 30
0
 11
5.46369598732853E-16
 21
-0.0350000000000011
 31
0
  0
LINE
  5
224
100
AcDbEntity
  8
SLD-0
100
AcDbLine
370
-1
 62
0
  6
BYLAYER
 10
0
 20
-0.354330708661418
 30
0
 11
0.035
 21
-0.354330708661418
 31
0
  0
LINE
  5
225
100
AcDbEntity
  8
SLD-0
100
AcDbLine
370
-1
 62
0
  6
BYLAYER
 10
0
 20
-0.354330708661418
 30
0
 11
-5.46369598732853E-16
 21
-0.319330708661418
 31
0
  0
LINE
  5
226
100
AcDbEntity
  8
SLD-0
100
AcDbLine
370
-1
 62
0
  6
BYLAYER
 10
0
 20
-0.354330708661418
 30
0
 11
-0.035
 21
-0.354330708661419
 31
0
  0
LINE
  5
227
100
AcDbEntity
  8
SLD-0
100
AcDbLine
370
-1
 62
0
  6
BYLAYER
 10
0
 20
-0.354330708661418
 30
0
 11
5.46369598732853E-16
 21
-0.389330708661418
 31
0
  0
LINE
  5
228
100
AcDbEntity
  8
SLD-0
100
AcDbLine
370
-1
 62
0
  6
BYLAYER
 10
0
 20
-1.10236220472441
 30
0
 11
0.035
 21
-1.10236220472441
 31
0
  0
LINE
  5
229
100
AcDbEntity
  8
SLD-0
100
AcDbLine
370
-1
 62
0
  6
BYLAYER
 10
0
 20
-1.10236220472441
 30
0
 11
-5.46369598732853E-16
 21
-1.06736220472441
 31
0
  0
LINE
  5
22A
100
AcDbEntity
  8
SLD-0
100
AcDbLine
370
-1
 62
0
  6
BYLAYER
 10
0
 20
-1.10236220472441
 30
0
 11
-0.035
 21
-1.10236220472441
 31
0
  0
LINE
  5
22B
100
AcDbEntity
  8
SLD-0
100
AcDbLine
370
-1
 62
0
  6
BYLAYER
 10
0
 20
-1.10236220472441
 30
0
 11
5.46369598732853E-16
 21
-1.13736220472441
 31
0
  0
LINE
  5
22C
100
AcDbEntity
  8
SLD-0
100
AcDbLine
370
-1
 62
0
  6
BYLAYER
 10
0
 20
-1.8503937007874
 30
0
 11
0.035
 21
-1.8503937007874
 31
0
  0
LINE
  5
22D
100
AcDbEntity
  8
SLD-0
100
AcDbLine
370
-1
 62
0
  6
BYLAYER
 10
0
 20
-1.8503937007874
 30
0
 11
-5.46369598732853E-16
 21
-1.8153937007874
 31
0
  0
LINE
  5
22E
100
AcDbEntity
  8
SLD-0
100
AcDbLine
370
-1
 62
0
  6
BYLAYER
 10
0
 20
-1.8503937007874
 30
0
 11
-0.035
 21
-1.8503937007874
 31
0
  0
LINE
  5
22F
100
AcDbEntity
  8
SLD-0
100
AcDbLine
370
-1
 62
0
  6
BYLAYER
 10
0
 20
-1.8503937007874
 30
0
 11
5.46369598732853E-16
 21
-1.8853937007874
 31
0
  0
LINE
  5
230
100
AcDbEntity
  8
SLD-0
100
AcDbLine
370
-1
 62
0
  6
BYLAYER
 10
0
 20
-2.20472440944882
 30
0
 11
0.035
 21
-2.20472440944882
 31
0
  0
LINE
  5
231
100
AcDbEntity
  8
SLD-0
100
AcDbLine
370
-1
 62
0
  6
BYLAYER
 10
0
 20
-2.20472440944882
 30
0
 11
-5.46369598732853E-16
 21
-2.16972440944882
 31
0
  0
LINE
  5
232
100
AcDbEntity
  8
SLD-0
100
AcDbLine
370
-1
 62
0
  6
BYLAYER
 10
0
 20
-2.20472440944882
 30
0
 11
-0.035
 21
-2.20472440944882
 31
0
  0
LINE
  5
233
100
AcDbEntity
  8
SLD-0
100
AcDbLine
370
-1
 62
0
  6
BYLAYER
 10
0
 20
-2.20472440944882
 30
0
 11
5.46369598732853E-16
 21
-2.23972440944882
 31
0
  0
LINE
  5
234
100
AcDbEntity
  8
SLD-0
100
AcDbLine
370
-1
 62
0
  6
BYLAYER
 10
3.85826771653543
 20
-2.20472440944882
 30
0
 11
3.89326771653543
 21
-2.20472440944882
 31
0
  0
LINE
  5
235
100
AcDbEntity
  8
SLD-0
100
AcDbLine
370
-1
 62
0
  6
BYLAYER
 10
3.85826771653543
 20
-2.20472440944882
 30
0
 11
3.85826771653543
 21
-2.16972440944882
 31
0
  0
LINE
  5
236
100
AcDbEntity
  8
SLD-0
100
AcDbLine
370
-1
 62
0
  6
BYLAYER
 10
3.85826771653543
 20
-2.20472440944882
 30
0
 11
3.82326771653543
 21
-2.20472440944882
 31
0
  0
LINE
  5
237
100
AcDbEntity
  8
SLD-0
100
AcDbLine
370
-1
 62
0
  6
BYLAYER
 10
3.85826771653543
 20
-2.20472440944882
 30
0
 11
3.85826771653543
 21
-2.23972440944882
 31
0
  0
LINE
  5
238
100
AcDbEntity
  8
SLD-0
100
AcDbLine
370
-1
 62
0
  6
BYLAYER
 10
3.85826771653543
 20
-1.8503937007874
 30
0
 11
3.89326771653543
 21
-1.8503937007874
 31
0
  0
LINE
  5
239
100
AcDbEntity
  8
SLD-0
100
AcDbLine
370
-1
 62
0
  6
BYLAYER
 10
3.85826771653543
 20
-1.8503937007874
 30
0
 11
3.85826771653543
 21
-1.8153937007874
 31
0
  0
LINE
  5
23A
100
AcDbEntity
  8
SLD-0
100
AcDbLine
370
-1
 62
0
  6
BYLAYER
 10
3.85826771653543
 20
-1.8503937007874
 30
0
 11
3.82326771653543
 21
-1.8503937007874
 31
0
  0
LINE
  5
23B
100
AcDbEntity
  8
SLD-0
100
AcDbLine
370
-1
 62
0
  6
BYLAYER
 10
3.85826771653543
 20
-1.8503937007874
 30
0
 11
3.85826771653543
 21
-1.8853937007874
 31
0
  0
LINE
  5
23C
100
AcDbEntity
  8
SLD-0
100
AcDbLine
370
-1
 62
0
  6
BYLAYER
 10
3.85826771653543
 20
-1.10236220472441
 30
0
 11
3.89326771653543
 21
-1.10236220472441
 31
0
  0
LINE
  5
23D
100
AcDbEntity
  8
SLD-0
100
AcDbLine
370
-1
 62
0
  6
BYLAYER
 10
3.85826771653543
 20
-1.10236220472441
 30
0
 11
3.85826771653543
 21
-1.06736220472441
 31
0
  0
LINE
  5
23E
100
AcDbEntity
  8
SLD-0
100
AcDbLine
370
-1
 62
0
  6
BYLAYER
 10
3.85826771653543
 20
-1.10236220472441
 30
0
 11
3.82326771653543
 21
-1.10236220472441
 31
0
  0
LINE
  5
23F
100
AcDbEntity
  8
SLD-0
100
AcDbLine
370
-1
 62
0
  6
BYLAYER
 10
3.85826771653543
 20
-1.10236220472441
 30
0
 11
3.85826771653543
 21
-1.13736220472441
 31
0
  0
LINE
  5
240
100
AcDbEntity
  8
SLD-0
100
AcDbLine
370
-1
 62
0
  6
BYLAYER
 10
3.85826771653543
 20
-0.354330708661418
 30
0
 11
3.89326771653543
 21
-0.354330708661418
 31
0
  0
LINE
  5
241
100
AcDbEntity
  8
SLD-0
100
AcDbLine
370
-1
 62
0
  6
BYLAYER
 10
3.85826771653543
 20
-0.354330708661418
 30
0
 11
3.85826771653543
 21
-0.319330708661418
 31
0
  0
LINE
  5
242
100
AcDbEntity
  8
SLD-0
100
AcDbLine
370
-1
 62
0
  6
BYLAYER
 10
3.85826771653543
 20
-0.354330708661418
 30
0
 11
3.82326771653543
 21
-0.354330708661419
 31
0
  0
LINE
  5
243
100
AcDbEntity
  8
SLD-0
100
AcDbLine
370
-1
 62
0
  6
BYLAYER
 10
3.85826771653543
 20
-0.354330708661418
 30
0
 11
3.85826771653543
 21
-0.389330708661418
 31
0
  0
LINE
  5
244
100
AcDbEntity
  8
SLD-0
100
AcDbLine
370
-1
 62
0
  6
BYLAYER
 10
3.85826771653543
 20
0
 30
0
 11
3.89326771653543
 21
0
 31
0
  0
LINE
  5
245
100
AcDbEntity
  8
SLD-0
100
AcDbLine
370
-1
 62
0
  6
BYLAYER
 10
3.85826771653543
 20
0
 30
0
 11
3.85826771653543
 21
0.035
 31
0
  0
LINE
  5
246
100
AcDbEntity
  8
SLD-0
100
AcDbLine
370
-1
 62
0
  6
BYLAYER
 10
3.85826771653543
 20
0
 30
0
 11
3.82326771653543
 21
-1.09273919746571E-15
 31
0
  0
LINE
  5
247
100
AcDbEntity
  8
SLD-0
100
AcDbLine
370
-1
 62
0
  6
BYLAYER
 10
3.85826771653543
 20
0
 30
0
 11
3.85826771653543
 21
-0.035
 31
0
  0
LINE
  5
248
100
AcDbEntity
  8
SLD-0
100
AcDbLine
370
-1
 62
0
  6
BYLAYER
 10
0
 20
-0.0700000000000001
 30
0
 11
0
 21
-0.284330708661418
 31
0
  0
LINE
  5
249
100
AcDbEntity
  8
SLD-0
100
AcDbLine
370
-1
 62
0
  6
BYLAYER
 10
0
 20
-0.424330708661418
 30
0
 11
0
 21
-1.03236220472441
 31
0
  0
LINE
  5
24A
100
AcDbEntity
  8
SLD-0
100
AcDbLine
370
-1
 62
0
  6
BYLAYER
 10
0
 20
-1.17236220472441
 30
0
 11
0
 21
-1.7803937007874
 31
0
  0
LINE
  5
24B
100
AcDbEntity
  8
SLD-0
100
AcDbLine
370
-1
 62
0
  6
BYLAYER
 10
0
 20
-1.9203937007874
 30
0
 11
0
 21
-2.13472440944882
 31
0
  0
LINE
  5
24C
100
AcDbEntity
  8
SLD-0
100
AcDbLine
370
-1
 62
0
  6
BYLAYER
 10
0.0700000000000001
 20
-2.20472440944882
 30
0
 11
3.78826771653543
 21
-2.20472440944882
 31
0
  0
LINE
  5
24D
100
AcDbEntity
  8
SLD-0
100
AcDbLine
370
-1
 62
0
  6
BYLAYER
 10
3.85826771653543
 20
-1.9203937007874
 30
0
 11
3.85826771653543
 21
-2.13472440944882
 31
0
  0
LINE
  5
24E
100
AcDbEntity
  8
SLD-0
100
AcDbLine
370
-1
 62
0
  6
BYLAYER
 10
0.0700000000000001
 20
-1.8503937007874
 30
0
 11
3.78826771653543
 21
-1.8503937007874
 31
0
  0
LINE
  5
24F
100
AcDbEntity
  8
SLD-0
100
AcDbLine
370
-1
 62
0
  6
BYLAYER
 10
3.85826771653543
 20
-1.17236220472441
 30
0
 11
3.85826771653543
 21
-1.7803937007874
 31
0
  0
LINE
  5
250
100
AcDbEntity
  8
SLD-0
100
AcDbLine
370
-1
 62
0
  6
BYLAYER
 10
3.85826771653543
 20
-0.424330708661418
 30
0
 11
3.85826771653543
 21
-1.03236220472441
 31
0
  0
LINE
  5
251
100
AcDbEntity
  8
SLD-0
100
AcDbLine
370
-1
 62
0
  6
BYLAYER
 10
0.0700000000000001
 20
-0.354330708661418
 30
0
 11
3.78826771653543
 21
-0.354330708661418
 31
0
  0
LINE
  5
252
100
AcDbEntity
  8
SLD-0
100
AcDbLine
370
-1
 62
0
  6
BYLAYER
 10
3.85826771653543
 20
-0.0700000000000001
 30
0
 11
3.85826771653543
 21
-0.284330708661418
 31
0
  0
LINE
  5
253
100
AcDbEntity
  8
SLD-0
100
AcDbLine
370
-1
 62
0
  6
BYLAYER
 10
0.0700000000000001
 20
0
 30
0
 11
3.78826771653543
 21
0
 31
0
  0
ENDBLK
  5
600
100
AcDbEntity
  8
0
100
AcDbBlockEnd
  0
BLOCK
  5
27A
100
AcDbEntity
  8
0
100
AcDbBlockBegin
  2
_D_12
 70
64
 10
0
 20
0
 30
0
  3
_D_12
  1

  0
SOLID
  5
27C
100
AcDbEntity
  8
SLD-0
100
AcDbTrace
370
-1
  6
BYLAYER
 10
8.54574045301763
 20
2.82682033507882
 30
0
 11
8.52574045301763
 21
2.69682033507882
 31
0
 12
8.56574045301763
 22
2.69682033507882
 32
0
 13
8.56574045301763
 23
2.69682033507882
 33
0
  0
SOLID
  5
27D
100
AcDbEntity
  8
SLD-0
100
AcDbTrace
370
-1
  6
BYLAYER
 10
8.54574045301763
 20
2.88932033507882
 30
0
 11
8.56574045301763
 21
3.01932033507882
 31
0
 12
8.52574045301763
 22
3.01932033507882
 32
0
 13
8.52574045301763
 23
3.01932033507882
 33
0
  0
LINE
  5
27E
100
AcDbEntity
  8
SLD-0
100
AcDbLine
370
-1
  6
BYLAYER
 10
8.34788594253795
 20
2.82682033507882
 30
0
 11
8.67074045301763
 21
2.82682033507882
 31
0
  0
LINE
  5
27F
100
AcDbEntity
  8
SLD-0
100
AcDbLine
370
-1
  6
BYLAYER
 10
8.34788594253795
 20
2.88932033507882
 30
0
 11
8.67074045301763
 21
2.88932033507882
 31
0
  0
LINE
  5
280
100
AcDbEntity
  8
SLD-0
100
AcDbLine
370
-1
  6
BYLAYER
 10
8.69574045301763
 20
2.61716573514974
 30
0
 11
8.54574045301763
 21
2.61716573514974
 31
0
  0
LINE
  5
281
100
AcDbEntity
  8
SLD-0
100
AcDbLine
370
-1
  6
BYLAYER
 10
8.54574045301763
 20
2.61716573514974
 30
0
 11
8.54574045301763
 21
2.82682033507882
 31
0
  0
LINE
  5
282
100
AcDbEntity
  8
SLD-0
100
AcDbLine
370
-1
  6
BYLAYER
 10
8.54574045301763
 20
2.88932033507882
 30
0
 11
8.54574045301763
 21
3.13932033507882
 31
0
  0
MTEXT
  5
283
100
AcDbEntity
  8
SLD-0
100
AcDbMText
370
-1
 10
8.75824045301763
 20
2.67911588303775
 30
-1.83511030295003E-14
 40
0.125
  1
.063
 50
0
 41
0
  7
SLDTEXTSTYLE1
 71
1
 11
1
 21
0
 31
0
 73
1
 44
1
  0
ENDBLK
  5
601
100
AcDbEntity
  8
0
100
AcDbBlockEnd
  0
BLOCK
  5
2AB
100
AcDbEntity
  8
0
100
AcDbBlockBegin
  2
_CLOSEDFILLED
 70
0
 10
0
 20
0
 30
0
  3
_CLOSEDFILLED
  1

  0
SOLID
  5
2A9
100
AcDbEntity
  8
0
100
AcDbTrace
370
-2
 62
0
 10
-1
 20
0.166666666666667
 30
0
 11
0
 21
0
 31
0
 12
-1
 22
0.166666666666667
 32
0
 13
-1
 23
-0.166666666666667
 33
0
  0
LINE
  5
2AA
100
AcDbEntity
  8
0
100
AcDbLine
370
-2
 62
0
 10
-1
 20
0
 30
0
 11
-2
 21
0
 31
0
  0
ENDBLK
  5
602
100
AcDbEntity
  8
0
100
AcDbBlockEnd
  0
BLOCK
  5
599
100
AcDbEntity
  8
0
100
AcDbBlockBegin
  2
ABViewer_RedLine
 70
0
 10
0
 20
0
 30
0
  3
ABViewer_RedLine
  1

  0
ENDBLK
  5
603
100
AcDbEntity
  8
0
100
AcDbBlockEnd
  0
BLOCK
  5
5DC
100
AcDbEntity
  8
0
100
AcDbBlockBegin
  2
ABViewer
 70
0
 10
0
 20
0
 30
0
  3
ABViewer
  1

  0
MTEXT
  5
5D7
100
AcDbEntity
  8
0
100
AcDbMText
370
-1
 62
1
 10
0
 20
0
 30
0
 40
0.05
  1
ABViewer 14 trial version - www.cadsofttools.com
 50
0
 41
0
  7
Standard
 71
1
 73
1
 44
1
  0
ENDBLK
  5
604
100
AcDbEntity
  8
0
100
AcDbBlockEnd
  0
ENDSEC
  0
SECTION
  2
ENTITIES
  0
LINE
  5
67
100
AcDbEntity
  8
0
100
AcDbLine
 62
7
  6
CONTINUOUS
 10
0.62625160462131
 20
10.6420731707317
 30
0
 11
16.3762516046213
 21
10.6420731707317
 31
0
  0
LINE
  5
68
100
AcDbEntity
  8
0
100
AcDbLine
 62
7
  6
CONTINUOUS
 10
0.62625160462131
 20
10.6420731707317
 30
0
 11
0.626251604621308
 21
0.392073170731708
 31
0
  0
LINE
  5
69
100
AcDbEntity
  8
0
100
AcDbLine
 62
7
  6
CONTINUOUS
 10
16.3762516046213
 20
0.392073170731706
 30
0
 11
0.626251604621308
 21
0.392073170731708
 31
0
  0
LINE
  5
6A
100
AcDbEntity
  8
0
100
AcDbLine
 62
7
  6
CONTINUOUS
 10
16.3762516046213
 20
0.392073170731706
 30
0
 11
16.3762516046213
 21
10.6420731707317
 31
0
  0
LINE
  5
6B
100
AcDbEntity
  8
0
100
AcDbLine
 62
7
  6
CONTINUOUS
 10
16.3762516046213
 20
8.07529217479675
 30
0
 11
16.5012516046213
 21
8.07529217479675
 31
0
  0
LINE
  5
6C
100
AcDbEntity
  8
0
100
AcDbLine
 62
7
  6
CONTINUOUS
 10
16.3762516046213
 20
5.51279217479675
 30
0
 11
16.5012516046213
 21
5.51279217479675
 31
0
  0
LINE
  5
6D
100
AcDbEntity
  8
0
100
AcDbLine
 62
7
  6
CONTINUOUS
 10
16.3762516046213
 20
5.51279217479675
 30
0
 11
16.4434330337249
 21
5.53680182526115
 31
0
  0
LINE
  5
6E
100
AcDbEntity
  8
0
100
AcDbLine
 62
7
  6
CONTINUOUS
 10
16.3762516046213
 20
5.51279217479675
 30
0
 11
16.4434330337249
 21
5.49021364932202
 31
0
  0
LINE
  5
6F
100
AcDbEntity
  8
0
100
AcDbLine
 62
7
  6
CONTINUOUS
 10
16.4434330337249
 20
5.53680182526115
 30
0
 11
16.4434330337249
 21
5.49021364932202
 31
0
  0
LINE
  5
70
100
AcDbEntity
  8
0
100
AcDbLine
 62
7
  6
CONTINUOUS
 10
16.3762516046213
 20
5.51279217479675
 30
0
 11
16.4434330337249
 21
5.52183033311514
 31
0
  0
LINE
  5
71
100
AcDbEntity
  8
0
100
AcDbLine
 62
7
  6
CONTINUOUS
 10
16.3762516046213
 20
5.51279217479675
 30
0
 11
16.4434330337249
 21
5.50248405478048
 31
0
  0
LINE
  5
72
100
AcDbEntity
  8
0
100
AcDbLine
 62
7
  6
CONTINUOUS
 10
16.3762516046213
 20
2.95029217479675
 30
0
 11
16.5012516046213
 21
2.95029217479675
 31
0
  0
LINE
  5
73
100
AcDbEntity
  8
0
100
AcDbLine
 62
7
  6
CONTINUOUS
 10
0.626251604621308
 20
2.95457317073171
 30
0
 11
0.501251604621308
 21
2.95457317073171
 31
0
  0
LINE
  5
74
100
AcDbEntity
  8
0
100
AcDbLine
 62
7
  6
CONTINUOUS
 10
0.626251604621308
 20
5.51707317073171
 30
0
 11
0.559070175517755
 21
5.50676505071543
 31
0
  0
LINE
  5
75
100
AcDbEntity
  8
0
100
AcDbLine
 62
7
  6
CONTINUOUS
 10
0.626251604621308
 20
5.51707317073171
 30
0
 11
0.559070175517753
 21
5.5261113290501
 31
0
  0
LINE
  5
76
100
AcDbEntity
  8
0
100
AcDbLine
 62
7
  6
CONTINUOUS
 10
0.559070175517753
 20
5.5410828211961
 30
0
 11
0.559070175517755
 21
5.49449464525698
 31
0
  0
LINE
  5
77
100
AcDbEntity
  8
0
100
AcDbLine
 62
7
  6
CONTINUOUS
 10
0.626251604621308
 20
5.51707317073171
 30
0
 11
0.559070175517755
 21
5.49449464525698
 31
0
  0
LINE
  5
78
100
AcDbEntity
  8
0
100
AcDbLine
 62
7
  6
CONTINUOUS
 10
0.626251604621308
 20
5.51707317073171
 30
0
 11
0.559070175517753
 21
5.5410828211961
 31
0
  0
LINE
  5
79
100
AcDbEntity
  8
0
100
AcDbLine
 62
7
  6
CONTINUOUS
 10
0.626251604621308
 20
5.51707317073171
 30
0
 11
0.501251604621308
 21
5.51707317073171
 31
0
  0
LINE
  5
7A
100
AcDbEntity
  8
0
100
AcDbLine
 62
7
  6
CONTINUOUS
 10
0.626251604621308
 20
8.07957317073171
 30
0
 11
0.501251604621308
 21
8.07957317073171
 31
0
  0
LINE
  5
7B
100
AcDbEntity
  8
SLD-0
100
AcDbLine
  6
BYLAYER
 10
13.6175316090291
 20
1.04006749788811
 30
0
 11
13.6175316090291
 21
0.392073170731707
 31
0
  0
LINE
  5
7C
100
AcDbEntity
  8
SLD-0
100
AcDbLine
  6
BYLAYER
 10
14.0130763565839
 20
1.04006749788811
 30
0
 11
14.0130763565839
 21
1.67529337828581
 31
0
  0
LINE
  5
7D
100
AcDbEntity
  8
0
100
AcDbLine
 62
7
  6
CONTINUOUS
 10
10.5515869104588
 20
0.392073170731706
 30
0
 11
10.5515869104588
 21
1.67529337828581
 31
0
  0
LINE
  5
7E
100
AcDbEntity
  8
0
100
AcDbLine
 62
7
  6
CONTINUOUS
 10
10.5515869104588
 20
1.67529337828581
 30
0
 11
16.3762516046213
 21
1.67529337828581
 31
0
  0
LINE
  5
7F
100
AcDbEntity
  8
0
100
AcDbLine
 62
7
  6
CONTINUOUS
 10
12.0776272199651
 20
1.67529337828581
 30
0
 11
12.0776272199651
 21
0.392073170731707
 31
0
  0
LINE
  5
80
100
AcDbEntity
  8
0
100
AcDbLine
 62
7
  6
CONTINUOUS
 10
13.6175316090291
 20
0.604959010098307
 30
0
 11
16.3762516046213
 21
0.604959010098307
 31
0
  0
LINE
  5
81
100
AcDbEntity
  8
0
100
AcDbLine
 62
7
  6
CONTINUOUS
 10
13.6175316090291
 20
1.04006749788811
 30
0
 11
16.3762516046212
 21
1.04006749788811
 31
0
  0
LINE
  5
82
100
AcDbEntity
  8
0
100
AcDbLine
 62
7
  6
CONTINUOUS
 10
12.0776272199651
 20
0.392073170731707
 30
0
 11
13.6175316090291
 21
0.392073170731707
 31
0
  0
LINE
  5
83
100
AcDbEntity
  8
0
100
AcDbLine
 62
7
  6
CONTINUOUS
 10
14.0130763565839
 20
1.04006749788811
 30
0
 11
14.0130763565839
 21
0.604959010098307
 31
0
  0
LINE
  5
84
100
AcDbEntity
  8
0
100
AcDbLine
 62
7
  6
CONTINUOUS
 10
14.4406681222091
 20
0.604959010098307
 30
0
 11
14.4406681222091
 21
0.392073170731706
 31
0
  0
LINE
  5
85
100
AcDbEntity
  8
0
100
AcDbLine
 62
7
  6
CONTINUOUS
 10
15.698070819182
 20
1.04006749788811
 30
0
 11
15.698070819182
 21
0.604959010098307
 31
0
  0
LINE
  5
86
100
AcDbEntity
  8
0
100
AcDbLine
 62
7
  6
CONTINUOUS
 10
15.4125802677199
 20
0.604959010098307
 30
0
 11
15.4125802677199
 21
0.392073170731706
 31
0
  0
LINE
  5
87
100
AcDbEntity
  8
SLD-0
100
AcDbLine
370
-1
 62
7
  6
BYLAYER
 10
12.0776272199651
 20
1.07811906954047
 30
0
 11
10.5515869104588
 21
1.07811906954047
 31
0
  0
LINE
  5
88
100
AcDbEntity
  8
0
100
AcDbLine
 62
7
  6
CONTINUOUS
 10
10.5515869104588
 20
0.500014014220958
 30
0
 11
13.6175316090291
 21
0.500014014220958
 31
0
  0
LINE
  5
89
100
AcDbEntity
  8
0
100
AcDbLine
 62
7
  6
CONTINUOUS
 10
13.6175316090291
 20
0.720798882659507
 30
0
 11
12.0776272199651
 21
0.720798882659507
 31
0
  0
LINE
  5
8A
100
AcDbEntity
  8
0
100
AcDbLine
 62
7
  6
CONTINUOUS
 10
12.0776272199651
 20
0.619138511451104
 30
0
 11
13.6175316090291
 21
0.619138511451104
 31
0
  0
LINE
  5
8B
100
AcDbEntity
  8
0
100
AcDbLine
 62
7
  6
CONTINUOUS
 10
13.0815794918939
 20
0.720798882659507
 30
0
 11
13.0815794918939
 21
0.392073170731707
 31
0
  0
LINE
  5
8C
100
AcDbEntity
  8
0
100
AcDbLine
 62
7
  6
CONTINUOUS
 10
12.6699554388125
 20
0.720798882659507
 30
0
 11
12.6699554388125
 21
0.392073170731707
 31
0
  0
LINE
  5
8D
100
AcDbEntity
  8
SLD-0
100
AcDbLine
370
-1
 62
7
  6
BYLAYER
 10
14.0130763565839
 20
1.36510244965077
 30
0
 11
12.0776272199651
 21
1.36510244965077
 31
0
  0
LINE
  5
8E
100
AcDbEntity
  8
SLD-0
100
AcDbLine
370
-1
 62
7
  6
BYLAYER
 10
12.0776272199651
 20
1.04006749788811
 30
0
 11
13.6175316090291
 21
1.04006749788811
 31
0
  0
LINE
  5
8F
100
AcDbEntity
  8
0
100
AcDbLine
 62
7
  6
CONTINUOUS
 10
14.4072516046213
 20
0.392073170731707
 30
0
 11
14.4072516046213
 21
0.307273964934177
 31
0
  0
LINE
  5
90
100
AcDbEntity
  8
0
100
AcDbLine
 62
7
  6
CONTINUOUS
 10
12.4385016046213
 20
0.392073170731707
 30
0
 11
12.4385016046213
 21
0.307273964934176
 31
0
  0
LINE
  5
91
100
AcDbEntity
  8
0
100
AcDbLine
 62
7
  6
CONTINUOUS
 10
10.4697516046213
 20
0.392073170731707
 30
0
 11
10.4697516046213
 21
0.307273964934178
 31
0
  0
LINE
  5
92
100
AcDbEntity
  8
0
100
AcDbLine
 62
7
  6
CONTINUOUS
 10
8.50100160462131
 20
0.392073170731707
 30
0
 11
8.50100160462131
 21
0.307273964934179
 31
0
  0
LINE
  5
93
100
AcDbEntity
  8
0
100
AcDbLine
 62
7
  6
CONTINUOUS
 10
6.53225160462131
 20
0.392073170731708
 30
0
 11
6.53225160462131
 21
0.307273964934181
 31
0
  0
LINE
  5
94
100
AcDbEntity
  8
0
100
AcDbLine
 62
7
  6
CONTINUOUS
 10
4.56350160462131
 20
0.392073170731708
 30
0
 11
4.56350160462131
 21
0.307273964934181
 31
0
  0
LINE
  5
95
100
AcDbEntity
  8
0
100
AcDbLine
 62
7
  6
CONTINUOUS
 10
2.59475160462131
 20
0.392073170731708
 30
0
 11
2.59475160462131
 21
0.30727396493418
 31
0
  0
LINE
  5
96
100
AcDbEntity
  8
0
100
AcDbLine
 62
7
  6
CONTINUOUS
 10
2.59475160462131
 20
10.6420731707317
 30
0
 11
2.59475160462131
 21
10.7268723765292
 31
0
  0
LINE
  5
97
100
AcDbEntity
  8
0
100
AcDbLine
 62
7
  6
CONTINUOUS
 10
4.56350160462131
 20
10.6420731707317
 30
0
 11
4.56350160462131
 21
10.7268723765292
 31
0
  0
LINE
  5
98
100
AcDbEntity
  8
0
100
AcDbLine
 62
7
  6
CONTINUOUS
 10
6.53225160462131
 20
10.6420731707317
 30
0
 11
6.53225160462131
 21
10.7268723765292
 31
0
  0
LINE
  5
99
100
AcDbEntity
  8
0
100
AcDbLine
 62
7
  6
CONTINUOUS
 10
8.50100160462131
 20
10.6420731707317
 30
0
 11
8.50100160462131
 21
10.7268723765292
 31
0
  0
LINE
  5
9A
100
AcDbEntity
  8
0
100
AcDbLine
 62
7
  6
CONTINUOUS
 10
10.4697516046213
 20
10.6420731707317
 30
0
 11
10.4697516046213
 21
10.7268723765292
 31
0
  0
LINE
  5
9B
100
AcDbEntity
  8
0
100
AcDbLine
 62
7
  6
CONTINUOUS
 10
12.4385016046213
 20
10.6420731707317
 30
0
 11
12.4385016046213
 21
10.7268723765292
 31
0
  0
LINE
  5
9C
100
AcDbEntity
  8
0
100
AcDbLine
 62
7
  6
CONTINUOUS
 10
14.4072516046213
 20
10.6420731707317
 30
0
 11
14.4072516046213
 21
10.7268723765292
 31
0
  0
LINE
  5
9D
100
AcDbEntity
  8
0
100
AcDbLine
 62
7
  6
CONTINUOUS
 10
8.50100160462131
 20
10.6420731707317
 30
0
 11
8.48775048715096
 21
10.6840054626465
 31
0
  0
LINE
  5
9E
100
AcDbEntity
  8
0
100
AcDbLine
 62
7
  6
CONTINUOUS
 10
8.50100160462131
 20
10.6420731707317
 30
0
 11
8.51355657845956
 21
10.6840054626465
 31
0
  0
LINE
  5
9F
100
AcDbEntity
  8
0
100
AcDbLine
 62
7
  6
CONTINUOUS
 10
8.51355657845956
 20
10.6840054626465
 30
0
 11
8.48775048715096
 21
10.6840054626465
 31
0
  0
LINE
  5
A0
100
AcDbEntity
  8
0
100
AcDbLine
 62
7
  6
CONTINUOUS
 10
8.49396306468822
 20
10.6840054626465
 30
0
 11
8.50100160462131
 21
10.6420731707317
 31
0
  0
LINE
  5
A1
100
AcDbEntity
  8
0
100
AcDbLine
 62
7
  6
CONTINUOUS
 10
8.50591032918294
 20
10.6840054626465
 30
0
 11
8.50100160462131
 21
10.6420731707317
 31
0
  0
LINE
  5
A2
100
AcDbEntity
  8
0
100
AcDbLine
 62
7
  6
CONTINUOUS
 10
8.50100160462131
 20
0.392073170731707
 30
0
 11
8.51355657845956
 21
0.357499999999998
 31
0
  0
LINE
  5
A3
100
AcDbEntity
  8
0
100
AcDbLine
 62
7
  6
CONTINUOUS
 10
8.51355657845956
 20
0.357499999999998
 30
0
 11
8.48775048715096
 21
0.357499999999998
 31
0
  0
LINE
  5
A4
100
AcDbEntity
  8
0
100
AcDbLine
 62
7
  6
CONTINUOUS
 10
8.48775048715096
 20
0.357499999999998
 30
0
 11
8.50100160462131
 21
0.392073170731707
 31
0
  0
INSERT
  5
A5
100
AcDbEntity
  8
0
100
AcDbBlockReference
370
-1
 62
7
  6
CONTINUOUS
  2
POLYCASE LOGO
 10
14.0130763565839
 20
1.67529337828581
 30
0
 41
1
 42
1
 43
1
  0
INSERT
  5
A6
100
AcDbEntity
  8
0
100
AcDbBlockReference
370
-1
 62
7
  6
CONTINUOUS
  2
ThirdAngleProjectionBlock
 10
14.6874779417492
 20
0.401837044679629
 30
0
 41
0.35
 42
0.35
 43
0.35
  0
INSERT
  5
AE
100
AcDbEntity
  8
SLD-0
100
AcDbBlockReference
370
-1
 62
7
  6
BYLAYER
  2
SW_NOTE_1
 10
10.8195461519286
 20
2.03031213692453
 30
0
 41
1
 42
1
 43
1
  0
MTEXT
  5
AF
100
AcDbEntity
  8
0
100
AcDbMText
 62
7
 10
16.4913158733634
 20
9.49100021430158
 30
0
 40
0.09375
  1
D
 50
0
 41
0
  7
SLDTEXTSTYLE1
 71
1
 11
1
 21
0
 31
0
 73
1
 44
1
  0
MTEXT
  5
B0
100
AcDbEntity
  8
0
100
AcDbMText
 62
7
 10
16.4711826244445
 20
6.90507961008467
 30
0
 40
0.09375
  1
C
 50
0
 41
0
  7
SLDTEXTSTYLE1
 71
1
 11
1
 21
0
 31
0
 73
1
 44
1
  0
MTEXT
  5
B1
100
AcDbEntity
  8
0
100
AcDbMText
 62
7
 10
16.5114787595912
 20
4.37908807565984
 30
0
 40
0.09375
  1
B
 50
0
 41
0
  7
SLDTEXTSTYLE1
 71
1
 11
1
 21
0
 31
0
 73
1
 44
1
  0
MTEXT
  5
B2
100
AcDbEntity
  8
0
100
AcDbMText
 62
7
 10
0.42600994952592
 20
1.75585009753099
 30
0
 40
0.09375
  1
A
 50
0
 41
0
  7
SLDTEXTSTYLE1
 71
1
 11
1
 21
0
 31
0
 73
1
 44
1
  0
MTEXT
  5
B3
100
AcDbEntity
  8
0
100
AcDbMText
 62
7
 10
0.426401731406433
 20
4.39324550174525
 30
0
 40
0.09375
  1
B
 50
0
 41
0
  7
SLDTEXTSTYLE1
 71
1
 11
1
 21
0
 31
0
 73
1
 44
1
  0
MTEXT
  5
B4
100
AcDbEntity
  8
0
100
AcDbMText
 62
7
 10
0.427314415037797
 20
6.91034382432968
 30
0
 40
0.09375
  1
C
 50
0
 41
0
  7
SLDTEXTSTYLE1
 71
1
 11
1
 21
0
 31
0
 73
1
 44
1
  0
MTEXT
  5
B5
100
AcDbEntity
  8
0
100
AcDbMText
 62
7
 10
0.42861047996639
 20
9.45754736315599
 30
0
 40
0.09375
  1
D
 50
0
 41
0
  7
SLDTEXTSTYLE1
 71
1
 11
1
 21
0
 31
0
 73
1
 44
1
  0
MTEXT
  5
B6
100
AcDbEntity
  8
0
100
AcDbMText
 62
7
 10
15.4083167374052
 20
0.301372012020223
 30
0
 40
0.09375
  1
1
 50
0
 41
0
  7
SLDTEXTSTYLE1
 71
1
 11
1
 21
0
 31
0
 73
1
 44
1
  0
MTEXT
  5
B7
100
AcDbEntity
  8
0
100
AcDbMText
 62
7
 10
13.3522967769922
 20
0.312439135095433
 30
0
 40
0.09375
  1
2
 50
0
 41
0
  7
SLDTEXTSTYLE1
 71
1
 11
1
 21
0
 31
0
 73
1
 44
1
  0
MTEXT
  5
B8
100
AcDbEntity
  8
0
100
AcDbMText
 62
7
 10
11.3787703323618
 20
0.311619184208864
 30
0
 40
0.09375
  1
3
 50
0
 41
0
  7
SLDTEXTSTYLE1
 71
1
 11
1
 21
0
 31
0
 73
1
 44
1
  0
MTEXT
  5
B9
100
AcDbEntity
  8
0
100
AcDbMText
 62
7
 10
9.47012493161438
 20
0.313723751830773
 30
0
 40
0.09375
  1
4
 50
0
 41
0
  7
SLDTEXTSTYLE1
 71
1
 11
1
 21
0
 31
0
 73
1
 44
1
  0
MTEXT
  5
BA
100
AcDbEntity
  8
0
100
AcDbMText
 62
7
 10
7.4851155555303
 20
0.310586424739971
 30
0
 40
0.09375
  1
5
 50
0
 41
0
  7
SLDTEXTSTYLE1
 71
1
 11
1
 21
0
 31
0
 73
1
 44
1
  0
MTEXT
  5
BB
100
AcDbEntity
  8
0
100
AcDbMText
 62
7
 10
5.51882523856796
 20
0.313655418393751
 30
0
 40
0.09375
  1
6
 50
0
 41
0
  7
SLDTEXTSTYLE1
 71
1
 11
1
 21
0
 31
0
 73
1
 44
1
  0
MTEXT
  5
BC
100
AcDbEntity
  8
0
100
AcDbMText
 62
7
 10
3.55742667536924
 20
0.313261015214472
 30
0
 40
0.09375
  1
7
 50
0
 41
0
  7
SLDTEXTSTYLE1
 71
1
 11
1
 21
0
 31
0
 73
1
 44
1
  0
MTEXT
  5
BD
100
AcDbEntity
  8
0
100
AcDbMText
 62
7
 10
1.52677445273628
 20
0.312962752256363
 30
0
 40
0.09375
  1
8
 50
0
 41
0
  7
SLDTEXTSTYLE1
 71
1
 11
1
 21
0
 31
0
 73
1
 44
1
  0
MTEXT
  5
BE
100
AcDbEntity
  8
0
100
AcDbMText
 62
7
 10
1.50908886894297
 20
10.8314982565591
 30
0
 40
0.09375
  1
8
 50
0
 41
0
  7
SLDTEXTSTYLE1
 71
1
 11
1
 21
0
 31
0
 73
1
 44
1
  0
MTEXT
  5
BF
100
AcDbEntity
  8
0
100
AcDbMText
 62
7
 10
3.55098702734808
 20
10.8286572974831
 30
0
 40
0.09375
  1
7
 50
0
 41
0
  7
SLDTEXTSTYLE1
 71
1
 11
1
 21
0
 31
0
 73
1
 44
1
  0
MTEXT
  5
C0
100
AcDbEntity
  8
0
100
AcDbMText
 62
7
 10
5.49868768610972
 20
10.8367485307618
 30
0
 40
0.09375
  1
6
 50
0
 41
0
  7
SLDTEXTSTYLE1
 71
1
 11
1
 21
0
 31
0
 73
1
 44
1
  0
MTEXT
  5
C1
100
AcDbEntity
  8
0
100
AcDbMText
 62
7
 10
7.47869468193473
 20
10.8372850881386
 30
0
 40
0.09375
  1
5
 50
0
 41
0
  7
SLDTEXTSTYLE1
 71
1
 11
1
 21
0
 31
0
 73
1
 44
1
  0
MTEXT
  5
C2
100
AcDbEntity
  8
0
100
AcDbMText
 62
7
 10
9.46429872495178
 20
10.8356557449014
 30
0
 40
0.09375
  1
4
 50
0
 41
0
  7
SLDTEXTSTYLE1
 71
1
 11
1
 21
0
 31
0
 73
1
 44
1
  0
MTEXT
  5
C3
100
AcDbEntity
  8
0
100
AcDbMText
 62
7
 10
11.4327281050331
 20
10.8295222638428
 30
0
 40
0.09375
  1
3
 50
0
 41
0
  7
SLDTEXTSTYLE1
 71
1
 11
1
 21
0
 31
0
 73
1
 44
1
  0
MTEXT
  5
C4
100
AcDbEntity
  8
0
100
AcDbMText
 62
7
 10
13.4009949840744
 20
10.8362021378316
 30
0
 40
0.09375
  1
2
 50
0
 41
0
  7
SLDTEXTSTYLE1
 71
1
 11
1
 21
0
 31
0
 73
1
 44
1
  0
MTEXT
  5
C5
100
AcDbEntity
  8
0
100
AcDbMText
 62
7
 10
15.4273970005481
 20
10.830068656773
 30
0
 40
0.09375
  1
1
 50
0
 41
0
  7
SLDTEXTSTYLE1
 71
1
 11
1
 21
0
 31
0
 73
1
 44
1
  0
MTEXT
  5
C6
100
AcDbEntity
  8
0
100
AcDbMText
 62
7
 10
16.482080925451
 20
1.7726256602033
 30
0
 40
0.09375
  1
A
 50
0
 41
0
  7
SLDTEXTSTYLE1
 71
1
 11
1
 21
0
 31
0
 73
1
 44
1
  0
MTEXT
  5
C8
100
AcDbEntity
  8
0
100
AcDbMText
 62
7
 10
15.5034524529473
 20
0.552423953209445
 30
0
 40
0.1
  1
SHEET 1 OF 1
 50
0
 41
0
  7
SLDTEXTSTYLE2
 71
1
 11
1
 21
0
 31
0
 73
1
 44
1
  0
MTEXT
  5
C9
100
AcDbEntity
  8
0
100
AcDbMText
 62
7
 10
13.7049385693688
 20
0.552098787916784
 30
0
 40
0.1
  1
SCALE: 1:1
 50
0
 41
0
  7
SLDTEXTSTYLE1
 71
1
 11
1
 21
0
 31
0
 73
1
 44
1
  0
MTEXT
  5
CA
100
AcDbEntity
  8
0
100
AcDbMText
 62
7
 10
15.9169715634482
 20
1.01315518707169
 30
0
 40
0.1
  1
REV
 50
0
 41
0
  7
SLDTEXTSTYLE1
 71
1
 11
1
 21
0
 31
0
 73
1
 44
1
  0
MTEXT
  5
CC
100
AcDbEntity
  8
0
100
AcDbMText
 62
7
 10
12.1435121670344
 20
1.66626181530806
 30
0
 40
0.1
  1
PART  NO.
 50
0
 41
0
  7
SLDTEXTSTYLE3
 71
1
 11
1
 21
0
 31
0
 73
1
 44
1
  0
MTEXT
  5
CD
100
AcDbEntity
  8
0
100
AcDbMText
 62
7
 10
13.6982827867881
 20
1.01227134832442
 30
0
 40
0.1
  1
SIZE
 50
0
 41
0
  7
SLDTEXTSTYLE1
 71
1
 11
1
 21
0
 31
0
 73
1
 44
1
  0
INSERT
  5
E0
100
AcDbEntity
  8
0
100
AcDbBlockReference
 62
7
  6
CONTINUOUS
  2
SW_NOTE_2
 10
10.7691582945595
 20
1.57586406497303
 30
0
 41
1
 42
1
 43
1
  0
INSERT
  5
EA
100
AcDbEntity
  8
0
100
AcDbBlockReference
 62
7
  6
CONTINUOUS
  2
SW_NOTE_3
 10
10.7434257051579
 20
0.980388979424955
 30
0
 41
1
 42
1
 43
1
  0
MTEXT
  5
EB
100
AcDbEntity
  8
0
100
AcDbMText
 62
7
 10
14.8540219820046
 20
1.01121326085683
 30
0
 40
0.09375
  1
PCB TEMPLATE
 50
0
 41
0
  7
SLDTEXTSTYLE1
 71
2
 11
1
 21
0
 31
0
 73
1
 44
1
  0
MTEXT
  5
EC
100
AcDbEntity
  8
0
100
AcDbMText
 62
7
 10
12.8773898201548
 20
0.481806541106161
 30
0
 40
0.075
  1
C.C.B.
 50
0
 41
0
  7
SLDTEXTSTYLE1
 71
2
 11
1
 21
0
 31
0
 73
1
 44
1
  0
MTEXT
  5
ED
100
AcDbEntity
  8
0
100
AcDbMText
 62
7
 10
12.8753844366091
 20
0.596108447072385
 30
0
 40
0.075
  1
D.M.F.
 50
0
 41
0
  7
SLDTEXTSTYLE1
 71
2
 11
1
 21
0
 31
0
 73
1
 44
1
  0
MTEXT
  5
EE
100
AcDbEntity
  8
0
100
AcDbMText
 62
7
 10
12.1764192540459
 20
0.477421942925625
 30
0
 40
0.065
  1
CHECKED
 50
0
 41
0
  7
SLDTEXTSTYLE1
 71
1
 11
1
 21
0
 31
0
 73
1
 44
1
  0
MTEXT
  5
EF
100
AcDbEntity
  8
0
100
AcDbMText
 62
7
 10
12.2157513912676
 20
0.588155553422382
 30
0
 40
0.065
  1
DRAWN
 50
0
 41
0
  7
SLDTEXTSTYLE1
 71
1
 11
1
 21
0
 31
0
 73
1
 44
1
  0
MTEXT
  5
F0
100
AcDbEntity
  8
0
100
AcDbMText
 62
7
 10
12.8752968197903
 20
0.708556391230139
 30
0
 40
0.065
  1
NAME
 50
0
 41
0
  7
SLDTEXTSTYLE1
 71
2
 11
1
 21
0
 31
0
 73
1
 44
1
  0
MTEXT
  5
F1
100
AcDbEntity
  8
0
100
AcDbMText
 62
7
 10
13.3427987390226
 20
0.708556391230138
 30
0
 40
0.065
  1
DATE
 50
0
 41
0
  7
SLDTEXTSTYLE1
 71
2
 11
1
 21
0
 31
0
 73
1
 44
1
  0
MTEXT
  5
F2
100
AcDbEntity
  8
0
100
AcDbMText
 62
7
 10
13.3509006610855
 20
0.598268448950942
 30
0
 40
0.075
  1
3/27/2013
 50
0
 41
0
  7
SLDTEXTSTYLE1
 71
2
 11
1
 21
0
 31
0
 73
1
 44
1
  0
MTEXT
  5
F3
100
AcDbEntity
  8
0
100
AcDbMText
 62
7
 10
13.3513455514868
 20
0.482534838454185
 30
0
 40
0.075
  1
4/9/2013
 50
0
 41
0
  7
SLDTEXTSTYLE1
 71
2
 11
1
 21
0
 31
0
 73
1
 44
1
  0
MTEXT
  5
F4
100
AcDbEntity
  8
SLD-0
100
AcDbMText
370
-1
 10
12.1435121670344
 20
1.34375505270998
 30
0
 40
0.1
  1
MATERIAL
 50
0
 41
0
  7
SLDTEXTSTYLE1
 71
1
 11
1
 21
0
 31
0
 73
1
 44
1
  0
MTEXT
  5
F5
100
AcDbEntity
  8
SLD-0
100
AcDbMText
370
-1
 10
12.1435121670344
 20
1.01084261399823
 30
0
 40
0.09375
  1
FLAME RATING
 50
0
 41
0
  7
SLDTEXTSTYLE1
 71
1
 11
1
 21
0
 31
0
 73
1
 44
1
  0
MTEXT
  5
F6
100
AcDbEntity
  8
0
100
AcDbMText
 62
7
 10
13.8105310530945
 20
0.876921191745804
 30
0
 40
0.25
  1
B
 50
0
 41
0
  7
SLDTEXTSTYLE1
 71
2
 11
1
 21
0
 31
0
 73
1
 44
1
  0
MTEXT
  5
F7
100
AcDbEntity
  8
0
100
AcDbMText
 62
7
 10
16.0403569824775
 20
0.874361528463043
 30
0
 40
0.2
  1
-
 50
0
 41
0
  7
SLDTEXTSTYLE1
 71
2
 11
1
 21
0
 31
0
 73
1
 44
1
  0
MTEXT
  5
F8
100
AcDbEntity
  8
0
100
AcDbMText
 62
7
 10
10.5708673982955
 20
0.480591021239778
 30
0
 40
0.0625
  1
CAD FILE: WP-36B+15-PCB
 50
0
 41
0
  7
SLDTEXTSTYLE1
 71
1
 11
1
 21
0
 31
0
 73
1
 44
1
  0
MTEXT
  5
F9
100
AcDbEntity
  8
FORMAT
100
AcDbMText
370
-1
 62
7
 10
12.1435121670344
 20
1.52577883510578
 30
0
 40
0.104166666666667
  1
WP-36B*15-PCB
 50
0
 41
0
  7
SLDTEXTSTYLE1
 71
1
 11
1
 21
0
 31
0
 73
1
 44
1
  0
INSERT
  5
10E
100
AcDbEntity
  8
SLD-0
100
AcDbBlockReference
370
-1
  6
BYLAYER
  2
SW_TABLEANNOTATION_0
 10
6.07649271693615
 20
0.725329454441063
 30
0
 41
1
 42
1
 43
1
  0
LINE
  5
10F
100
AcDbEntity
  8
0
100
AcDbLine
370
30
 62
7
  6
CONTINUOUS
 10
15.9956945901152
 20
8.47402362087146
 30
0
 11
15.9956945901152
 21
8.52505742161432
 31
0
  0
LINE
  5
110
100
AcDbEntity
  8
0
100
AcDbLine
370
30
 62
7
  6
CONTINUOUS
 10
10.8369940351924
 20
8.62951908946566
 30
0
 11
10.8369940351924
 21
8.5784852887228
 31
0
  0
LINE
  5
111
100
AcDbEntity
  8
0
100
AcDbLine
370
30
 62
7
  6
CONTINUOUS
 10
16.1766471128598
 20
9.03892017855981
 30
0
 11
16.1766471128598
 21
9.08995397930267
 31
0
  0
LINE
  5
112
100
AcDbEntity
  8
0
100
AcDbLine
370
30
 62
7
  6
CONTINUOUS
 10
11.017946557937
 20
9.19441564715401
 30
0
 11
11.017946557937
 21
9.14338184641115
 31
0
  0
LWPOLYLINE
  5
113
100
AcDbEntity
  8
0
100
AcDbPolyline
370
30
 62
7
  6
CONTINUOUS
 38
0
 90
26
 70
128
 10
12.8744750235827
 20
10.0696517490028
 10
12.8878444357497
 20
10.063665056583
 10
12.9033728316552
 20
10.0597858350073
 10
12.9200845050751
 20
10.0582578300341
 10
12.9369294001071
 20
10.0591770518356
 10
12.9528490900453
 20
10.0624857423252
 10
12.9668432822222
 20
10.0679760043111
 10
12.9780326700764
 20
10.0753028644407
 10
12.9857141832173
 20
10.084005949146
 10
12.9894051639235
 20
10.0935384116072
 10
12.988873694303
 20
10.1033012921498
 10
12.9841531685465
 20
10.1126811530841
 10
12.9755401946482
 20
10.1210886232508
 10
12.9635759574344
 20
10.1279954303787
 10
12.9490122139307
 20
10.1329675943748
 10
12.9327640577031
 20
10.1356926958886
 10
12.9158524201638
 20
10.1359995067698
 10
12.8993399216963
 20
10.1338687489626
 10
12.8842641033078
 20
10.1294343058161
 10
12.8715722341128
 20
10.1229748097021
 10
12.8620617909301
 20
10.1148961345178
 10
12.856330349882
 20
10.1057058931363
 10
12.8547380384882
 20
10.0959815422229
 10
12.8573849075296
 20
10.0863340985093
 10
12.8641046444901
 20
10.0773697463646
 10
12.8744750235827
 20
10.0696517490028
  0
LWPOLYLINE
  5
114
100
AcDbEntity
  8
0
100
AcDbPolyline
370
30
 62
7
  6
CONTINUOUS
 38
0
 90
26
 70
128
 10
11.315499443014
 20
9.16967430289907
 10
11.3288688551809
 20
9.1636876104792
 10
11.3443972510864
 20
9.1598083889035
 10
11.3611089245063
 20
9.15828038393034
 10
11.3779538195383
 20
9.15919960573181
 10
11.3938735094765
 20
9.16250829622145
 10
11.4078677016534
 20
9.16799855820729
 10
11.4190570895076
 20
9.17532541833698
 10
11.4267386026485
 20
9.18402850304227
 10
11.4304295833548
 20
9.19356096550342
 10
11.4298981137342
 20
9.20332384604606
 10
11.4251775879777
 20
9.21270370698031
 10
11.4165646140794
 20
9.22111117714698
 10
11.4046003768656
 20
9.22801798427498
 10
11.3900366333619
 20
9.23299014827098
 10
11.3737884771343
 20
9.2357152497848
 10
11.3568768395951
 20
9.23602206066608
 10
11.3403643411275
 20
9.23389130285879
 10
11.3252885227391
 20
9.22945685971234
 10
11.312596653544
 20
9.22299736359835
 10
11.3030862103614
 20
9.21491868841405
 10
11.2973547693132
 20
9.20572844703254
 10
11.2957624579194
 20
9.19600409611918
 10
11.2984093269609
 20
9.18635665240549
 10
11.3051290639213
 20
9.17739230026085
 10
11.315499443014
 20
9.16967430289907
  0
LWPOLYLINE
  5
115
100
AcDbEntity
  8
0
100
AcDbPolyline
370
30
 62
7
  6
CONTINUOUS
 38
0
 90
26
 70
128
 10
15.6026822895781
 20
8.49469121832123
 10
15.616051701745
 20
8.48870452590136
 10
15.6315800976505
 20
8.48482530432566
 10
15.6482917710704
 20
8.48329729935251
 10
15.6651366661024
 20
8.48421652115397
 10
15.6810563560406
 20
8.48752521164361
 10
15.6950505482175
 20
8.49301547362945
 10
15.7062399360717
 20
8.50034233375914
 10
15.7139214492126
 20
8.50904541846444
 10
15.7176124299189
 20
8.51857788092559
 10
15.7170809602984
 20
8.52834076146822
 10
15.7123604345418
 20
8.53772062240248
 10
15.7037474606435
 20
8.54612809256915
 10
15.6917832234298
 20
8.55303489969714
 10
15.677219479926
 20
8.55800706369315
 10
15.6609713236984
 20
8.56073216520696
 10
15.6440596861592
 20
8.56103897608824
 10
15.6275471876916
 20
8.55890821828095
 10
15.6124713693032
 20
8.5544737751345
 10
15.5997795001081
 20
8.54801427902052
 10
15.5902690569255
 20
8.53993560383622
 10
15.5845376158773
 20
8.53074536245471
 10
15.5829453044835
 20
8.52102101154134
 10
15.585592173525
 20
8.51137356782766
 10
15.5923119104854
 20
8.50240921568301
 10
15.6026822895781
 20
8.49469121832123
  0
LWPOLYLINE
  5
116
100
AcDbEntity
  8
0
100
AcDbPolyline
370
30
 62
7
  6
CONTINUOUS
 38
0
 90
33
 70
128
 10
15.3203128375476
 20
8.33168280339569
 10
15.3373606992163
 20
8.3236060757933
 10
15.35681046429
 20
8.31760452575953
 10
15.3779146892042
 20
8.31390878949646
 10
15.3998623504311
 20
8.31266089207609
 10
15.4218100116579
 20
8.31390878949646
 10
15.4429142365721
 20
8.31760452575953
 10
15.4623640016458
 20
8.3236060757933
 10
15.4794118633145
 20
8.33168280339569
 10
15.4934026818151
 20
8.34152432445441
 10
15.5037987978386
 20
8.35275243483437
 10
15.5102006944764
 20
8.36493564455046
 10
15.5123623504311
 20
8.37760575968571
 10
15.5102006944764
 20
8.39027587482097
 10
15.5037987978386
 20
8.40245908453706
 10
15.4934026818151
 20
8.41368719491702
 10
15.4794118633145
 20
8.42352871597574
 10
15.4623640016458
 20
8.43160544357813
 10
15.4429142365721
 20
8.4376069936119
 10
15.4218100116579
 20
8.44130272987497
 10
15.3998623504311
 20
8.44255062729534
 10
15.3779146892042
 20
8.44130272987497
 10
15.35681046429
 20
8.4376069936119
 10
15.3373606992163
 20
8.43160544357813
 10
15.3203128375476
 20
8.42352871597574
 10
15.306322019047
 20
8.41368719491702
 10
15.2959259030235
 20
8.40245908453706
 10
15.2895240063857
 20
8.39027587482097
 10
15.2873623504311
 20
8.37760575968571
 10
15.2895240063857
 20
8.36493564455046
 10
15.2959259030235
 20
8.35275243483437
 10
15.306322019047
 20
8.34152432445441
 10
15.3203128375476
 20
8.33168280339569
  0
LWPOLYLINE
  5
117
100
AcDbEntity
  8
0
100
AcDbPolyline
370
30
 62
7
  6
CONTINUOUS
 38
0
 90
26
 70
128
 10
14.8231944992937
 20
8.04470249526935
 10
14.8365639114606
 20
8.03871580284948
 10
14.8520923073661
 20
8.03483658127377
 10
14.868803980786
 20
8.03330857630062
 10
14.8856488758181
 20
8.03422779810209
 10
14.9015685657562
 20
8.03753648859173
 10
14.9155627579331
 20
8.04302675057757
 10
14.9267521457873
 20
8.05035361070726
 10
14.9344336589282
 20
8.05905669541255
 10
14.9381246396345
 20
8.0685891578737
 10
14.937593170014
 20
8.07835203841634
 10
14.9328726442575
 20
8.08773189935059
 10
14.9242596703592
 20
8.09613936951726
 10
14.9122954331454
 20
8.10304617664526
 10
14.8977316896416
 20
8.10801834064126
 10
14.881483533414
 20
8.11074344215507
 10
14.8645718958748
 20
8.11105025303636
 10
14.8480593974072
 20
8.10891949522907
 10
14.8329835790188
 20
8.10448505208261
 10
14.8202917098237
 20
8.09802555596863
 10
14.8107812666411
 20
8.08994688078433
 10
14.8050498255929
 20
8.08075663940282
 10
14.8034575141991
 20
8.07103228848946
 10
14.8061043832406
 20
8.06138484477577
 10
14.812824120201
 20
8.05242049263113
 10
14.8231944992937
 20
8.04470249526935
  0
LWPOLYLINE
  5
118
100
AcDbEntity
  8
0
100
AcDbPolyline
370
30
 62
7
  6
CONTINUOUS
 38
0
 90
26
 70
128
 10
12.067148383645
 20
8.02863146944589
 10
12.080517795812
 20
8.02264477702601
 10
12.0960461917175
 20
8.01876555545031
 10
12.1127578651373
 20
8.01723755047716
 10
12.1296027601694
 20
8.01815677227863
 10
12.1455224501075
 20
8.02146546276827
 10
12.1595166422845
 20
8.0269557247541
 10
12.1707060301387
 20
8.0342825848838
 10
12.1783875432795
 20
8.04298566958909
 10
12.1820785239858
 20
8.05251813205024
 10
12.1815470543653
 20
8.06228101259287
 10
12.1768265286088
 20
8.07166087352713
 10
12.1682135547105
 20
8.0800683436938
 10
12.1562493174967
 20
8.08697515082179
 10
12.141685573993
 20
8.0919473148178
 10
12.1254374177653
 20
8.09467241633161
 10
12.1085257802261
 20
8.09497922721289
 10
12.0920132817586
 20
8.0928484694056
 10
12.0769374633701
 20
8.08841402625915
 10
12.0642455941751
 20
8.08195453014517
 10
12.0547351509924
 20
8.07387585496087
 10
12.0490037099443
 20
8.06468561357936
 10
12.0474113985504
 20
8.05496126266599
 10
12.0500582675919
 20
8.04531381895231
 10
12.0567780045524
 20
8.03634946680767
 10
12.067148383645
 20
8.02863146944589
  0
LINE
  5
119
100
AcDbEntity
  8
0
100
AcDbLine
370
30
 62
7
  6
CONTINUOUS
 10
13.1686177234202
 20
7.33296646726661
 30
0
 11
13.4700602673193
 21
7.50698554375933
 31
0
  0
ARC
  5
11A
100
AcDbEntity
  8
0
100
AcDbCircle
370
30
 62
7
  6
CONTINUOUS
 10
13.1080290527467
 20
7.44990217300564
 30
0
 40
0.131700213707769
100
AcDbArc
 50
242.6096722366
 51
297.390327763401
  0
LINE
  5
11B
100
AcDbEntity
  8
0
100
AcDbLine
370
30
 62
7
  6
CONTINUOUS
 10
10.8620906843116
 20
8.59454199439423
 30
0
 11
13.0474403820732
 21
7.33296646726661
 31
0
  0
ARC
  5
11C
100
AcDbEntity
  8
0
100
AcDbCircle
370
30
 62
7
  6
CONTINUOUS
 10
10.8753656561471
 20
8.62951908946566
 30
0
 40
0.0374115230493274
100
AcDbArc
 50
110.783420799468
 51
249.216579200535
  0
LINE
  5
11D
100
AcDbEntity
  8
0
100
AcDbLine
370
30
 62
7
  6
CONTINUOUS
 10
11.1635332282106
 20
8.83851526102981
 30
0
 11
10.8620906843116
 21
8.66449618453709
 31
0
  0
ARC
  5
11E
100
AcDbEntity
  8
0
100
AcDbCircle
370
30
 62
7
  6
CONTINUOUS
 10
11.1149502015208
 20
8.9641982022355
 30
0
 40
0.134746102698573
100
AcDbArc
 50
291.134122831824
 51
68.8658771681761
  0
LINE
  5
11F
100
AcDbEntity
  8
0
100
AcDbLine
370
30
 62
7
  6
CONTINUOUS
 10
11.0430432070562
 20
9.15943855208258
 30
0
 11
11.1635332282106
 21
9.08988114344119
 31
0
  0
ARC
  5
120
100
AcDbEntity
  8
0
100
AcDbCircle
370
30
 62
7
  6
CONTINUOUS
 10
11.0563181788917
 20
9.19441564715401
 30
0
 40
0.0374115230493251
100
AcDbArc
 50
110.783420799465
 51
249.216579200536
  0
LINE
  5
121
100
AcDbEntity
  8
0
100
AcDbLine
370
30
 62
7
  6
CONTINUOUS
 10
12.8664878593286
 20
10.2820449336504
 30
0
 11
11.0430432070562
 21
9.22939274222544
 31
0
  0
ARC
  5
122
100
AcDbEntity
  8
0
100
AcDbCircle
370
30
 62
7
  6
CONTINUOUS
 10
12.9270765300021
 20
10.1651092279114
 30
0
 40
0.131700213707778
100
AcDbArc
 50
62.6096722366005
 51
117.390327763399
  0
LINE
  5
123
100
AcDbEntity
  8
0
100
AcDbLine
370
30
 62
7
  6
CONTINUOUS
 10
13.1081552218301
 20
10.212487525009
 30
0
 11
12.9876652006757
 21
10.2820449336504
 31
0
  0
ARC
  5
124
100
AcDbEntity
  8
0
100
AcDbCircle
370
30
 62
7
  6
CONTINUOUS
 10
13.3258680512815
 20
10.6311436219235
 30
0
 40
0.471881132904707
100
AcDbArc
 50
242.52431239246
 51
297.475687607541
  0
LINE
  5
125
100
AcDbEntity
  8
0
100
AcDbLine
370
30
 62
7
  6
CONTINUOUS
 10
13.845023424632
 20
10.3865066015017
 30
0
 11
13.543580880733
 21
10.212487525009
 31
0
  0
ARC
  5
126
100
AcDbEntity
  8
0
100
AcDbCircle
370
30
 62
7
  6
CONTINUOUS
 10
13.9056120953055
 20
10.2695708957627
 30
0
 40
0.13170021370778
100
AcDbArc
 50
62.6096722366009
 51
117.390327763398
  0
LINE
  5
127
100
AcDbEntity
  8
0
100
AcDbLine
370
30
 62
7
  6
CONTINUOUS
 10
16.1515504637407
 20
9.12493107437411
 30
0
 11
13.9662007659791
 21
10.3865066015017
 31
0
  0
ARC
  5
128
100
AcDbEntity
  8
0
100
AcDbCircle
370
30
 62
7
  6
CONTINUOUS
 10
16.1382754919051
 20
9.08995397930267
 30
0
 40
0.0374115230493245
100
AcDbArc
 50
290.783420799463
 51
69.2165792005379
  0
LINE
  5
129
100
AcDbEntity
  8
0
100
AcDbLine
370
30
 62
7
  6
CONTINUOUS
 10
15.8501079198416
 20
8.88095780773852
 30
0
 11
16.1515504637407
 21
9.05497688423124
 31
0
  0
ARC
  5
12A
100
AcDbEntity
  8
0
100
AcDbCircle
370
30
 62
7
  6
CONTINUOUS
 10
15.8986909465314
 20
8.75527486653283
 30
0
 40
0.134746102698571
100
AcDbArc
 50
111.134122831823
 51
248.865877168178
  0
LINE
  5
12B
100
AcDbEntity
  8
0
100
AcDbLine
370
30
 62
7
  6
CONTINUOUS
 10
15.9705979409961
 20
8.56003451668576
 30
0
 11
15.8501079198416
 21
8.62959192532715
 31
0
  0
ARC
  5
12C
100
AcDbEntity
  8
0
100
AcDbCircle
370
30
 62
7
  6
CONTINUOUS
 10
15.9573229691605
 20
8.52505742161432
 30
0
 40
0.037411523049328
100
AcDbArc
 50
290.783420799472
 51
69.2165792005312
  0
LINE
  5
12D
100
AcDbEntity
  8
0
100
AcDbLine
370
30
 62
7
  6
CONTINUOUS
 10
14.1471532887237
 20
7.43742813511794
 30
0
 11
15.9705979409961
 21
8.49008032654289
 31
0
  0
ARC
  5
12E
100
AcDbEntity
  8
0
100
AcDbCircle
370
30
 62
7
  6
CONTINUOUS
 10
14.0865646180501
 20
7.55436384085698
 30
0
 40
0.131700213707773
100
AcDbArc
 50
242.6096722366
 51
297.390327763401
  0
LINE
  5
12F
100
AcDbEntity
  8
0
100
AcDbLine
370
30
 62
7
  6
CONTINUOUS
 10
13.9054859262221
 20
7.50698554375933
 30
0
 11
14.0259759473766
 21
7.43742813511794
 31
0
  0
ARC
  5
130
100
AcDbEntity
  8
0
100
AcDbCircle
370
30
 62
7
  6
CONTINUOUS
 10
13.6877730967707
 20
7.08832944684483
 30
0
 40
0.471881132904709
100
AcDbArc
 50
62.5243123924592
 51
117.47568760754
  0
LWPOLYLINE
  5
131
100
AcDbEntity
  8
0
100
AcDbPolyline
370
30
 62
7
  6
CONTINUOUS
 38
0
 90
26
 70
128
 10
14.851033348947
 20
9.63573405177442
 10
14.864402761114
 20
9.62974735935454
 10
14.8799311570195
 20
9.62586813777884
 10
14.8966428304394
 20
9.62434013280569
 10
14.9134877254714
 20
9.62525935460716
 10
14.9294074154095
 20
9.6285680450968
 10
14.9434016075865
 20
9.63405830708263
 10
14.9545909954407
 20
9.64138516721233
 10
14.9622725085815
 20
9.65008825191762
 10
14.9659634892878
 20
9.65962071437877
 10
14.9654320196673
 20
9.6693835949214
 10
14.9607114939108
 20
9.67876345585566
 10
14.9520985200125
 20
9.68717092602233
 10
14.9401342827987
 20
9.69407773315032
 10
14.925570539295
 20
9.69904989714633
 10
14.9093223830673
 20
9.70177499866014
 10
14.8924107455281
 20
9.70208180954143
 10
14.8758982470606
 20
9.69995105173414
 10
14.8608224286721
 20
9.69551660858768
 10
14.8481305594771
 20
9.6890571124737
 10
14.8386201162944
 20
9.6809784372894
 10
14.8328886752463
 20
9.67178819590789
 10
14.8312963638524
 20
9.66206384499452
 10
14.8339432328939
 20
9.65241640128084
 10
14.8406629698544
 20
9.6434520491362
 10
14.851033348947
 20
9.63573405177442
  0
LWPOLYLINE
  5
132
100
AcDbEntity
  8
0
100
AcDbPolyline
370
30
 62
7
  6
CONTINUOUS
 38
0
 90
26
 70
128
 10
12.0949872332984
 20
9.61966302595095
 10
12.1083566454653
 20
9.61367633353108
 10
12.1238850413708
 20
9.60979711195538
 10
12.1405967147907
 20
9.60826910698223
 10
12.1574416098227
 20
9.6091883287837
 10
12.1733612997609
 20
9.61249701927333
 10
12.1873554919378
 20
9.61798728125917
 10
12.198544879792
 20
9.62531414138886
 10
12.2062263929329
 20
9.63401722609416
 10
12.2099173736392
 20
9.64354968855531
 10
12.2093859040186
 20
9.65331256909794
 10
12.2046653782621
 20
9.6626924300322
 10
12.1960524043638
 20
9.67109990019887
 10
12.18408816715
 20
9.67800670732686
 10
12.1695244236463
 20
9.68297887132287
 10
12.1532762674187
 20
9.68570397283668
 10
12.1363646298795
 20
9.68601078371796
 10
12.1198521314119
 20
9.68388002591067
 10
12.1047763130234
 20
9.67944558276422
 10
12.0920844438284
 20
9.67298608665024
 10
12.0825740006457
 20
9.66490741146594
 10
12.0768425595976
 20
9.65571717008443
 10
12.0752502482038
 20
9.64599281917106
 10
12.0778971172453
 20
9.63634537545738
 10
12.0846168542057
 20
9.62738102331274
 10
12.0949872332984
 20
9.61966302595095
  0
LWPOLYLINE
  5
133
100
AcDbEntity
  8
0
100
AcDbPolyline
370
30
 62
7
  6
CONTINUOUS
 38
0
 90
26
 70
128
 10
14.0437067090093
 20
7.59471377221746
 10
14.0570761211763
 20
7.58872707979759
 10
14.0726045170818
 20
7.58484785822189
 10
14.0893161905016
 20
7.58331985324874
 10
14.1061610855337
 20
7.5842390750502
 10
14.1220807754718
 20
7.58754776553984
 10
14.1360749676488
 20
7.59303802752568
 10
14.1472643555029
 20
7.60036488765537
 10
14.1549458686438
 20
7.60906797236066
 10
14.1586368493501
 20
7.61860043482182
 10
14.1581053797296
 20
7.62836331536445
 10
14.1533848539731
 20
7.63774317629871
 10
14.1447718800748
 20
7.64615064646538
 10
14.132807642861
 20
7.65305745359337
 10
14.1182438993573
 20
7.65802961758938
 10
14.1019957431296
 20
7.66075471910319
 10
14.0850841055904
 20
7.66106152998447
 10
14.0685716071229
 20
7.65893077217718
 10
14.0534957887344
 20
7.65449632903073
 10
14.0408039195394
 20
7.64803683291675
 10
14.0312934763567
 20
7.63995815773244
 10
14.0255620353085
 20
7.63076791635094
 10
14.0239697239147
 20
7.62104356543757
 10
14.0266165929562
 20
7.61139612172389
 10
14.0333363299166
 20
7.60243176957924
 10
14.0437067090093
 20
7.59471377221746
  0
LWPOLYLINE
  5
134
100
AcDbEntity
  8
0
100
AcDbPolyline
370
30
 62
7
  6
CONTINUOUS
 38
0
 90
33
 70
128
 10
14.262436550733
 20
7.72098382211099
 10
14.2794844124018
 20
7.7129070945086
 10
14.2989341774755
 20
7.70690554447483
 10
14.3200384023897
 20
7.70320980821176
 10
14.3419860636165
 20
7.70196191079139
 10
14.3639337248433
 20
7.70320980821176
 10
14.3850379497576
 20
7.70690554447483
 10
14.4044877148312
 20
7.7129070945086
 10
14.4215355765
 20
7.72098382211099
 10
14.4355263950006
 20
7.73082534316971
 10
14.4459225110241
 20
7.74205345354966
 10
14.4523244076619
 20
7.75423666326576
 10
14.4544860636165
 20
7.76690677840101
 10
14.4523244076619
 20
7.77957689353627
 10
14.4459225110241
 20
7.79176010325236
 10
14.4355263950006
 20
7.80298821363232
 10
14.4215355765
 20
7.81282973469104
 10
14.4044877148312
 20
7.82090646229343
 10
14.3850379497576
 20
7.8269080123272
 10
14.3639337248433
 20
7.83060374859027
 10
14.3419860636165
 20
7.83185164601063
 10
14.3200384023897
 20
7.83060374859027
 10
14.2989341774755
 20
7.8269080123272
 10
14.2794844124018
 20
7.82090646229343
 10
14.262436550733
 20
7.81282973469104
 10
14.2484457322325
 20
7.80298821363232
 10
14.238049616209
 20
7.79176010325236
 10
14.2316477195712
 20
7.77957689353627
 10
14.2294860636165
 20
7.76690677840101
 10
14.2316477195712
 20
7.75423666326575
 10
14.238049616209
 20
7.74205345354966
 10
14.2484457322325
 20
7.73082534316971
 10
14.262436550733
 20
7.72098382211099
  0
LWPOLYLINE
  5
135
100
AcDbEntity
  8
0
100
AcDbPolyline
370
30
 62
7
  6
CONTINUOUS
 38
0
 90
33
 70
128
 10
11.5342292847377
 20
9.29594435279259
 10
11.5512771464065
 20
9.2878676251902
 10
11.5707269114801
 20
9.28186607515643
 10
11.5918311363944
 20
9.27817033889336
 10
11.6137787976212
 20
9.27692244147299
 10
11.635726458848
 20
9.27817033889336
 10
11.6568306837623
 20
9.28186607515643
 10
11.6762804488359
 20
9.2878676251902
 10
11.6933283105047
 20
9.29594435279259
 10
11.7073191290052
 20
9.30578587385131
 10
11.7177152450287
 20
9.31701398423127
 10
11.7241171416666
 20
9.32919719394736
 10
11.7262787976212
 20
9.34186730908262
 10
11.7241171416666
 20
9.35453742421788
 10
11.7177152450287
 20
9.36672063393397
 10
11.7073191290052
 20
9.37794874431392
 10
11.6933283105047
 20
9.38779026537265
 10
11.6762804488359
 20
9.39586699297503
 10
11.6568306837623
 20
9.4018685430088
 10
11.635726458848
 20
9.40556427927187
 10
11.6137787976212
 20
9.40681217669224
 10
11.5918311363944
 20
9.40556427927187
 10
11.5707269114801
 20
9.4018685430088
 10
11.5512771464065
 20
9.39586699297503
 10
11.5342292847377
 20
9.38779026537265
 10
11.5202384662372
 20
9.37794874431392
 10
11.5098423502137
 20
9.36672063393396
 10
11.5034404535758
 20
9.35453742421787
 10
11.5012787976212
 20
9.34186730908262
 10
11.5034404535758
 20
9.32919719394736
 10
11.5098423502137
 20
9.31701398423127
 10
11.5202384662372
 20
9.30578587385131
 10
11.5342292847377
 20
9.29594435279259
  0
LWPOLYLINE
  5
136
100
AcDbEntity
  8
0
100
AcDbPolyline
370
30
 62
7
  6
CONTINUOUS
 38
0
 90
33
 70
128
 10
12.5921055715522
 20
9.90664333407729
 10
12.609153433221
 20
9.89856660647491
 10
12.6286031982946
 20
9.89256505644114
 10
12.6497074232089
 20
9.88886932017807
 10
12.6716550844357
 20
9.8876214227577
 10
12.6936027456625
 20
9.88886932017807
 10
12.7147069705768
 20
9.89256505644114
 10
12.7341567356504
 20
9.89856660647491
 10
12.7512045973192
 20
9.90664333407729
 10
12.7651954158198
 20
9.91648485513602
 10
12.7755915318432
 20
9.92771296551597
 10
12.7819934284811
 20
9.93989617523206
 10
12.7841550844357
 20
9.95256629036732
 10
12.7819934284811
 20
9.96523640550258
 10
12.7755915318432
 20
9.97741961521867
 10
12.7651954158198
 20
9.98864772559863
 10
12.7512045973192
 20
9.99848924665735
 10
12.7341567356504
 20
10.0065659742597
 10
12.7147069705768
 20
10.0125675242935
 10
12.6936027456625
 20
10.0162632605566
 10
12.6716550844357
 20
10.0175111579769
 10
12.6497074232089
 20
10.0162632605566
 10
12.6286031982946
 20
10.0125675242935
 10
12.609153433221
 20
10.0065659742597
 10
12.5921055715522
 20
9.99848924665735
 10
12.5781147530517
 20
9.98864772559863
 10
12.5677186370282
 20
9.97741961521867
 10
12.5613167403904
 20
9.96523640550258
 10
12.5591550844357
 20
9.95256629036732
 10
12.5613167403904
 20
9.93989617523206
 10
12.5677186370282
 20
9.92771296551597
 10
12.5781147530517
 20
9.91648485513601
 10
12.5921055715522
 20
9.90664333407729
  0
ARC
  5
137
100
AcDbEntity
  8
0
100
AcDbCircle
370
30
 62
7
  6
CONTINUOUS
 10
13.1080290527467
 20
7.39886837226278
 30
0
 40
0.131700213707769
100
AcDbArc
 50
242.6096722366
 51
297.390327763402
  0
LINE
  5
138
100
AcDbEntity
  8
0
100
AcDbLine
370
30
 62
7
  6
CONTINUOUS
 10
13.1686177234202
 20
7.28193266652375
 30
0
 11
13.4700602673193
 21
7.45595174301647
 31
0
  0
LINE
  5
139
100
AcDbEntity
  8
0
100
AcDbLine
370
30
 62
7
  6
CONTINUOUS
 10
10.8620906843116
 20
8.54350819365137
 30
0
 11
13.0474403820732
 21
7.28193266652375
 31
0
  0
ARC
  5
13A
100
AcDbEntity
  8
0
100
AcDbCircle
370
30
 62
7
  6
CONTINUOUS
 10
13.6877730967707
 20
7.03729564610198
 30
0
 40
0.471881132904706
100
AcDbArc
 50
62.524312392459
 51
117.47568760754
  0
ARC
  5
13B
100
AcDbEntity
  8
0
100
AcDbCircle
370
30
 62
7
  6
CONTINUOUS
 10
14.0865646180501
 20
7.50333004011411
 30
0
 40
0.13170021370777
100
AcDbArc
 50
242.6096722366
 51
297.390327763401
  0
LINE
  5
13C
100
AcDbEntity
  8
0
100
AcDbLine
370
30
 62
7
  6
CONTINUOUS
 10
13.9054859262221
 20
7.45595174301647
 30
0
 11
14.0259759473766
 21
7.38639433437508
 31
0
  0
LINE
  5
13D
100
AcDbEntity
  8
0
100
AcDbLine
370
30
 62
7
  6
CONTINUOUS
 10
14.1471532887237
 20
7.38639433437508
 30
0
 11
15.9705979409961
 21
8.43904652580003
 31
0
  0
ARC
  5
13E
100
AcDbEntity
  8
0
100
AcDbCircle
370
30
 62
7
  6
CONTINUOUS
 10
14.0914364167394
 20
7.51010203065054
 30
0
 40
0.10055084533434
100
AcDbArc
 50
59.5124357808618
 51
120.487564219136
  0
ARC
  5
13F
100
AcDbEntity
  8
0
100
AcDbCircle
370
30
 62
7
  6
CONTINUOUS
 10
14.3419860636165
 20
7.63268096113162
 30
0
 40
0.150067047130426
100
AcDbArc
 50
46.4191504795351
 51
133.580849520463
  0
ARC
  5
140
100
AcDbEntity
  8
0
100
AcDbCircle
370
30
 62
7
  6
CONTINUOUS
 10
12.1148780913751
 20
7.94401972787896
 30
0
 40
0.100550845334343
100
AcDbArc
 50
59.5124357808651
 51
120.487564219136
  0
ARC
  5
141
100
AcDbEntity
  8
0
100
AcDbCircle
370
30
 62
7
  6
CONTINUOUS
 10
14.8709242070238
 20
7.96009075370242
 30
0
 40
0.100550845334341
100
AcDbArc
 50
59.5124357808671
 51
120.487564219132
  0
ARC
  5
142
100
AcDbEntity
  8
0
100
AcDbCircle
370
30
 62
7
  6
CONTINUOUS
 10
15.3998623504311
 20
8.24337994241632
 30
0
 40
0.150067047130422
100
AcDbArc
 50
46.419150479533
 51
133.580849520467
  0
ARC
  5
143
100
AcDbEntity
  8
0
100
AcDbCircle
370
30
 62
7
  6
CONTINUOUS
 10
15.6504119973082
 20
8.41007947675431
 30
0
 40
0.100550845334335
100
AcDbArc
 50
59.5124357808614
 51
120.487564219137
  0
ARC
  5
144
100
AcDbEntity
  8
0
100
AcDbCircle
370
30
 62
7
  6
CONTINUOUS
 10
15.9528127666732
 20
8.47829986473577
 30
0
 40
0.0430945129140467
100
AcDbArc
 50
294.374658293589
 51
354.305200748801
  0
ARC
  5
145
100
AcDbEntity
  8
0
100
AcDbCircle
370
30
 62
7
  6
CONTINUOUS
 10
10.8798758586344
 20
8.5827615325871
 30
0
 40
0.0430945129140358
100
AcDbArc
 50
185.694799251198
 51
245.625341706425
  0
ARC
  5
146
100
AcDbEntity
  8
0
100
AcDbCircle
370
30
 62
7
  6
CONTINUOUS
 10
15.9239432159157
 20
8.67794408284398
 30
0
 40
0.168966115808764
100
AcDbArc
 50
115.91153343716
 51
162.142389548662
  0
ARC
  5
147
100
AcDbEntity
  8
0
100
AcDbCircle
370
30
 62
7
  6
CONTINUOUS
 10
11.0896979321365
 20
8.88686741854664
 30
0
 40
0.16896611580877
100
AcDbArc
 50
17.8576104513463
 51
64.0884665628385
  0
LINE
  5
148
100
AcDbEntity
  8
0
100
AcDbLine
370
30
 62
7
  6
CONTINUOUS
 10
15.8501079198416
 20
8.82992400699566
 30
0
 11
16.1515504637407
 21
9.00394308348838
 31
0
  0
ARC
  5
149
100
AcDbEntity
  8
0
100
AcDbCircle
370
30
 62
7
  6
CONTINUOUS
 10
16.1337652894178
 20
9.04319642242411
 30
0
 40
0.0430945129140354
100
AcDbArc
 50
294.374658293581
 51
354.305200748809
  0
LINE
  5
14A
100
AcDbEntity
  8
0
100
AcDbLine
370
30
 62
7
  6
CONTINUOUS
 10
11.0430432070562
 20
9.10840475133972
 30
0
 11
11.1635332282106
 21
9.03884734269833
 31
0
  0
ARC
  5
14B
100
AcDbEntity
  8
0
100
AcDbCircle
370
30
 62
7
  6
CONTINUOUS
 10
11.3632291507441
 20
9.08506256133214
 30
0
 40
0.100550845334345
100
AcDbArc
 50
59.5124357808599
 51
120.487564219136
  0
ARC
  5
14C
100
AcDbEntity
  8
0
100
AcDbCircle
370
30
 62
7
  6
CONTINUOUS
 10
11.060828381379
 20
9.14765809027545
 30
0
 40
0.0430945129140342
100
AcDbArc
 50
185.694799251195
 51
245.625341706424
  0
ARC
  5
14D
100
AcDbEntity
  8
0
100
AcDbCircle
370
30
 62
7
  6
CONTINUOUS
 10
11.6137787976212
 20
9.20764149181322
 30
0
 40
0.150067047130428
100
AcDbArc
 50
46.4191504795367
 51
133.580849520462
  0
ARC
  5
14E
100
AcDbEntity
  8
0
100
AcDbCircle
370
30
 62
7
  6
CONTINUOUS
 10
12.1427169410285
 20
9.53505128438401
 30
0
 40
0.100550845334355
100
AcDbArc
 50
59.512435780874
 51
120.487564219125
  0
ARC
  5
14F
100
AcDbEntity
  8
0
100
AcDbCircle
370
30
 62
7
  6
CONTINUOUS
 10
14.8987630566771
 20
9.55112231020748
 30
0
 40
0.10055084533435
100
AcDbArc
 50
59.5124357808728
 51
120.487564219131
  0
ARC
  5
150
100
AcDbEntity
  8
0
100
AcDbCircle
370
30
 62
7
  6
CONTINUOUS
 10
12.6716550844357
 20
9.81834047309793
 30
0
 40
0.150067047130424
100
AcDbArc
 50
46.4191504795353
 51
133.580849520464
  0
ARC
  5
151
100
AcDbEntity
  8
0
100
AcDbCircle
370
30
 62
7
  6
CONTINUOUS
 10
12.9222047313128
 20
9.98504000743593
 30
0
 40
0.10055084533433
100
AcDbArc
 50
59.5124357808539
 51
120.487564219144
  0
CIRCLE
  5
152
100
AcDbEntity
  8
0
100
AcDbCircle
370
30
 62
7
  6
CONTINUOUS
 10
4.17381479597362
 20
7.5984989378033
 30
0
 40
0.0674999999999999
  0
CIRCLE
  5
153
100
AcDbEntity
  8
0
100
AcDbCircle
370
30
 62
7
  6
CONTINUOUS
 10
4.17381479597362
 20
5.39377452835448
 30
0
 40
0.0675000000000008
  0
CIRCLE
  5
154
100
AcDbEntity
  8
0
100
AcDbCircle
370
30
 62
7
  6
CONTINUOUS
 10
8.03208251250905
 20
7.5984989378033
 30
0
 40
0.0674999999999999
  0
CIRCLE
  5
155
100
AcDbEntity
  8
0
100
AcDbCircle
370
30
 62
7
  6
CONTINUOUS
 10
8.03208251250905
 20
7.24416822914188
 30
0
 40
0.112500000000001
  0
CIRCLE
  5
156
100
AcDbEntity
  8
0
100
AcDbCircle
370
30
 62
7
  6
CONTINUOUS
 10
8.03208251250905
 20
6.49613673307889
 30
0
 40
0.0674999999999999
  0
CIRCLE
  5
157
100
AcDbEntity
  8
0
100
AcDbCircle
370
30
 62
7
  6
CONTINUOUS
 10
6.10294865424133
 20
4.52763279607057
 30
0
 40
0.067499999999999
  0
LINE
  5
158
100
AcDbEntity
  8
0
100
AcDbLine
370
30
 62
7
  6
CONTINUOUS
 10
7.7339095645852
 20
4.38688476457495
 30
0
 11
7.7339095645852
 21
4.81318889843322
 31
0
  0
ARC
  5
159
100
AcDbEntity
  8
0
100
AcDbCircle
370
30
 62
7
  6
CONTINUOUS
 10
7.64822424479252
 20
4.38688476457495
 30
0
 40
0.0856853197926801
100
AcDbArc
 50
270.000000000001
 51
2.03555499613665E-13
  0
LINE
  5
15A
100
AcDbEntity
  8
0
100
AcDbLine
370
30
 62
7
  6
CONTINUOUS
 10
4.55767306369015
 20
4.30119944478227
 30
0
 11
7.64822424479252
 21
4.30119944478227
 31
0
  0
ARC
  5
15B
100
AcDbEntity
  8
0
100
AcDbCircle
370
30
 62
7
  6
CONTINUOUS
 10
4.55767306369015
 20
4.38688476457495
 30
0
 40
0.0856853197926792
100
AcDbArc
 50
180
 51
270.000000000001
  0
LINE
  5
15C
100
AcDbEntity
  8
0
100
AcDbLine
370
30
 62
7
  6
CONTINUOUS
 10
4.47198774389747
 20
4.81318889843322
 30
0
 11
4.47198774389747
 21
4.38688476457495
 31
0
  0
ARC
  5
15D
100
AcDbEntity
  8
0
100
AcDbCircle
370
30
 62
7
  6
CONTINUOUS
 10
4.16409530778464
 20
4.81318889843322
 30
0
 40
0.307892436112833
100
AcDbArc
 50
0
 51
90
  0
LINE
  5
15E
100
AcDbEntity
  8
0
100
AcDbLine
370
30
 62
7
  6
CONTINUOUS
 10
3.9936966857374
 20
5.12108133454605
 30
0
 11
4.16409530778464
 21
5.12108133454605
 31
0
  0
ARC
  5
15F
100
AcDbEntity
  8
0
100
AcDbCircle
370
30
 62
7
  6
CONTINUOUS
 10
3.9936966857374
 20
5.20676665433873
 30
0
 40
0.0856853197926801
100
AcDbArc
 50
180
 51
270
  0
LINE
  5
160
100
AcDbEntity
  8
0
100
AcDbLine
370
30
 62
7
  6
CONTINUOUS
 10
3.90801136594472
 20
7.78550681181905
 30
0
 11
3.90801136594472
 21
5.20676665433873
 31
0
  0
ARC
  5
161
100
AcDbEntity
  8
0
100
AcDbCircle
370
30
 62
7
  6
CONTINUOUS
 10
3.9936966857374
 20
7.78550681181905
 30
0
 40
0.0856853197926797
100
AcDbArc
 50
90
 51
180
  0
LINE
  5
162
100
AcDbEntity
  8
0
100
AcDbLine
370
30
 62
7
  6
CONTINUOUS
 10
4.16409530778464
 20
7.87119213161173
 30
0
 11
3.9936966857374
 21
7.87119213161172
 31
0
  0
ARC
  5
163
100
AcDbEntity
  8
0
100
AcDbCircle
370
30
 62
7
  6
CONTINUOUS
 10
4.16409530778464
 20
8.17908456772456
 30
0
 40
0.307892436112833
100
AcDbArc
 50
270.000000000001
 51
0
  0
LINE
  5
164
100
AcDbEntity
  8
0
100
AcDbLine
370
30
 62
7
  6
CONTINUOUS
 10
4.47198774389747
 20
8.60538870158283
 30
0
 11
4.47198774389747
 21
8.17908456772456
 31
0
  0
ARC
  5
165
100
AcDbEntity
  8
0
100
AcDbCircle
370
30
 62
7
  6
CONTINUOUS
 10
4.55767306369015
 20
8.60538870158283
 30
0
 40
0.0856853197926792
100
AcDbArc
 50
90
 51
179.999999999999
  0
LINE
  5
166
100
AcDbEntity
  8
0
100
AcDbLine
370
30
 62
7
  6
CONTINUOUS
 10
7.64822424479252
 20
8.6910740213755
 30
0
 11
4.55767306369015
 21
8.6910740213755
 31
0
  0
ARC
  5
167
100
AcDbEntity
  8
0
100
AcDbCircle
370
30
 62
7
  6
CONTINUOUS
 10
7.64822424479252
 20
8.60538870158283
 30
0
 40
0.0856853197926792
100
AcDbArc
 50
0
 51
90
  0
LINE
  5
168
100
AcDbEntity
  8
0
100
AcDbLine
370
30
 62
7
  6
CONTINUOUS
 10
7.7339095645852
 20
8.17908456772456
 30
0
 11
7.7339095645852
 21
8.60538870158283
 31
0
  0
ARC
  5
169
100
AcDbEntity
  8
0
100
AcDbCircle
370
30
 62
7
  6
CONTINUOUS
 10
8.04180200069803
 20
8.17908456772456
 30
0
 40
0.307892436112834
100
AcDbArc
 50
180
 51
270.000000000001
  0
LINE
  5
16A
100
AcDbEntity
  8
0
100
AcDbLine
370
30
 62
7
  6
CONTINUOUS
 10
8.21220062274527
 20
7.87119213161172
 30
0
 11
8.04180200069803
 21
7.87119213161172
 31
0
  0
ARC
  5
16B
100
AcDbEntity
  8
0
100
AcDbCircle
370
30
 62
7
  6
CONTINUOUS
 10
8.21220062274527
 20
7.78550681181905
 30
0
 40
0.085685319792681
100
AcDbArc
 50
0
 51
89.9999999999988
  0
LINE
  5
16C
100
AcDbEntity
  8
0
100
AcDbLine
370
30
 62
7
  6
CONTINUOUS
 10
8.29788594253795
 20
5.20676665433873
 30
0
 11
8.29788594253795
 21
7.78550681181905
 31
0
  0
ARC
  5
16D
100
AcDbEntity
  8
0
100
AcDbCircle
370
30
 62
7
  6
CONTINUOUS
 10
8.21220062274527
 20
5.20676665433873
 30
0
 40
0.085685319792681
100
AcDbArc
 50
270.000000000001
 51
2.03555499613665E-13
  0
LINE
  5
16E
100
AcDbEntity
  8
0
100
AcDbLine
370
30
 62
7
  6
CONTINUOUS
 10
8.04180200069803
 20
5.12108133454605
 30
0
 11
8.21220062274527
 21
5.12108133454605
 31
0
  0
ARC
  5
16F
100
AcDbEntity
  8
0
100
AcDbCircle
370
30
 62
7
  6
CONTINUOUS
 10
8.04180200069803
 20
4.81318889843322
 30
0
 40
0.307892436112833
100
AcDbArc
 50
89.9999999999997
 51
180
  0
CIRCLE
  5
170
100
AcDbEntity
  8
0
100
AcDbCircle
370
30
 62
7
  6
CONTINUOUS
 10
6.10294865424133
 20
8.46464067008721
 30
0
 40
0.067499999999999
  0
CIRCLE
  5
171
100
AcDbEntity
  8
0
100
AcDbCircle
370
30
 62
7
  6
CONTINUOUS
 10
4.17381479597362
 20
6.49613673307889
 30
0
 40
0.0674999999999999
  0
CIRCLE
  5
172
100
AcDbEntity
  8
0
100
AcDbCircle
370
30
 62
7
  6
CONTINUOUS
 10
8.03208251250905
 20
5.39377452835448
 30
0
 40
0.0674999999999999
  0
CIRCLE
  5
173
100
AcDbEntity
  8
0
100
AcDbCircle
370
30
 62
7
  6
CONTINUOUS
 10
8.03208251250905
 20
5.7481052370159
 30
0
 40
0.1125
  0
CIRCLE
  5
174
100
AcDbEntity
  8
0
100
AcDbCircle
370
30
 62
7
  6
CONTINUOUS
 10
4.17381479597362
 20
5.7481052370159
 30
0
 40
0.1125
  0
CIRCLE
  5
175
100
AcDbEntity
  8
0
100
AcDbCircle
370
30
 62
7
  6
CONTINUOUS
 10
4.17381479597362
 20
7.24416822914188
 30
0
 40
0.112500000000001
  0
DIMENSION
  5
176
100
AcDbEntity
  8
SLD-0
100
AcDbDimension
370
-1
  1
8X <>
  3
SLDDIMSTYLE0
  2
_D
 10
8.09053325672598
 20
7.63225927696758
 30
0
 11
9.52578750758874
 21
8.1214290523772
 31
0
 70
163
100
AcDbDiametricDimension
 15
7.97363176829212
 25
7.56473859863901
 35
0
1001
ACAD
1000
DSTYLE
1002
{
1002
}
  0
DIMENSION
  5
181
100
AcDbEntity
  8
SLD-0
100
AcDbDimension
370
-1
  1
<>
  3
SLDDIMSTYLE1
  2
_D_1
 10
3.90801136594472
 20
9.71994419328294
 30
0
 11
6.10294865424133
 21
9.71994419328294
 31
0
 70
160
 12
0
 22
0
 32
0
100
AcDbAlignedDimension
 13
8.29788594253795
 23
7.78550681181905
 33
0
 14
3.90801136594472
 24
7.78550681181905
 34
0
100
AcDbRotatedDimension
1001
ACAD
1000
DSTYLE
1002
{
1002
}
  0
DIMENSION
  5
18D
100
AcDbEntity
  8
SLD-0
100
AcDbDimension
370
-1
  1
<>
  3
SLDDIMSTYLE1
  2
_D_2
 10
2.59895624783448
 20
4.30119944478227
 30
0
 11
2.59895624783448
 21
6.49613673307889
 31
0
 70
160
 12
0
 22
0
 32
0
100
AcDbAlignedDimension
 13
4.55767306369015
 23
8.6910740213755
 33
0
 14
4.55767306369015
 24
4.30119944478227
 34
0
 50
90.0000000000002
100
AcDbRotatedDimension
1001
ACAD
1000
DSTYLE
1002
{
1002
}
  0
DIMENSION
  5
198
100
AcDbEntity
  8
SLD-0
100
AcDbDimension
370
-1
  1
2X <>
  3
SLDDIMSTYLE1
  2
_D_3
 10
3.31569532147702
 20
5.12108133454605
 30
0
 11
3.31569532147702
 21
6.49613673307889
 31
0
 70
160
 12
0
 22
0
 32
0
100
AcDbAlignedDimension
 13
3.9936966857374
 23
7.87119213161172
 33
0
 14
3.9936966857374
 24
5.12108133454605
 34
0
 50
90.0000000000002
100
AcDbRotatedDimension
1001
ACAD
1000
DSTYLE
1002
{
1002
}
  0
DIMENSION
  5
1A4
100
AcDbEntity
  8
SLD-0
100
AcDbDimension
370
-1
  1
2X <>
  3
SLDDIMSTYLE2
  2
_D_4
 10
7.7339095645852
 20
9.26119443573502
 30
0
 11
6.10294865424133
 21
9.26119443573502
 31
0
 70
160
 12
0
 22
0
 32
0
100
AcDbAlignedDimension
 13
4.47198774389747
 23
8.60538870158283
 33
0
 14
7.7339095645852
 24
8.60538870158283
 34
0
100
AcDbRotatedDimension
1001
ACAD
1000
DSTYLE
1002
{
1002
}
  0
DIMENSION
  5
1B1
100
AcDbEntity
  8
SLD-0
100
AcDbDimension
370
-1
  1
<>
  3
SLDDIMSTYLE2
  2
_D_5
 10
9.40024814726236
 20
5.39377452835448
 30
0
 11
9.40024814726236
 21
6.49613673307889
 31
0
 70
160
 12
0
 22
0
 32
0
100
AcDbAlignedDimension
 13
8.03208251250905
 23
7.5984989378033
 33
0
 14
8.03208251250905
 24
5.39377452835448
 34
0
 50
90.0000000000002
100
AcDbRotatedDimension
1001
ACAD
1000
DSTYLE
1002
{
1002
}
  0
DIMENSION
  5
1BC
100
AcDbEntity
  8
SLD-0
100
AcDbDimension
370
-1
  1
8X <>
  3
SLDDIMSTYLE3
  2
_D_6
 10
7.64822424479252
 20
4.38688476457495
 30
0
 11
8.54740306637597
 21
3.94120372666149
 31
0
 70
164
100
AcDbRadialDimension
 15
7.70261305316445
 25
4.32067425519876
 35
0
1001
ACAD
1000
DSTYLE
1002
{
1002
}
  0
DIMENSION
  5
1C6
100
AcDbEntity
  8
SLD-0
100
AcDbDimension
370
-1
  1
4X <>
  3
SLDDIMSTYLE4
  2
_D_7
 10
8.04180200069803
 20
4.81318889843322
 30
0
 11
9.09738228851549
 21
4.28608079847275
 31
0
 70
164
100
AcDbRadialDimension
 15
7.82504553694171
 25
5.03185391080454
 35
0
1001
ACAD
1000
DSTYLE
1002
{
1002
}
  0
DIMENSION
  5
1D1
100
AcDbEntity
  8
SLD-0
100
AcDbDimension
370
-1
  1
<>
  3
SLDDIMSTYLE2
  2
_D_8
 10
4.17381479597362
 20
9.52532969373038
 30
0
 11
6.10294865424133
 21
9.52532969373038
 31
0
 70
160
 12
0
 22
0
 32
0
100
AcDbAlignedDimension
 13
8.03208251250905
 23
7.5984989378033
 33
0
 14
4.17381479597362
 24
7.5984989378033
 34
0
100
AcDbRotatedDimension
1001
ACAD
1000
DSTYLE
1002
{
1002
}
  0
DIMENSION
  5
1DC
100
AcDbEntity
  8
SLD-0
100
AcDbDimension
370
-1
  1
<>
  3
SLDDIMSTYLE2
  2
_D_9
 10
10.0003350713138
 20
4.52763279607057
 30
0
 11
10.0003350713138
 21
6.49613673307889
 31
0
 70
160
 12
0
 22
0
 32
0
100
AcDbAlignedDimension
 13
6.10294865424133
 23
8.46464067008721
 33
0
 14
6.10294865424133
 24
4.52763279607057
 34
0
 50
90.0000000000002
100
AcDbRotatedDimension
1001
ACAD
1000
DSTYLE
1002
{
1002
}
  0
DIMENSION
  5
1E7
100
AcDbEntity
  8
SLD-0
100
AcDbDimension
370
-1
  1
4X <>
  3
SLDDIMSTYLE5
  2
_D_10
 10
8.12722931995645
 20
7.30419601464633
 30
0
 11
9.45464503092533
 21
7.77780536438299
 31
0
 70
163
100
AcDbDiametricDimension
 15
7.93693570506166
 25
7.18414044363743
 35
0
1001
ACAD
1000
DSTYLE
1002
{
1002
}
  0
DIMENSION
  5
1F2
100
AcDbEntity
  8
SLD-0
100
AcDbDimension
370
-1
  1
<>
  3
SLDDIMSTYLE2
  2
_D_11
 10
8.80421669831527
 20
5.7481052370159
 30
0
 11
8.80421669831527
 21
6.49613673307889
 31
0
 70
160
 12
0
 22
0
 32
0
100
AcDbAlignedDimension
 13
8.03208251250905
 23
7.24416822914188
 33
0
 14
8.03208251250905
 24
5.7481052370159
 34
0
 50
90.0000000000002
100
AcDbRotatedDimension
1001
ACAD
1000
DSTYLE
1002
{
1002
}
  0
INSERT
  5
210
100
AcDbEntity
  8
SLD-0
100
AcDbBlockReference
370
-1
 62
59
  6
BYLAYER
  2
SW_CENTERMARKSYMBOL_0
 10
4.16409530778464
 20
8.17908456772456
 30
0
 41
1
 42
1
 43
1
  0
INSERT
  5
21C
100
AcDbEntity
  8
SLD-0
100
AcDbBlockReference
370
-1
 62
59
  6
BYLAYER
  2
SW_CENTERMARKSYMBOL_1
 10
6.10294865424133
 20
4.52763279607057
 30
0
 41
1
 42
1
 43
1
  0
INSERT
  5
254
100
AcDbEntity
  8
SLD-0
100
AcDbBlockReference
370
-1
 62
59
  6
BYLAYER
  2
SW_CENTERMARKSYMBOL_2
 10
4.17381479597362
 20
7.5984989378033
 30
0
 41
1
 42
1
 43
1
  0
LINE
  5
255
100
AcDbEntity
  8
SLD-0
100
AcDbLine
 62
59
  6
CENTERX2
 10
3.7186002513798
 20
6.49613673307889
 30
0
 11
8.48864576925982
 21
6.49613673307889
 31
0
  0
LINE
  5
256
100
AcDbEntity
  8
SLD-0
100
AcDbLine
 62
59
  6
CENTERX2
 10
6.10294865424133
 20
4.10569706206573
 30
0
 11
6.10294865424133
 21
8.88357516700303
 31
0
  0
LINE
  5
257
100
AcDbEntity
  8
0
100
AcDbLine
370
30
 62
7
  6
CONTINUOUS
 10
4.55767306369015
 20
2.82682033507882
 30
0
 11
7.64822424479252
 21
2.82682033507882
 31
0
  0
LINE
  5
258
100
AcDbEntity
  8
0
100
AcDbLine
370
30
 62
7
  6
CONTINUOUS
 10
4.55767306369015
 20
2.88932033507882
 30
0
 11
7.64822424479252
 21
2.88932033507882
 31
0
  0
LINE
  5
259
100
AcDbEntity
  8
0
100
AcDbLine
370
30
 62
7
  6
CONTINUOUS
 10
4.47198774389747
 20
2.88932033507882
 30
0
 11
4.47198774389747
 21
2.82682033507882
 31
0
  0
LINE
  5
25A
100
AcDbEntity
  8
0
100
AcDbLine
370
30
 62
7
  6
CONTINUOUS
 10
4.47198774389747
 20
2.82682033507882
 30
0
 11
4.55767306369015
 21
2.82682033507882
 31
0
  0
LINE
  5
25B
100
AcDbEntity
  8
0
100
AcDbLine
370
30
 62
7
  6
CONTINUOUS
 10
4.47198774389747
 20
2.88932033507882
 30
0
 11
4.55767306369015
 21
2.88932033507882
 31
0
  0
LINE
  5
25C
100
AcDbEntity
  8
0
100
AcDbLine
370
30
 62
7
  6
CONTINUOUS
 10
7.7339095645852
 20
2.88932033507882
 30
0
 11
7.7339095645852
 21
2.82682033507882
 31
0
  0
LINE
  5
25D
100
AcDbEntity
  8
0
100
AcDbLine
370
30
 62
7
  6
CONTINUOUS
 10
7.64822424479252
 20
2.82682033507882
 30
0
 11
7.7339095645852
 21
2.82682033507882
 31
0
  0
LINE
  5
25E
100
AcDbEntity
  8
0
100
AcDbLine
370
30
 62
7
  6
CONTINUOUS
 10
7.64822424479252
 20
2.88932033507882
 30
0
 11
7.7339095645852
 21
2.88932033507882
 31
0
  0
LINE
  5
25F
100
AcDbEntity
  8
0
100
AcDbLine
370
30
 62
7
  6
CONTINUOUS
 10
4.16409530778464
 20
2.82682033507882
 30
0
 11
4.47198774389747
 21
2.82682033507882
 31
0
  0
LINE
  5
260
100
AcDbEntity
  8
0
100
AcDbLine
370
30
 62
7
  6
CONTINUOUS
 10
4.16409530778464
 20
2.88932033507882
 30
0
 11
4.47198774389747
 21
2.88932033507882
 31
0
  0
LINE
  5
261
100
AcDbEntity
  8
0
100
AcDbLine
370
30
 62
7
  6
CONTINUOUS
 10
7.7339095645852
 20
2.82682033507882
 30
0
 11
8.04180200069803
 21
2.82682033507882
 31
0
  0
LINE
  5
262
100
AcDbEntity
  8
0
100
AcDbLine
370
30
 62
7
  6
CONTINUOUS
 10
7.7339095645852
 20
2.88932033507882
 30
0
 11
8.04180200069803
 21
2.88932033507882
 31
0
  0
LINE
  5
263
100
AcDbEntity
  8
0
100
AcDbLine
370
30
 62
7
  6
CONTINUOUS
 10
3.90801136594472
 20
2.88932033507882
 30
0
 11
3.90801136594472
 21
2.82682033507882
 31
0
  0
LINE
  5
264
100
AcDbEntity
  8
0
100
AcDbLine
370
30
 62
7
  6
CONTINUOUS
 10
3.90801136594472
 20
2.82682033507882
 30
0
 11
3.9936966857374
 21
2.82682033507882
 31
0
  0
LINE
  5
265
100
AcDbEntity
  8
0
100
AcDbLine
370
30
 62
7
  6
CONTINUOUS
 10
3.90801136594472
 20
2.88932033507882
 30
0
 11
3.9936966857374
 21
2.88932033507882
 31
0
  0
LINE
  5
266
100
AcDbEntity
  8
0
100
AcDbLine
370
30
 62
7
  6
CONTINUOUS
 10
8.04180200069803
 20
2.82682033507882
 30
0
 11
8.21220062274527
 21
2.82682033507882
 31
0
  0
LINE
  5
267
100
AcDbEntity
  8
0
100
AcDbLine
370
30
 62
7
  6
CONTINUOUS
 10
8.04180200069803
 20
2.88932033507882
 30
0
 11
8.21220062274527
 21
2.88932033507882
 31
0
  0
LINE
  5
268
100
AcDbEntity
  8
0
100
AcDbLine
370
30
 62
7
  6
CONTINUOUS
 10
3.9936966857374
 20
2.82682033507882
 30
0
 11
4.16409530778464
 21
2.82682033507882
 31
0
  0
LINE
  5
269
100
AcDbEntity
  8
0
100
AcDbLine
370
30
 62
7
  6
CONTINUOUS
 10
3.9936966857374
 20
2.88932033507882
 30
0
 11
4.16409530778464
 21
2.88932033507882
 31
0
  0
LINE
  5
26A
100
AcDbEntity
  8
0
100
AcDbLine
370
30
 62
7
  6
CONTINUOUS
 10
8.29788594253795
 20
2.88932033507882
 30
0
 11
8.29788594253795
 21
2.82682033507882
 31
0
  0
LINE
  5
26B
100
AcDbEntity
  8
0
100
AcDbLine
370
30
 62
7
  6
CONTINUOUS
 10
8.21220062274527
 20
2.82682033507882
 30
0
 11
8.29788594253795
 21
2.82682033507882
 31
0
  0
LINE
  5
26C
100
AcDbEntity
  8
0
100
AcDbLine
370
30
 62
7
  6
CONTINUOUS
 10
8.21220062274527
 20
2.88932033507882
 30
0
 11
8.29788594253795
 21
2.88932033507882
 31
0
  0
LINE
  5
26D
100
AcDbEntity
  8
0
100
AcDbLine
 62
7
  6
HIDDEN
 10
6.17044865424134
 20
2.82682033507882
 30
0
 11
6.17044865424134
 21
2.88932033507882
 31
0
  0
LINE
  5
26E
100
AcDbEntity
  8
0
100
AcDbLine
 62
7
  6
HIDDEN
 10
6.03544865424133
 20
2.88932033507882
 30
0
 11
6.03544865424133
 21
2.82682033507882
 31
0
  0
LINE
  5
26F
100
AcDbEntity
  8
0
100
AcDbLine
 62
7
  6
HIDDEN
 10
4.24131479597362
 20
2.82682033507882
 30
0
 11
4.24131479597362
 21
2.88932033507882
 31
0
  0
LINE
  5
270
100
AcDbEntity
  8
0
100
AcDbLine
 62
7
  6
HIDDEN
 10
4.10631479597362
 20
2.88932033507882
 30
0
 11
4.10631479597362
 21
2.82682033507882
 31
0
  0
LINE
  5
271
100
AcDbEntity
  8
0
100
AcDbLine
 62
7
  6
HIDDEN
 10
8.09958251250905
 20
2.82682033507882
 30
0
 11
8.09958251250905
 21
2.88932033507882
 31
0
  0
LINE
  5
272
100
AcDbEntity
  8
0
100
AcDbLine
 62
7
  6
HIDDEN
 10
7.96458251250905
 20
2.88932033507882
 30
0
 11
7.96458251250905
 21
2.82682033507882
 31
0
  0
LINE
  5
273
100
AcDbEntity
  8
0
100
AcDbLine
 62
7
  6
HIDDEN
 10
8.14458251250905
 20
2.82682033507882
 30
0
 11
8.14458251250905
 21
2.88932033507882
 31
0
  0
LINE
  5
274
100
AcDbEntity
  8
0
100
AcDbLine
 62
7
  6
HIDDEN
 10
7.91958251250905
 20
2.88932033507882
 30
0
 11
7.91958251250905
 21
2.82682033507882
 31
0
  0
LINE
  5
275
100
AcDbEntity
  8
0
100
AcDbLine
 62
7
  6
HIDDEN
 10
4.28631479597362
 20
2.82682033507882
 30
0
 11
4.28631479597362
 21
2.88932033507882
 31
0
  0
LINE
  5
276
100
AcDbEntity
  8
0
100
AcDbLine
 62
7
  6
HIDDEN
 10
4.06131479597362
 20
2.88932033507882
 30
0
 11
4.06131479597362
 21
2.82682033507882
 31
0
  0
DIMENSION
  5
277
100
AcDbEntity
  8
SLD-0
100
AcDbDimension
370
-1
  1
<>
  3
SLDDIMSTYLE6
  2
_D_12
 10
8.54574045301763
 20
2.88932033507882
 30
0
 11
8.54574045301763
 21
2.61716573514974
 31
0
 70
160
 12
0
 22
0
 32
0
100
AcDbAlignedDimension
 13
8.29788594253795
 23
2.82682033507882
 33
0
 14
8.29788594253795
 24
2.88932033507882
 34
0
 50
90.0000000000002
100
AcDbRotatedDimension
1001
ACAD
1000
DSTYLE
1002
{
1002
}
  0
INSERT
  5
605
100
AcDbEntity
  8
0
100
AcDbBlockReference
370
-1
  6
BYLAYER
  2
ABViewer
 10
11.1809058229028
 20
0.455811916790459
 30
-0.0136564960629921
 41
2.48189904770235
 42
2.48189904770235
 43
1
  0
ENDSEC
  0
SECTION
  2
OBJECTS
  0
DICTIONARY
  5
606
100
AcDbDictionary
  3
ACAD_GROUP
350
607
  3
ACAD_MATERIAL
350
608
  3
ACAD_WIPEOUT_VARS
350
609
  3
ACAD_MLINESTYLE
350
60A
  3
ACAD_IMAGE_VARS
350
60B
  3
AcDbVariableDictionary
350
60C
  3
ACAD_LAYOUT
350
60D
  0
DICTIONARY
  5
607
330
606
100
AcDbDictionary
  0
DICTIONARY
  5
608
330
606
100
AcDbDictionary
  0
WIPEOUTVARIABLES
  5
609
330
606
100
AcDbWipeoutVariables
 70
1
  0
DICTIONARY
  5
60A
330
606
100
AcDbDictionary
  3
Standard
350
18
  0
MLINESTYLE
  5
18
330
60A
100
AcDbMlineStyle
  2
Standard
 70
0
  3

 62
256
 51
90
 52
90
 71
2
 49
0.5
 62
256
  6
BYLAYER
 49
-0.5
 62
256
  6
BYLAYER
  0
DICTIONARY
  5
60D
100
AcDbDictionary
281
1
  3
Model
350
22
  0
LAYOUT
  5
22
102
{ACAD_REACTORS
330
60D
102
}
330
60D
100
AcDbPlotSettings
  1

  2
none_device
  4

  6

 40
0
 41
0
 42
0
 43
0
 44
0
 45
0
 46
0
 47
0
 48
0
 49
0
 70
1712
 72
0
 73
0
 74
0
 75
0
 76
0
 77
0
 78
100
140
0
141
0
142
1
143
1
147
1
148
0
149
0
100
AcDbLayout
  1
Model
 70
1
 71
1
 10
0.42600994952592
 20
0.207622012020223
 11
16.5583537595912
 21
10.8372850881386
 12
0
 22
0
 32
0
 14
0.42600994952592
 24
0.207622012020223
 34
-0.0273129921259843
 15
16.5583537595912
 25
10.8372850881386
 35
0
146
0
 13
0
 23
0
 33
0
 16
1
 26
0
 36
0
 17
0
 27
1
 37
0
 76
0
330
1F
  0
RASTERVARIABLES
  5
60B
330
606
100
AcDbRasterVariables
 90
0
 70
1
 71
0
 72
0
  0
DICTIONARY
  5
60C
100
AcDbDictionary
281
1
  0
DICTIONARY
  5
60E
100
AcDbDictionary
280
1
  3
XINFO
360
60F
  0
XRECORD
  5
60F
102
{ACAD_REACTORS
330
60E
102
}
330
60E
100
AcDbXrecord
280
0
310
5900000001000E00
311
D7D38DE6EB085D09
  0
ENDSEC
  0
EOF
