999
The file was created in CADSoftTools software
999
ABViewer 14; 
  0
SECTION
  2
HEADER
  9
$ACADVER
  1
AC1018
  9
$DWGCODEPAGE
  3
ANSI_1252
  9
$CLAYER
  8
0
  9
$CELTYPE
  6
BYLAYER
  9
$CELTSCALE
 40
1
  9
$CELWEIGHT
370
-1
  9
$DIMALT
 70
0
  9
$DIMALTF
 40
25.4
  9
$DIMPOST
  1

  9
$DIMAPOST
  1

  9
$DIMSCALE
 40
1
  9
$DIMASZ
 40
0.13
  9
$DIMCLRD
 70
0
  9
$DIMCLRE
 70
0
  9
$DIMCLRT
 70
0
  9
$DIMEXE
 40
0.125
  9
$DIMEXO
 40
0.05
  9
$DIMGAP
 40
0.06
  9
$DIMLFAC
 40
1
  9
$DIMDEC
 70
3
  9
$DIMTAD
 70
1
  9
$DIMCEN
 40
0.09
  9
$DIMTIH
 70
1
  9
$DIMTIX
 70
0
  9
$DIMTOH
 70
1
  9
$DIMSE1
 70
0
  9
$DIMSE2
 70
0
  9
$DIMSD1
 70
0
  9
$DIMSD2
 70
0
  9
$DIMLWD
 70
-2
  9
$DIMLWE
 70
-2
  9
$DIMSAH
 70
0
  9
$DIMBLK
  1

  9
$DIMBLK1
  1

  9
$DIMBLK2
  1

  9
$DIMLDRBLK
  1

  9
$DIMSTYLE
  2
Standard
  9
$DIMTP
 40
0
  9
$DIMTM
 40
0
  9
$DIMTXT
 40
0.125
  9
$DIMLUNIT
 70
2
  9
$DIMDSEP
 70
46
  9
$DIMTXSTY
  7
STANDARD
  9
$TEXTSIZE
 40
0.125
  9
$TEXTSTYLE
  7
STANDARD
  9
$HANDSEED
  5
0000000000000528
  9
$FILLETRAD
 40
0.5
  9
$INSUNITS
 70
1
  9
$LIMMIN
 10
0.329926999999998
 20
0.204169649112659
  9
$LIMMAX
 10
10.7798908081711
 20
8.1920731707317
  9
$FILLMODE
 70
1
  9
$LTSCALE
 40
1
  9
$MEASUREMENT
 70
0
  9
$ATTMODE
 70
1
  9
$PDMODE
 70
0
  9
$PDSIZE
 40
-1
  9
$TILEMODE
 70
1
  9
$UCSORG
 10
0
 20
0
 30
0
  9
$UCSXDIR
 10
1
 20
0
 30
0
  9
$UCSYDIR
 10
0
 20
1
 30
0
  9
$INSBASE
 10
0
 20
0
 30
0
  9
$XCLIPFRAME
290
1
  9
$DIMASSOC
280
2
  9
$TDCREATE
 40
2455807.75653764
  9
$TDINDWG
 40
1.15740740740741E-8
  9
$TDUPDATE
 40
2459339.52947644
  0
ENDSEC
  0
SECTION
  2
CLASSES
  0
CLASS
  1
IMAGE
  2
AcDbRasterImage
  3
ISM
 90
2175
 91
1
280
0
281
1
  0
CLASS
  1
IMAGEDEF
  2
AcDbRasterImageDef
  3
ISM
 90
0
 91
1
280
0
281
0
  0
CLASS
  1
WIPEOUT
  2
AcDbWipeout
  3
"WipeOut"
 90
2175
 91
1
280
0
281
1
  0
CLASS
  1
WIPEOUTVARIABLES
  2
AcDbWipeoutVariables
  3
"WipeOut"
 90
0
 91
1
280
0
281
0
  0
CLASS
  1
MPOLYGON
  2
AcDbMPolygon
  3
"AcMPolygonObj15"
 90
3071
 91
1
280
0
281
1
  0
ENDSEC
  0
SECTION
  2
TABLES
  0
TABLE
  2
APPID
  5
4E2
100
AcDbSymbolTable
  0
APPID
  5
12
100
AcDbSymbolTableRecord
100
AcDbRegAppTableRecord
  2
ACAD
 70
64
  0
APPID
  5
4C9
100
AcDbSymbolTableRecord
100
AcDbRegAppTableRecord
  2
CSTINVENTORY
 70
0
  0
APPID
  5
4E3
100
AcDbSymbolTableRecord
100
AcDbRegAppTableRecord
  2
AcDbAttr
 70
0
  0
APPID
  5
4E4
100
AcDbSymbolTableRecord
100
AcDbRegAppTableRecord
  2
PE_URL
 70
0
  0
ENDTAB
  0
TABLE
  2
BLOCK_RECORD
  5
4E5
100
AcDbSymbolTable
  0
BLOCK_RECORD
  5
1F
100
AcDbSymbolTableRecord
100
AcDbBlockTableRecord
  2
*MODEL_SPACE
  0
BLOCK_RECORD
  5
1B
100
AcDbSymbolTableRecord
100
AcDbBlockTableRecord
  2
*PAPER_SPACE
  0
BLOCK_RECORD
  5
48
100
AcDbSymbolTableRecord
100
AcDbBlockTableRecord
  2
Block3
  0
BLOCK_RECORD
  5
53
100
AcDbSymbolTableRecord
100
AcDbBlockTableRecord
  2
ThirdAngleProjectionBlock
  0
BLOCK_RECORD
  5
61
100
AcDbSymbolTableRecord
100
AcDbBlockTableRecord
  2
SW_NOTE_0
  0
BLOCK_RECORD
  5
5E
100
AcDbSymbolTableRecord
100
AcDbBlockTableRecord
  2
POLYCASE LOGO
  0
BLOCK_RECORD
  5
8A
100
AcDbSymbolTableRecord
100
AcDbBlockTableRecord
  2
SW_NOTE_1
  0
BLOCK_RECORD
  5
A2
100
AcDbSymbolTableRecord
100
AcDbBlockTableRecord
  2
SW_NOTE_2
  0
BLOCK_RECORD
  5
AC
100
AcDbSymbolTableRecord
100
AcDbBlockTableRecord
  2
SW_NOTE_3
  0
BLOCK_RECORD
  5
C0
100
AcDbSymbolTableRecord
100
AcDbBlockTableRecord
  2
SW_NOTE_4
  0
BLOCK_RECORD
  5
D4
100
AcDbSymbolTableRecord
100
AcDbBlockTableRecord
  2
SW_TABLEANNOTATION_0
  0
BLOCK_RECORD
  5
12B
100
AcDbSymbolTableRecord
100
AcDbBlockTableRecord
  2
_NONE
  0
BLOCK_RECORD
  5
12E
100
AcDbSymbolTableRecord
100
AcDbBlockTableRecord
  2
*D10
  0
BLOCK_RECORD
  5
135
100
AcDbSymbolTableRecord
100
AcDbBlockTableRecord
  2
*D11
  0
BLOCK_RECORD
  5
13D
100
AcDbSymbolTableRecord
100
AcDbBlockTableRecord
  2
*D12
  0
BLOCK_RECORD
  5
145
100
AcDbSymbolTableRecord
100
AcDbBlockTableRecord
  2
*D13
  0
BLOCK_RECORD
  5
14E
100
AcDbSymbolTableRecord
100
AcDbBlockTableRecord
  2
*D14
  0
BLOCK_RECORD
  5
157
100
AcDbSymbolTableRecord
100
AcDbBlockTableRecord
  2
*D15
  0
BLOCK_RECORD
  5
160
100
AcDbSymbolTableRecord
100
AcDbBlockTableRecord
  2
*D16
  0
BLOCK_RECORD
  5
167
100
AcDbSymbolTableRecord
100
AcDbBlockTableRecord
  2
*D17
  0
BLOCK_RECORD
  5
16E
100
AcDbSymbolTableRecord
100
AcDbBlockTableRecord
  2
*D18
  0
BLOCK_RECORD
  5
177
100
AcDbSymbolTableRecord
100
AcDbBlockTableRecord
  2
*D19
  0
BLOCK_RECORD
  5
180
100
AcDbSymbolTableRecord
100
AcDbBlockTableRecord
  2
*D20
  0
BLOCK_RECORD
  5
187
100
AcDbSymbolTableRecord
100
AcDbBlockTableRecord
  2
*D21
  0
BLOCK_RECORD
  5
18E
100
AcDbSymbolTableRecord
100
AcDbBlockTableRecord
  2
*D22
  0
BLOCK_RECORD
  5
197
100
AcDbSymbolTableRecord
100
AcDbBlockTableRecord
  2
*D23
  0
BLOCK_RECORD
  5
19E
100
AcDbSymbolTableRecord
100
AcDbBlockTableRecord
  2
*D24
  0
BLOCK_RECORD
  5
1A7
100
AcDbSymbolTableRecord
100
AcDbBlockTableRecord
  2
*D25
  0
BLOCK_RECORD
  5
1AD
100
AcDbSymbolTableRecord
100
AcDbBlockTableRecord
  2
*D26
  0
BLOCK_RECORD
  5
1B5
100
AcDbSymbolTableRecord
100
AcDbBlockTableRecord
  2
*D27
  0
BLOCK_RECORD
  5
1BD
100
AcDbSymbolTableRecord
100
AcDbBlockTableRecord
  2
*D28
  0
BLOCK_RECORD
  5
1C4
100
AcDbSymbolTableRecord
100
AcDbBlockTableRecord
  2
*D29
  0
BLOCK_RECORD
  5
1CD
100
AcDbSymbolTableRecord
100
AcDbBlockTableRecord
  2
*D30
  0
BLOCK_RECORD
  5
1D3
100
AcDbSymbolTableRecord
100
AcDbBlockTableRecord
  2
*D31
  0
BLOCK_RECORD
  5
1DB
100
AcDbSymbolTableRecord
100
AcDbBlockTableRecord
  2
*D32
  0
BLOCK_RECORD
  5
1E4
100
AcDbSymbolTableRecord
100
AcDbBlockTableRecord
  2
*D33
  0
BLOCK_RECORD
  5
1ED
100
AcDbSymbolTableRecord
100
AcDbBlockTableRecord
  2
*D34
  0
BLOCK_RECORD
  5
1F4
100
AcDbSymbolTableRecord
100
AcDbBlockTableRecord
  2
*D35
  0
BLOCK_RECORD
  5
1FB
100
AcDbSymbolTableRecord
100
AcDbBlockTableRecord
  2
*D36
  0
BLOCK_RECORD
  5
204
100
AcDbSymbolTableRecord
100
AcDbBlockTableRecord
  2
*D37
  0
BLOCK_RECORD
  5
20E
100
AcDbSymbolTableRecord
100
AcDbBlockTableRecord
  2
*D38
  0
BLOCK_RECORD
  5
219
100
AcDbSymbolTableRecord
100
AcDbBlockTableRecord
  2
*D39
  0
BLOCK_RECORD
  5
223
100
AcDbSymbolTableRecord
100
AcDbBlockTableRecord
  2
*D40
  0
BLOCK_RECORD
  5
22C
100
AcDbSymbolTableRecord
100
AcDbBlockTableRecord
  2
SW_CENTERMARKSYMBOL_0
  0
BLOCK_RECORD
  5
2AA
100
AcDbSymbolTableRecord
100
AcDbBlockTableRecord
  2
*D42
  0
BLOCK_RECORD
  5
2DA
100
AcDbSymbolTableRecord
100
AcDbBlockTableRecord
  2
_CLOSEDFILLED
  0
BLOCK_RECORD
  5
4D1
100
AcDbSymbolTableRecord
100
AcDbBlockTableRecord
  2
ABViewer_RedLine
  0
BLOCK_RECORD
  5
4E1
100
AcDbSymbolTableRecord
100
AcDbBlockTableRecord
  2
ABViewer
  0
ENDTAB
  0
TABLE
  2
STYLE
  5
3
100
AcDbSymbolTable
  0
STYLE
  5
11
100
AcDbSymbolTableRecord
100
AcDbTextStyleTableRecord
  2
STANDARD
 70
0
 40
0
 41
1
 50
0
 71
0
 42
0.200000002980232
  3
GOTHIC.TTF
  4

1001
ACAD
1000
Century Gothic
1071
0
  0
STYLE
  5
64
100
AcDbSymbolTableRecord
100
AcDbTextStyleTableRecord
  2
SLDTEXTSTYLE0
 70
0
 40
0
 41
0.639594674110413
 50
0
 71
0
 42
0.200000002980232
  3
GOTHICB.TTF
  4

1001
ACAD
1000
Century Gothic
1071
33554432
  0
STYLE
  5
8D
100
AcDbSymbolTableRecord
100
AcDbTextStyleTableRecord
  2
SLDTEXTSTYLE1
 70
0
 40
0
 41
0.912999987602234
 50
0
 71
0
 42
0.200000002980232
  3
GOTHIC.TTF
  4

1001
ACAD
1000
Century Gothic
1071
0
  0
STYLE
  5
BC
100
AcDbSymbolTableRecord
100
AcDbTextStyleTableRecord
  2
SLDTEXTSTYLE2
 70
0
 40
0
 41
0.912999987602234
 50
0
 71
0
 42
0.200000002980232
  3
GOTHICB.TTF
  4

1001
ACAD
1000
Century Gothic
1071
33554432
  0
ENDTAB
  0
TABLE
  2
LTYPE
  5
5
100
AcDbSymbolTable
  0
LTYPE
  5
16
100
AcDbSymbolTableRecord
100
AcDbLinetypeTableRecord
  2
CONTINUOUS
 70
0
  3

 72
65
 73
0
 40
0
  0
LTYPE
  5
14
100
AcDbSymbolTableRecord
100
AcDbLinetypeTableRecord
  2
BYBLOCK
 70
0
  3

 72
65
 73
0
 40
0
  0
LTYPE
  5
15
100
AcDbSymbolTableRecord
100
AcDbLinetypeTableRecord
  2
BYLAYER
 70
0
  3

 72
65
 73
0
 40
0
  0
LTYPE
  5
3F
100
AcDbSymbolTableRecord
100
AcDbLinetypeTableRecord
  2
SLD-Solid
 70
0
  3

 72
65
 73
0
 40
0
  0
LTYPE
  5
40
100
AcDbSymbolTableRecord
100
AcDbLinetypeTableRecord
  2
SLD-Dashed
 70
0
  3
_ 
 72
65
 73
2
 40
0.075
 49
0.05
 74
0
 49
-0.025
 74
0
  0
LTYPE
  5
41
100
AcDbSymbolTableRecord
100
AcDbLinetypeTableRecord
  2
SLD-Phantom
 70
0
  3
_ _ _ 
 72
65
 73
6
 40
0.5
 49
0.25
 74
0
 49
-0.05
 74
0
 49
0.05
 74
0
 49
-0.05
 74
0
 49
0.05
 74
0
 49
-0.05
 74
0
  0
LTYPE
  5
42
100
AcDbSymbolTableRecord
100
AcDbLinetypeTableRecord
  2
SLD-Chain
 70
0
  3
_ _ 
 72
65
 73
4
 40
0.4
 49
0.25
 74
0
 49
-0.05
 74
0
 49
0.05
 74
0
 49
-0.05
 74
0
  0
LTYPE
  5
43
100
AcDbSymbolTableRecord
100
AcDbLinetypeTableRecord
  2
SLD-Center
 70
0
  3
_ _ 
 72
65
 73
4
 40
0.75
 49
0.6
 74
0
 49
-0.05
 74
0
 49
0.05
 74
0
 49
-0.05
 74
0
  0
LTYPE
  5
44
100
AcDbSymbolTableRecord
100
AcDbLinetypeTableRecord
  2
SLD-Stitch
 70
0
  3
. 
 72
65
 73
2
 40
0.025
 49
0
 74
0
 49
-0.025
 74
0
  0
LTYPE
  5
45
100
AcDbSymbolTableRecord
100
AcDbLinetypeTableRecord
  2
SLD-Thin-Thick-Chain
 70
0
  3
_ _ 
 72
65
 73
4
 40
0.4
 49
0.25
 74
0
 49
-0.05
 74
0
 49
0.05
 74
0
 49
-0.05
 74
0
  0
LTYPE
  5
4D2
100
AcDbSymbolTableRecord
100
AcDbLinetypeTableRecord
  2
CENTER
 70
0
  3
_ _ 
 72
65
 73
4
 40
2
 49
1.25
 74
0
 49
-0.25
 74
0
 49
0.25
 74
0
 49
-0.25
 74
0
  0
LTYPE
  5
4D3
100
AcDbSymbolTableRecord
100
AcDbLinetypeTableRecord
  2
ISO dash
 70
0
  3
_ 
 72
65
 73
2
 40
1.5
 49
1.2
 74
0
 49
-0.3
 74
0
  0
LTYPE
  5
4D4
100
AcDbSymbolTableRecord
100
AcDbLinetypeTableRecord
  2
ISO dot
 70
0
  3
. 
 72
65
 73
2
 40
0.3
 49
0
 74
0
 49
-0.3
 74
0
  0
LTYPE
  5
4D5
100
AcDbSymbolTableRecord
100
AcDbLinetypeTableRecord
  2
ISO dash dot
 70
0
  3
_ . 
 72
65
 73
4
 40
1.8
 49
1.2
 74
0
 49
-0.3
 74
0
 49
0
 74
0
 49
-0.3
 74
0
  0
LTYPE
  5
4D6
100
AcDbSymbolTableRecord
100
AcDbLinetypeTableRecord
  2
ISO dash double-dot
 70
0
  3
_ . . 
 72
65
 73
6
 40
2.1
 49
1.2
 74
0
 49
-0.3
 74
0
 49
0
 74
0
 49
-0.3
 74
0
 49
0
 74
0
 49
-0.3
 74
0
  0
LTYPE
  5
4D7
100
AcDbSymbolTableRecord
100
AcDbLinetypeTableRecord
  2
ISO dash triple-dot
 70
0
  3
_ . . . 
 72
65
 73
8
 40
2.4
 49
1.2
 74
0
 49
-0.3
 74
0
 49
0
 74
0
 49
-0.3
 74
0
 49
0
 74
0
 49
-0.3
 74
0
 49
0
 74
0
 49
-0.3
 74
0
  0
LTYPE
  5
4D8
100
AcDbSymbolTableRecord
100
AcDbLinetypeTableRecord
  2
ISO dash long gaps
 70
0
  3
_ 
 72
65
 73
2
 40
3
 49
1.2
 74
0
 49
-1.8
 74
0
  0
ENDTAB
  0
TABLE
  2
LAYER
  5
2
100
AcDbSymbolTable
  0
LAYER
  5
10
100
AcDbSymbolTableRecord
100
AcDbLayerTableRecord
  2
0
 70
0
 62
7
  6
CONTINUOUS
290
1
370
-3
390
0
  0
LAYER
  5
46
100
AcDbSymbolTableRecord
100
AcDbLayerTableRecord
  2
FORMAT
 70
0
 62
7
  6
SLD-Solid
290
1
370
-3
390
0
  0
LAYER
  5
47
100
AcDbSymbolTableRecord
100
AcDbLayerTableRecord
  2
SLD-0
 70
0
 62
7
  6
SLD-Solid
290
1
370
-3
390
0
  0
ENDTAB
  0
TABLE
  2
VPORT
  5
4E6
100
AcDbSymbolTable
  0
VPORT
  5
4E8
100
AcDbSymbolTableRecord
100
AcDbViewportTableRecord
  2
*ACTIVE
 70
0
 10
0
 20
0
 11
1
 21
1
 12
7.06130184512889
 22
4.60813748770769
 32
0
 13
0
 23
0
 14
1
 24
1
 15
1
 25
1
 16
0
 26
0
 36
1
 17
0
 27
0
 37
0
 40
6.79999979734421
 41
2.28933092224231
 42
50
 43
0
 44
0
 50
0
 51
0
 71
0
 72
100
 73
1
 74
1
 75
0
 76
0
 77
0
 78
0
  0
ENDTAB
  0
TABLE
  2
VIEW
  5
4E9
100
AcDbSymbolTable
  0
ENDTAB
  0
TABLE
  2
UCS
  5
4EA
100
AcDbSymbolTable
  0
ENDTAB
  0
TABLE
  2
DIMSTYLE
  5
A
100
AcDbSymbolTable
 70
7
100
AcDbDimStyleTable
 71
0
  0
DIMSTYLE
105
27
100
AcDbSymbolTableRecord
100
AcDbDimStyleTableRecord
  2
Standard
 70
0
  3

 40
1
 41
0.18
 42
0.0625
 44
0.18
 47
0
 48
0
 73
1
 74
1
 75
0
 76
0
 77
0
140
0.18
141
0.09
144
1
147
0.09
173
0
174
0
176
0
177
0
178
0
277
2
278
46
281
0
282
0
271
4
340
11
371
-2
372
-2
  0
DIMSTYLE
105
134
100
AcDbSymbolTableRecord
100
AcDbDimStyleTableRecord
  2
SLDDIMSTYLE1
 70
0
  3

 40
1
 41
0.13
 42
0.0625
 44
0
 47
0
 48
0
 73
1
 74
1
 75
0
 76
0
 77
0
140
0.125
141
0.09
144
1
147
0.03125
173
1
174
0
176
0
177
0
178
0
277
2
278
46
281
0
282
0
271
3
340
8D
341
12B
343
12B
344
12B
371
-2
372
-2
  0
DIMSTYLE
105
20D
100
AcDbSymbolTableRecord
100
AcDbDimStyleTableRecord
  2
SLDDIMSTYLE2
 70
0
  3

 40
1
 41
0.13
 42
0.0625
 44
0
 47
0
 48
0
 73
1
 74
1
 75
0
 76
0
 77
0
140
0.125
141
0
144
1
147
0.03125
173
1
174
0
176
0
177
0
178
0
277
2
278
46
281
0
282
0
271
3
340
8D
371
-2
372
-2
  0
DIMSTYLE
105
218
100
AcDbSymbolTableRecord
100
AcDbDimStyleTableRecord
  2
SLDDIMSTYLE3
 70
0
  3

 40
1
 41
0.13
 42
0.0625
 44
0
 47
0
 48
0
 73
1
 74
1
 75
0
 76
0
 77
0
140
0.125
141
0
144
1
147
0.03125
173
1
174
0
176
0
177
0
178
0
277
2
278
46
281
0
282
0
271
3
340
8D
371
-2
372
-2
  0
DIMSTYLE
105
222
100
AcDbSymbolTableRecord
100
AcDbDimStyleTableRecord
  2
SLDDIMSTYLE4
 70
0
  3

 40
1
 41
0.13
 42
0.0625
 44
0
 47
0
 48
0
 73
1
 74
1
 75
0
 76
0
 77
0
140
0.125
141
0
144
1
147
0.03125
173
1
174
0
176
0
177
0
178
0
277
2
278
46
281
0
282
0
271
3
340
8D
371
-2
372
-2
  0
DIMSTYLE
105
2A9
100
AcDbSymbolTableRecord
100
AcDbDimStyleTableRecord
  2
SLDDIMSTYLE5
 70
0
  3

 40
1
 41
0.13
 42
0.0625
 44
0
 47
0
 48
0
 73
1
 74
1
 75
0
 76
0
 77
0
140
0.125
141
0.09
144
1
147
0.03125
173
1
174
0
176
0
177
0
178
0
277
2
278
46
281
0
282
0
271
3
340
8D
371
-2
372
-2
  0
DIMSTYLE
105
12A
100
AcDbSymbolTableRecord
100
AcDbDimStyleTableRecord
  2
SLDDIMSTYLE0
 70
0
  3

 40
1
 41
0.13
 42
0.0625
 44
0
 47
0
 48
0
 73
1
 74
1
 75
0
 76
0
 77
0
140
0.125
141
0.09
144
1
147
0.03125
173
1
174
0
176
0
177
0
178
0
277
2
278
46
281
0
282
0
271
0
340
8D
341
12B
343
12B
344
12B
371
-2
372
-2
  0
ENDTAB
  0
ENDSEC
  0
SECTION
  2
BLOCKS
  0
BLOCK
  5
4EB
100
AcDbEntity
  8
0
100
AcDbBlockBegin
  2
*MODEL_SPACE
 70
0
 10
0
 20
0
  0
ENDBLK
  5
4EC
100
AcDbEntity
  8
0
100
AcDbBlockEnd
  0
BLOCK
  5
4ED
100
AcDbEntity
  8
0
100
AcDbBlockBegin
  2
*PAPER_SPACE
 70
0
 10
0
 20
0
  0
ENDBLK
  5
4EE
100
AcDbEntity
  8
0
100
AcDbBlockEnd
  0
BLOCK
  5
49
100
AcDbEntity
  8
0
100
AcDbBlockBegin
  2
Block3
 70
64
 10
0
 20
0
 30
0
  3
Block3
  1

  0
HATCH
  5
4B
100
AcDbEntity
  8
0
100
AcDbHatch
370
-1
 62
7
 10
0
 20
0
 30
0
210
0
220
0
230
1
  2
SOLID
 70
1
 71
0
 91
2
 92
0
 93
11
 72
4
 94
3
 73
0
 74
0
 95
8
 96
4
 40
4
 40
4
 40
4
 40
4
 40
5
 40
5
 40
5
 40
5
 10
0.121887287409144
 20
0.451823214618979
 10
0.169596466006114
 20
0.38159883020226
 10
0.245110567452775
 20
0.333889651605288
 10
0.332567222347802
 20
0.333889651605288
 72
4
 94
3
 73
0
 74
0
 95
8
 96
4
 40
3
 40
3
 40
3
 40
3
 40
4
 40
4
 40
4
 40
4
 10
0.332567222347802
 20
0.333889651605288
 10
0.52336324660468
 20
0.333889651605288
 10
0.629361037858502
 20
0.491570690917035
 10
0.629361037858502
 20
0.669115295845061
 72
4
 94
3
 73
0
 74
0
 95
8
 96
4
 40
2
 40
2
 40
2
 40
2
 40
3
 40
3
 40
3
 40
3
 10
0.629361037858502
 20
0.669115295845061
 10
0.629361037858502
 20
0.838711761851175
 10
0.516737536940253
 20
0.99374116095945
 10
0.337863721066244
 20
0.99374116095945
 72
4
 94
3
 73
0
 74
0
 95
8
 96
4
 40
1
 40
1
 40
1
 40
1
 40
2
 40
2
 40
2
 40
2
 10
0.337863721066244
 20
0.99374116095945
 10
0.245110567452775
 20
0.99374116095945
 10
0.170918895263599
 20
0.946031982362482
 10
0.121887287409144
 20
0.871833528484806
 72
1
 10
0.121887287409144
 20
0.871833528484806
 11
0.119235647205674
 21
0.871833528484806
 72
1
 10
0.119235647205674
 20
0.871833528484806
 11
0.119235647205674
 21
0.975186461223659
 72
1
 10
0.119235647205674
 20
0.975186461223659
 11
0
 21
0.975186461223659
 72
1
 10
0
 20
0.975186461223659
 11
0
 21
2.03042756285857E-15
 72
1
 10
0
 20
2.03042756285857E-15
 11
0.119235647205674
 21
2.03042756285857E-15
 72
1
 10
0.119235647205674
 20
2.03042756285857E-15
 11
0.119235647205674
 21
0.451823214618979
 72
1
 10
0.119235647205674
 20
0.451823214618979
 11
0.121887287409144
 21
0.451823214618979
 97
0
 92
0
 93
2
 72
4
 94
3
 73
0
 74
0
 95
11
 96
7
 40
0
 40
0
 40
0
 40
0
 40
1
 40
1
 40
1
 40
2
 40
2
 40
2
 40
2
 10
0.112623500918248
 20
0.665141226384106
 10
0.112623500918248
 20
0.780402804128824
 10
0.185485962161437
 20
0.887736588017129
 10
0.308722805582066
 20
0.887736588017129
 10
0.437235802655637
 20
0.887736588017129
 10
0.510111827275827
 20
0.785712866224265
 10
0.510111827275827
 20
0.665141226384106
 72
4
 94
3
 73
0
 74
0
 95
11
 96
7
 40
2
 40
2
 40
2
 40
2
 40
3
 40
3
 40
3
 40
4
 40
4
 40
4
 40
4
 10
0.510111827275827
 20
0.665141226384106
 10
0.510111827275827
 20
0.543240375597962
 10
0.438571795290123
 20
0.43989422454761
 10
0.308722805582066
 20
0.43989422454761
 10
0.182847885334967
 20
0.43989422454761
 10
0.112623500918248
 20
0.548543656004902
 10
0.112623500918248
 20
0.665141226384106
 97
0
 75
0
 76
1
 98
0
  0
HATCH
  5
4C
100
AcDbEntity
  8
0
100
AcDbHatch
370
-1
 62
7
 10
0
 20
0
 30
0
210
0
220
0
230
1
  2
SOLID
 70
1
 71
0
 91
2
 92
0
 93
2
 72
4
 94
3
 73
0
 74
0
 95
11
 96
7
 40
0
 40
0
 40
0
 40
0
 40
1
 40
1
 40
1
 40
2
 40
2
 40
2
 40
2
 10
0.690301290718823
 20
0.663812015438121
 10
0.690301290718823
 20
0.476990060642199
 10
0.836053339959202
 20
0.333896433293791
 10
1.02155286549764
 20
0.333896433293791
 10
1.20705239103608
 20
0.333896433293791
 10
1.35279087689946
 20
0.476990060642199
 10
1.35279087689946
 20
0.663812015438121
 72
4
 94
3
 73
0
 74
0
 95
11
 96
7
 40
2
 40
2
 40
2
 40
2
 40
3
 40
3
 40
3
 40
4
 40
4
 40
4
 40
4
 10
1.35279087689946
 20
0.663812015438121
 10
1.35279087689946
 20
0.850633970234044
 10
1.20705239103608
 20
0.993727597582452
 10
1.02155286549764
 20
0.993727597582452
 10
0.836053339959202
 20
0.993727597582452
 10
0.690301290718823
 20
0.850633970234044
 10
0.690301290718823
 20
0.663812015438121
 97
0
 92
0
 93
2
 72
4
 94
3
 73
0
 74
0
 95
11
 96
7
 40
0
 40
0
 40
0
 40
0
 40
1
 40
1
 40
1
 40
2
 40
2
 40
2
 40
2
 10
1.23353488462828
 20
0.663812015438121
 10
1.23353488462828
 20
0.547214445058918
 10
1.13946608344583
 20
0.447842363469521
 10
1.02155286549764
 20
0.447842363469521
 10
0.903619302483951
 20
0.447842363469521
 10
0.809550501301498
 20
0.547214445058918
 10
0.809550501301498
 20
0.663812015438121
 72
4
 94
3
 73
0
 74
0
 95
11
 96
7
 40
2
 40
2
 40
2
 40
2
 40
3
 40
3
 40
3
 40
4
 40
4
 40
4
 40
4
 10
0.809550501301498
 20
0.663812015438121
 10
0.809550501301498
 20
0.78174557845181
 10
0.903619302483951
 20
0.879781667406719
 10
1.02155286549764
 20
0.879781667406719
 10
1.13946608344583
 20
0.879781667406719
 10
1.23353488462828
 20
0.78174557845181
 10
1.23353488462828
 20
0.663812015438121
 97
0
 75
0
 76
1
 98
0
  0
HATCH
  5
4D
100
AcDbEntity
  8
0
100
AcDbHatch
370
-1
 62
7
 10
0
 20
0
 30
0
210
0
220
0
230
1
  2
SOLID
 70
1
 71
0
 91
1
 92
0
 93
4
 72
1
 10
1.55946283393466
 20
0.355095991544553
 11
1.55946283393466
 21
1.50518219918127
 72
1
 10
1.55946283393466
 20
1.50518219918127
 11
1.44022718672899
 21
1.50518219918127
 72
1
 10
1.44022718672899
 20
1.50518219918127
 11
1.44022718672899
 21
0.355095991544553
 72
1
 10
1.44022718672899
 20
0.355095991544553
 11
1.55946283393466
 21
0.355095991544553
 97
0
 75
0
 76
1
 98
0
  0
HATCH
  5
4E
100
AcDbEntity
  8
0
100
AcDbHatch
370
-1
 62
7
 10
0
 20
0
 30
0
210
0
220
0
230
1
  2
SOLID
 70
1
 71
0
 91
2
 92
0
 93
16
 72
4
 94
3
 73
0
 74
0
 95
8
 96
4
 40
7
 40
7
 40
7
 40
7
 40
8
 40
8
 40
8
 40
8
 10
4.66949770822224
 20
0.412896322613018
 10
4.66949770822224
 20
0.3157757616056
 10
4.59049103719812
 20
0.23675552720448
 10
4.4933636945022
 20
0.23675552720448
 72
1
 10
4.4933636945022
 20
0.23675552720448
 11
2.35614847219347
 21
0.23675552720448
 72
4
 94
3
 73
0
 74
0
 95
8
 96
4
 40
1
 40
1
 40
1
 40
1
 40
2
 40
2
 40
2
 40
2
 10
2.35614847219347
 20
0.23675552720448
 10
2.25902112949755
 20
0.23675552720448
 10
2.18000767678493
 20
0.3157757616056
 10
2.18000767678493
 20
0.412896322613018
 72
1
 10
2.18000767678493
 20
0.412896322613018
 11
2.18000767678493
 21
0.780524545991209
 72
1
 10
2.18000767678493
 20
0.780524545991209
 11
1.77808412610673
 21
6.78168850472774E-6
 72
1
 10
1.77808412610673
 20
6.78168850472774E-6
 11
1.64292507430323
 21
6.78168850472774E-6
 72
1
 10
1.64292507430323
 20
6.78168850472774E-6
 11
1.88671999418702
 21
0.461087001109876
 72
1
 10
1.88671999418702
 20
0.461087001109876
 11
1.60317759800517
 21
0.975186461223659
 72
1
 10
1.60317759800517
 20
0.975186461223659
 11
1.74230393758113
 21
0.975186461223659
 72
1
 10
1.74230393758113
 20
0.975186461223659
 11
1.9516478798853
 21
0.581672204327034
 72
1
 10
1.9516478798853
 20
0.581672204327034
 11
2.14641119191463
 21
0.975186461223659
 72
1
 10
2.14641119191463
 20
0.975186461223659
 11
2.19215273887356
 21
0.975186461223659
 72
4
 94
3
 73
0
 74
0
 95
8
 96
4
 40
3.23346423527987
 40
3.23346423527987
 40
3.23346423527987
 40
3.23346423527987
 40
4
 40
4
 40
4
 40
4
 10
2.19215273887356
 20
0.975186461223659
 10
2.21788861493454
 20
1.04061035592193
 10
2.28169689028482
 20
1.08703684963652
 10
2.35614847219347
 20
1.08703684963652
 72
1
 10
2.35614847219347
 20
1.08703684963652
 11
4.4933636945022
 21
1.08703684963652
 72
4
 94
3
 73
0
 74
0
 95
8
 96
4
 40
5
 40
5
 40
5
 40
5
 40
6
 40
6
 40
6
 40
6
 10
4.4933636945022
 20
1.08703684963652
 10
4.59049103719812
 20
1.08703684963652
 10
4.66949770822224
 20
1.0080233969239
 10
4.66949770822224
 20
0.910896054227983
 72
1
 10
4.66949770822224
 20
0.910896054227983
 11
4.66949770822224
 21
0.412896322613018
 97
0
 92
0
 93
10
 72
1
 10
2.21477849645043
 20
0.975186461223659
 11
2.28024781446064
 21
0.975186461223659
 72
1
 10
2.28024781446064
 20
0.975186461223659
 11
2.20084102385632
 21
0.820981984854067
 72
1
 10
2.20084102385632
 20
0.820981984854067
 11
2.20084102385632
 21
0.412896322610564
 72
4
 94
3
 73
0
 74
0
 95
8
 96
4
 40
2
 40
2
 40
2
 40
2
 40
3
 40
3
 40
3
 40
3
 10
2.20084102385632
 20
0.412896322610564
 10
2.20084102385632
 20
0.327257160233518
 10
2.27050930981604
 20
0.257588874273794
 10
2.35614847219309
 20
0.257588874273794
 72
1
 10
2.35614847219309
 20
0.257588874273794
 11
4.49336369450183
 21
0.257588874273794
 72
4
 94
3
 73
0
 74
0
 95
8
 96
4
 40
4
 40
4
 40
4
 40
4
 40
5
 40
5
 40
5
 40
5
 10
4.49336369450183
 20
0.257588874273794
 10
4.57900285687887
 20
0.257588874273794
 10
4.6486643611501
 20
0.327257160233518
 10
4.6486643611501
 20
0.412896322610564
 72
1
 10
4.6486643611501
 20
0.412896322610564
 11
4.6486643611501
 21
0.910896054225529
 72
4
 94
3
 73
0
 74
0
 95
8
 96
4
 40
6
 40
6
 40
6
 40
6
 40
7
 40
7
 40
7
 40
7
 10
4.6486643611501
 20
0.910896054225529
 10
4.6486643611501
 20
0.996535216602575
 10
4.57900285687887
 20
1.0662035025623
 10
4.49336369450183
 20
1.0662035025623
 72
1
 10
4.49336369450183
 20
1.0662035025623
 11
2.35614847219309
 21
1.0662035025623
 72
4
 94
3
 73
0
 74
0
 95
8
 96
4
 40
0
 40
0
 40
0
 40
0
 40
0.732403228702693
 40
0.732403228702693
 40
0.732403228702693
 40
0.732403228702693
 10
2.35614847219309
 20
1.0662035025623
 10
2.29342607316475
 20
1.0662035025623
 10
2.2392706836553
 20
1.02883242452086
 10
2.21477849645043
 20
0.975186461223659
 97
0
 75
0
 76
1
 98
0
  0
HATCH
  5
4F
100
AcDbEntity
  8
0
100
AcDbHatch
370
-1
 62
7
 10
0
 20
0
 30
0
210
0
220
0
230
1
  2
SOLID
 70
1
 71
0
 91
1
 92
0
 93
10
 72
4
 94
3
 73
0
 74
0
 95
8
 96
4
 40
8
 40
8
 40
8
 40
8
 40
9
 40
9
 40
9
 40
9
 10
2.80624235620329
 20
0.904962076806938
 10
2.74528853996597
 20
0.956624979799365
 10
2.67241251534578
 20
0.980489741630597
 10
2.59292434443816
 20
0.980489741630597
 72
4
 94
3
 73
0
 74
0
 95
8
 96
4
 40
7
 40
7
 40
7
 40
7
 40
8
 40
8
 40
8
 40
8
 10
2.59292434443816
 20
0.980489741630597
 10
2.41272809930667
 20
0.980489741630597
 10
2.27757582919167
 20
0.840027409420161
 10
2.27757582919167
 20
0.662489586180637
 72
4
 94
3
 73
0
 74
0
 95
8
 96
4
 40
6
 40
6
 40
6
 40
6
 40
7
 40
7
 40
7
 40
7
 10
2.27757582919167
 20
0.662489586180637
 10
2.27757582919167
 20
0.483608988618125
 10
2.4100764591032
 20
0.341844572215702
 10
2.59158835180368
 20
0.341844572215702
 72
4
 94
3
 73
0
 74
0
 95
8
 96
4
 40
5
 40
5
 40
5
 40
5
 40
6
 40
6
 40
6
 40
6
 10
2.59158835180368
 20
0.341844572215702
 10
2.67374172629177
 20
0.341844572215702
 10
2.7519210313189
 20
0.372321480334362
 10
2.8141904951252
 20
0.426642805218756
 72
1
 10
2.8141904951252
 20
0.426642805218757
 11
2.8141904951252
 21
0.507460187072359
 72
4
 94
3
 73
0
 74
0
 95
8
 96
4
 40
3
 40
3
 40
3
 40
3
 40
4
 40
4
 40
4
 40
4
 10
2.8141904951252
 20
0.507460187072359
 10
2.75853995929482
 20
0.439887442859109
 10
2.67638658480674
 20
0.397501889734581
 10
2.58893671160021
 20
0.397501889734581
 72
4
 94
3
 73
0
 74
0
 95
8
 96
4
 40
2
 40
2
 40
2
 40
2
 40
3
 40
3
 40
3
 40
3
 10
2.58893671160021
 20
0.397501889734581
 10
2.44452065499432
 20
0.397501889734581
 10
2.33720043448301
 20
0.523376809981682
 10
2.33720043448301
 20
0.662489586180637
 72
4
 94
3
 73
0
 74
0
 95
8
 96
4
 40
1
 40
1
 40
1
 40
1
 40
2
 40
2
 40
2
 40
2
 10
2.33720043448301
 20
0.662489586180637
 10
2.33720043448301
 20
0.801615925756588
 10
2.4458566476288
 20
0.92483242411172
 10
2.59027270423469
 20
0.92483242411172
 72
4
 94
3
 73
0
 74
0
 95
8
 96
4
 40
0
 40
0
 40
0
 40
0
 40
1
 40
1
 40
1
 40
1
 10
2.59027270423469
 20
0.92483242411172
 10
2.67771579575272
 20
0.92483242411172
 10
2.74794696185794
 20
0.889059017274615
 10
2.80624235620329
 20
0.825460342522321
 72
1
 10
2.80624235620329
 20
0.825460342522321
 11
2.80624235620329
 21
0.904962076806938
 97
0
 75
0
 76
1
 98
0
  0
HATCH
  5
50
100
AcDbEntity
  8
0
100
AcDbHatch
370
-1
 62
7
 10
0
 20
0
 30
0
210
0
220
0
230
1
  2
SOLID
 70
1
 71
0
 91
2
 92
0
 93
8
 72
4
 94
3
 73
0
 74
0
 95
8
 96
4
 40
6
 40
6
 40
6
 40
6
 40
7
 40
7
 40
7
 40
7
 10
4.55385635587986
 20
0.65586387651621
 10
4.55517200344884
 20
0.83207927049825
 10
4.44520014273407
 20
0.980489741630597
 10
4.25970739888413
 20
0.980489741630597
 72
4
 94
3
 73
0
 74
0
 95
8
 96
4
 40
5
 40
5
 40
5
 40
5
 40
6
 40
6
 40
6
 40
6
 10
4.25970739888413
 20
0.980489741630597
 10
4.08083358301012
 20
0.980489741630597
 10
3.96291358337343
 20
0.833401699755734
 10
3.96291358337343
 20
0.662482804492134
 72
4
 94
3
 73
0
 74
0
 95
8
 96
4
 40
4
 40
4
 40
4
 40
4
 40
5
 40
5
 40
5
 40
5
 10
3.96291358337343
 20
0.662482804492134
 10
3.96291358337343
 20
0.488919050713564
 10
4.07818872449515
 20
0.341844572215702
 10
4.25970739888413
 20
0.341844572215702
 72
4
 94
3
 73
0
 74
0
 95
8
 96
4
 40
3
 40
3
 40
3
 40
3
 40
4
 40
4
 40
4
 40
4
 10
4.25970739888413
 20
0.341844572215702
 10
4.38028582041279
 20
0.341844572215702
 10
4.4783083459907
 20
0.401469177507038
 10
4.53397244519808
 20
0.50747375044936
 72
1
 10
4.53397244519808
 20
0.507473750449359
 11
4.48362518977464
 21
0.536607884245035
 72
4
 94
3
 73
0
 74
0
 95
8
 96
4
 40
1
 40
1
 40
1
 40
1
 40
2
 40
2
 40
2
 40
2
 10
4.48362518977464
 20
0.536607884245035
 10
4.43989686232713
 20
0.454474854822448
 10
4.36306033162298
 20
0.397501889734581
 10
4.26765553780604
 20
0.397501889734581
 72
4
 94
3
 73
0
 74
0
 95
8
 96
4
 40
0
 40
0
 40
0
 40
0
 40
1
 40
1
 40
1
 40
1
 10
4.26765553780604
 20
0.397501889734581
 10
4.12587755802662
 20
0.397501889734581
 10
4.01856411920381
 20
0.500848040784933
 10
4.02253818866477
 20
0.65586387651621
 72
1
 10
4.02253818866477
 20
0.65586387651621
 11
4.55385635587986
 21
0.65586387651621
 97
0
 92
0
 93
3
 72
4
 94
3
 73
0
 74
0
 95
8
 96
4
 40
1
 40
1
 40
1
 40
1
 40
2
 40
2
 40
2
 40
2
 10
4.02253818866477
 20
0.711514412346591
 10
4.03313118610165
 20
0.826789553468308
 10
4.1364841188405
 20
0.92483242411172
 10
4.26103660983012
 20
0.92483242411172
 72
4
 94
3
 73
0
 74
0
 95
8
 96
4
 40
0
 40
0
 40
0
 40
0
 40
1
 40
1
 40
1
 40
1
 10
4.26103660983012
 20
0.92483242411172
 10
4.38689118501171
 20
0.92483242411172
 10
4.47965112031368
 20
0.824137913264837
 10
4.49423175058852
 20
0.711514412346591
 72
1
 10
4.49423175058852
 20
0.711514412346591
 11
4.02253818866477
 21
0.711514412346591
 97
0
 75
0
 76
1
 98
0
  0
HATCH
  5
51
100
AcDbEntity
  8
0
100
AcDbHatch
370
-1
 62
7
 10
0
 20
0
 30
0
210
0
220
0
230
1
  2
SOLID
 70
1
 71
0
 91
2
 92
0
 93
11
 72
4
 94
3
 73
0
 74
0
 95
8
 96
4
 40
6
 40
6
 40
6
 40
6
 40
7
 40
7
 40
7
 40
7
 10
3.39186828492578
 20
0.861240531047924
 10
3.34019181855635
 20
0.938083843440569
 10
3.25009030514636
 20
0.980489741630597
 10
3.1560147222754
 20
0.980489741630597
 72
4
 94
3
 73
0
 74
0
 95
8
 96
4
 40
5
 40
5
 40
5
 40
5
 40
6
 40
6
 40
6
 40
6
 10
3.1560147222754
 20
0.980489741630597
 10
2.97185118937145
 20
0.980489741630597
 10
2.85657604824973
 20
0.844001478881117
 10
2.85657604824973
 20
0.665141226384106
 72
4
 94
3
 73
0
 74
0
 95
8
 96
4
 40
4
 40
4
 40
4
 40
4
 40
5
 40
5
 40
5
 40
5
 10
2.85657604824973
 20
0.665141226384106
 10
2.85657604824973
 20
0.486267410510095
 10
2.97318040031744
 20
0.3418513539042
 10
3.15867314416737
 20
0.3418513539042
 72
4
 94
3
 73
0
 74
0
 95
8
 96
4
 40
3
 40
3
 40
3
 40
3
 40
4
 40
4
 40
4
 40
4
 10
3.15867314416737
 20
0.3418513539042
 10
3.24876109420037
 20
0.3418513539042
 10
3.34681074653228
 20
0.3868885472322
 10
3.39186828492578
 20
0.46507463394783
 72
1
 10
3.39186828492578
 20
0.46507463394783
 11
3.39451314344075
 21
0.46507463394783
 72
1
 10
3.39451314344075
 20
0.46507463394783
 11
3.39451314344075
 21
0.355102773233053
 72
1
 10
3.39451314344075
 20
0.355102773233053
 11
3.45413774873209
 21
0.355102773233053
 72
1
 10
3.45413774873209
 20
0.355102773233053
 11
3.45413774873209
 21
0.967224758924745
 72
1
 10
3.45413774873209
 20
0.967224758924745
 11
3.39451314344075
 21
0.967224758924744
 72
1
 10
3.39451314344075
 20
0.967224758924744
 11
3.39451314344075
 21
0.861240531047924
 72
1
 10
3.39451314344075
 20
0.861240531047924
 11
3.39186828492578
 21
0.861240531047924
 97
0
 92
0
 93
2
 72
4
 94
3
 73
0
 74
0
 95
11
 96
7
 40
0
 40
0
 40
0
 40
0
 40
1
 40
1
 40
1
 40
2
 40
2
 40
2
 40
2
 10
3.39848721290171
 20
0.671766936048533
 10
3.39848721290171
 20
0.524699239239167
 10
3.31368897989865
 20
0.397488326357582
 10
3.15734393322139
 20
0.397488326357582
 10
3.00894702546604
 20
0.397488326357582
 10
2.91620065354107
 20
0.524699239239167
 10
2.91620065354107
 20
0.665141226384106
 72
4
 94
3
 73
0
 74
0
 95
11
 96
7
 40
2
 40
2
 40
2
 40
2
 40
3
 40
3
 40
3
 40
4
 40
4
 40
4
 40
4
 10
2.91620065354107
 20
0.665141226384106
 10
2.91620065354107
 20
0.797641856295632
 10
3.01292109492699
 20
0.924839205800216
 10
3.15336986376043
 20
0.924839205800216
 10
3.30176677151578
 20
0.924839205800216
 10
3.39848721290171
 20
0.813544915827957
 10
3.39848721290171
 20
0.671766936048533
 97
0
 75
0
 76
1
 98
0
  0
HATCH
  5
52
100
AcDbEntity
  8
0
100
AcDbHatch
370
-1
 62
7
 10
0
 20
0
 30
0
210
0
220
0
230
1
  2
SOLID
 70
1
 71
0
 91
1
 92
0
 93
13
 72
4
 94
3
 73
0
 74
0
 95
8
 96
4
 40
11
 40
11
 40
11
 40
11
 40
12
 40
12
 40
12
 40
12
 10
3.73104765356101
 20
0.980476178253598
 10
3.79331711736732
 20
0.980476178253598
 10
3.86088986158056
 20
0.939413054386554
 10
3.88739270023827
 20
0.882440089298689
 72
1
 10
3.88739270023827
 20
0.882440089298689
 11
3.83571623386885
 21
0.855937250640984
 72
4
 94
3
 73
0
 74
0
 95
8
 96
4
 40
0
 40
0
 40
0
 40
0
 40
1
 40
1
 40
1
 40
1
 10
3.83571623386885
 20
0.855937250640984
 10
3.81584588656406
 20
0.898343148831014
 10
3.77609162857751
 20
0.924825642423218
 10
3.72840279504604
 20
0.924825642423218
 72
4
 94
3
 73
0
 74
0
 95
8
 96
4
 40
1
 40
1
 40
1
 40
1
 40
2
 40
2
 40
2
 40
2
 10
3.72840279504604
 20
0.924825642423218
 10
3.67672632867661
 20
0.924825642423218
 10
3.6237206513612
 20
0.882440089298689
 10
3.6237206513612
 20
0.829434411983279
 72
4
 94
3
 73
0
 74
0
 95
8
 96
4
 40
2
 40
2
 40
2
 40
2
 40
3
 40
3
 40
3
 40
3
 10
3.6237206513612
 20
0.829434411983279
 10
3.6237206513612
 20
0.682366715173915
 10
3.92184367781789
 20
0.753913528848118
 10
3.92184367781789
 20
0.532647378161078
 72
4
 94
3
 73
0
 74
0
 95
8
 96
4
 40
3
 40
3
 40
3
 40
3
 40
4
 40
4
 40
4
 40
4
 10
3.92184367781789
 20
0.532647378161078
 10
3.92184367781789
 20
0.420023877242832
 10
3.83440058629986
 20
0.341837790527202
 10
3.72442872558508
 20
0.341837790527202
 72
4
 94
3
 73
0
 74
0
 95
8
 96
4
 40
4
 40
4
 40
4
 40
4
 40
5
 40
5
 40
5
 40
5
 10
3.72442872558508
 20
0.341837790527202
 10
3.62240500379222
 20
0.341837790527202
 10
3.53892241835815
 20
0.40412081771051
 10
3.51374879064643
 20
0.503492899299902
 72
1
 10
3.51374879064643
 20
0.503492899299902
 11
3.57205774836877
 21
0.522034035658697
 72
4
 94
3
 73
0
 74
0
 95
8
 96
4
 40
6
 40
6
 40
6
 40
6
 40
7
 40
7
 40
7
 40
7
 10
3.57205774836877
 20
0.522034035658697
 10
3.59457295418853
 20
0.449171574415508
 10
3.64360456204298
 20
0.397495108046083
 10
3.72442872558508
 20
0.397495108046083
 72
4
 94
3
 73
0
 74
0
 95
8
 96
4
 40
7
 40
7
 40
7
 40
7
 40
8
 40
8
 40
8
 40
8
 10
3.72442872558508
 20
0.397495108046083
 10
3.80126525628923
 20
0.397495108046083
 10
3.86221907252655
 20
0.458435360906405
 10
3.86221907252655
 20
0.535299018364549
 72
4
 94
3
 73
0
 74
0
 95
8
 96
4
 40
8
 40
8
 40
8
 40
8
 40
9
 40
9
 40
9
 40
9
 10
3.86221907252655
 20
0.535299018364549
 10
3.86221907252655
 20
0.61081311981121
 10
3.8039236781812
 20
0.634657536576945
 10
3.74296986194387
 20
0.655870658204708
 72
4
 94
3
 73
0
 74
0
 95
8
 96
4
 40
9
 40
9
 40
9
 40
9
 40
10
 40
10
 40
10
 40
10
 10
3.74296986194387
 20
0.655870658204708
 10
3.6594872765098
 20
0.686340784634871
 10
3.56409604606987
 20
0.722120973160472
 10
3.56409604606987
 20
0.825467124210824
 72
4
 94
3
 73
0
 74
0
 95
8
 96
4
 40
10
 40
10
 40
10
 40
10
 40
11
 40
11
 40
11
 40
11
 10
3.56409604606987
 20
0.825467124210824
 10
3.56409604606987
 20
0.918199932758791
 10
3.642275351097
 20
0.980476178253598
 10
3.73104765356101
 20
0.980476178253598
 97
0
 75
0
 76
1
 98
0
  0
ENDBLK
  5
4EF
100
AcDbEntity
  8
0
100
AcDbBlockEnd
  0
BLOCK
  5
54
100
AcDbEntity
  8
0
100
AcDbBlockBegin
  2
ThirdAngleProjectionBlock
 70
64
 10
0
 20
0
 30
0
  3
ThirdAngleProjectionBlock
  1

  0
CIRCLE
  5
56
100
AcDbEntity
  8
0
100
AcDbCircle
 62
7
  6
SLD-Solid
 10
0.275362605674648
 20
0.25323707939932
 30
0
 40
0.205676263764071
  0
CIRCLE
  5
57
100
AcDbEntity
  8
0
100
AcDbCircle
 62
7
  6
SLD-Solid
 10
0.275362605674648
 20
0.25323707939932
 30
0
 40
0.078850638039724
  0
LINE
  5
58
100
AcDbEntity
  8
0
100
AcDbLine
 62
7
  6
SLD-Center
 10
-4.86268942872239E-14
 20
0.25323707939932
 30
0
 11
1.20158167242649
 21
0.25323707939932
 31
0
  0
LINE
  5
59
100
AcDbEntity
  8
0
100
AcDbLine
 62
7
  6
SLD-Solid
 10
0.632306039919218
 20
0.332087717439044
 30
0
 11
0.632306039919218
 21
0.174386441359597
 31
0
  0
LINE
  5
5A
100
AcDbEntity
  8
0
100
AcDbLine
 62
7
  6
SLD-Solid
 10
1.13036839008526
 20
0.458913343163391
 30
0
 11
1.13036839008526
 21
0.0475608156352483
 31
0
  0
LINE
  5
5B
100
AcDbEntity
  8
0
100
AcDbLine
 62
7
  6
SLD-Solid
 10
0.632306039919218
 20
0.332087717439044
 30
0
 11
1.13036839008526
 21
0.458913343163391
 31
0
  0
LINE
  5
5C
100
AcDbEntity
  8
0
100
AcDbLine
 62
7
  6
SLD-Solid
 10
0.632306039919218
 20
0.174386441359597
 30
0
 11
1.13036839008526
 21
0.0475608156352483
 31
0
  0
LINE
  5
5D
100
AcDbEntity
  8
0
100
AcDbLine
 62
7
  6
SLD-Center
 10
0.275362605674642
 20
0.506474158798637
 30
0
 11
0.275362605674648
 21
0
 31
0
  0
ENDBLK
  5
4F0
100
AcDbEntity
  8
0
100
AcDbBlockEnd
  0
BLOCK
  5
62
100
AcDbEntity
  8
0
100
AcDbBlockBegin
  2
SW_NOTE_0
 70
64
 10
0
 20
0
 30
0
  3
SW_NOTE_0
  1

  0
MTEXT
  5
65
100
AcDbEntity
  8
0
100
AcDbMText
 62
0
 10
0.74952503244866
 20
0.07025390625
 30
0
 40
0.055
  1
1305 CHESTER IND. PARKWAY AVON, OHIO 44011-1083 U.S.A. 
 50
0
 41
0
  7
SLDTEXTSTYLE0
 71
2
 11
1
 21
0
 31
0
 73
1
 44
1
  0
MTEXT
  5
66
100
AcDbEntity
  8
0
100
AcDbMText
 62
0
 10
0.756426242660403
 20
-0.000864149688149083
 30
0
 40
0.055
  1
PH#: 1-800-248-1233, 440-934-0444 FAX#: 440-934-0088
 50
0
 41
0
  7
SLDTEXTSTYLE0
 71
2
 11
1
 21
0
 31
0
 73
1
 44
1
  0
ENDBLK
  5
4F1
100
AcDbEntity
  8
0
100
AcDbBlockEnd
  0
BLOCK
  5
5F
100
AcDbEntity
  8
0
100
AcDbBlockBegin
  2
POLYCASE LOGO
 70
64
 10
0
 20
0
 30
0
  3
POLYCASE LOGO
  1

  0
INSERT
  5
67
100
AcDbEntity
  8
0
100
AcDbBlockReference
 62
7
  6
CONTINUOUS
  2
SW_NOTE_0
 10
0.834881348495816
 20
-0.564377243453843
 30
0
 41
1
 42
1
 43
1
  0
INSERT
  5
68
100
AcDbEntity
  8
0
100
AcDbBlockReference
370
-1
 62
7
  6
CONTINUOUS
  2
Block3
 10
0.101458424104024
 20
-0.571418384460174
 30
0
 41
0.37
 42
0.37
 43
0.37
  0
ENDBLK
  5
4F2
100
AcDbEntity
  8
0
100
AcDbBlockEnd
  0
BLOCK
  5
8B
100
AcDbEntity
  8
0
100
AcDbBlockBegin
  2
SW_NOTE_1
 70
64
 10
0
 20
0
 30
0
  3
SW_NOTE_1
  1

  0
MTEXT
  5
8E
100
AcDbEntity
  8
SLD-0
100
AcDbMText
370
-1
 62
0
 10
0
 20
0.15966796875
 30
0
 40
0.125
  1
NOTES:  
 50
0
 41
0
  7
SLDTEXTSTYLE1
 71
1
 11
1
 21
0
 31
0
 73
1
 44
1
  0
MTEXT
  5
8F
100
AcDbEntity
  8
SLD-0
100
AcDbMText
370
-1
 62
0
 10
0.393700778601676
 20
-0.040679261821696
 30
0
 40
0.125
  1
INCLUDES
 50
0
 41
0
  7
SLDTEXTSTYLE1
 71
1
 11
1
 21
0
 31
0
 73
1
 44
1
  0
MTEXT
  5
90
100
AcDbEntity
  8
SLD-0
100
AcDbMText
370
-1
 62
0
 10
1.17252023494619
 20
-0.0387695395079712
 30
0
 40
0.125
  1
 .030 
 50
0
 41
0
  7
SLDTEXTSTYLE1
 71
1
 11
1
 21
0
 31
0
 73
1
 44
1
  0
MTEXT
  5
91
100
AcDbEntity
  8
SLD-0
100
AcDbMText
370
-1
 62
0
 10
1.58814522694415
 20
-0.040679261821696
 30
0
 40
0.125
  1
CLEARANCE FROM INTERIOR OF WP-23BF*15
 50
0
 41
0
  7
SLDTEXTSTYLE1
 71
1
 11
1
 21
0
 31
0
 73
1
 44
1
  0
MTEXT
  5
92
100
AcDbEntity
  8
SLD-0
100
AcDbMText
370
-1
 62
0
 10
0
 20
-0.040679261821696
 30
0
 40
0.125
  1
1.
 50
0
 41
0
  7
SLDTEXTSTYLE1
 71
1
 11
1
 21
0
 31
0
 73
1
 44
1
  0
ENDBLK
  5
4F3
100
AcDbEntity
  8
0
100
AcDbBlockEnd
  0
BLOCK
  5
A3
100
AcDbEntity
  8
0
100
AcDbBlockBegin
  2
SW_NOTE_2
 70
64
 10
0
 20
0
 30
0
  3
SW_NOTE_2
  1

  0
MTEXT
  5
A5
100
AcDbEntity
  8
FORMAT
100
AcDbMText
370
-1
 62
0
 10
0.58265625
 20
0.0702539062500001
 30
0
 40
0.055
  1
PROPRIETARY AND CONFIDENTIAL
 50
0
 41
0
  7
SLDTEXTSTYLE1
 71
2
 11
1
 21
0
 31
0
 73
1
 44
1
  0
MTEXT
  5
A6
100
AcDbEntity
  8
FORMAT
100
AcDbMText
370
-1
 62
0
 10
0.58917307631472
 20
-0.024116176078756
 30
0
 40
0.055
  1
THE INFORMATION CONTAINED IN THIS
 50
0
 41
0
  7
SLDTEXTSTYLE1
 71
2
 11
1
 21
0
 31
0
 73
1
 44
1
  0
MTEXT
  5
A7
100
AcDbEntity
  8
FORMAT
100
AcDbMText
370
-1
 62
0
 10
0.587454386022617
 20
-0.118486258407512
 30
0
 40
0.055
  1
DRAWING IS THE SOLE PROPERTY OF
 50
0
 41
0
  7
SLDTEXTSTYLE1
 71
2
 11
1
 21
0
 31
0
 73
1
 44
1
  0
MTEXT
  5
A8
100
AcDbEntity
  8
FORMAT
100
AcDbMText
370
-1
 62
0
 10
0.593470031316355
 20
-0.212856340736268
 30
0
 40
0.055
  1
POLYCASE.  ANY REPRODUCTION IN PART 
 50
0
 41
0
  7
SLDTEXTSTYLE1
 71
2
 11
1
 21
0
 31
0
 73
1
 44
1
  0
MTEXT
  5
A9
100
AcDbEntity
  8
FORMAT
100
AcDbMText
370
-1
 62
0
 10
0.597690532993613
 20
-0.307226423065024
 30
0
 40
0.055
  1
OR AS A WHOLE WITHOUT THE WRITTEN 
 50
0
 41
0
  7
SLDTEXTSTYLE1
 71
2
 11
1
 21
0
 31
0
 73
1
 44
1
  0
MTEXT
  5
AA
100
AcDbEntity
  8
FORMAT
100
AcDbMText
370
-1
 62
0
 10
0.592257399237531
 20
-0.40159650539378
 30
0
 40
0.055
  1
PERMISSION OF POLYCASE IS PROHIBITED.
 50
0
 41
0
  7
SLDTEXTSTYLE1
 71
2
 11
1
 21
0
 31
0
 73
1
 44
1
  0
ENDBLK
  5
4F4
100
AcDbEntity
  8
0
100
AcDbBlockEnd
  0
BLOCK
  5
AD
100
AcDbEntity
  8
0
100
AcDbBlockBegin
  2
SW_NOTE_3
 70
64
 10
0
 20
0
 30
0
  3
SW_NOTE_3
  1

  0
MTEXT
  5
AF
100
AcDbEntity
  8
FORMAT
100
AcDbMText
370
-1
 62
0
 10
0.69287109375
 20
0.1197509765625
 30
0
 40
0.09375
  1
PCB TEMPLATE FOR WP-
 50
0
 41
0
  7
SLDTEXTSTYLE1
 71
2
 11
1
 21
0
 31
0
 73
1
 44
1
  0
MTEXT
  5
B0
100
AcDbEntity
  8
FORMAT
100
AcDbMText
370
-1
 62
0
 10
0.694639759622221
 20
-0.00524902192685085
 30
0
 40
0.09375
  1
23BF*15
 50
0
 41
0
  7
SLDTEXTSTYLE1
 71
2
 11
1
 21
0
 31
0
 73
1
 44
1
  0
ENDBLK
  5
4F5
100
AcDbEntity
  8
0
100
AcDbBlockEnd
  0
BLOCK
  5
C1
100
AcDbEntity
  8
0
100
AcDbBlockBegin
  2
SW_NOTE_4
 70
64
 10
0
 20
0
 30
0
  3
SW_NOTE_4
  1

  0
MTEXT
  5
C3
100
AcDbEntity
  8
FORMAT
100
AcDbMText
370
-1
 62
0
 10
0.5671875
 20
0.076640625
 30
0
 40
0.06
  1
UNLESS OTHERWISE SPECIFIED:
 50
0
 41
0
  7
SLDTEXTSTYLE1
 71
2
 11
1
 21
0
 31
0
 73
1
 44
1
  0
MTEXT
  5
C4
100
AcDbEntity
  8
FORMAT
100
AcDbMText
370
-1
 62
0
 10
0.56478642416986
 20
-0.022729449568419
 30
0
 40
0.06
  1
DIMENSIONS ARE IN: INCHES[mm]
 50
0
 41
0
  7
SLDTEXTSTYLE1
 71
2
 11
1
 21
0
 31
0
 73
1
 44
1
  0
MTEXT
  5
C5
100
AcDbEntity
  8
FORMAT
100
AcDbMText
370
-1
 62
0
 10
0.481270895344535
 20
-0.122099524136838
 30
0
 40
0.06
  1
TOLERANCES: ANGULAR: 
 50
0
 41
0
  7
SLDTEXTSTYLE1
 71
2
 11
1
 21
0
 31
0
 73
1
 44
1
  0
MTEXT
  5
C6
100
AcDbEntity
  8
FORMAT
100
AcDbMText
370
-1
 62
0
 10
0.985937561104147
 20
-0.122099524136838
 30
0
 40
0.06
  1
%%p
 50
0
 41
0
  7
SLDTEXTSTYLE1
 71
2
 11
1
 21
0
 31
0
 73
1
 44
1
  0
MTEXT
  5
C7
100
AcDbEntity
  8
FORMAT
100
AcDbMText
370
-1
 62
0
 10
1.03746254756929
 20
-0.122099516116097
 30
0
 40
0.06
  1
2
 50
0
 41
0
  7
SLDTEXTSTYLE1
 71
2
 11
1
 21
0
 31
0
 73
1
 44
1
  0
MTEXT
  5
C8
100
AcDbEntity
  8
FORMAT
100
AcDbMText
370
-1
 62
0
 10
1.07737925646108
 20
-0.122099524136838
 30
0
 40
0.06
  1
%%d
 50
0
 41
0
  7
SLDTEXTSTYLE1
 71
2
 11
1
 21
0
 31
0
 73
1
 44
1
  0
MTEXT
  5
C9
100
AcDbEntity
  8
FORMAT
100
AcDbMText
370
-1
 62
0
 10
0.44967506466184
 20
-0.221469598705257
 30
0
 40
0.06
  1
TWO PLACE DECIMAL: 
 50
0
 41
0
  7
SLDTEXTSTYLE1
 71
2
 11
1
 21
0
 31
0
 73
1
 44
1
  0
MTEXT
  5
CA
100
AcDbEntity
  8
FORMAT
100
AcDbMText
370
-1
 62
0
 10
0.906612564139948
 20
-0.221469598705257
 30
0
 40
0.06
  1
%%p
 50
0
 41
0
  7
SLDTEXTSTYLE1
 71
2
 11
1
 21
0
 31
0
 73
1
 44
1
  0
MTEXT
  5
CB
100
AcDbEntity
  8
FORMAT
100
AcDbMText
370
-1
 62
0
 10
1.01157505060509
 20
-0.221469590684516
 30
0
 40
0.06
  1
.010
 50
0
 41
0
  7
SLDTEXTSTYLE1
 71
2
 11
1
 21
0
 31
0
 73
1
 44
1
  0
MTEXT
  5
CC
100
AcDbEntity
  8
FORMAT
100
AcDbMText
370
-1
 62
0
 10
0.449305267195533
 20
-0.320839673273676
 30
0
 40
0.06
  1
THREE PLACE DECIMAL: 
 50
0
 41
0
  7
SLDTEXTSTYLE1
 71
2
 11
1
 21
0
 31
0
 73
1
 44
1
  0
MTEXT
  5
CD
100
AcDbEntity
  8
FORMAT
100
AcDbMText
370
-1
 62
0
 10
0.924753187911247
 20
-0.320839673273676
 30
0
 40
0.06
  1
%%p
 50
0
 41
0
  7
SLDTEXTSTYLE1
 71
2
 11
1
 21
0
 31
0
 73
1
 44
1
  0
MTEXT
  5
CE
100
AcDbEntity
  8
FORMAT
100
AcDbMText
370
-1
 62
0
 10
1.02971567437639
 20
-0.320839665252935
 30
0
 40
0.06
  1
.005
 50
0
 41
0
  7
SLDTEXTSTYLE1
 71
2
 11
1
 21
0
 31
0
 73
1
 44
1
  0
MTEXT
  5
CF
100
AcDbEntity
  8
FORMAT
100
AcDbMText
370
-1
 62
0
 10
0.455570834206315
 20
-0.420209747842095
 30
0
 40
0.06
  1
PRINTED GRAPHICS: 
 50
0
 41
0
  7
SLDTEXTSTYLE1
 71
2
 11
1
 21
0
 31
0
 73
1
 44
1
  0
MTEXT
  5
D0
100
AcDbEntity
  8
FORMAT
100
AcDbMText
370
-1
 62
0
 10
0.856654147930502
 20
-0.420209747842095
 30
0
 40
0.06
  1
%%p
 50
0
 41
0
  7
SLDTEXTSTYLE1
 71
2
 11
1
 21
0
 31
0
 73
1
 44
1
  0
MTEXT
  5
D1
100
AcDbEntity
  8
FORMAT
100
AcDbMText
370
-1
 62
0
 10
0.961616707728134
 20
-0.420209739821354
 30
0
 40
0.06
  1
.010
 50
0
 41
0
  7
SLDTEXTSTYLE1
 71
2
 11
1
 21
0
 31
0
 73
1
 44
1
  0
ENDBLK
  5
4F6
100
AcDbEntity
  8
0
100
AcDbBlockEnd
  0
BLOCK
  5
D5
100
AcDbEntity
  8
0
100
AcDbBlockBegin
  2
SW_TABLEANNOTATION_0
 70
64
 10
0
 20
0
 30
0
  3
SW_TABLEANNOTATION_0
  1

  0
LINE
  5
D7
100
AcDbEntity
  8
SLD-0
100
AcDbLine
370
-1
 62
0
  6
BYLAYER
 10
0
 20
0
 30
0
 11
0
 21
-0.256601774140539
 31
0
  0
LINE
  5
D8
100
AcDbEntity
  8
SLD-0
100
AcDbLine
370
-1
 62
0
  6
BYLAYER
 10
0
 20
-0.256601774140539
 30
0
 11
4.47186438990879
 21
-0.256601774140539
 31
0
  0
LINE
  5
D9
100
AcDbEntity
  8
SLD-0
100
AcDbLine
370
-1
 62
0
  6
BYLAYER
 10
4.47186438990879
 20
-0.256601774140539
 30
0
 11
4.47186438990879
 21
0
 31
0
  0
LINE
  5
DA
100
AcDbEntity
  8
SLD-0
100
AcDbLine
370
-1
 62
0
  6
BYLAYER
 10
4.47186438990879
 20
0
 30
0
 11
0
 21
0
 31
0
  0
LINE
  5
DB
100
AcDbEntity
  8
SLD-0
100
AcDbLine
370
-1
 62
0
  6
BYLAYER
 10
0.277534762787537
 20
0
 30
0
 11
0.277534762787537
 21
-0.126944877285732
 31
0
  0
LINE
  5
DC
100
AcDbEntity
  8
SLD-0
100
AcDbLine
370
-1
 62
0
  6
BYLAYER
 10
2.72880417047156
 20
0
 30
0
 11
2.72880417047156
 21
-0.126944877285732
 31
0
  0
LINE
  5
DD
100
AcDbEntity
  8
SLD-0
100
AcDbLine
370
-1
 62
0
  6
BYLAYER
 10
3.06235743612857
 20
0
 30
0
 11
3.06235743612857
 21
-0.126944877285732
 31
0
  0
LINE
  5
DE
100
AcDbEntity
  8
SLD-0
100
AcDbLine
370
-1
 62
0
  6
BYLAYER
 10
3.43522113229503
 20
0
 30
0
 11
3.43522113229503
 21
-0.126944877285732
 31
0
  0
LINE
  5
DF
100
AcDbEntity
  8
SLD-0
100
AcDbLine
370
-1
 62
0
  6
BYLAYER
 10
3.86275588226992
 20
0
 30
0
 11
3.86275588226992
 21
-0.126944877285732
 31
0
  0
LINE
  5
E0
100
AcDbEntity
  8
SLD-0
100
AcDbLine
370
-1
 62
0
  6
BYLAYER
 10
0
 20
-0.126944877285732
 30
0
 11
4.47186438990879
 21
-0.126944877285732
 31
0
  0
MTEXT
  5
E1
100
AcDbEntity
  8
SLD-0
100
AcDbMText
370
-1
 62
0
 10
0.0208661417322834
 20
-0.0229993522769688
 30
0
 40
0.0833333333333333
  1
REV.
 50
0
 41
0
  7
SLDTEXTSTYLE1
 71
1
 11
1
 21
0
 31
0
 73
1
 44
1
  0
MTEXT
  5
E2
100
AcDbEntity
  8
SLD-0
100
AcDbMText
370
-1
 62
0
 10
1.15432686648903
 20
-0.0229993522769688
 30
0
 40
0.0833333333333333
  1
DESCRIPTION
 50
0
 41
0
  7
SLDTEXTSTYLE1
 71
1
 11
1
 21
0
 31
0
 73
1
 44
1
  0
MTEXT
  5
E3
100
AcDbEntity
  8
SLD-0
100
AcDbMText
370
-1
 62
0
 10
2.74967031220384
 20
-0.0229993522769688
 30
0
 40
0.0833333333333333
  1
ZONE
 50
0
 41
0
  7
SLDTEXTSTYLE1
 71
1
 11
1
 21
0
 31
0
 73
1
 44
1
  0
MTEXT
  5
E4
100
AcDbEntity
  8
SLD-0
100
AcDbMText
370
-1
 62
0
 10
3.18405163123336
 20
-0.0229993454020483
 30
0
 40
0.0833333333333333
  1
BY
 50
0
 41
0
  7
SLDTEXTSTYLE1
 71
1
 11
1
 21
0
 31
0
 73
1
 44
1
  0
MTEXT
  5
E5
100
AcDbEntity
  8
SLD-0
100
AcDbMText
370
-1
 62
0
 10
3.45608727402732
 20
-0.0229993522769688
 30
0
 40
0.0833333333333333
  1
APPR'D
 50
0
 41
0
  7
SLDTEXTSTYLE1
 71
1
 11
1
 21
0
 31
0
 73
1
 44
1
  0
MTEXT
  5
E6
100
AcDbEntity
  8
SLD-0
100
AcDbMText
370
-1
 62
0
 10
4.03135334750711
 20
-0.0229993522769688
 30
0
 40
0.0833333333333333
  1
DATE
 50
0
 41
0
  7
SLDTEXTSTYLE1
 71
1
 11
1
 21
0
 31
0
 73
1
 44
1
  0
MTEXT
  5
E7
100
AcDbEntity
  8
SLD-0
100
AcDbMText
370
-1
 62
0
 10
1.96340132325428
 20
-0.151300239347238
 30
0
 40
0.0833333333333333
  1
REVISIONS
 50
0
 41
0
  7
SLDTEXTSTYLE1
 71
1
 11
1
 21
0
 31
0
 73
1
 44
1
  0
ENDBLK
  5
4F7
100
AcDbEntity
  8
0
100
AcDbBlockEnd
  0
BLOCK
  5
12C
100
AcDbEntity
  8
0
100
AcDbBlockBegin
  2
_NONE
 70
64
 10
0
 20
0
 30
0
  3
_NONE
  1

  0
ENDBLK
  5
4F8
100
AcDbEntity
  8
0
100
AcDbBlockEnd
  0
BLOCK
  5
12F
100
AcDbEntity
  8
0
100
AcDbBlockBegin
  2
*D10
 70
65
 10
0
 20
0
 30
0
  3
*D10
  1

  0
LINE
  5
131
100
AcDbEntity
  8
SLD-0
100
AcDbLine
370
-1
  6
BYLAYER
 10
3.83922127832655
 20
6.83404381872483
 30
0
 11
3.83922127832655
 21
7.2232264437515
 31
0
  0
MTEXT
  5
132
100
AcDbEntity
  8
SLD-0
100
AcDbMText
370
-1
 10
3.77876720534036
 20
7.28572644375149
 30
-5.14695076641519E-14
 40
0.125
  1
0
 50
0
 41
0
  7
SLDTEXTSTYLE1
 71
1
 11
-3.49148133884313E-15
 21
1
 31
0
 73
1
 44
1
  0
ENDBLK
  5
4F9
100
AcDbEntity
  8
0
100
AcDbBlockEnd
  0
BLOCK
  5
136
100
AcDbEntity
  8
0
100
AcDbBlockBegin
  2
*D11
 70
65
 10
0
 20
0
 30
0
  3
*D11
  1

  0
LINE
  5
138
100
AcDbEntity
  8
SLD-0
100
AcDbLine
370
-1
  6
BYLAYER
 10
5.33153432711354
 20
7.02637605005071
 30
0
 11
5.33153432711354
 21
7.2232264437515
 31
0
  0
LINE
  5
139
100
AcDbEntity
  8
SLD-0
100
AcDbLine
370
-1
  6
BYLAYER
 10
5.33153432711354
 20
7.02637605005071
 30
0
 11
5.35318978226356
 21
6.82952565634993
 31
0
  0
LINE
  5
13A
100
AcDbEntity
  8
SLD-0
100
AcDbLine
370
-1
  6
BYLAYER
 10
5.35318978226356
 20
6.82952565634993
 30
0
 11
5.35318978226356
 21
6.37937609834321
 31
0
  0
MTEXT
  5
13B
100
AcDbEntity
  8
SLD-0
100
AcDbMText
370
-1
 10
5.27108511822163
 20
7.2232264437515
 30
-0.0273129921259835
 40
0.125
  1
1.514
 50
0
 41
0
  7
SLDTEXTSTYLE1
 71
1
 11
-3.49148133884313E-15
 21
1
 31
0
 73
1
 44
1
  0
ENDBLK
  5
4FA
100
AcDbEntity
  8
0
100
AcDbBlockEnd
  0
BLOCK
  5
13E
100
AcDbEntity
  8
0
100
AcDbBlockBegin
  2
*D12
 70
65
 10
0
 20
0
 30
0
  3
*D12
  1

  0
LINE
  5
140
100
AcDbEntity
  8
SLD-0
100
AcDbLine
370
-1
  6
BYLAYER
 10
2.28954900613567
 20
7.0263760500507
 30
0
 11
2.28954900613567
 21
7.22322644375149
 31
0
  0
LINE
  5
141
100
AcDbEntity
  8
SLD-0
100
AcDbLine
370
-1
  6
BYLAYER
 10
2.28954900613567
 20
7.0263760500507
 30
0
 11
2.32525277438954
 21
6.82952565634992
 31
0
  0
LINE
  5
142
100
AcDbEntity
  8
SLD-0
100
AcDbLine
370
-1
  6
BYLAYER
 10
2.32525277438954
 20
6.82952565634992
 30
0
 11
2.32525277438955
 21
6.3793760983432
 31
0
  0
MTEXT
  5
143
100
AcDbEntity
  8
SLD-0
100
AcDbMText
370
-1
 10
2.22909979724375
 20
7.22322644375149
 30
-0.0273129921259835
 40
0.125
  1
1.514
 50
0
 41
0
  7
SLDTEXTSTYLE1
 71
1
 11
-3.49148133884313E-15
 21
1
 31
0
 73
1
 44
1
  0
ENDBLK
  5
4FB
100
AcDbEntity
  8
0
100
AcDbBlockEnd
  0
BLOCK
  5
146
100
AcDbEntity
  8
0
100
AcDbBlockBegin
  2
*D13
 70
65
 10
0
 20
0
 30
0
  3
*D13
  1

  0
LINE
  5
148
100
AcDbEntity
  8
SLD-0
100
AcDbLine
370
-1
  6
BYLAYER
 10
1.57635983478845
 20
7.0263760500507
 30
0
 11
1.57635983478845
 21
7.22322644375149
 31
0
  0
LINE
  5
149
100
AcDbEntity
  8
SLD-0
100
AcDbLine
370
-1
  6
BYLAYER
 10
1.57635983478845
 20
7.0263760500507
 30
0
 11
1.73705820939455
 21
6.82952565634991
 31
0
  0
LINE
  5
14A
100
AcDbEntity
  8
SLD-0
100
AcDbLine
370
-1
  6
BYLAYER
 10
1.73705820939455
 20
6.82952565634991
 30
0
 11
1.73705820939456
 21
5.84799027157155
 31
0
  0
MTEXT
  5
14B
100
AcDbEntity
  8
SLD-0
100
AcDbMText
370
-1
 10
1.51591062589653
 20
7.22322644375149
 30
-0.0273129921259835
 40
0.125
  1
3X 
 50
0
 41
0
  7
SLDTEXTSTYLE1
 71
1
 11
-3.49148133884313E-15
 21
1
 31
0
 73
1
 44
1
  0
MTEXT
  5
14C
100
AcDbEntity
  8
SLD-0
100
AcDbMText
370
-1
 10
1.51591062589653
 20
7.46333060671437
 30
-0.0273129921259835
 40
0.125
  1
2.102
 50
0
 41
0
  7
SLDTEXTSTYLE1
 71
1
 11
-3.49148133884313E-15
 21
1
 31
0
 73
1
 44
1
  0
ENDBLK
  5
4FC
100
AcDbEntity
  8
0
100
AcDbBlockEnd
  0
BLOCK
  5
14F
100
AcDbEntity
  8
0
100
AcDbBlockBegin
  2
*D14
 70
65
 10
0
 20
0
 30
0
  3
*D14
  1

  0
LINE
  5
151
100
AcDbEntity
  8
SLD-0
100
AcDbLine
370
-1
  6
BYLAYER
 10
1.80755548984998
 20
7.0263760500507
 30
0
 11
1.80755548984998
 21
7.22322644375149
 31
0
  0
LINE
  5
152
100
AcDbEntity
  8
SLD-0
100
AcDbLine
370
-1
  6
BYLAYER
 10
1.80755548984998
 20
7.0263760500507
 30
0
 11
1.80739420258552
 21
6.82952565634991
 31
0
  0
LINE
  5
153
100
AcDbEntity
  8
SLD-0
100
AcDbLine
370
-1
  6
BYLAYER
 10
1.80739420258552
 20
6.82952565634991
 30
0
 11
1.80739420258552
 21
5.76467657408643
 31
0
  0
MTEXT
  5
154
100
AcDbEntity
  8
SLD-0
100
AcDbMText
370
-1
 10
1.74710628095807
 20
7.22322644375149
 30
-0.0273129921259835
 40
0.125
  1
2X 
 50
0
 41
0
  7
SLDTEXTSTYLE1
 71
1
 11
-3.49148133884313E-15
 21
1
 31
0
 73
1
 44
1
  0
MTEXT
  5
155
100
AcDbEntity
  8
SLD-0
100
AcDbMText
370
-1
 10
1.74710628095807
 20
7.46333060671437
 30
-0.0273129921259835
 40
0.125
  1
2.032
 50
0
 41
0
  7
SLDTEXTSTYLE1
 71
1
 11
-3.49148133884313E-15
 21
1
 31
0
 73
1
 44
1
  0
ENDBLK
  5
4FD
100
AcDbEntity
  8
0
100
AcDbBlockEnd
  0
BLOCK
  5
158
100
AcDbEntity
  8
0
100
AcDbBlockBegin
  2
*D15
 70
65
 10
0
 20
0
 30
0
  3
*D15
  1

  0
LINE
  5
15A
100
AcDbEntity
  8
SLD-0
100
AcDbLine
370
-1
  6
BYLAYER
 10
2.08054274804265
 20
7.0263760500507
 30
0
 11
2.08054274804265
 21
7.22322644375149
 31
0
  0
LINE
  5
15B
100
AcDbEntity
  8
SLD-0
100
AcDbLine
370
-1
  6
BYLAYER
 10
2.08054274804265
 20
7.0263760500507
 30
0
 11
2.11105820939455
 21
6.82952565634991
 31
0
  0
LINE
  5
15C
100
AcDbEntity
  8
SLD-0
100
AcDbLine
370
-1
  6
BYLAYER
 10
2.11105820939455
 20
6.82952565634991
 30
0
 11
2.11105820939455
 21
6.57644696448493
 31
0
  0
MTEXT
  5
15D
100
AcDbEntity
  8
SLD-0
100
AcDbMText
370
-1
 10
2.02009353915073
 20
7.22322644375149
 30
-0.0273129921259835
 40
0.125
  1
2X 
 50
0
 41
0
  7
SLDTEXTSTYLE1
 71
1
 11
-3.49148133884313E-15
 21
1
 31
0
 73
1
 44
1
  0
MTEXT
  5
15E
100
AcDbEntity
  8
SLD-0
100
AcDbMText
370
-1
 10
2.02009353915073
 20
7.46333060671437
 30
-0.0273129921259835
 40
0.125
  1
1.728
 50
0
 41
0
  7
SLDTEXTSTYLE1
 71
1
 11
-3.49148133884313E-15
 21
1
 31
0
 73
1
 44
1
  0
ENDBLK
  5
4FE
100
AcDbEntity
  8
0
100
AcDbBlockEnd
  0
BLOCK
  5
161
100
AcDbEntity
  8
0
100
AcDbBlockBegin
  2
*D16
 70
65
 10
0
 20
0
 30
0
  3
*D16
  1

  0
LINE
  5
163
100
AcDbEntity
  8
SLD-0
100
AcDbLine
370
-1
  6
BYLAYER
 10
2.56425938372506
 20
6.65261003341693
 30
0
 11
2.56425938372505
 21
7.22322644375149
 31
0
  0
MTEXT
  5
164
100
AcDbEntity
  8
SLD-0
100
AcDbMText
370
-1
 10
2.50381017483314
 20
7.22322644375149
 30
-0.0273129921259835
 40
0.125
  1
2X 
 50
0
 41
0
  7
SLDTEXTSTYLE1
 71
1
 11
-3.49148133884313E-15
 21
1
 31
0
 73
1
 44
1
  0
MTEXT
  5
165
100
AcDbEntity
  8
SLD-0
100
AcDbMText
370
-1
 10
2.50381017483314
 20
7.46333060671438
 30
-0.0273129921259835
 40
0.125
  1
1.275
 50
0
 41
0
  7
SLDTEXTSTYLE1
 71
1
 11
-3.49148133884313E-15
 21
1
 31
0
 73
1
 44
1
  0
ENDBLK
  5
4FF
100
AcDbEntity
  8
0
100
AcDbBlockEnd
  0
BLOCK
  5
168
100
AcDbEntity
  8
0
100
AcDbBlockBegin
  2
*D17
 70
65
 10
0
 20
0
 30
0
  3
*D17
  1

  0
LINE
  5
16A
100
AcDbEntity
  8
SLD-0
100
AcDbLine
370
-1
  6
BYLAYER
 10
2.83071860292805
 20
6.65261003341693
 30
0
 11
2.83071860292805
 21
7.22322644375149
 31
0
  0
MTEXT
  5
16B
100
AcDbEntity
  8
SLD-0
100
AcDbMText
370
-1
 10
2.77026939403614
 20
7.22322644375149
 30
-0.0273129921259835
 40
0.125
  1
2X 
 50
0
 41
0
  7
SLDTEXTSTYLE1
 71
1
 11
-3.49148133884313E-15
 21
1
 31
0
 73
1
 44
1
  0
MTEXT
  5
16C
100
AcDbEntity
  8
SLD-0
100
AcDbMText
370
-1
 10
2.77026939403613
 20
7.46333060671438
 30
-0.0273129921259835
 40
0.125
  1
1.009
 50
0
 41
0
  7
SLDTEXTSTYLE1
 71
1
 11
-3.49148133884313E-15
 21
1
 31
0
 73
1
 44
1
  0
ENDBLK
  5
500
100
AcDbEntity
  8
0
100
AcDbBlockEnd
  0
BLOCK
  5
16F
100
AcDbEntity
  8
0
100
AcDbBlockBegin
  2
*D18
 70
65
 10
0
 20
0
 30
0
  3
*D18
  1

  0
LINE
  5
171
100
AcDbEntity
  8
SLD-0
100
AcDbLine
370
-1
  6
BYLAYER
 10
3.56739844494212
 20
7.02637605005071
 30
0
 11
3.56739844494212
 21
7.2232264437515
 31
0
  0
LINE
  5
172
100
AcDbEntity
  8
SLD-0
100
AcDbLine
370
-1
  6
BYLAYER
 10
3.56739844494212
 20
7.02637605005071
 30
0
 11
3.70599166872506
 21
6.82952565634992
 31
0
  0
LINE
  5
173
100
AcDbEntity
  8
SLD-0
100
AcDbLine
370
-1
  6
BYLAYER
 10
3.70599166872506
 20
6.82952565634992
 30
0
 11
3.70599166872506
 21
6.65261003341694
 31
0
  0
MTEXT
  5
174
100
AcDbEntity
  8
SLD-0
100
AcDbMText
370
-1
 10
3.5069492360502
 20
7.22322644375149
 30
-0.0273129921259835
 40
0.125
  1
2X 
 50
0
 41
0
  7
SLDTEXTSTYLE1
 71
1
 11
-3.49148133884313E-15
 21
1
 31
0
 73
1
 44
1
  0
MTEXT
  5
175
100
AcDbEntity
  8
SLD-0
100
AcDbMText
370
-1
 10
3.5069492360502
 20
7.46333060671438
 30
-0.0273129921259835
 40
0.125
  1
.133
 50
0
 41
0
  7
SLDTEXTSTYLE1
 71
1
 11
-3.49148133884313E-15
 21
1
 31
0
 73
1
 44
1
  0
ENDBLK
  5
501
100
AcDbEntity
  8
0
100
AcDbBlockEnd
  0
BLOCK
  5
178
100
AcDbEntity
  8
0
100
AcDbBlockBegin
  2
*D19
 70
65
 10
0
 20
0
 30
0
  3
*D19
  1

  0
LINE
  5
17A
100
AcDbEntity
  8
SLD-0
100
AcDbLine
370
-1
  6
BYLAYER
 10
4.14953422126138
 20
7.02637605005071
 30
0
 11
4.14953422126138
 21
7.2232264437515
 31
0
  0
LINE
  5
17B
100
AcDbEntity
  8
SLD-0
100
AcDbLine
370
-1
  6
BYLAYER
 10
4.14953422126138
 20
7.02637605005071
 30
0
 11
3.97245088792805
 21
6.82952565634992
 31
0
  0
LINE
  5
17C
100
AcDbEntity
  8
SLD-0
100
AcDbLine
370
-1
  6
BYLAYER
 10
3.97245088792805
 20
6.82952565634992
 30
0
 11
3.97245088792805
 21
6.65261003341694
 31
0
  0
MTEXT
  5
17D
100
AcDbEntity
  8
SLD-0
100
AcDbMText
370
-1
 10
4.08908501236947
 20
7.22322644375149
 30
-0.0273129921259835
 40
0.125
  1
2X 
 50
0
 41
0
  7
SLDTEXTSTYLE1
 71
1
 11
-3.49148133884313E-15
 21
1
 31
0
 73
1
 44
1
  0
MTEXT
  5
17E
100
AcDbEntity
  8
SLD-0
100
AcDbMText
370
-1
 10
4.08908501236947
 20
7.46333060671438
 30
-0.0273129921259835
 40
0.125
  1
.133
 50
0
 41
0
  7
SLDTEXTSTYLE1
 71
1
 11
-3.49148133884313E-15
 21
1
 31
0
 73
1
 44
1
  0
ENDBLK
  5
502
100
AcDbEntity
  8
0
100
AcDbBlockEnd
  0
BLOCK
  5
181
100
AcDbEntity
  8
0
100
AcDbBlockBegin
  2
*D20
 70
65
 10
0
 20
0
 30
0
  3
*D20
  1

  0
LINE
  5
183
100
AcDbEntity
  8
SLD-0
100
AcDbLine
370
-1
  6
BYLAYER
 10
4.84772395372506
 20
6.65261003341694
 30
0
 11
4.84772395372505
 21
7.2232264437515
 31
0
  0
MTEXT
  5
184
100
AcDbEntity
  8
SLD-0
100
AcDbMText
370
-1
 10
4.78727474483314
 20
7.2232264437515
 30
-0.0273129921259835
 40
0.125
  1
2X 
 50
0
 41
0
  7
SLDTEXTSTYLE1
 71
1
 11
-3.49148133884313E-15
 21
1
 31
0
 73
1
 44
1
  0
MTEXT
  5
185
100
AcDbEntity
  8
SLD-0
100
AcDbMText
370
-1
 10
4.78727474483314
 20
7.46333060671439
 30
-0.0273129921259835
 40
0.125
  1
1.009
 50
0
 41
0
  7
SLDTEXTSTYLE1
 71
1
 11
-3.49148133884313E-15
 21
1
 31
0
 73
1
 44
1
  0
ENDBLK
  5
503
100
AcDbEntity
  8
0
100
AcDbBlockEnd
  0
BLOCK
  5
188
100
AcDbEntity
  8
0
100
AcDbBlockBegin
  2
*D21
 70
65
 10
0
 20
0
 30
0
  3
*D21
  1

  0
LINE
  5
18A
100
AcDbEntity
  8
SLD-0
100
AcDbLine
370
-1
  6
BYLAYER
 10
5.11418317292805
 20
6.65261003341694
 30
0
 11
5.11418317292805
 21
7.2232264437515
 31
0
  0
MTEXT
  5
18B
100
AcDbEntity
  8
SLD-0
100
AcDbMText
370
-1
 10
5.05373396403614
 20
7.2232264437515
 30
-0.0273129921259835
 40
0.125
  1
2X 
 50
0
 41
0
  7
SLDTEXTSTYLE1
 71
1
 11
-3.49148133884313E-15
 21
1
 31
0
 73
1
 44
1
  0
MTEXT
  5
18C
100
AcDbEntity
  8
SLD-0
100
AcDbMText
370
-1
 10
5.05373396403614
 20
7.46333060671439
 30
-0.0273129921259835
 40
0.125
  1
1.275
 50
0
 41
0
  7
SLDTEXTSTYLE1
 71
1
 11
-3.49148133884313E-15
 21
1
 31
0
 73
1
 44
1
  0
ENDBLK
  5
504
100
AcDbEntity
  8
0
100
AcDbBlockEnd
  0
BLOCK
  5
18F
100
AcDbEntity
  8
0
100
AcDbBlockBegin
  2
*D22
 70
65
 10
0
 20
0
 30
0
  3
*D22
  1

  0
LINE
  5
191
100
AcDbEntity
  8
SLD-0
100
AcDbLine
370
-1
  6
BYLAYER
 10
5.54054058520657
 20
7.02637605005071
 30
0
 11
5.54054058520656
 21
7.2232264437515
 31
0
  0
LINE
  5
192
100
AcDbEntity
  8
SLD-0
100
AcDbLine
370
-1
  6
BYLAYER
 10
5.54054058520657
 20
7.02637605005071
 30
0
 11
5.56738434725856
 21
6.82952565634993
 31
0
  0
LINE
  5
193
100
AcDbEntity
  8
SLD-0
100
AcDbLine
370
-1
  6
BYLAYER
 10
5.56738434725856
 20
6.82952565634993
 30
0
 11
5.56738434725856
 21
6.57644696448495
 31
0
  0
MTEXT
  5
194
100
AcDbEntity
  8
SLD-0
100
AcDbMText
370
-1
 10
5.48009137631465
 20
7.2232264437515
 30
-0.0273129921259835
 40
0.125
  1
2X 
 50
0
 41
0
  7
SLDTEXTSTYLE1
 71
1
 11
-3.49148133884313E-15
 21
1
 31
0
 73
1
 44
1
  0
MTEXT
  5
195
100
AcDbEntity
  8
SLD-0
100
AcDbMText
370
-1
 10
5.48009137631465
 20
7.46333060671439
 30
-0.0273129921259835
 40
0.125
  1
1.728
 50
0
 41
0
  7
SLDTEXTSTYLE1
 71
1
 11
-3.49148133884313E-15
 21
1
 31
0
 73
1
 44
1
  0
ENDBLK
  5
505
100
AcDbEntity
  8
0
100
AcDbBlockEnd
  0
BLOCK
  5
198
100
AcDbEntity
  8
0
100
AcDbBlockBegin
  2
*D23
 70
65
 10
0
 20
0
 30
0
  3
*D23
  1

  0
LINE
  5
19A
100
AcDbEntity
  8
SLD-0
100
AcDbLine
370
-1
  6
BYLAYER
 10
5.94138434725856
 20
5.84799027157156
 30
0
 11
5.94138434725855
 21
7.2232264437515
 31
0
  0
MTEXT
  5
19B
100
AcDbEntity
  8
SLD-0
100
AcDbMText
370
-1
 10
5.88093513836664
 20
7.2232264437515
 30
-0.0273129921259835
 40
0.125
  1
3X 
 50
0
 41
0
  7
SLDTEXTSTYLE1
 71
1
 11
-3.49148133884313E-15
 21
1
 31
0
 73
1
 44
1
  0
MTEXT
  5
19C
100
AcDbEntity
  8
SLD-0
100
AcDbMText
370
-1
 10
5.88093513836664
 20
7.46333060671439
 30
-0.0273129921259835
 40
0.125
  1
2.102
 50
0
 41
0
  7
SLDTEXTSTYLE1
 71
1
 11
-3.49148133884313E-15
 21
1
 31
0
 73
1
 44
1
  0
ENDBLK
  5
506
100
AcDbEntity
  8
0
100
AcDbBlockEnd
  0
BLOCK
  5
19F
100
AcDbEntity
  8
0
100
AcDbBlockBegin
  2
*D24
 70
65
 10
0
 20
0
 30
0
  3
*D24
  1

  0
LINE
  5
1A1
100
AcDbEntity
  8
SLD-0
100
AcDbLine
370
-1
  6
BYLAYER
 10
5.71018869219701
 20
7.02637605005071
 30
0
 11
5.71018869219701
 21
7.2232264437515
 31
0
  0
LINE
  5
1A2
100
AcDbEntity
  8
SLD-0
100
AcDbLine
370
-1
  6
BYLAYER
 10
5.71018869219701
 20
7.02637605005071
 30
0
 11
5.87104835406758
 21
6.82952565634993
 31
0
  0
LINE
  5
1A3
100
AcDbEntity
  8
SLD-0
100
AcDbLine
370
-1
  6
BYLAYER
 10
5.87104835406758
 20
6.82952565634993
 30
0
 11
5.87104835406759
 21
5.76467657408644
 31
0
  0
MTEXT
  5
1A4
100
AcDbEntity
  8
SLD-0
100
AcDbMText
370
-1
 10
5.6497394833051
 20
7.2232264437515
 30
-0.0273129921259835
 40
0.125
  1
2X 
 50
0
 41
0
  7
SLDTEXTSTYLE1
 71
1
 11
-3.49148133884313E-15
 21
1
 31
0
 73
1
 44
1
  0
MTEXT
  5
1A5
100
AcDbEntity
  8
SLD-0
100
AcDbMText
370
-1
 10
5.6497394833051
 20
7.46333060671439
 30
-0.0273129921259835
 40
0.125
  1
2.032
 50
0
 41
0
  7
SLDTEXTSTYLE1
 71
1
 11
-3.49148133884313E-15
 21
1
 31
0
 73
1
 44
1
  0
ENDBLK
  5
507
100
AcDbEntity
  8
0
100
AcDbBlockEnd
  0
BLOCK
  5
1A8
100
AcDbEntity
  8
0
100
AcDbBlockBegin
  2
*D25
 70
65
 10
0
 20
0
 30
0
  3
*D25
  1

  0
LINE
  5
1AA
100
AcDbEntity
  8
SLD-0
100
AcDbLine
370
-1
  6
BYLAYER
 10
6.13971454216742
 20
4.99094696448495
 30
0
 11
6.56450075759311
 21
4.99094696448495
 31
0
  0
MTEXT
  5
1AB
100
AcDbEntity
  8
SLD-0
100
AcDbMText
370
-1
 10
6.62700075759311
 20
5.05140103747114
 30
-3.47523413236941E-14
 40
0.125
  1
0
 50
0
 41
0
  7
SLDTEXTSTYLE1
 71
1
 11
1
 21
1.06581410364015E-14
 31
0
 73
1
 44
1
  0
ENDBLK
  5
508
100
AcDbEntity
  8
0
100
AcDbBlockEnd
  0
BLOCK
  5
1AE
100
AcDbEntity
  8
0
100
AcDbBlockBegin
  2
*D26
 70
65
 10
0
 20
0
 30
0
  3
*D26
  1

  0
LINE
  5
1B0
100
AcDbEntity
  8
SLD-0
100
AcDbLine
370
-1
  6
BYLAYER
 10
6.36765036389233
 20
3.78958605041999
 30
0
 11
6.56450075759312
 21
3.78958605041999
 31
0
  0
LINE
  5
1B1
100
AcDbEntity
  8
SLD-0
100
AcDbLine
370
-1
  6
BYLAYER
 10
6.36765036389233
 20
3.78958605041999
 30
0
 11
6.17079997019154
 21
3.65251783062668
 31
0
  0
LINE
  5
1B2
100
AcDbEntity
  8
SLD-0
100
AcDbLine
370
-1
  6
BYLAYER
 10
6.17079997019154
 20
3.65251783062668
 30
0
 11
5.40318978226357
 21
3.65251783062668
 31
0
  0
MTEXT
  5
1B3
100
AcDbEntity
  8
SLD-0
100
AcDbMText
370
-1
 10
6.56450075759312
 20
3.85003525931191
 30
-0.0273129921259842
 40
0.125
  1
1.338
 50
0
 41
0
  7
SLDTEXTSTYLE1
 71
1
 11
1
 21
1.06581410364015E-14
 31
0
 73
1
 44
1
  0
ENDBLK
  5
509
100
AcDbEntity
  8
0
100
AcDbBlockEnd
  0
BLOCK
  5
1B6
100
AcDbEntity
  8
0
100
AcDbBlockBegin
  2
*D27
 70
65
 10
0
 20
0
 30
0
  3
*D27
  1

  0
LINE
  5
1B8
100
AcDbEntity
  8
SLD-0
100
AcDbLine
370
-1
  6
BYLAYER
 10
6.36765036389232
 20
6.33362658804438
 30
0
 11
6.56450075759311
 21
6.33362658804438
 31
0
  0
LINE
  5
1B9
100
AcDbEntity
  8
SLD-0
100
AcDbLine
370
-1
  6
BYLAYER
 10
6.36765036389232
 20
6.33362658804438
 30
0
 11
6.17079997019153
 21
6.32937609834322
 31
0
  0
LINE
  5
1BA
100
AcDbEntity
  8
SLD-0
100
AcDbLine
370
-1
  6
BYLAYER
 10
6.17079997019153
 20
6.32937609834322
 30
0
 11
5.40318978226356
 21
6.32937609834321
 31
0
  0
MTEXT
  5
1BB
100
AcDbEntity
  8
SLD-0
100
AcDbMText
370
-1
 10
6.56450075759311
 20
6.39407579693629
 30
-0.0273129921259842
 40
0.125
  1
1.338
 50
0
 41
0
  7
SLDTEXTSTYLE1
 71
1
 11
1
 21
1.06581410364015E-14
 31
0
 73
1
 44
1
  0
ENDBLK
  5
50A
100
AcDbEntity
  8
0
100
AcDbBlockEnd
  0
BLOCK
  5
1BE
100
AcDbEntity
  8
0
100
AcDbBlockBegin
  2
*D28
 70
65
 10
0
 20
0
 30
0
  3
*D28
  1

  0
LINE
  5
1C0
100
AcDbEntity
  8
SLD-0
100
AcDbLine
370
-1
  6
BYLAYER
 10
5.54122127832657
 20
3.37928389555294
 30
0
 11
6.56450075759312
 21
3.37928389555295
 31
0
  0
MTEXT
  5
1C1
100
AcDbEntity
  8
SLD-0
100
AcDbMText
370
-1
 10
6.56450075759312
 20
3.43973310444486
 30
-0.0273129921259842
 40
0.125
  1
4X 
 50
0
 41
0
  7
SLDTEXTSTYLE1
 71
1
 11
1
 21
1.06581410364015E-14
 31
0
 73
1
 44
1
  0
MTEXT
  5
1C2
100
AcDbEntity
  8
SLD-0
100
AcDbMText
370
-1
 10
6.80460492055601
 20
3.43973310444487
 30
-0.0273129921259842
 40
0.125
  1
1.612
 50
0
 41
0
  7
SLDTEXTSTYLE1
 71
1
 11
1
 21
1.06581410364015E-14
 31
0
 73
1
 44
1
  0
ENDBLK
  5
50B
100
AcDbEntity
  8
0
100
AcDbBlockEnd
  0
BLOCK
  5
1C5
100
AcDbEntity
  8
0
100
AcDbBlockBegin
  2
*D29
 70
65
 10
0
 20
0
 30
0
  3
*D29
  1

  0
LINE
  5
1C7
100
AcDbEntity
  8
SLD-0
100
AcDbLine
370
-1
  6
BYLAYER
 10
6.36765036389233
 20
3.61047955061449
 30
0
 11
6.56450075759312
 21
3.61047955061449
 31
0
  0
LINE
  5
1C8
100
AcDbEntity
  8
SLD-0
100
AcDbLine
370
-1
  6
BYLAYER
 10
6.36765036389233
 20
3.61047955061449
 30
0
 11
6.17079997019154
 21
3.44961988874391
 31
0
  0
LINE
  5
1C9
100
AcDbEntity
  8
SLD-0
100
AcDbLine
370
-1
  6
BYLAYER
 10
6.17079997019154
 20
3.44961988874391
 30
0
 11
5.16418317292806
 21
3.44961988874391
 31
0
  0
MTEXT
  5
1CA
100
AcDbEntity
  8
SLD-0
100
AcDbMText
370
-1
 10
6.56450075759312
 20
3.6709287595064
 30
-0.0273129921259842
 40
0.125
  1
3X 
 50
0
 41
0
  7
SLDTEXTSTYLE1
 71
1
 11
1
 21
1.06581410364015E-14
 31
0
 73
1
 44
1
  0
MTEXT
  5
1CB
100
AcDbEntity
  8
SLD-0
100
AcDbMText
370
-1
 10
6.80460492055601
 20
3.6709287595064
 30
-0.0273129921259842
 40
0.125
  1
1.541
 50
0
 41
0
  7
SLDTEXTSTYLE1
 71
1
 11
1
 21
1.06581410364015E-14
 31
0
 73
1
 44
1
  0
ENDBLK
  5
50C
100
AcDbEntity
  8
0
100
AcDbBlockEnd
  0
BLOCK
  5
1CE
100
AcDbEntity
  8
0
100
AcDbBlockBegin
  2
*D30
 70
65
 10
0
 20
0
 30
0
  3
*D30
  1

  0
LINE
  5
1D0
100
AcDbEntity
  8
SLD-0
100
AcDbLine
370
-1
  6
BYLAYER
 10
5.91522127832656
 20
4.18390365739833
 30
0
 11
6.56450075759312
 21
4.18390365739833
 31
0
  0
MTEXT
  5
1D1
100
AcDbEntity
  8
SLD-0
100
AcDbMText
370
-1
 10
6.56450075759312
 20
4.24435286629025
 30
-0.0273129921259842
 40
0.125
  1
.807
 50
0
 41
0
  7
SLDTEXTSTYLE1
 71
1
 11
1
 21
1.06581410364015E-14
 31
0
 73
1
 44
1
  0
ENDBLK
  5
50D
100
AcDbEntity
  8
0
100
AcDbBlockEnd
  0
BLOCK
  5
1D4
100
AcDbEntity
  8
0
100
AcDbBlockBegin
  2
*D31
 70
65
 10
0
 20
0
 30
0
  3
*D31
  1

  0
LINE
  5
1D6
100
AcDbEntity
  8
SLD-0
100
AcDbLine
370
-1
  6
BYLAYER
 10
6.36765036389232
 20
5.91248591514591
 30
0
 11
6.56450075759311
 21
5.91248591514591
 31
0
  0
LINE
  5
1D7
100
AcDbEntity
  8
SLD-0
100
AcDbLine
370
-1
  6
BYLAYER
 10
6.36765036389232
 20
5.91248591514591
 30
0
 11
6.17079997019154
 21
5.79799027157156
 31
0
  0
LINE
  5
1D8
100
AcDbEntity
  8
SLD-0
100
AcDbLine
370
-1
  6
BYLAYER
 10
6.17079997019154
 20
5.79799027157156
 30
0
 11
5.91522127832656
 21
5.79799027157156
 31
0
  0
MTEXT
  5
1D9
100
AcDbEntity
  8
SLD-0
100
AcDbMText
370
-1
 10
6.56450075759311
 20
5.97293512403782
 30
-0.0273129921259842
 40
0.125
  1
.807
 50
0
 41
0
  7
SLDTEXTSTYLE1
 71
1
 11
1
 21
1.06581410364015E-14
 31
0
 73
1
 44
1
  0
ENDBLK
  5
50E
100
AcDbEntity
  8
0
100
AcDbBlockEnd
  0
BLOCK
  5
1DC
100
AcDbEntity
  8
0
100
AcDbBlockBegin
  2
*D32
 70
65
 10
0
 20
0
 30
0
  3
*D32
  1

  0
LINE
  5
1DE
100
AcDbEntity
  8
SLD-0
100
AcDbLine
370
-1
  6
BYLAYER
 10
6.36765036389233
 20
4.38171299845779
 30
0
 11
6.56450075759312
 21
4.3817129984578
 31
0
  0
LINE
  5
1DF
100
AcDbEntity
  8
SLD-0
100
AcDbLine
370
-1
  6
BYLAYER
 10
6.36765036389233
 20
4.38171299845779
 30
0
 11
6.17079997019154
 21
4.26721735488345
 31
0
  0
LINE
  5
1E0
100
AcDbEntity
  8
SLD-0
100
AcDbLine
370
-1
  6
BYLAYER
 10
6.17079997019154
 20
4.26721735488345
 30
0
 11
5.99138434725856
 21
4.26721735488345
 31
0
  0
MTEXT
  5
1E1
100
AcDbEntity
  8
SLD-0
100
AcDbMText
370
-1
 10
6.56450075759312
 20
4.44216220734971
 30
-0.0273129921259842
 40
0.125
  1
2X 
 50
0
 41
0
  7
SLDTEXTSTYLE1
 71
1
 11
1
 21
1.06581410364015E-14
 31
0
 73
1
 44
1
  0
MTEXT
  5
1E2
100
AcDbEntity
  8
SLD-0
100
AcDbMText
370
-1
 10
6.804604920556
 20
4.44216220734971
 30
-0.0273129921259842
 40
0.125
  1
.724
 50
0
 41
0
  7
SLDTEXTSTYLE1
 71
1
 11
1
 21
1.06581410364015E-14
 31
0
 73
1
 44
1
  0
ENDBLK
  5
50F
100
AcDbEntity
  8
0
100
AcDbBlockEnd
  0
BLOCK
  5
1E5
100
AcDbEntity
  8
0
100
AcDbBlockBegin
  2
*D33
 70
65
 10
0
 20
0
 30
0
  3
*D33
  1

  0
LINE
  5
1E7
100
AcDbEntity
  8
SLD-0
100
AcDbLine
370
-1
  6
BYLAYER
 10
6.36765036389233
 20
4.58644657359008
 30
0
 11
6.56450075759312
 21
4.58644657359008
 31
0
  0
LINE
  5
1E8
100
AcDbEntity
  8
SLD-0
100
AcDbLine
370
-1
  6
BYLAYER
 10
6.36765036389233
 20
4.58644657359008
 30
0
 11
6.17079997019154
 21
4.53367657408644
 31
0
  0
LINE
  5
1E9
100
AcDbEntity
  8
SLD-0
100
AcDbLine
370
-1
  6
BYLAYER
 10
6.17079997019154
 20
4.53367657408644
 30
0
 11
5.99138434725856
 21
4.53367657408644
 31
0
  0
MTEXT
  5
1EA
100
AcDbEntity
  8
SLD-0
100
AcDbMText
370
-1
 10
6.56450075759312
 20
4.646895782482
 30
-0.0273129921259843
 40
0.125
  1
2X 
 50
0
 41
0
  7
SLDTEXTSTYLE1
 71
1
 11
1
 21
1.06581410364015E-14
 31
0
 73
1
 44
1
  0
MTEXT
  5
1EB
100
AcDbEntity
  8
SLD-0
100
AcDbMText
370
-1
 10
6.804604920556
 20
4.646895782482
 30
-0.0273129921259843
 40
0.125
  1
.457
 50
0
 41
0
  7
SLDTEXTSTYLE1
 71
1
 11
1
 21
1.06581410364015E-14
 31
0
 73
1
 44
1
  0
ENDBLK
  5
510
100
AcDbEntity
  8
0
100
AcDbBlockEnd
  0
BLOCK
  5
1EE
100
AcDbEntity
  8
0
100
AcDbBlockBegin
  2
*D34
 70
65
 10
0
 20
0
 30
0
  3
*D34
  1

  0
LINE
  5
1F0
100
AcDbEntity
  8
SLD-0
100
AcDbLine
370
-1
  6
BYLAYER
 10
5.99138434725856
 20
5.44821735488345
 30
0
 11
6.56450075759311
 21
5.44821735488345
 31
0
  0
MTEXT
  5
1F1
100
AcDbEntity
  8
SLD-0
100
AcDbMText
370
-1
 10
6.56450075759311
 20
5.50866656377536
 30
-0.0273129921259842
 40
0.125
  1
2X 
 50
0
 41
0
  7
SLDTEXTSTYLE1
 71
1
 11
1
 21
1.06581410364015E-14
 31
0
 73
1
 44
1
  0
MTEXT
  5
1F2
100
AcDbEntity
  8
SLD-0
100
AcDbMText
370
-1
 10
6.804604920556
 20
5.50866656377537
 30
-0.0273129921259842
 40
0.125
  1
.457
 50
0
 41
0
  7
SLDTEXTSTYLE1
 71
1
 11
1
 21
1.06581410364015E-14
 31
0
 73
1
 44
1
  0
ENDBLK
  5
511
100
AcDbEntity
  8
0
100
AcDbBlockEnd
  0
BLOCK
  5
1F5
100
AcDbEntity
  8
0
100
AcDbBlockBegin
  2
*D35
 70
65
 10
0
 20
0
 30
0
  3
*D35
  1

  0
LINE
  5
1F7
100
AcDbEntity
  8
SLD-0
100
AcDbLine
370
-1
  6
BYLAYER
 10
5.99138434725856
 20
5.71467657408644
 30
0
 11
6.56450075759311
 21
5.71467657408644
 31
0
  0
MTEXT
  5
1F8
100
AcDbEntity
  8
SLD-0
100
AcDbMText
370
-1
 10
6.56450075759311
 20
5.77512578297836
 30
-0.0273129921259842
 40
0.125
  1
2X 
 50
0
 41
0
  7
SLDTEXTSTYLE1
 71
1
 11
1
 21
1.06581410364015E-14
 31
0
 73
1
 44
1
  0
MTEXT
  5
1F9
100
AcDbEntity
  8
SLD-0
100
AcDbMText
370
-1
 10
6.804604920556
 20
5.77512578297836
 30
-0.0273129921259842
 40
0.125
  1
.724
 50
0
 41
0
  7
SLDTEXTSTYLE1
 71
1
 11
1
 21
1.06581410364015E-14
 31
0
 73
1
 44
1
  0
ENDBLK
  5
512
100
AcDbEntity
  8
0
100
AcDbBlockEnd
  0
BLOCK
  5
1FC
100
AcDbEntity
  8
0
100
AcDbBlockBegin
  2
*D36
 70
65
 10
0
 20
0
 30
0
  3
*D36
  1

  0
LINE
  5
1FE
100
AcDbEntity
  8
SLD-0
100
AcDbLine
370
-1
  6
BYLAYER
 10
6.36765036389232
 20
6.75504623993481
 30
0
 11
6.56450075759311
 21
6.75504623993481
 31
0
  0
LINE
  5
1FF
100
AcDbEntity
  8
SLD-0
100
AcDbLine
370
-1
  6
BYLAYER
 10
6.36765036389232
 20
6.75504623993481
 30
0
 11
6.17079997019153
 21
6.60261003341695
 31
0
  0
LINE
  5
200
100
AcDbEntity
  8
SLD-0
100
AcDbLine
370
-1
  6
BYLAYER
 10
6.17079997019153
 20
6.60261003341695
 30
0
 11
5.54122127832656
 21
6.60261003341694
 31
0
  0
MTEXT
  5
201
100
AcDbEntity
  8
SLD-0
100
AcDbMText
370
-1
 10
6.56450075759311
 20
6.81549544882673
 30
-0.0273129921259842
 40
0.125
  1
4X 
 50
0
 41
0
  7
SLDTEXTSTYLE1
 71
1
 11
1
 21
1.06581410364015E-14
 31
0
 73
1
 44
1
  0
MTEXT
  5
202
100
AcDbEntity
  8
SLD-0
100
AcDbMText
370
-1
 10
6.80460492055599
 20
6.81549544882673
 30
-0.0273129921259842
 40
0.125
  1
1.612
 50
0
 41
0
  7
SLDTEXTSTYLE1
 71
1
 11
1
 21
1.06581410364015E-14
 31
0
 73
1
 44
1
  0
ENDBLK
  5
513
100
AcDbEntity
  8
0
100
AcDbBlockEnd
  0
BLOCK
  5
205
100
AcDbEntity
  8
0
100
AcDbBlockBegin
  2
*D37
 70
65
 10
0
 20
0
 30
0
  3
*D37
  1

  0
LINE
  5
207
100
AcDbEntity
  8
SLD-0
100
AcDbLine
370
-1
  6
BYLAYER
 10
6.36765036389232
 20
6.52385058487327
 30
0
 11
6.56450075759311
 21
6.52385058487328
 31
0
  0
LINE
  5
208
100
AcDbEntity
  8
SLD-0
100
AcDbLine
370
-1
  6
BYLAYER
 10
6.36765036389232
 20
6.52385058487327
 30
0
 11
6.17079997019153
 21
6.53227404022598
 31
0
  0
LINE
  5
209
100
AcDbEntity
  8
SLD-0
100
AcDbLine
370
-1
  6
BYLAYER
 10
6.17079997019153
 20
6.53227404022598
 30
0
 11
5.16418317292805
 21
6.53227404022597
 31
0
  0
MTEXT
  5
20A
100
AcDbEntity
  8
SLD-0
100
AcDbMText
370
-1
 10
6.56450075759311
 20
6.58429979376519
 30
-0.0273129921259842
 40
0.125
  1
3X 
 50
0
 41
0
  7
SLDTEXTSTYLE1
 71
1
 11
1
 21
1.06581410364015E-14
 31
0
 73
1
 44
1
  0
MTEXT
  5
20B
100
AcDbEntity
  8
SLD-0
100
AcDbMText
370
-1
 10
6.80460492055599
 20
6.58429979376519
 30
-0.0273129921259842
 40
0.125
  1
1.541
 50
0
 41
0
  7
SLDTEXTSTYLE1
 71
1
 11
1
 21
1.06581410364015E-14
 31
0
 73
1
 44
1
  0
ENDBLK
  5
514
100
AcDbEntity
  8
0
100
AcDbBlockEnd
  0
BLOCK
  5
20F
100
AcDbEntity
  8
0
100
AcDbBlockBegin
  2
*D38
 70
65
 10
0
 20
0
 30
0
  3
*D38
  1

  0
SOLID
  5
211
100
AcDbEntity
  8
SLD-0
100
AcDbTrace
370
-1
  6
BYLAYER
 10
2.26007793283272
 20
6.34693998253897
 30
0
 11
2.1397601295961
 21
6.40007778663656
 31
0
 12
2.12935190192453
 22
6.36145565830659
 32
0
 13
2.12935190192453
 23
6.36145565830659
 33
0
  0
LINE
  5
212
100
AcDbEntity
  8
SLD-0
100
AcDbLine
370
-1
  6
BYLAYER
 10
2.26007793283272
 20
6.34693998253897
 30
0
 11
1.52451472103822
 21
6.54516596609376
 31
0
  0
LINE
  5
213
100
AcDbEntity
  8
SLD-0
100
AcDbLine
370
-1
  6
BYLAYER
 10
1.52451472103822
 20
6.54516596609376
 30
0
 11
1.37451472103822
 21
6.54516596609376
 31
0
  0
MTEXT
  5
214
100
AcDbEntity
  8
SLD-0
100
AcDbMText
370
-1
 10
0.52106860678723
 20
6.60624264440376
 30
-0.0273129921259842
 40
0.125
  1
4X 
 50
0
 41
0
  7
SLDTEXTSTYLE1
 71
1
 11
1
 21
0
 31
0
 73
1
 44
1
  0
MTEXT
  5
215
100
AcDbEntity
  8
SLD-0
100
AcDbMText
370
-1
 10
0.761172769750118
 20
6.60433292209004
 30
-0.0273129921259842
 40
0.125
  1
%%c
 50
0
 41
0
  7
SLDTEXTSTYLE1
 71
1
 11
1
 21
0
 31
0
 73
1
 44
1
  0
MTEXT
  5
216
100
AcDbEntity
  8
SLD-0
100
AcDbMText
370
-1
 10
0.949688408668037
 20
6.60624264440376
 30
-0.0273129921259842
 40
0.125
  1
.135
 50
0
 41
0
  7
SLDTEXTSTYLE1
 71
1
 11
1
 21
0
 31
0
 73
1
 44
1
  0
ENDBLK
  5
515
100
AcDbEntity
  8
0
100
AcDbBlockEnd
  0
BLOCK
  5
21A
100
AcDbEntity
  8
0
100
AcDbBlockBegin
  2
*D39
 70
65
 10
0
 20
0
 30
0
  3
*D39
  1

  0
SOLID
  5
21C
100
AcDbEntity
  8
SLD-0
100
AcDbTrace
370
-1
  6
BYLAYER
 10
2.13331785251426
 20
3.40163958808691
 30
0
 11
2.02718251688622
 21
3.32395245574748
 31
0
 12
2.05544155484388
 22
3.29564297370157
 32
0
 13
2.05544155484388
 23
3.29564297370157
 33
0
  0
LINE
  5
21D
100
AcDbEntity
  8
SLD-0
100
AcDbLine
370
-1
  6
BYLAYER
 10
2.13331785251426
 20
3.40163958808691
 30
0
 11
1.71572968324127
 21
2.98479551064966
 31
0
  0
LINE
  5
21E
100
AcDbEntity
  8
SLD-0
100
AcDbLine
370
-1
  6
BYLAYER
 10
1.71572968324127
 20
2.98479551064966
 30
0
 11
1.56572968324127
 21
2.98479551064966
 31
0
  0
MTEXT
  5
21F
100
AcDbEntity
  8
SLD-0
100
AcDbMText
370
-1
 10
0.799583913822578
 20
3.04524471954158
 30
-0.0273129921259842
 40
0.125
  1
8X 
 50
0
 41
0
  7
SLDTEXTSTYLE1
 71
1
 11
1
 21
0
 31
0
 73
1
 44
1
  0
MTEXT
  5
220
100
AcDbEntity
  8
SLD-0
100
AcDbMText
370
-1
 10
1.03968807678547
 20
3.04524471954158
 30
-0.0273129921259842
 40
0.125
  1
R.076
 50
0
 41
0
  7
SLDTEXTSTYLE1
 71
1
 11
1
 21
0
 31
0
 73
1
 44
1
  0
ENDBLK
  5
516
100
AcDbEntity
  8
0
100
AcDbBlockEnd
  0
BLOCK
  5
224
100
AcDbEntity
  8
0
100
AcDbBlockBegin
  2
*D40
 70
65
 10
0
 20
0
 30
0
  3
*D40
  1

  0
SOLID
  5
226
100
AcDbEntity
  8
SLD-0
100
AcDbTrace
370
-1
  6
BYLAYER
 10
2.02113828488986
 20
4.02315786225665
 30
0
 11
2.12621019399858
 21
4.10227735363677
 31
0
 12
2.09756979616832
 22
4.13020095677326
 32
0
 13
2.09756979616832
 23
4.13020095677326
 33
0
  0
LINE
  5
227
100
AcDbEntity
  8
SLD-0
100
AcDbLine
370
-1
  6
BYLAYER
 10
2.02113828488986
 20
4.02315786225665
 30
0
 11
1.40930305900367
 21
3.3956169181206
 31
0
  0
LINE
  5
228
100
AcDbEntity
  8
SLD-0
100
AcDbLine
370
-1
  6
BYLAYER
 10
2.02113828488986
 20
4.02315786225665
 30
0
 11
2.19566080449291
 21
4.20216034869582
 31
0
  0
LINE
  5
229
100
AcDbEntity
  8
SLD-0
100
AcDbLine
370
-1
  6
BYLAYER
 10
1.40930305900367
 20
3.3956169181206
 30
0
 11
1.25930305900367
 21
3.3956169181206
 31
0
  0
MTEXT
  5
22A
100
AcDbEntity
  8
SLD-0
100
AcDbMText
370
-1
 10
0.493157289584981
 20
3.45606612701252
 30
-0.0273129921259842
 40
0.125
  1
4X 
 50
0
 41
0
  7
SLDTEXTSTYLE1
 71
1
 11
1
 21
0
 31
0
 73
1
 44
1
  0
MTEXT
  5
22B
100
AcDbEntity
  8
SLD-0
100
AcDbMText
370
-1
 10
0.733261452547868
 20
3.45606612701252
 30
-0.0273129921259842
 40
0.125
  1
R.298
 50
0
 41
0
  7
SLDTEXTSTYLE1
 71
1
 11
1
 21
0
 31
0
 73
1
 44
1
  0
ENDBLK
  5
517
100
AcDbEntity
  8
0
100
AcDbBlockEnd
  0
BLOCK
  5
22D
100
AcDbEntity
  8
0
100
AcDbBlockBegin
  2
SW_CENTERMARKSYMBOL_0
 70
64
 10
0
 20
0
 30
0
  3
SW_CENTERMARKSYMBOL_0
  1

  0
LINE
  5
22F
100
AcDbEntity
  8
SLD-0
100
AcDbLine
370
-1
 62
0
  6
BYLAYER
 10
0
 20
0
 30
0
 11
-0.035
 21
-5.46369598732853E-16
 31
0
  0
LINE
  5
230
100
AcDbEntity
  8
SLD-0
100
AcDbLine
370
-1
 62
0
  6
BYLAYER
 10
0
 20
0
 30
0
 11
2.73184799366426E-16
 21
-0.035
 31
0
  0
LINE
  5
231
100
AcDbEntity
  8
SLD-0
100
AcDbLine
370
-1
 62
0
  6
BYLAYER
 10
0
 20
0
 30
0
 11
0.035
 21
0
 31
0
  0
LINE
  5
232
100
AcDbEntity
  8
SLD-0
100
AcDbLine
370
-1
 62
0
  6
BYLAYER
 10
0
 20
0
 30
0
 11
0
 21
0.035
 31
0
  0
LINE
  5
233
100
AcDbEntity
  8
SLD-0
100
AcDbLine
370
-1
 62
0
  6
BYLAYER
 10
-9.2882831784585E-15
 20
2.67685826771654
 30
0
 11
-0.0350000000000093
 21
2.67685826771654
 31
0
  0
LINE
  5
234
100
AcDbEntity
  8
SLD-0
100
AcDbLine
370
-1
 62
0
  6
BYLAYER
 10
-9.2882831784585E-15
 20
2.67685826771654
 30
0
 11
-9.2882831784585E-15
 21
2.64185826771654
 31
0
  0
LINE
  5
235
100
AcDbEntity
  8
SLD-0
100
AcDbLine
370
-1
 62
0
  6
BYLAYER
 10
-9.2882831784585E-15
 20
2.67685826771654
 30
0
 11
0.0349999999999907
 21
2.67685826771654
 31
0
  0
LINE
  5
236
100
AcDbEntity
  8
SLD-0
100
AcDbLine
370
-1
 62
0
  6
BYLAYER
 10
-9.2882831784585E-15
 20
2.67685826771654
 30
0
 11
-9.56146797782492E-15
 21
2.71185826771654
 31
0
  0
LINE
  5
237
100
AcDbEntity
  8
SLD-0
100
AcDbLine
370
-1
 62
0
  6
BYLAYER
 10
3.02793700787401
 20
2.67685826771655
 30
0
 11
2.99293700787401
 21
2.67685826771655
 31
0
  0
LINE
  5
238
100
AcDbEntity
  8
SLD-0
100
AcDbLine
370
-1
 62
0
  6
BYLAYER
 10
3.02793700787401
 20
2.67685826771655
 30
0
 11
3.02793700787401
 21
2.64185826771655
 31
0
  0
LINE
  5
239
100
AcDbEntity
  8
SLD-0
100
AcDbLine
370
-1
 62
0
  6
BYLAYER
 10
3.02793700787401
 20
2.67685826771655
 30
0
 11
3.06293700787401
 21
2.67685826771655
 31
0
  0
LINE
  5
23A
100
AcDbEntity
  8
SLD-0
100
AcDbLine
370
-1
 62
0
  6
BYLAYER
 10
3.02793700787401
 20
2.67685826771655
 30
0
 11
3.02793700787401
 21
2.71185826771655
 31
0
  0
LINE
  5
23B
100
AcDbEntity
  8
SLD-0
100
AcDbLine
370
-1
 62
0
  6
BYLAYER
 10
3.02793700787402
 20
1.03810223759242E-14
 30
0
 11
2.99293700787402
 21
1.03810223759242E-14
 31
0
  0
LINE
  5
23C
100
AcDbEntity
  8
SLD-0
100
AcDbLine
370
-1
 62
0
  6
BYLAYER
 10
3.02793700787402
 20
1.03810223759242E-14
 30
0
 11
3.02793700787402
 21
-0.0349999999999897
 31
0
  0
LINE
  5
23D
100
AcDbEntity
  8
SLD-0
100
AcDbLine
370
-1
 62
0
  6
BYLAYER
 10
3.02793700787402
 20
1.03810223759242E-14
 30
0
 11
3.06293700787402
 21
1.03810223759242E-14
 31
0
  0
LINE
  5
23E
100
AcDbEntity
  8
SLD-0
100
AcDbLine
370
-1
 62
0
  6
BYLAYER
 10
3.02793700787402
 20
1.03810223759242E-14
 30
0
 11
3.02793700787402
 21
0.0350000000000104
 31
0
  0
LINE
  5
23F
100
AcDbEntity
  8
SLD-0
100
AcDbLine
370
-1
 62
0
  6
BYLAYER
 10
3.53996850393701
 20
0.157385826771673
 30
0
 11
3.50496850393701
 21
0.157385826771673
 31
0
  0
LINE
  5
240
100
AcDbEntity
  8
SLD-0
100
AcDbLine
370
-1
 62
0
  6
BYLAYER
 10
3.53996850393701
 20
0.157385826771673
 30
0
 11
3.53996850393701
 21
0.122385826771673
 31
0
  0
LINE
  5
241
100
AcDbEntity
  8
SLD-0
100
AcDbLine
370
-1
 62
0
  6
BYLAYER
 10
3.53996850393701
 20
0.157385826771673
 30
0
 11
3.57496850393701
 21
0.157385826771674
 31
0
  0
LINE
  5
242
100
AcDbEntity
  8
SLD-0
100
AcDbLine
370
-1
 62
0
  6
BYLAYER
 10
3.53996850393701
 20
0.157385826771673
 30
0
 11
3.53996850393701
 21
0.192385826771673
 31
0
  0
LINE
  5
243
100
AcDbEntity
  8
SLD-0
100
AcDbLine
370
-1
 62
0
  6
BYLAYER
 10
3.539968503937
 20
2.51947244094489
 30
0
 11
3.504968503937
 21
2.51947244094489
 31
0
  0
LINE
  5
244
100
AcDbEntity
  8
SLD-0
100
AcDbLine
370
-1
 62
0
  6
BYLAYER
 10
3.539968503937
 20
2.51947244094489
 30
0
 11
3.539968503937
 21
2.48447244094489
 31
0
  0
LINE
  5
245
100
AcDbEntity
  8
SLD-0
100
AcDbLine
370
-1
 62
0
  6
BYLAYER
 10
3.539968503937
 20
2.51947244094489
 30
0
 11
3.574968503937
 21
2.51947244094489
 31
0
  0
LINE
  5
246
100
AcDbEntity
  8
SLD-0
100
AcDbLine
370
-1
 62
0
  6
BYLAYER
 10
3.539968503937
 20
2.51947244094489
 30
0
 11
3.539968503937
 21
2.55447244094489
 31
0
  0
LINE
  5
247
100
AcDbEntity
  8
SLD-0
100
AcDbLine
370
-1
 62
0
  6
BYLAYER
 10
-0.512031496063001
 20
2.51947244094487
 30
0
 11
-0.547031496063001
 21
2.51947244094487
 31
0
  0
LINE
  5
248
100
AcDbEntity
  8
SLD-0
100
AcDbLine
370
-1
 62
0
  6
BYLAYER
 10
-0.512031496063001
 20
2.51947244094487
 30
0
 11
-0.512031496063001
 21
2.48447244094487
 31
0
  0
LINE
  5
249
100
AcDbEntity
  8
SLD-0
100
AcDbLine
370
-1
 62
0
  6
BYLAYER
 10
-0.512031496063001
 20
2.51947244094487
 30
0
 11
-0.477031496063001
 21
2.51947244094487
 31
0
  0
LINE
  5
24A
100
AcDbEntity
  8
SLD-0
100
AcDbLine
370
-1
 62
0
  6
BYLAYER
 10
-0.512031496063001
 20
2.51947244094487
 30
0
 11
-0.512031496063001
 21
2.55447244094487
 31
0
  0
LINE
  5
24B
100
AcDbEntity
  8
SLD-0
100
AcDbLine
370
-1
 62
0
  6
BYLAYER
 10
-0.512031496062993
 20
0.157385826771659
 30
0
 11
-0.547031496062993
 21
0.157385826771659
 31
0
  0
LINE
  5
24C
100
AcDbEntity
  8
SLD-0
100
AcDbLine
370
-1
 62
0
  6
BYLAYER
 10
-0.512031496062993
 20
0.157385826771659
 30
0
 11
-0.512031496062992
 21
0.122385826771659
 31
0
  0
LINE
  5
24D
100
AcDbEntity
  8
SLD-0
100
AcDbLine
370
-1
 62
0
  6
BYLAYER
 10
-0.512031496062993
 20
0.157385826771659
 30
0
 11
-0.477031496062993
 21
0.15738582677166
 31
0
  0
LINE
  5
24E
100
AcDbEntity
  8
SLD-0
100
AcDbLine
370
-1
 62
0
  6
BYLAYER
 10
-0.512031496062993
 20
0.157385826771659
 30
0
 11
-0.512031496062993
 21
0.192385826771659
 31
0
  0
LINE
  5
24F
100
AcDbEntity
  8
SLD-0
100
AcDbLine
370
-1
 62
0
  6
BYLAYER
 10
-0.512031496062999
 20
2.14547244094488
 30
0
 11
-0.547031496063
 21
2.14547244094488
 31
0
  0
LINE
  5
250
100
AcDbEntity
  8
SLD-0
100
AcDbLine
370
-1
 62
0
  6
BYLAYER
 10
-0.512031496062999
 20
2.14547244094488
 30
0
 11
-0.512031496062999
 21
2.11047244094488
 31
0
  0
LINE
  5
251
100
AcDbEntity
  8
SLD-0
100
AcDbLine
370
-1
 62
0
  6
BYLAYER
 10
-0.512031496062999
 20
2.14547244094488
 30
0
 11
-0.477031496062999
 21
2.14547244094488
 31
0
  0
LINE
  5
252
100
AcDbEntity
  8
SLD-0
100
AcDbLine
370
-1
 62
0
  6
BYLAYER
 10
-0.512031496062999
 20
2.14547244094488
 30
0
 11
-0.512031496063
 21
2.18047244094488
 31
0
  0
LINE
  5
253
100
AcDbEntity
  8
SLD-0
100
AcDbLine
370
-1
 62
0
  6
BYLAYER
 10
-0.512031496062994
 20
0.531385826771652
 30
0
 11
-0.547031496062994
 21
0.531385826771652
 31
0
  0
LINE
  5
254
100
AcDbEntity
  8
SLD-0
100
AcDbLine
370
-1
 62
0
  6
BYLAYER
 10
-0.512031496062994
 20
0.531385826771652
 30
0
 11
-0.512031496062994
 21
0.496385826771652
 31
0
  0
LINE
  5
255
100
AcDbEntity
  8
SLD-0
100
AcDbLine
370
-1
 62
0
  6
BYLAYER
 10
-0.512031496062994
 20
0.531385826771652
 30
0
 11
-0.477031496062994
 21
0.531385826771652
 31
0
  0
LINE
  5
256
100
AcDbEntity
  8
SLD-0
100
AcDbLine
370
-1
 62
0
  6
BYLAYER
 10
-0.512031496062994
 20
0.531385826771652
 30
0
 11
-0.512031496062994
 21
0.566385826771652
 31
0
  0
LINE
  5
257
100
AcDbEntity
  8
SLD-0
100
AcDbLine
370
-1
 62
0
  6
BYLAYER
 10
-0.138031496062999
 20
-0.197070866141733
 30
0
 11
-0.173031496062999
 21
-0.197070866141733
 31
0
  0
LINE
  5
258
100
AcDbEntity
  8
SLD-0
100
AcDbLine
370
-1
 62
0
  6
BYLAYER
 10
-0.138031496062999
 20
-0.197070866141733
 30
0
 11
-0.138031496062999
 21
-0.232070866141733
 31
0
  0
LINE
  5
259
100
AcDbEntity
  8
SLD-0
100
AcDbLine
370
-1
 62
0
  6
BYLAYER
 10
-0.138031496062999
 20
-0.197070866141733
 30
0
 11
-0.103031496062999
 21
-0.197070866141733
 31
0
  0
LINE
  5
25A
100
AcDbEntity
  8
SLD-0
100
AcDbLine
370
-1
 62
0
  6
BYLAYER
 10
-0.138031496062999
 20
-0.197070866141733
 30
0
 11
-0.138031496063
 21
-0.162070866141733
 31
0
  0
LINE
  5
25B
100
AcDbEntity
  8
SLD-0
100
AcDbLine
370
-1
 62
0
  6
BYLAYER
 10
3.16596850393702
 20
-0.197070866141721
 30
0
 11
3.13096850393702
 21
-0.197070866141721
 31
0
  0
LINE
  5
25C
100
AcDbEntity
  8
SLD-0
100
AcDbLine
370
-1
 62
0
  6
BYLAYER
 10
3.16596850393702
 20
-0.197070866141721
 30
0
 11
3.16596850393702
 21
-0.232070866141721
 31
0
  0
LINE
  5
25D
100
AcDbEntity
  8
SLD-0
100
AcDbLine
370
-1
 62
0
  6
BYLAYER
 10
3.16596850393702
 20
-0.197070866141721
 30
0
 11
3.20096850393702
 21
-0.197070866141721
 31
0
  0
LINE
  5
25E
100
AcDbEntity
  8
SLD-0
100
AcDbLine
370
-1
 62
0
  6
BYLAYER
 10
3.16596850393702
 20
-0.197070866141721
 30
0
 11
3.16596850393702
 21
-0.162070866141721
 31
0
  0
LINE
  5
25F
100
AcDbEntity
  8
SLD-0
100
AcDbLine
370
-1
 62
0
  6
BYLAYER
 10
3.53996850393701
 20
0.531385826771666
 30
0
 11
3.50496850393701
 21
0.531385826771666
 31
0
  0
LINE
  5
260
100
AcDbEntity
  8
SLD-0
100
AcDbLine
370
-1
 62
0
  6
BYLAYER
 10
3.53996850393701
 20
0.531385826771666
 30
0
 11
3.53996850393701
 21
0.496385826771666
 31
0
  0
LINE
  5
261
100
AcDbEntity
  8
SLD-0
100
AcDbLine
370
-1
 62
0
  6
BYLAYER
 10
3.53996850393701
 20
0.531385826771666
 30
0
 11
3.57496850393701
 21
0.531385826771666
 31
0
  0
LINE
  5
262
100
AcDbEntity
  8
SLD-0
100
AcDbLine
370
-1
 62
0
  6
BYLAYER
 10
3.53996850393701
 20
0.531385826771666
 30
0
 11
3.53996850393701
 21
0.566385826771666
 31
0
  0
LINE
  5
263
100
AcDbEntity
  8
SLD-0
100
AcDbLine
370
-1
 62
0
  6
BYLAYER
 10
3.539968503937
 20
2.14547244094489
 30
0
 11
3.504968503937
 21
2.14547244094489
 31
0
  0
LINE
  5
264
100
AcDbEntity
  8
SLD-0
100
AcDbLine
370
-1
 62
0
  6
BYLAYER
 10
3.539968503937
 20
2.14547244094489
 30
0
 11
3.539968503937
 21
2.11047244094489
 31
0
  0
LINE
  5
265
100
AcDbEntity
  8
SLD-0
100
AcDbLine
370
-1
 62
0
  6
BYLAYER
 10
3.539968503937
 20
2.14547244094489
 30
0
 11
3.574968503937
 21
2.1454724409449
 31
0
  0
LINE
  5
266
100
AcDbEntity
  8
SLD-0
100
AcDbLine
370
-1
 62
0
  6
BYLAYER
 10
3.539968503937
 20
2.14547244094489
 30
0
 11
3.539968503937
 21
2.1804724409449
 31
0
  0
LINE
  5
267
100
AcDbEntity
  8
SLD-0
100
AcDbLine
370
-1
 62
0
  6
BYLAYER
 10
3.16596850393701
 20
2.87392913385828
 30
0
 11
3.13096850393701
 21
2.87392913385828
 31
0
  0
LINE
  5
268
100
AcDbEntity
  8
SLD-0
100
AcDbLine
370
-1
 62
0
  6
BYLAYER
 10
3.16596850393701
 20
2.87392913385828
 30
0
 11
3.16596850393701
 21
2.83892913385828
 31
0
  0
LINE
  5
269
100
AcDbEntity
  8
SLD-0
100
AcDbLine
370
-1
 62
0
  6
BYLAYER
 10
3.16596850393701
 20
2.87392913385828
 30
0
 11
3.20096850393701
 21
2.87392913385828
 31
0
  0
LINE
  5
26A
100
AcDbEntity
  8
SLD-0
100
AcDbLine
370
-1
 62
0
  6
BYLAYER
 10
3.16596850393701
 20
2.87392913385828
 30
0
 11
3.16596850393701
 21
2.90892913385828
 31
0
  0
LINE
  5
26B
100
AcDbEntity
  8
SLD-0
100
AcDbLine
370
-1
 62
0
  6
BYLAYER
 10
-0.13803149606301
 20
2.87392913385827
 30
0
 11
-0.17303149606301
 21
2.87392913385827
 31
0
  0
LINE
  5
26C
100
AcDbEntity
  8
SLD-0
100
AcDbLine
370
-1
 62
0
  6
BYLAYER
 10
-0.13803149606301
 20
2.87392913385827
 30
0
 11
-0.13803149606301
 21
2.83892913385827
 31
0
  0
LINE
  5
26D
100
AcDbEntity
  8
SLD-0
100
AcDbLine
370
-1
 62
0
  6
BYLAYER
 10
-0.13803149606301
 20
2.87392913385827
 30
0
 11
-0.10303149606301
 21
2.87392913385827
 31
0
  0
LINE
  5
26E
100
AcDbEntity
  8
SLD-0
100
AcDbLine
370
-1
 62
0
  6
BYLAYER
 10
-0.13803149606301
 20
2.87392913385827
 30
0
 11
-0.13803149606301
 21
2.90892913385827
 31
0
  0
LINE
  5
26F
100
AcDbEntity
  8
SLD-0
100
AcDbLine
370
-1
 62
0
  6
BYLAYER
 10
-2.73184799366426E-16
 20
0.0700000000000001
 30
0
 11
-9.01509837909207E-15
 21
2.60685826771654
 31
0
  0
LINE
  5
270
100
AcDbEntity
  8
SLD-0
100
AcDbLine
370
-1
 62
0
  6
BYLAYER
 10
2.95793700787401
 20
2.67685826771655
 30
0
 11
0.0699999999999908
 21
2.67685826771654
 31
0
  0
LINE
  5
271
100
AcDbEntity
  8
SLD-0
100
AcDbLine
370
-1
 62
0
  6
BYLAYER
 10
3.02793700787402
 20
0.0700000000000105
 30
0
 11
3.02793700787401
 21
2.60685826771655
 31
0
  0
LINE
  5
272
100
AcDbEntity
  8
SLD-0
100
AcDbLine
370
-1
 62
0
  6
BYLAYER
 10
2.95793700787402
 20
1.03810223759242E-14
 30
0
 11
0.0700000000000001
 21
5.46369598732853E-16
 31
0
  0
LINE
  5
273
100
AcDbEntity
  8
SLD-0
100
AcDbLine
370
-1
 62
0
  6
BYLAYER
 10
3.469968503937
 20
2.51947244094489
 30
0
 11
-0.442031496063001
 21
2.51947244094487
 31
0
  0
LINE
  5
274
100
AcDbEntity
  8
SLD-0
100
AcDbLine
370
-1
 62
0
  6
BYLAYER
 10
3.46996850393701
 20
0.157385826771673
 30
0
 11
-0.442031496062993
 21
0.15738582677166
 31
0
  0
LINE
  5
275
100
AcDbEntity
  8
SLD-0
100
AcDbLine
370
-1
 62
0
  6
BYLAYER
 10
-0.512031496063
 20
2.21547244094488
 30
0
 11
-0.512031496063001
 21
2.44947244094487
 31
0
  0
LINE
  5
276
100
AcDbEntity
  8
SLD-0
100
AcDbLine
370
-1
 62
0
  6
BYLAYER
 10
-0.512031496062993
 20
0.227385826771659
 30
0
 11
-0.512031496062994
 21
0.461385826771652
 31
0
  0
LINE
  5
277
100
AcDbEntity
  8
SLD-0
100
AcDbLine
370
-1
 62
0
  6
BYLAYER
 10
3.53996850393701
 20
0.227385826771673
 30
0
 11
3.53996850393701
 21
0.461385826771666
 31
0
  0
LINE
  5
278
100
AcDbEntity
  8
SLD-0
100
AcDbLine
370
-1
 62
0
  6
BYLAYER
 10
3.46996850393701
 20
0.531385826771666
 30
0
 11
-0.442031496062994
 21
0.531385826771652
 31
0
  0
LINE
  5
279
100
AcDbEntity
  8
SLD-0
100
AcDbLine
370
-1
 62
0
  6
BYLAYER
 10
3.539968503937
 20
2.21547244094489
 30
0
 11
3.539968503937
 21
2.44947244094489
 31
0
  0
LINE
  5
27A
100
AcDbEntity
  8
SLD-0
100
AcDbLine
370
-1
 62
0
  6
BYLAYER
 10
3.469968503937
 20
2.14547244094489
 30
0
 11
-0.442031496062999
 21
2.14547244094488
 31
0
  0
LINE
  5
27B
100
AcDbEntity
  8
SLD-0
100
AcDbLine
370
-1
 62
0
  6
BYLAYER
 10
3.16596850393702
 20
-0.127070866141721
 30
0
 11
3.16596850393701
 21
2.80392913385828
 31
0
  0
LINE
  5
27C
100
AcDbEntity
  8
SLD-0
100
AcDbLine
370
-1
 62
0
  6
BYLAYER
 10
-0.138031496063
 20
-0.127070866141733
 30
0
 11
-0.13803149606301
 21
2.80392913385827
 31
0
  0
ENDBLK
  5
518
100
AcDbEntity
  8
0
100
AcDbBlockEnd
  0
BLOCK
  5
2AB
100
AcDbEntity
  8
0
100
AcDbBlockBegin
  2
*D42
 70
65
 10
0
 20
0
 30
0
  3
*D42
  1

  0
SOLID
  5
2AD
100
AcDbEntity
  8
SLD-0
100
AcDbTrace
370
-1
  6
BYLAYER
 10
8.56314793017015
 20
6.99631082081854
 30
0
 11
8.69314793017015
 21
6.97631082081854
 31
0
 12
8.69314793017015
 22
7.01631082081854
 32
0
 13
8.69314793017015
 23
7.01631082081854
 33
0
  0
SOLID
  5
2AE
100
AcDbEntity
  8
SLD-0
100
AcDbTrace
370
-1
  6
BYLAYER
 10
8.50064793017015
 20
6.99631082081854
 30
0
 11
8.37064793017015
 21
7.01631082081854
 31
0
 12
8.37064793017015
 22
6.97631082081854
 32
0
 13
8.37064793017015
 23
6.97631082081854
 33
0
  0
LINE
  5
2AF
100
AcDbEntity
  8
SLD-0
100
AcDbLine
370
-1
  6
BYLAYER
 10
8.56314793017015
 20
6.65261003341694
 30
0
 11
8.56314793017015
 21
7.12131082081854
 31
0
  0
LINE
  5
2B0
100
AcDbEntity
  8
SLD-0
100
AcDbLine
370
-1
  6
BYLAYER
 10
8.50064793017015
 20
6.65261003341694
 30
0
 11
8.50064793017015
 21
7.12131082081854
 31
0
  0
LINE
  5
2B1
100
AcDbEntity
  8
SLD-0
100
AcDbLine
370
-1
  6
BYLAYER
 10
8.56314793017015
 20
6.99631082081854
 30
0
 11
8.88161062214183
 21
6.99631082081854
 31
0
  0
LINE
  5
2B2
100
AcDbEntity
  8
SLD-0
100
AcDbLine
370
-1
  6
BYLAYER
 10
8.50064793017015
 20
6.99631082081854
 30
0
 11
8.25064793017015
 21
6.99631082081854
 31
0
  0
MTEXT
  5
2B3
100
AcDbEntity
  8
SLD-0
100
AcDbMText
370
-1
 10
8.94411062214183
 20
7.05676489380472
 30
-4.87557222876525E-14
 40
0.125
  1
.063
 50
0
 41
0
  7
SLDTEXTSTYLE1
 71
1
 11
1
 21
0
 31
0
 73
1
 44
1
  0
ENDBLK
  5
519
100
AcDbEntity
  8
0
100
AcDbBlockEnd
  0
BLOCK
  5
2D9
100
AcDbEntity
  8
0
100
AcDbBlockBegin
  2
_CLOSEDFILLED
 70
0
 10
0
 20
0
 30
0
  3
_CLOSEDFILLED
  1

  0
SOLID
  5
2D7
100
AcDbEntity
  8
0
100
AcDbTrace
370
-2
 62
0
 10
-1
 20
0.166666666666667
 30
0
 11
0
 21
0
 31
0
 12
-1
 22
0.166666666666667
 32
0
 13
-1
 23
-0.166666666666667
 33
0
  0
LINE
  5
2D8
100
AcDbEntity
  8
0
100
AcDbLine
370
-2
 62
0
 10
-1
 20
0
 30
0
 11
-2
 21
0
 31
0
  0
ENDBLK
  5
51A
100
AcDbEntity
  8
0
100
AcDbBlockEnd
  0
BLOCK
  5
4D0
100
AcDbEntity
  8
0
100
AcDbBlockBegin
  2
ABViewer_RedLine
 70
0
 10
0
 20
0
 30
0
  3
ABViewer_RedLine
  1

  0
ENDBLK
  5
51B
100
AcDbEntity
  8
0
100
AcDbBlockEnd
  0
BLOCK
  5
4E0
100
AcDbEntity
  8
0
100
AcDbBlockBegin
  2
ABViewer
 70
0
 10
0
 20
0
 30
0
  3
ABViewer
  1

  0
MTEXT
  5
4DB
100
AcDbEntity
  8
0
100
AcDbMText
370
-1
 62
1
 10
0
 20
0
 30
0
 40
0.05
  1
ABViewer 14 trial version - www.cadsofttools.com
 50
0
 41
0
  7
STANDARD
 71
1
 73
1
 44
1
  0
ENDBLK
  5
51C
100
AcDbEntity
  8
0
100
AcDbBlockEnd
  0
ENDSEC
  0
SECTION
  2
ENTITIES
  0
LINE
  5
69
100
AcDbEntity
  8
SLD-0
100
AcDbLine
370
15
 62
7
  6
BYLAYER
 10
0.329926999999998
 20
8.19207317073166
 30
0
 11
10.629927
 21
8.1920731707317
 31
0
  0
LINE
  5
6A
100
AcDbEntity
  8
SLD-0
100
AcDbLine
370
15
 62
7
  6
BYLAYER
 10
0.329926999999998
 20
8.19207317073166
 30
0
 11
0.329926999999998
 21
0.392073170731703
 31
0
  0
LINE
  5
6B
100
AcDbEntity
  8
SLD-0
100
AcDbLine
370
15
 62
7
  6
BYLAYER
 10
10.629927
 20
0.392073170731704
 30
0
 11
0.329926999999998
 21
0.392073170731703
 31
0
  0
LINE
  5
6C
100
AcDbEntity
  8
SLD-0
100
AcDbLine
370
15
 62
7
  6
BYLAYER
 10
10.629927
 20
0.392073170731704
 30
0
 11
10.629927
 21
8.1920731707317
 31
0
  0
LINE
  5
6D
100
AcDbEntity
  8
SLD-0
100
AcDbLine
370
-1
 62
7
  6
BYLAYER
 10
4.80526230583748
 20
0.392073170731704
 30
0
 11
4.80526230583748
 21
1.67529337828581
 31
0
  0
LINE
  5
6E
100
AcDbEntity
  8
SLD-0
100
AcDbLine
370
-1
 62
7
  6
BYLAYER
 10
4.80526230583748
 20
1.67529337828581
 30
0
 11
10.629927
 21
1.67529337828581
 31
0
  0
LINE
  5
6F
100
AcDbEntity
  8
SLD-0
100
AcDbLine
370
-1
 62
7
  6
BYLAYER
 10
6.3313026153438
 20
1.67529337828581
 30
0
 11
6.33130261534378
 21
0.392073170731704
 31
0
  0
LINE
  5
70
100
AcDbEntity
  8
SLD-0
100
AcDbLine
 62
7
  6
BYLAYER
 10
8.26675175196257
 20
1.04006749788811
 30
0
 11
8.26675175196257
 21
1.67529337828581
 31
0
  0
LINE
  5
71
100
AcDbEntity
  8
SLD-0
100
AcDbLine
370
-1
 62
7
  6
BYLAYER
 10
7.87120700440778
 20
0.604959010098304
 30
0
 11
10.629927
 21
0.604959010098304
 31
0
  0
LINE
  5
72
100
AcDbEntity
  8
SLD-0
100
AcDbLine
370
-1
 62
7
  6
BYLAYER
 10
7.87120700440778
 20
1.04006749788811
 30
0
 11
10.6299269999999
 21
1.04006749788811
 31
0
  0
LINE
  5
73
100
AcDbEntity
  8
SLD-0
100
AcDbLine
370
-1
 62
7
  6
BYLAYER
 10
6.33130261534378
 20
0.392073170731704
 30
0
 11
7.87120700440791
 21
0.392073170731704
 31
0
  0
LINE
  5
74
100
AcDbEntity
  8
SLD-0
100
AcDbLine
370
-1
 62
7
  6
BYLAYER
 10
8.26675175196257
 20
1.04006749788811
 30
0
 11
8.26675175196257
 21
0.604959010098304
 31
0
  0
LINE
  5
75
100
AcDbEntity
  8
SLD-0
100
AcDbLine
370
-1
 62
7
  6
BYLAYER
 10
8.69434351758779
 20
0.604959010098305
 30
0
 11
8.69434351758779
 21
0.392073170731704
 31
0
  0
LINE
  5
76
100
AcDbEntity
  8
SLD-0
100
AcDbLine
370
-1
 62
7
  6
BYLAYER
 10
9.95174621456071
 20
1.04006749788811
 30
0
 11
9.95174621456071
 21
0.604959010098304
 31
0
  0
LINE
  5
77
100
AcDbEntity
  8
SLD-0
100
AcDbLine
370
-1
 62
7
  6
BYLAYER
 10
9.6662556630986
 20
0.604959010098304
 30
0
 11
9.6662556630986
 21
0.392073170731704
 31
0
  0
LINE
  5
78
100
AcDbEntity
  8
SLD-0
100
AcDbLine
370
-1
 62
7
  6
BYLAYER
 10
6.33130261534379
 20
1.07811906954047
 30
0
 11
4.80526230583748
 21
1.07811906954047
 31
0
  0
LINE
  5
79
100
AcDbEntity
  8
SLD-0
100
AcDbLine
370
-1
 62
7
  6
BYLAYER
 10
4.80526230583748
 20
0.500014014220956
 30
0
 11
7.87120700440777
 21
0.500014014220956
 31
0
  0
LINE
  5
7A
100
AcDbEntity
  8
SLD-0
100
AcDbLine
370
-1
 62
7
  6
BYLAYER
 10
7.87120700440791
 20
0.720798882659505
 30
0
 11
6.33130261534391
 21
0.720798882659505
 31
0
  0
LINE
  5
7B
100
AcDbEntity
  8
SLD-0
100
AcDbLine
370
-1
 62
7
  6
BYLAYER
 10
6.33130261534378
 20
0.619138511451102
 30
0
 11
7.87120700440778
 21
0.619138511451102
 31
0
  0
LINE
  5
7C
100
AcDbEntity
  8
SLD-0
100
AcDbLine
370
-1
 62
7
  6
BYLAYER
 10
7.33525488727274
 20
0.720798882659505
 30
0
 11
7.33525488727274
 21
0.392073170731704
 31
0
  0
LINE
  5
7D
100
AcDbEntity
  8
SLD-0
100
AcDbLine
370
-1
 62
7
  6
BYLAYER
 10
6.92363083419135
 20
0.720798882659505
 30
0
 11
6.92363083419135
 21
0.392073170731704
 31
0
  0
LINE
  5
7E
100
AcDbEntity
  8
SLD-0
100
AcDbLine
370
-1
 62
7
  6
BYLAYER
 10
8.26675175196257
 20
1.36510244965077
 30
0
 11
6.33130261534378
 21
1.36510244965077
 31
0
  0
LINE
  5
7F
100
AcDbEntity
  8
SLD-0
100
AcDbLine
370
-1
 62
7
  6
BYLAYER
 10
6.33130261534378
 20
1.04006749788811
 30
0
 11
7.87120700440778
 21
1.04006749788811
 31
0
  0
LINE
  5
80
100
AcDbEntity
  8
SLD-0
100
AcDbLine
 62
7
  6
BYLAYER
 10
7.87120700440778
 20
1.04006749788811
 30
0
 11
7.87120700440778
 21
0.392073170731704
 31
0
  0
LINE
  5
81
100
AcDbEntity
  8
SLD-0
100
AcDbLine
370
-1
 62
7
  6
BYLAYER
 10
10.629927
 20
2.3420731707317
 30
0
 11
10.7556228835194
 21
2.3420731707317
 31
0
  0
LINE
  5
82
100
AcDbEntity
  8
SLD-0
100
AcDbLine
370
-1
 62
7
  6
BYLAYER
 10
10.629927
 20
4.2920731707317
 30
0
 11
10.7556228835194
 21
4.2920731707317
 31
0
  0
LINE
  5
83
100
AcDbEntity
  8
SLD-0
100
AcDbLine
370
-1
 62
7
  6
BYLAYER
 10
10.629927
 20
6.2420731707317
 30
0
 11
10.7556228835194
 21
6.2420731707317
 31
0
  0
LINE
  5
84
100
AcDbEntity
  8
SLD-0
100
AcDbLine
370
-1
 62
7
  6
BYLAYER
 10
8.569927
 20
0.39207317073169
 30
0
 11
8.569927
 21
0.275156635909371
 31
0
  0
LINE
  5
85
100
AcDbEntity
  8
SLD-0
100
AcDbLine
370
-1
 62
7
  6
BYLAYER
 10
6.509927
 20
0.392073170731675
 30
0
 11
6.509927
 21
0.275156635909356
 31
0
  0
LINE
  5
86
100
AcDbEntity
  8
SLD-0
100
AcDbLine
370
-1
 62
7
  6
BYLAYER
 10
4.449927
 20
0.392073170731661
 30
0
 11
4.449927
 21
0.275156635909342
 31
0
  0
LINE
  5
87
100
AcDbEntity
  8
SLD-0
100
AcDbLine
370
-1
 62
7
  6
BYLAYER
 10
2.389927
 20
0.392073170731646
 30
0
 11
2.389927
 21
0.275156635909328
 31
0
  0
INSERT
  5
88
100
AcDbEntity
  8
0
100
AcDbBlockReference
370
-1
 62
7
  6
CONTINUOUS
  2
ThirdAngleProjectionBlock
 10
8.94115333712791
 20
0.401837044679627
 30
0
 41
0.35
 42
0.35
 43
0.35
  0
INSERT
  5
89
100
AcDbEntity
  8
0
100
AcDbBlockReference
370
-1
 62
7
  6
CONTINUOUS
  2
POLYCASE LOGO
 10
8.26675175196257
 20
1.67529337828581
 30
0
 41
1
 42
1
 43
1
  0
INSERT
  5
93
100
AcDbEntity
  8
SLD-0
100
AcDbBlockReference
370
-1
  6
BYLAYER
  2
SW_NOTE_1
 10
4.79112365496159
 20
1.96044973923269
 30
0
 41
1
 42
1
 43
1
  0
MTEXT
  5
94
100
AcDbEntity
  8
FORMAT
100
AcDbMText
370
-1
 62
7
 10
9.66199213278386
 20
0.300272887979099
 30
0
 40
0.09375
  1
1
 50
0
 41
0
  7
SLDTEXTSTYLE1
 71
1
 11
1
 21
0
 31
0
 73
1
 44
1
  0
MTEXT
  5
95
100
AcDbEntity
  8
FORMAT
100
AcDbMText
370
-1
 62
7
 10
10.6832584459205
 20
1.43491324632819
 30
0
 40
0.0935
  1
A
 50
0
 41
0
  7
SLDTEXTSTYLE1
 71
1
 11
1
 21
0
 31
0
 73
1
 44
1
  0
MTEXT
  5
96
100
AcDbEntity
  8
FORMAT
100
AcDbMText
370
-1
 10
10.6832584459205
 20
3.38491324632819
 30
0
 40
0.0935
  1
B
 50
0
 41
0
  7
SLDTEXTSTYLE1
 71
1
 11
1
 21
0
 31
0
 73
1
 44
1
  0
MTEXT
  5
97
100
AcDbEntity
  8
FORMAT
100
AcDbMText
370
-1
 10
10.6832584459205
 20
5.33491324632819
 30
0
 40
0.0935
  1
C
 50
0
 41
0
  7
SLDTEXTSTYLE1
 71
1
 11
1
 21
0
 31
0
 73
1
 44
1
  0
MTEXT
  5
98
100
AcDbEntity
  8
FORMAT
100
AcDbMText
370
-1
 10
10.6832584459205
 20
7.28491324632819
 30
0
 40
0.0935
  1
D
 50
0
 41
0
  7
SLDTEXTSTYLE1
 71
1
 11
1
 21
0
 31
0
 73
1
 44
1
  0
MTEXT
  5
99
100
AcDbEntity
  8
FORMAT
100
AcDbMText
370
-1
 62
7
 10
7.60199213278386
 20
0.300272887979085
 30
0
 40
0.09375
  1
2
 50
0
 41
0
  7
SLDTEXTSTYLE1
 71
1
 11
1
 21
0
 31
0
 73
1
 44
1
  0
MTEXT
  5
9A
100
AcDbEntity
  8
FORMAT
100
AcDbMText
370
-1
 62
7
 10
5.54199213278386
 20
0.300272887979071
 30
0
 40
0.09375
  1
3
 50
0
 41
0
  7
SLDTEXTSTYLE1
 71
1
 11
1
 21
0
 31
0
 73
1
 44
1
  0
MTEXT
  5
9B
100
AcDbEntity
  8
FORMAT
100
AcDbMText
370
-1
 10
3.48199213278386
 20
0.300272887979056
 30
0
 40
0.09375
  1
4
 50
0
 41
0
  7
SLDTEXTSTYLE1
 71
1
 11
1
 21
0
 31
0
 73
1
 44
1
  0
MTEXT
  5
9C
100
AcDbEntity
  8
FORMAT
100
AcDbMText
370
-1
 10
1.42199213278386
 20
0.300272887979056
 30
0
 40
0.09375
  1
5
 50
0
 41
0
  7
SLDTEXTSTYLE1
 71
1
 11
1
 21
0
 31
0
 73
1
 44
1
  0
MTEXT
  5
9D
100
AcDbEntity
  8
FORMAT
100
AcDbMText
370
-1
 62
7
 10
9.75712784832601
 20
0.551251554232246
 30
0
 40
0.1
  1
SHEET 1 OF 1
 50
0
 41
0
  7
SLDTEXTSTYLE1
 71
1
 11
1
 21
0
 31
0
 73
1
 44
1
  0
MTEXT
  5
9E
100
AcDbEntity
  8
FORMAT
100
AcDbMText
370
-1
 62
7
 10
7.95861396474754
 20
0.550926388939586
 30
0
 40
0.1
  1
SCALE: 1:1
 50
0
 41
0
  7
SLDTEXTSTYLE1
 71
1
 11
1
 21
0
 31
0
 73
1
 44
1
  0
MTEXT
  5
9F
100
AcDbEntity
  8
FORMAT
100
AcDbMText
370
-1
 62
7
 10
10.1706469588269
 20
1.0119827880945
 30
0
 40
0.1
  1
REV
 50
0
 41
0
  7
SLDTEXTSTYLE1
 71
1
 11
1
 21
0
 31
0
 73
1
 44
1
  0
MTEXT
  5
A0
100
AcDbEntity
  8
FORMAT
100
AcDbMText
370
-1
 62
7
 10
6.39718756241312
 20
1.66508941633086
 30
0
 40
0.1
  1
PART  NO.
 50
0
 41
0
  7
SLDTEXTSTYLE1
 71
1
 11
1
 21
0
 31
0
 73
1
 44
1
  0
MTEXT
  5
A1
100
AcDbEntity
  8
FORMAT
100
AcDbMText
370
-1
 62
7
 10
7.95195818216675
 20
1.01109894934722
 30
0
 40
0.1
  1
SIZE
 50
0
 41
0
  7
SLDTEXTSTYLE1
 71
1
 11
1
 21
0
 31
0
 73
1
 44
1
  0
INSERT
  5
AB
100
AcDbEntity
  8
FORMAT
100
AcDbBlockReference
370
-1
 62
7
  6
BYLAYER
  2
SW_NOTE_2
 10
4.99710110053656
 20
0.980388978279133
 30
0
 41
1
 42
1
 43
1
  0
INSERT
  5
B1
100
AcDbEntity
  8
FORMAT
100
AcDbBlockReference
370
-1
 62
7
  6
BYLAYER
  2
SW_NOTE_3
 10
8.42404046478868
 20
0.891795306053577
 30
0
 41
1
 42
1
 43
1
  0
MTEXT
  5
B2
100
AcDbEntity
  8
FORMAT
100
AcDbMText
370
-1
 62
7
 10
7.13106520636692
 20
0.480927241873261
 30
0
 40
0.075
  1
C.C.B.
 50
0
 41
0
  7
SLDTEXTSTYLE1
 71
2
 11
1
 21
0
 31
0
 73
1
 44
1
  0
MTEXT
  5
B3
100
AcDbEntity
  8
FORMAT
100
AcDbMText
370
-1
 62
7
 10
7.12905983198779
 20
0.595229147839485
 30
0
 40
0.075
  1
D.M.F.
 50
0
 41
0
  7
SLDTEXTSTYLE1
 71
2
 11
1
 21
0
 31
0
 73
1
 44
1
  0
MTEXT
  5
B4
100
AcDbEntity
  8
FORMAT
100
AcDbMText
370
-1
 62
7
 10
6.43009464942454
 20
0.476659883590446
 30
0
 40
0.065
  1
CHECKED
 50
0
 41
0
  7
SLDTEXTSTYLE1
 71
1
 11
1
 21
0
 31
0
 73
1
 44
1
  0
MTEXT
  5
B5
100
AcDbEntity
  8
FORMAT
100
AcDbMText
370
-1
 62
7
 10
6.46942678664631
 20
0.587393494087203
 30
0
 40
0.065
  1
DRAWN
 50
0
 41
0
  7
SLDTEXTSTYLE1
 71
1
 11
1
 21
0
 31
0
 73
1
 44
1
  0
MTEXT
  5
B6
100
AcDbEntity
  8
FORMAT
100
AcDbMText
370
-1
 62
7
 10
7.12897221516895
 20
0.707794331894959
 30
0
 40
0.065
  1
NAME
 50
0
 41
0
  7
SLDTEXTSTYLE1
 71
2
 11
1
 21
0
 31
0
 73
1
 44
1
  0
MTEXT
  5
B7
100
AcDbEntity
  8
FORMAT
100
AcDbMText
370
-1
 62
7
 10
7.59647413440128
 20
0.707794331894958
 30
0
 40
0.065
  1
DATE
 50
0
 41
0
  7
SLDTEXTSTYLE1
 71
2
 11
1
 21
0
 31
0
 73
1
 44
1
  0
MTEXT
  5
B8
100
AcDbEntity
  8
FORMAT
100
AcDbMText
370
-1
 62
7
 10
7.60836510935938
 20
0.597389149718043
 30
0
 40
0.075
  1
8/16/2011
 50
0
 41
0
  7
SLDTEXTSTYLE1
 71
2
 11
1
 21
0
 31
0
 73
1
 44
1
  0
MTEXT
  5
B9
100
AcDbEntity
  8
FORMAT
100
AcDbMText
370
-1
 62
7
 10
7.60662902632031
 20
0.481655539221286
 30
0
 40
0.075
  1
8/29/2011
 50
0
 41
0
  7
SLDTEXTSTYLE1
 71
2
 11
1
 21
0
 31
0
 73
1
 44
1
  0
MTEXT
  5
BA
100
AcDbEntity
  8
FORMAT
100
AcDbMText
370
-1
 62
7
 10
6.39718756241312
 20
1.34258265373278
 30
0
 40
0.1
  1
MATERIAL
 50
0
 41
0
  7
SLDTEXTSTYLE1
 71
1
 11
1
 21
0
 31
0
 73
1
 44
1
  0
MTEXT
  5
BB
100
AcDbEntity
  8
FORMAT
100
AcDbMText
370
-1
 62
7
 10
6.39718756241312
 20
1.00335681481559
 30
0
 40
0.1
  1
FLAME RATING
 50
0
 41
0
  7
SLDTEXTSTYLE1
 71
1
 11
1
 21
0
 31
0
 73
1
 44
1
  0
MTEXT
  5
BD
100
AcDbEntity
  8
FORMAT
100
AcDbMText
370
-1
 62
7
 10
7.94217953346386
 20
0.871995028975213
 30
0
 40
0.25
  1
A
 50
0
 41
0
  7
SLDTEXTSTYLE2
 71
1
 11
1
 21
0
 31
0
 73
1
 44
1
  0
MTEXT
  5
BE
100
AcDbEntity
  8
FORMAT
100
AcDbMText
370
-1
 62
7
 10
10.2940323778562
 20
0.872016730508647
 30
0
 40
0.2
  1
-
 50
0
 41
0
  7
SLDTEXTSTYLE2
 71
2
 11
1
 21
0
 31
0
 73
1
 44
1
  0
MTEXT
  5
BF
100
AcDbEntity
  8
FORMAT
100
AcDbMText
370
-1
 62
7
 10
4.82454279367421
 20
0.480441495391747
 30
0
 40
0.0520833333333333
  1
CAD FILE: WP-23BF+15-PCB
 50
0
 41
0
  7
SLDTEXTSTYLE1
 71
1
 11
1
 21
0
 31
0
 73
1
 44
1
  0
INSERT
  5
D2
100
AcDbEntity
  8
FORMAT
100
AcDbBlockReference
370
-1
 62
7
  6
BYLAYER
  2
SW_NOTE_4
 10
5.02283368993816
 20
1.57586406497303
 30
0
 41
1
 42
1
 43
1
  0
MTEXT
  5
D3
100
AcDbEntity
  8
FORMAT
100
AcDbMText
370
-1
 62
7
 10
6.39718756241312
 20
1.52809505384369
 30
0
 40
0.104166666666667
  1
WP-23BF*15-PCB
 50
0
 41
0
  7
SLDTEXTSTYLE1
 71
1
 11
1
 21
0
 31
0
 73
1
 44
1
  0
INSERT
  5
E8
100
AcDbEntity
  8
SLD-0
100
AcDbBlockReference
370
-1
  6
BYLAYER
  2
SW_TABLEANNOTATION_0
 10
0.33339791592869
 20
0.648674944872243
 30
0
 41
1
 42
1
 43
1
  0
CIRCLE
  5
E9
100
AcDbEntity
  8
0
100
AcDbCircle
370
30
 62
7
  6
SLD-Solid
 10
5.35318978226357
 20
6.32937609834321
 30
0
 40
0.067499999999999
  0
CIRCLE
  5
EA
100
AcDbEntity
  8
0
100
AcDbCircle
370
30
 62
7
  6
SLD-Solid
 10
2.32525277438955
 20
3.65251783062667
 30
0
 40
0.0674999999999999
  0
LINE
  5
EB
100
AcDbEntity
  8
0
100
AcDbLine
370
30
 62
7
  6
SLD-Solid
 10
3.70599166990637
 20
6.53227409227576
 30
0
 11
3.70599166990637
 21
6.60261006641526
 31
0
  0
LINE
  5
EC
100
AcDbEntity
  8
0
100
AcDbLine
370
30
 62
7
  6
SLD-Solid
 10
3.97245088674675
 20
6.53227409227576
 30
0
 11
3.70599166990637
 21
6.53227409227576
 31
0
  0
LINE
  5
ED
100
AcDbEntity
  8
0
100
AcDbLine
370
30
 62
7
  6
SLD-Solid
 10
3.97245088674675
 20
6.60261006641526
 30
0
 11
3.97245088674675
 21
6.53227409227576
 31
0
  0
LINE
  5
EE
100
AcDbEntity
  8
0
100
AcDbLine
370
30
 62
7
  6
SLD-Solid
 10
4.84772394801766
 20
6.60261006641526
 30
0
 11
3.97245088674675
 21
6.60261006641526
 31
0
  0
LINE
  5
EF
100
AcDbEntity
  8
0
100
AcDbLine
370
30
 62
7
  6
SLD-Solid
 10
4.84772394801766
 20
6.53227409227576
 30
0
 11
4.84772394801766
 21
6.60261006641526
 31
0
  0
LINE
  5
F0
100
AcDbEntity
  8
0
100
AcDbLine
370
30
 62
7
  6
SLD-Solid
 10
5.11418310985868
 20
6.53227409227576
 30
0
 11
4.84772394801766
 21
6.53227409227576
 31
0
  0
LINE
  5
F1
100
AcDbEntity
  8
0
100
AcDbLine
370
30
 62
7
  6
SLD-Solid
 10
5.11418310985868
 20
6.60261006641526
 30
0
 11
5.11418310985868
 21
6.53227409227576
 31
0
  0
LINE
  5
F2
100
AcDbEntity
  8
0
100
AcDbLine
370
30
 62
7
  6
SLD-Solid
 10
5.49122120761574
 20
6.60261006641526
 30
0
 11
5.11418310985868
 21
6.60261006641526
 31
0
  0
ARC
  5
F3
100
AcDbEntity
  8
0
100
AcDbCircle
370
30
 62
7
  6
SLD-Solid
 10
5.49122127832657
 20
6.52644696448494
 30
0
 40
0.076163068931999
100
AcDbArc
 50
0
 51
90
  0
LINE
  5
F4
100
AcDbEntity
  8
0
100
AcDbLine
370
30
 62
7
  6
SLD-Solid
 10
5.56738432777288
 20
6.17199026763858
 30
0
 11
5.56738432777288
 21
6.52644694625812
 31
0
  0
ARC
  5
F5
100
AcDbEntity
  8
0
100
AcDbCircle
370
30
 62
7
  6
SLD-Solid
 10
5.86522127832656
 20
6.17199027157154
 30
0
 40
0.297836931067994
100
AcDbArc
 50
180
 51
270.000000000001
  0
ARC
  5
F6
100
AcDbEntity
  8
0
100
AcDbCircle
370
30
 62
7
  6
SLD-Solid
 10
5.86522127832656
 20
5.79799027157155
 30
0
 40
0.076163068931999
100
AcDbArc
 50
0
 51
90
  0
LINE
  5
F7
100
AcDbEntity
  8
0
100
AcDbLine
370
30
 62
7
  6
SLD-Solid
 10
5.94138440729204
 20
5.71467656389885
 30
0
 11
5.94138440729204
 21
5.7979902614519
 31
0
  0
LINE
  5
F8
100
AcDbEntity
  8
0
100
AcDbLine
370
30
 62
7
  6
SLD-Solid
 10
5.87104828648758
 20
5.71467656389885
 30
0
 11
5.94138440729204
 21
5.71467656389885
 31
0
  0
LINE
  5
F9
100
AcDbEntity
  8
0
100
AcDbLine
370
30
 62
7
  6
SLD-Solid
 10
5.87104828648758
 20
5.44821736539158
 30
0
 11
5.87104828648758
 21
5.71467656389885
 31
0
  0
LINE
  5
FA
100
AcDbEntity
  8
0
100
AcDbLine
370
30
 62
7
  6
SLD-Solid
 10
5.94138440729204
 20
5.44821736539158
 30
0
 11
5.87104828648758
 21
5.44821736539158
 31
0
  0
LINE
  5
FB
100
AcDbEntity
  8
0
100
AcDbLine
370
30
 62
7
  6
SLD-Solid
 10
5.94138440729204
 20
4.5336765635783
 30
0
 11
5.94138440729204
 21
5.44821736539158
 31
0
  0
LINE
  5
FC
100
AcDbEntity
  8
0
100
AcDbLine
370
30
 62
7
  6
SLD-Solid
 10
5.87104828648758
 20
4.5336765635783
 30
0
 11
5.94138440729204
 21
4.5336765635783
 31
0
  0
LINE
  5
FD
100
AcDbEntity
  8
0
100
AcDbLine
370
30
 62
7
  6
SLD-Solid
 10
5.87104828648758
 20
4.26721736507103
 30
0
 11
5.87104828648758
 21
4.5336765635783
 31
0
  0
LINE
  5
FE
100
AcDbEntity
  8
0
100
AcDbLine
370
30
 62
7
  6
SLD-Solid
 10
5.94138440729204
 20
4.26721736507103
 30
0
 11
5.87104828648758
 21
4.26721736507103
 31
0
  0
LINE
  5
FF
100
AcDbEntity
  8
0
100
AcDbLine
370
30
 62
7
  6
SLD-Solid
 10
5.94138440729204
 20
4.18390366751797
 30
0
 11
5.94138440729204
 21
4.26721736507103
 31
0
  0
ARC
  5
100
100
AcDbEntity
  8
0
100
AcDbCircle
370
30
 62
7
  6
SLD-Solid
 10
5.86522127832656
 20
4.18390365739833
 30
0
 40
0.0761630689319999
100
AcDbArc
 50
270.000000000001
 51
0
  0
ARC
  5
101
100
AcDbEntity
  8
0
100
AcDbCircle
370
30
 62
7
  6
SLD-Solid
 10
5.86522127832656
 20
3.80990365739833
 30
0
 40
0.297836931067994
100
AcDbArc
 50
90
 51
180
  0
LINE
  5
102
100
AcDbEntity
  8
0
100
AcDbLine
370
30
 62
7
  6
SLD-Solid
 10
5.56738432777288
 20
3.45544698271176
 30
0
 11
5.56738432777288
 21
3.80990366133129
 31
0
  0
ARC
  5
103
100
AcDbEntity
  8
0
100
AcDbCircle
370
30
 62
7
  6
SLD-Solid
 10
5.49122127832657
 20
3.45544696448494
 30
0
 40
0.076163068931999
100
AcDbArc
 50
270.000000000001
 51
0
  0
LINE
  5
104
100
AcDbEntity
  8
0
100
AcDbLine
370
30
 62
7
  6
SLD-Solid
 10
5.11418310985868
 20
3.37928386255462
 30
0
 11
5.49122120761574
 21
3.37928386255462
 31
0
  0
LINE
  5
105
100
AcDbEntity
  8
0
100
AcDbLine
370
30
 62
7
  6
SLD-Solid
 10
5.11418310985868
 20
3.44961983669411
 30
0
 11
5.11418310985868
 21
3.37928386255462
 31
0
  0
LINE
  5
106
100
AcDbEntity
  8
0
100
AcDbLine
370
30
 62
7
  6
SLD-Solid
 10
4.84772394801766
 20
3.44961983669411
 30
0
 11
5.11418310985868
 21
3.44961983669411
 31
0
  0
LINE
  5
107
100
AcDbEntity
  8
0
100
AcDbLine
370
30
 62
7
  6
SLD-Solid
 10
4.84772394801766
 20
3.37928386255462
 30
0
 11
4.84772394801766
 21
3.44961983669411
 31
0
  0
LINE
  5
108
100
AcDbEntity
  8
0
100
AcDbLine
370
30
 62
7
  6
SLD-Solid
 10
3.97245088674675
 20
3.37928386255462
 30
0
 11
4.84772394801766
 21
3.37928386255462
 31
0
  0
LINE
  5
109
100
AcDbEntity
  8
0
100
AcDbLine
370
30
 62
7
  6
SLD-Solid
 10
3.97245088674675
 20
3.44961983669411
 30
0
 11
3.97245088674675
 21
3.37928386255462
 31
0
  0
LINE
  5
10A
100
AcDbEntity
  8
0
100
AcDbLine
370
30
 62
7
  6
SLD-Solid
 10
3.70599166990637
 20
3.44961983669411
 30
0
 11
3.97245088674675
 21
3.44961983669411
 31
0
  0
LINE
  5
10B
100
AcDbEntity
  8
0
100
AcDbLine
370
30
 62
7
  6
SLD-Solid
 10
3.70599166990637
 20
3.37928386255462
 30
0
 11
3.70599166990637
 21
3.44961983669411
 31
0
  0
LINE
  5
10C
100
AcDbEntity
  8
0
100
AcDbLine
370
30
 62
7
  6
SLD-Solid
 10
2.83071860863546
 20
3.37928386255462
 30
0
 11
3.70599166990637
 21
3.37928386255462
 31
0
  0
LINE
  5
10D
100
AcDbEntity
  8
0
100
AcDbLine
370
30
 62
7
  6
SLD-Solid
 10
2.83071860863546
 20
3.44961983669411
 30
0
 11
2.83071860863546
 21
3.37928386255462
 31
0
  0
LINE
  5
10E
100
AcDbEntity
  8
0
100
AcDbLine
370
30
 62
7
  6
SLD-Solid
 10
2.56425944679443
 20
3.44961983669411
 30
0
 11
2.83071860863546
 21
3.44961983669411
 31
0
  0
LINE
  5
10F
100
AcDbEntity
  8
0
100
AcDbLine
370
30
 62
7
  6
SLD-Solid
 10
2.56425944679443
 20
3.37928386255462
 30
0
 11
2.56425944679443
 21
3.44961983669411
 31
0
  0
LINE
  5
110
100
AcDbEntity
  8
0
100
AcDbLine
370
30
 62
7
  6
SLD-Solid
 10
2.18722134903738
 20
3.37928386255462
 30
0
 11
2.56425944679443
 21
3.37928386255462
 31
0
  0
ARC
  5
111
100
AcDbEntity
  8
0
100
AcDbCircle
370
30
 62
7
  6
SLD-Solid
 10
2.18722127832655
 20
3.45544696448494
 30
0
 40
0.076163068931999
100
AcDbArc
 50
180
 51
270.000000000001
  0
LINE
  5
112
100
AcDbEntity
  8
0
100
AcDbLine
370
30
 62
7
  6
SLD-Solid
 10
2.11105822888024
 20
3.80990366133129
 30
0
 11
2.11105822888024
 21
3.45544698271176
 31
0
  0
ARC
  5
113
100
AcDbEntity
  8
0
100
AcDbCircle
370
30
 62
7
  6
SLD-Solid
 10
1.81322127832656
 20
3.80990365739833
 30
0
 40
0.297836931067993
100
AcDbArc
 50
0
 51
90.0000000000001
  0
ARC
  5
114
100
AcDbEntity
  8
0
100
AcDbCircle
370
30
 62
7
  6
SLD-Solid
 10
1.81322127832656
 20
4.18390365739833
 30
0
 40
0.0761630689319999
100
AcDbArc
 50
180
 51
270
  0
LINE
  5
115
100
AcDbEntity
  8
0
100
AcDbLine
370
30
 62
7
  6
SLD-Solid
 10
1.73705814936108
 20
4.26721736507103
 30
0
 11
1.73705814936108
 21
4.18390366751797
 31
0
  0
LINE
  5
116
100
AcDbEntity
  8
0
100
AcDbLine
370
30
 62
7
  6
SLD-Solid
 10
1.80739427016554
 20
4.26721736507103
 30
0
 11
1.73705814936108
 21
4.26721736507103
 31
0
  0
LINE
  5
117
100
AcDbEntity
  8
0
100
AcDbLine
370
30
 62
7
  6
SLD-Solid
 10
1.80739427016554
 20
4.5336765635783
 30
0
 11
1.80739427016554
 21
4.26721736507103
 31
0
  0
LINE
  5
118
100
AcDbEntity
  8
0
100
AcDbLine
370
30
 62
7
  6
SLD-Solid
 10
1.73705814936108
 20
4.5336765635783
 30
0
 11
1.80739427016554
 21
4.5336765635783
 31
0
  0
LINE
  5
119
100
AcDbEntity
  8
0
100
AcDbLine
370
30
 62
7
  6
SLD-Solid
 10
1.73705814936108
 20
5.44821736539158
 30
0
 11
1.73705814936108
 21
4.5336765635783
 31
0
  0
LINE
  5
11A
100
AcDbEntity
  8
0
100
AcDbLine
370
30
 62
7
  6
SLD-Solid
 10
1.80739427016554
 20
5.44821736539158
 30
0
 11
1.73705814936108
 21
5.44821736539158
 31
0
  0
LINE
  5
11B
100
AcDbEntity
  8
0
100
AcDbLine
370
30
 62
7
  6
SLD-Solid
 10
1.80739427016554
 20
5.71467656389885
 30
0
 11
1.80739427016554
 21
5.44821736539158
 31
0
  0
LINE
  5
11C
100
AcDbEntity
  8
0
100
AcDbLine
370
30
 62
7
  6
SLD-Solid
 10
1.73705814936108
 20
5.71467656389885
 30
0
 11
1.80739427016554
 21
5.71467656389885
 31
0
  0
LINE
  5
11D
100
AcDbEntity
  8
0
100
AcDbLine
370
30
 62
7
  6
SLD-Solid
 10
1.73705814936108
 20
5.7979902614519
 30
0
 11
1.73705814936108
 21
5.71467656389885
 31
0
  0
ARC
  5
11E
100
AcDbEntity
  8
0
100
AcDbCircle
370
30
 62
7
  6
SLD-Solid
 10
1.81322127832656
 20
5.79799027157155
 30
0
 40
0.0761630689319994
100
AcDbArc
 50
90.0000000000003
 51
180
  0
ARC
  5
11F
100
AcDbEntity
  8
0
100
AcDbCircle
370
30
 62
7
  6
SLD-Solid
 10
1.81322127832656
 20
6.17199027157154
 30
0
 40
0.297836931067993
100
AcDbArc
 50
270.000000000001
 51
0
  0
LINE
  5
120
100
AcDbEntity
  8
0
100
AcDbLine
370
30
 62
7
  6
SLD-Solid
 10
2.11105822888024
 20
6.52644694625812
 30
0
 11
2.11105822888024
 21
6.17199026763858
 31
0
  0
ARC
  5
121
100
AcDbEntity
  8
0
100
AcDbCircle
370
30
 62
7
  6
SLD-Solid
 10
2.18722127832655
 20
6.52644696448494
 30
0
 40
0.076163068931999
100
AcDbArc
 50
90
 51
180
  0
LINE
  5
122
100
AcDbEntity
  8
0
100
AcDbLine
370
30
 62
7
  6
SLD-Solid
 10
2.56425944679443
 20
6.60261006641526
 30
0
 11
2.18722134903738
 21
6.60261006641526
 31
0
  0
LINE
  5
123
100
AcDbEntity
  8
0
100
AcDbLine
370
30
 62
7
  6
SLD-Solid
 10
2.56425944679443
 20
6.53227409227576
 30
0
 11
2.56425944679443
 21
6.60261006641526
 31
0
  0
LINE
  5
124
100
AcDbEntity
  8
0
100
AcDbLine
370
30
 62
7
  6
SLD-Solid
 10
2.83071860863546
 20
6.53227409227576
 30
0
 11
2.56425944679443
 21
6.53227409227576
 31
0
  0
LINE
  5
125
100
AcDbEntity
  8
0
100
AcDbLine
370
30
 62
7
  6
SLD-Solid
 10
2.83071860863546
 20
6.60261006641526
 30
0
 11
2.83071860863546
 21
6.53227409227576
 31
0
  0
LINE
  5
126
100
AcDbEntity
  8
0
100
AcDbLine
370
30
 62
7
  6
SLD-Solid
 10
3.70599166990637
 20
6.60261006641526
 30
0
 11
2.83071860863546
 21
6.60261006641526
 31
0
  0
CIRCLE
  5
127
100
AcDbEntity
  8
0
100
AcDbCircle
370
30
 62
7
  6
SLD-Solid
 10
2.32525277438955
 20
6.32937609834321
 30
0
 40
0.0674999999999999
  0
CIRCLE
  5
128
100
AcDbEntity
  8
0
100
AcDbCircle
370
30
 62
7
  6
SLD-Solid
 10
5.35318978226357
 20
3.65251783062667
 30
0
 40
0.0675000000000008
  0
DIMENSION
  5
129
100
AcDbEntity
  8
SLD-0
100
AcDbDimension
370
-1
  3
SLDDIMSTYLE0
  2
*D10
 10
3.83922127832656
 20
4.99094696448494
 30
-0.0273129921259842
 11
2.34091559037767
 21
0.00393700787401575
 31
0
 70
102
100
AcDbOrdinateDimension
 13
3.83922127832656
 23
4.99094696448494
 33
-0.0273129921259842
 14
3.83922127832655
 24
7.2232264437515
 34
-0.0273129921259842
1001
ACAD
1000
DSTYLE
1002
{
1002
}
  0
DIMENSION
  5
133
100
AcDbEntity
  8
SLD-0
100
AcDbDimension
370
-1
  3
SLDDIMSTYLE1
  2
*D11
 10
3.83922127832656
 20
4.99094696448494
 30
-0.0273129921259842
 11
2.49087321863628
 21
0.00393700787401573
 31
0
 70
102
100
AcDbOrdinateDimension
 13
5.35318978226356
 23
6.32937609834321
 33
-0.0273129921259842
 14
5.33153432711354
 24
7.2232264437515
 34
-0.0273129921259842
1001
ACAD
1000
DSTYLE
1002
{
1002
}
  0
DIMENSION
  5
13C
100
AcDbEntity
  8
SLD-0
100
AcDbDimension
370
-1
  3
SLDDIMSTYLE1
  2
*D12
 10
3.83922127832656
 20
4.99094696448494
 30
-0.0273129921259842
 11
2.49087321863628
 21
0.00393700787401575
 31
0
 70
102
100
AcDbOrdinateDimension
 13
2.32525277438955
 23
6.3293760983432
 33
-0.0273129921259842
 14
2.28954900613567
 24
7.22322644375149
 34
-0.0273129921259842
1001
ACAD
1000
DSTYLE
1002
{
1002
}
  0
DIMENSION
  5
144
100
AcDbEntity
  8
SLD-0
100
AcDbDimension
370
-1
  1
3X <>
  3
SLDDIMSTYLE1
  2
*D13
 10
3.83922127832656
 20
4.99094696448494
 30
-0.0273129921259842
 11
2.6109252817846
 21
0.00393700787401573
 31
0
 70
102
100
AcDbOrdinateDimension
 13
1.73705820939456
 23
5.79799027157155
 33
-0.0273129921259842
 14
1.57635983478844
 24
7.22322644375149
 34
-0.0273129921259842
1001
ACAD
1000
DSTYLE
1002
{
1002
}
  0
DIMENSION
  5
14D
100
AcDbEntity
  8
SLD-0
100
AcDbDimension
370
-1
  1
2X <>
  3
SLDDIMSTYLE1
  2
*D14
 10
3.83922127832656
 20
4.99094696448494
 30
-0.0273129921259842
 11
2.6109252817846
 21
0.00393700787401573
 31
0
 70
102
100
AcDbOrdinateDimension
 13
1.80739420258553
 23
5.71467657408643
 33
-0.0273129921259842
 14
1.80755548984998
 24
7.22322644375149
 34
-0.0273129921259842
1001
ACAD
1000
DSTYLE
1002
{
1002
}
  0
DIMENSION
  5
156
100
AcDbEntity
  8
SLD-0
100
AcDbDimension
370
-1
  1
2X <>
  3
SLDDIMSTYLE1
  2
*D15
 10
3.83922127832656
 20
4.99094696448494
 30
-0.0273129921259842
 11
2.6109252817846
 21
0.00393700787401573
 31
0
 70
102
100
AcDbOrdinateDimension
 13
2.11105820939455
 23
6.52644696448493
 33
-0.0273129921259842
 14
2.08054274804265
 24
7.22322644375149
 34
-0.0273129921259842
1001
ACAD
1000
DSTYLE
1002
{
1002
}
  0
DIMENSION
  5
15F
100
AcDbEntity
  8
SLD-0
100
AcDbDimension
370
-1
  1
2X <>
  3
SLDDIMSTYLE1
  2
*D16
 10
3.83922127832656
 20
4.99094696448494
 30
-0.0273129921259842
 11
2.6109252817846
 21
0.00393700787401573
 31
0
 70
102
100
AcDbOrdinateDimension
 13
2.56425938372506
 23
6.60261003341693
 33
-0.0273129921259842
 14
2.56425938372505
 24
7.22322644375149
 34
-0.0273129921259842
1001
ACAD
1000
DSTYLE
1002
{
1002
}
  0
DIMENSION
  5
166
100
AcDbEntity
  8
SLD-0
100
AcDbDimension
370
-1
  1
2X <>
  3
SLDDIMSTYLE1
  2
*D17
 10
3.83922127832656
 20
4.99094696448494
 30
-0.0273129921259842
 11
2.6109252817846
 21
0.00393700787401573
 31
0
 70
102
100
AcDbOrdinateDimension
 13
2.83071860292805
 23
6.60261003341693
 33
-0.0273129921259842
 14
2.83071860292805
 24
7.22322644375149
 34
-0.0273129921259842
1001
ACAD
1000
DSTYLE
1002
{
1002
}
  0
DIMENSION
  5
16D
100
AcDbEntity
  8
SLD-0
100
AcDbDimension
370
-1
  1
2X <>
  3
SLDDIMSTYLE1
  2
*D18
 10
3.83922127832656
 20
4.99094696448494
 30
-0.0273129921259842
 11
2.56474473526622
 21
0.00393700787401574
 31
0
 70
102
100
AcDbOrdinateDimension
 13
3.70599166872506
 23
6.60261003341694
 33
-0.0273129921259842
 14
3.56739844494212
 24
7.2232264437515
 34
-0.0273129921259842
1001
ACAD
1000
DSTYLE
1002
{
1002
}
  0
DIMENSION
  5
176
100
AcDbEntity
  8
SLD-0
100
AcDbDimension
370
-1
  1
2X <>
  3
SLDDIMSTYLE1
  2
*D19
 10
3.83922127832656
 20
4.99094696448494
 30
-0.0273129921259842
 11
2.56474473526622
 21
0.00393700787401572
 31
0
 70
102
100
AcDbOrdinateDimension
 13
3.97245088792805
 23
6.60261003341694
 33
-0.0273129921259842
 14
4.14953422126138
 24
7.2232264437515
 34
-0.0273129921259842
1001
ACAD
1000
DSTYLE
1002
{
1002
}
  0
DIMENSION
  5
17F
100
AcDbEntity
  8
SLD-0
100
AcDbDimension
370
-1
  1
2X <>
  3
SLDDIMSTYLE1
  2
*D20
 10
3.83922127832656
 20
4.99094696448494
 30
-0.0273129921259842
 11
2.6109252817846
 21
0.00393700787401575
 31
0
 70
102
100
AcDbOrdinateDimension
 13
4.84772395372506
 23
6.60261003341694
 33
-0.0273129921259842
 14
4.84772395372505
 24
7.2232264437515
 34
-0.0273129921259842
1001
ACAD
1000
DSTYLE
1002
{
1002
}
  0
DIMENSION
  5
186
100
AcDbEntity
  8
SLD-0
100
AcDbDimension
370
-1
  1
2X <>
  3
SLDDIMSTYLE1
  2
*D21
 10
3.83922127832656
 20
4.99094696448494
 30
-0.0273129921259842
 11
2.6109252817846
 21
0.00393700787401574
 31
0
 70
102
100
AcDbOrdinateDimension
 13
5.11418317292805
 23
6.60261003341694
 33
-0.0273129921259842
 14
5.11418317292805
 24
7.2232264437515
 34
-0.0273129921259842
1001
ACAD
1000
DSTYLE
1002
{
1002
}
  0
DIMENSION
  5
18D
100
AcDbEntity
  8
SLD-0
100
AcDbDimension
370
-1
  1
2X <>
  3
SLDDIMSTYLE1
  2
*D22
 10
3.83922127832656
 20
4.99094696448494
 30
-0.0273129921259842
 11
2.6109252817846
 21
0.00393700787401573
 31
0
 70
102
100
AcDbOrdinateDimension
 13
5.56738434725856
 23
6.52644696448495
 33
-0.0273129921259842
 14
5.54054058520656
 24
7.2232264437515
 34
-0.0273129921259842
1001
ACAD
1000
DSTYLE
1002
{
1002
}
  0
DIMENSION
  5
196
100
AcDbEntity
  8
SLD-0
100
AcDbDimension
370
-1
  1
3X <>
  3
SLDDIMSTYLE1
  2
*D23
 10
3.83922127832656
 20
4.99094696448494
 30
-0.0273129921259842
 11
2.6109252817846
 21
0.00393700787401574
 31
0
 70
102
100
AcDbOrdinateDimension
 13
5.94138434725856
 23
5.79799027157156
 33
-0.0273129921259842
 14
5.94138434725855
 24
7.2232264437515
 34
-0.0273129921259842
1001
ACAD
1000
DSTYLE
1002
{
1002
}
  0
DIMENSION
  5
19D
100
AcDbEntity
  8
SLD-0
100
AcDbDimension
370
-1
  1
2X <>
  3
SLDDIMSTYLE1
  2
*D24
 10
3.83922127832656
 20
4.99094696448494
 30
-0.0273129921259842
 11
2.6109252817846
 21
0.00393700787401573
 31
0
 70
102
100
AcDbOrdinateDimension
 13
5.87104835406759
 23
5.71467657408644
 33
-0.0273129921259842
 14
5.71018869219701
 24
7.2232264437515
 34
-0.0273129921259842
1001
ACAD
1000
DSTYLE
1002
{
1002
}
  0
DIMENSION
  5
1A6
100
AcDbEntity
  8
SLD-0
100
AcDbDimension
370
-1
  3
SLDDIMSTYLE0
  2
*D25
 10
3.83922127832656
 20
4.99094696448494
 30
-0.0273129921259842
 11
0.108636111111111
 21
0.00393700787399672
 31
0
 70
38
100
AcDbOrdinateDimension
 13
3.83922127832656
 23
4.99094696448494
 33
-0.0273129921259842
 14
6.56450075759311
 24
4.99094696448495
 34
-0.0273129921259842
1001
ACAD
1000
DSTYLE
1002
{
1002
}
  0
DIMENSION
  5
1AC
100
AcDbEntity
  8
SLD-0
100
AcDbDimension
370
-1
  3
SLDDIMSTYLE1
  2
*D26
 10
3.83922127832656
 20
4.99094696448494
 30
-0.0273129921259842
 11
-0.942767174695231
 21
0.00393700787401573
 31
0
 70
38
100
AcDbOrdinateDimension
 13
5.35318978226357
 23
3.65251783062668
 33
-0.0273129921259842
 14
6.56450075759312
 24
3.78958605041999
 34
-0.0273129921259842
1001
ACAD
1000
DSTYLE
1002
{
1002
}
  0
DIMENSION
  5
1B4
100
AcDbEntity
  8
SLD-0
100
AcDbDimension
370
-1
  3
SLDDIMSTYLE1
  2
*D27
 10
3.83922127832656
 20
4.99094696448494
 30
-0.0273129921259842
 11
1.60127336292915
 21
0.00393700787401573
 31
0
 70
38
100
AcDbOrdinateDimension
 13
5.35318978226356
 23
6.32937609834321
 33
-0.0273129921259842
 14
6.56450075759311
 24
6.33362658804438
 34
-0.0273129921259842
1001
ACAD
1000
DSTYLE
1002
{
1002
}
  0
DIMENSION
  5
1BC
100
AcDbEntity
  8
SLD-0
100
AcDbDimension
370
-1
  1
4X <>
  3
SLDDIMSTYLE1
  2
*D28
 10
3.83922127832656
 20
4.99094696448494
 30
-0.0273129921259842
 11
-1.23301726641395
 21
0.00393700787401573
 31
0
 70
38
100
AcDbOrdinateDimension
 13
5.49122127832657
 23
3.37928389555294
 33
-0.0273129921259842
 14
6.56450075759312
 24
3.37928389555295
 34
-0.0273129921259842
1001
ACAD
1000
DSTYLE
1002
{
1002
}
  0
DIMENSION
  5
1C3
100
AcDbEntity
  8
SLD-0
100
AcDbDimension
370
-1
  1
3X <>
  3
SLDDIMSTYLE1
  2
*D29
 10
3.83922127832656
 20
4.99094696448494
 30
-0.0273129921259842
 11
-1.00182161135242
 21
0.00393700787401573
 31
0
 70
38
100
AcDbOrdinateDimension
 13
5.11418317292806
 23
3.44961988874391
 33
-0.0273129921259842
 14
6.56450075759312
 24
3.61047955061449
 34
-0.0273129921259842
1001
ACAD
1000
DSTYLE
1002
{
1002
}
  0
DIMENSION
  5
1CC
100
AcDbEntity
  8
SLD-0
100
AcDbDimension
370
-1
  3
SLDDIMSTYLE1
  2
*D30
 10
3.83922127832656
 20
4.99094696448494
 30
-0.0273129921259842
 11
-0.594630114235277
 21
0.00393700787401573
 31
0
 70
38
100
AcDbOrdinateDimension
 13
5.86522127832656
 23
4.18390365739833
 33
-0.0273129921259842
 14
6.56450075759312
 24
4.18390365739833
 34
-0.0273129921259842
1001
ACAD
1000
DSTYLE
1002
{
1002
}
  0
DIMENSION
  5
1D2
100
AcDbEntity
  8
SLD-0
100
AcDbDimension
370
-1
  3
SLDDIMSTYLE1
  2
*D31
 10
3.83922127832656
 20
4.99094696448494
 30
-0.0273129921259842
 11
1.1339521435123
 21
0.00393700787401573
 31
0
 70
38
100
AcDbOrdinateDimension
 13
5.86522127832656
 23
5.79799027157156
 33
-0.0273129921259842
 14
6.56450075759311
 24
5.91248591514591
 34
-0.0273129921259842
1001
ACAD
1000
DSTYLE
1002
{
1002
}
  0
DIMENSION
  5
1DA
100
AcDbEntity
  8
SLD-0
100
AcDbDimension
370
-1
  1
2X <>
  3
SLDDIMSTYLE1
  2
*D32
 10
3.83922127832656
 20
4.99094696448494
 30
-0.0273129921259842
 11
-0.276768710027493
 21
0.00393700787401573
 31
0
 70
38
100
AcDbOrdinateDimension
 13
5.94138434725856
 23
4.26721735488345
 33
-0.0273129921259842
 14
6.56450075759312
 24
4.3817129984578
 34
-0.0273129921259842
1001
ACAD
1000
DSTYLE
1002
{
1002
}
  0
DIMENSION
  5
1E3
100
AcDbEntity
  8
SLD-0
100
AcDbDimension
370
-1
  1
2X <>
  3
SLDDIMSTYLE1
  2
*D33
 10
3.83922127832656
 20
4.99094696448494
 30
-0.0273129921259842
 11
-0.0720351348952062
 21
0.00393700787401573
 31
0
 70
38
100
AcDbOrdinateDimension
 13
5.94138434725856
 23
4.53367657408644
 33
-0.0273129921259842
 14
6.56450075759312
 24
4.58644657359008
 34
-0.0273129921259842
1001
ACAD
1000
DSTYLE
1002
{
1002
}
  0
DIMENSION
  5
1EC
100
AcDbEntity
  8
SLD-0
100
AcDbDimension
370
-1
  1
2X <>
  3
SLDDIMSTYLE1
  2
*D34
 10
3.83922127832656
 20
4.99094696448494
 30
-0.0273129921259842
 11
0.789735646398161
 21
0.00393700787401573
 31
0
 70
38
100
AcDbOrdinateDimension
 13
5.94138434725856
 23
5.44821735488345
 33
-0.0273129921259842
 14
6.56450075759311
 24
5.44821735488345
 34
-0.0273129921259842
1001
ACAD
1000
DSTYLE
1002
{
1002
}
  0
DIMENSION
  5
1F3
100
AcDbEntity
  8
SLD-0
100
AcDbDimension
370
-1
  1
2X <>
  3
SLDDIMSTYLE1
  2
*D35
 10
3.83922127832656
 20
4.99094696448494
 30
-0.0273129921259842
 11
1.05619486560116
 21
0.00393700787401573
 31
0
 70
38
100
AcDbOrdinateDimension
 13
5.94138434725856
 23
5.71467657408644
 33
-0.0273129921259842
 14
6.56450075759311
 24
5.71467657408644
 34
-0.0273129921259842
1001
ACAD
1000
DSTYLE
1002
{
1002
}
  0
DIMENSION
  5
1FA
100
AcDbEntity
  8
SLD-0
100
AcDbDimension
370
-1
  1
4X <>
  3
SLDDIMSTYLE1
  2
*D36
 10
3.83922127832656
 20
4.99094696448494
 30
-0.0273129921259842
 11
2.14274507796791
 21
0.00393700787401573
 31
0
 70
38
100
AcDbOrdinateDimension
 13
5.49122127832656
 23
6.60261003341694
 33
-0.0273129921259842
 14
6.56450075759311
 24
6.75504623993481
 34
-0.0273129921259842
1001
ACAD
1000
DSTYLE
1002
{
1002
}
  0
DIMENSION
  5
203
100
AcDbEntity
  8
SLD-0
100
AcDbDimension
370
-1
  1
3X <>
  3
SLDDIMSTYLE1
  2
*D37
 10
3.83922127832656
 20
4.99094696448494
 30
-0.0273129921259842
 11
1.91154942290637
 21
0.00393700787401573
 31
0
 70
38
100
AcDbOrdinateDimension
 13
5.11418317292805
 23
6.53227404022597
 33
-0.0273129921259842
 14
6.56450075759311
 24
6.52385058487327
 34
-0.0273129921259842
1001
ACAD
1000
DSTYLE
1002
{
1002
}
  0
DIMENSION
  5
20C
100
AcDbEntity
  8
SLD-0
100
AcDbDimension
370
-1
  1
4X <>
  3
SLDDIMSTYLE2
  2
*D38
 10
2.26007793283272
 20
6.34693998253897
 30
0
 11
0.947791663912728
 21
6.54516596609376
 31
0
 70
163
100
AcDbDiametricDimension
 15
2.39042761594638
 25
6.31181221414743
 35
0
1001
ACAD
1000
DSTYLE
1002
{
1002
}
  0
DIMENSION
  5
217
100
AcDbEntity
  8
SLD-0
100
AcDbDimension
370
-1
  1
8X <>
  3
SLDDIMSTYLE3
  2
*D39
 10
2.18722127832656
 20
3.45544696448493
 30
0
 11
1.18265679853193
 21
2.98479551064966
 31
0
 70
164
100
AcDbRadialDimension
 15
2.13331785251426
 25
3.40163958808691
 35
0
1001
ACAD
1000
DSTYLE
1002
{
1002
}
  0
DIMENSION
  5
221
100
AcDbEntity
  8
SLD-0
100
AcDbDimension
370
-1
  1
4X <>
  3
SLDDIMSTYLE4
  2
*D40
 10
1.81322127832656
 20
3.80990365739832
 30
0
 11
0.876230174294328
 21
3.39561691812061
 31
0
 70
164
100
AcDbRadialDimension
 15
2.02113828488986
 25
4.02315786225665
 35
0
1001
ACAD
1000
DSTYLE
1002
{
1002
}
  0
INSERT
  5
27D
100
AcDbEntity
  8
SLD-0
100
AcDbBlockReference
370
-1
  6
BYLAYER
  2
SW_CENTERMARKSYMBOL_0
 10
2.32525277438956
 20
3.65251783062666
 30
0
 41
1
 42
1
 43
1
  0
LINE
  5
27E
100
AcDbEntity
  8
SLD-0
100
AcDbLine
  6
SLD-Center
 10
1.53473037086892
 20
4.99094696448493
 30
0
 11
6.13277932504197
 21
4.99094696448495
 31
0
  0
LINE
  5
27F
100
AcDbEntity
  8
SLD-0
100
AcDbLine
  6
SLD-Center
 10
3.83922127832657
 20
3.15837874223658
 30
0
 11
3.83922127832655
 21
6.79936773309759
 31
0
  0
LINE
  5
280
100
AcDbEntity
  8
0
100
AcDbLine
370
30
 62
7
  6
SLD-Solid
 10
8.50064793092548
 20
4.10774062069332
 30
0
 11
8.56314793017016
 21
4.10774062069332
 31
0
  0
LINE
  5
281
100
AcDbEntity
  8
0
100
AcDbLine
370
30
 62
7
  6
SLD-Solid
 10
8.50064793092548
 20
4.10774062069332
 30
0
 11
8.50064793092548
 21
4.18390366751797
 31
0
  0
LINE
  5
282
100
AcDbEntity
  8
0
100
AcDbLine
370
30
 62
7
  6
SLD-Solid
 10
8.56314793017016
 20
4.10774062069332
 30
0
 11
8.56314793017016
 21
4.18390366751797
 31
0
  0
LINE
  5
283
100
AcDbEntity
  8
0
100
AcDbLine
370
30
 62
7
  6
SLD-Solid
 10
8.50064793092548
 20
4.26721736507103
 30
0
 11
8.56314793017016
 21
4.26721736507103
 31
0
  0
LINE
  5
284
100
AcDbEntity
  8
0
100
AcDbLine
370
30
 62
7
  6
SLD-Solid
 10
8.50064793092548
 20
4.18390366751797
 30
0
 11
8.50064793092548
 21
4.26721736507103
 31
0
  0
LINE
  5
285
100
AcDbEntity
  8
0
100
AcDbLine
370
30
 62
7
  6
SLD-Solid
 10
8.56314793017016
 20
4.18390366751797
 30
0
 11
8.56314793017016
 21
4.26721736507103
 31
0
  0
LINE
  5
286
100
AcDbEntity
  8
0
100
AcDbLine
370
30
 62
7
  6
SLD-Solid
 10
8.50064793092548
 20
4.5336765635783
 30
0
 11
8.56314793017016
 21
4.5336765635783
 31
0
  0
LINE
  5
287
100
AcDbEntity
  8
0
100
AcDbLine
370
30
 62
7
  6
SLD-Solid
 10
8.50064793092548
 20
5.44821736539158
 30
0
 11
8.56314793017016
 21
5.44821736539158
 31
0
  0
LINE
  5
288
100
AcDbEntity
  8
0
100
AcDbLine
370
30
 62
7
  6
SLD-Solid
 10
8.50064793092548
 20
4.5336765635783
 30
0
 11
8.50064793092548
 21
5.44821736539158
 31
0
  0
LINE
  5
289
100
AcDbEntity
  8
0
100
AcDbLine
370
30
 62
7
  6
SLD-Solid
 10
8.56314793017016
 20
4.5336765635783
 30
0
 11
8.56314793017016
 21
5.44821736539158
 31
0
  0
LINE
  5
28A
100
AcDbEntity
  8
0
100
AcDbLine
370
30
 62
7
  6
SLD-Solid
 10
8.50064793092548
 20
5.71467656389885
 30
0
 11
8.56314793017016
 21
5.71467656389885
 31
0
  0
LINE
  5
28B
100
AcDbEntity
  8
0
100
AcDbLine
370
30
 62
7
  6
SLD-Solid
 10
8.50064793092548
 20
5.71467656389885
 30
0
 11
8.50064793092548
 21
5.7979902614519
 31
0
  0
LINE
  5
28C
100
AcDbEntity
  8
0
100
AcDbLine
370
30
 62
7
  6
SLD-Solid
 10
8.56314793017016
 20
5.71467656389885
 30
0
 11
8.56314793017016
 21
5.7979902614519
 31
0
  0
LINE
  5
28D
100
AcDbEntity
  8
0
100
AcDbLine
370
30
 62
7
  6
SLD-Solid
 10
8.50064793092548
 20
5.87415330827655
 30
0
 11
8.56314793017016
 21
5.87415330827655
 31
0
  0
LINE
  5
28E
100
AcDbEntity
  8
0
100
AcDbLine
370
30
 62
7
  6
SLD-Solid
 10
8.50064793092548
 20
5.7979902614519
 30
0
 11
8.50064793092548
 21
5.87415330827655
 31
0
  0
LINE
  5
28F
100
AcDbEntity
  8
0
100
AcDbLine
370
30
 62
7
  6
SLD-Solid
 10
8.56314793017016
 20
5.7979902614519
 30
0
 11
8.56314793017016
 21
5.87415330827655
 31
0
  0
LINE
  5
290
100
AcDbEntity
  8
0
100
AcDbLine
370
30
 62
7
  6
SLD-Solid
 10
8.50064793092548
 20
4.26721736507103
 30
0
 11
8.50064793092548
 21
4.5336765635783
 31
0
  0
LINE
  5
291
100
AcDbEntity
  8
0
100
AcDbLine
370
30
 62
7
  6
SLD-Solid
 10
8.56314793017016
 20
4.26721736507103
 30
0
 11
8.56314793017016
 21
4.5336765635783
 31
0
  0
LINE
  5
292
100
AcDbEntity
  8
0
100
AcDbLine
370
30
 62
7
  6
SLD-Solid
 10
8.50064793092548
 20
5.44821736539158
 30
0
 11
8.50064793092548
 21
5.71467656389885
 31
0
  0
LINE
  5
293
100
AcDbEntity
  8
0
100
AcDbLine
370
30
 62
7
  6
SLD-Solid
 10
8.56314793017016
 20
5.44821736539158
 30
0
 11
8.56314793017016
 21
5.71467656389885
 31
0
  0
LINE
  5
294
100
AcDbEntity
  8
0
100
AcDbLine
370
30
 62
7
  6
SLD-Solid
 10
8.50064793092548
 20
3.80990366133129
 30
0
 11
8.50064793092548
 21
4.10774062069332
 31
0
  0
LINE
  5
295
100
AcDbEntity
  8
0
100
AcDbLine
370
30
 62
7
  6
SLD-Solid
 10
8.56314793017016
 20
3.80990366133129
 30
0
 11
8.56314793017016
 21
4.10774062069332
 31
0
  0
LINE
  5
296
100
AcDbEntity
  8
0
100
AcDbLine
370
30
 62
7
  6
SLD-Solid
 10
8.50064793092548
 20
5.87415330827655
 30
0
 11
8.50064793092548
 21
6.17199026763858
 31
0
  0
LINE
  5
297
100
AcDbEntity
  8
0
100
AcDbLine
370
30
 62
7
  6
SLD-Solid
 10
8.56314793017016
 20
5.87415330827655
 30
0
 11
8.56314793017016
 21
6.17199026763858
 31
0
  0
LINE
  5
298
100
AcDbEntity
  8
0
100
AcDbLine
370
30
 62
7
  6
SLD-Solid
 10
8.50064793092548
 20
3.37928386255462
 30
0
 11
8.56314793017016
 21
3.37928386255462
 31
0
  0
LINE
  5
299
100
AcDbEntity
  8
0
100
AcDbLine
370
30
 62
7
  6
SLD-Solid
 10
8.50064793092548
 20
3.37928386255462
 30
0
 11
8.50064793092548
 21
3.45544698271176
 31
0
  0
LINE
  5
29A
100
AcDbEntity
  8
0
100
AcDbLine
370
30
 62
7
  6
SLD-Solid
 10
8.56314793017016
 20
3.37928386255462
 30
0
 11
8.56314793017016
 21
3.45544698271176
 31
0
  0
LINE
  5
29B
100
AcDbEntity
  8
0
100
AcDbLine
370
30
 62
7
  6
SLD-Solid
 10
8.50064793092548
 20
3.45544698271176
 30
0
 11
8.50064793092548
 21
3.80990366133129
 31
0
  0
LINE
  5
29C
100
AcDbEntity
  8
0
100
AcDbLine
370
30
 62
7
  6
SLD-Solid
 10
8.56314793017016
 20
3.45544698271176
 30
0
 11
8.56314793017016
 21
3.80990366133129
 31
0
  0
LINE
  5
29D
100
AcDbEntity
  8
0
100
AcDbLine
370
30
 62
7
  6
SLD-Solid
 10
8.50064793092548
 20
6.17199026763858
 30
0
 11
8.50064793092548
 21
6.52644694625812
 31
0
  0
LINE
  5
29E
100
AcDbEntity
  8
0
100
AcDbLine
370
30
 62
7
  6
SLD-Solid
 10
8.56314793017016
 20
6.17199026763858
 30
0
 11
8.56314793017016
 21
6.52644694625812
 31
0
  0
LINE
  5
29F
100
AcDbEntity
  8
0
100
AcDbLine
370
30
 62
7
  6
SLD-Solid
 10
8.50064793092548
 20
6.60261006641526
 30
0
 11
8.56314793017016
 21
6.60261006641526
 31
0
  0
LINE
  5
2A0
100
AcDbEntity
  8
0
100
AcDbLine
370
30
 62
7
  6
SLD-Solid
 10
8.50064793092548
 20
6.52644694625812
 30
0
 11
8.50064793092548
 21
6.60261006641526
 31
0
  0
LINE
  5
2A1
100
AcDbEntity
  8
0
100
AcDbLine
370
30
 62
7
  6
SLD-Solid
 10
8.56314793017016
 20
6.52644694625812
 30
0
 11
8.56314793017016
 21
6.60261006641526
 31
0
  0
LINE
  5
2A2
100
AcDbEntity
  8
0
100
AcDbLine
 62
7
  6
SLD-Dashed
 10
8.50064793092548
 20
3.44961983669411
 30
0
 11
8.56314793017016
 21
3.44961983669411
 31
0
  0
LINE
  5
2A3
100
AcDbEntity
  8
0
100
AcDbLine
 62
7
  6
SLD-Dashed
 10
8.50064793092548
 20
6.53227409227576
 30
0
 11
8.56314793017016
 21
6.53227409227576
 31
0
  0
LINE
  5
2A4
100
AcDbEntity
  8
0
100
AcDbLine
 62
7
  6
SLD-Dashed
 10
8.56314793017016
 20
3.72001783303338
 30
0
 11
8.50064793092548
 21
3.72001783303338
 31
0
  0
LINE
  5
2A5
100
AcDbEntity
  8
0
100
AcDbLine
 62
7
  6
SLD-Dashed
 10
8.50064793092548
 20
3.58501785923127
 30
0
 11
8.56314793017016
 21
3.58501785923127
 31
0
  0
LINE
  5
2A6
100
AcDbEntity
  8
0
100
AcDbLine
 62
7
  6
SLD-Dashed
 10
8.56314793017016
 20
6.39687606973861
 30
0
 11
8.50064793092548
 21
6.39687606973861
 31
0
  0
LINE
  5
2A7
100
AcDbEntity
  8
0
100
AcDbLine
 62
7
  6
SLD-Dashed
 10
8.50064793092548
 20
6.26187609593649
 30
0
 11
8.56314793017016
 21
6.26187609593649
 31
0
  0
DIMENSION
  5
2A8
100
AcDbEntity
  8
SLD-0
100
AcDbDimension
370
-1
  3
SLDDIMSTYLE5
  2
*D42
 10
8.50064793017015
 20
6.99631082081854
 30
0
 11
9.10570506658627
 21
6.99631082081854
 31
0
 70
160
 12
0
 22
0
 32
0
100
AcDbAlignedDimension
 13
8.56314793017015
 23
6.60261003341694
 33
0
 14
8.50064793017015
 24
6.60261003341694
 34
0
100
AcDbRotatedDimension
1001
ACAD
1000
DSTYLE
1002
{
1002
}
  0
INSERT
  5
51D
100
AcDbEntity
  8
0
100
AcDbBlockReference
370
-1
  6
BYLAYER
  2
ABViewer
 10
7.29656953878073
 20
0.427669135881055
 30
-0.0136564960629921
 41
2.10382519938239
 42
2.10382519938239
 43
1
  0
ENDSEC
  0
SECTION
  2
OBJECTS
  0
DICTIONARY
  5
51E
100
AcDbDictionary
  3
ACAD_GROUP
350
51F
  3
ACAD_MATERIAL
350
520
  3
ACAD_WIPEOUT_VARS
350
521
  3
ACAD_MLINESTYLE
350
522
  3
ACAD_IMAGE_VARS
350
523
  3
AcDbVariableDictionary
350
524
  3
ACAD_LAYOUT
350
525
  0
DICTIONARY
  5
51F
330
51E
100
AcDbDictionary
  0
DICTIONARY
  5
520
330
51E
100
AcDbDictionary
  0
WIPEOUTVARIABLES
  5
521
330
51E
100
AcDbWipeoutVariables
 70
1
  0
DICTIONARY
  5
522
330
51E
100
AcDbDictionary
  3
Standard
350
18
  0
MLINESTYLE
  5
18
330
522
100
AcDbMlineStyle
  2
Standard
 70
0
  3

 62
256
 51
90
 52
90
 71
2
 49
0.5
 62
256
  6
BYLAYER
 49
-0.5
 62
256
  6
BYLAYER
  0
DICTIONARY
  5
525
100
AcDbDictionary
281
1
  3
Model
350
22
  0
LAYOUT
  5
22
102
{ACAD_REACTORS
330
525
102
}
330
525
100
AcDbPlotSettings
  1

  2
none_device
  4

  6

 40
0
 41
0
 42
0
 43
0
 44
0
 45
0
 46
0
 47
0
 48
0
 49
0
 70
1712
 72
0
 73
0
 74
0
 75
0
 76
0
 77
0
 78
100
140
0
141
0
142
1
143
1
147
1
148
0
149
0
100
AcDbLayout
  1
Model
 70
1
 71
1
 10
0.329926999999998
 20
0.20416964911266
 11
10.7798908081711
 21
8.1920731707317
 12
0
 22
0
 32
0
 14
0.329926999999998
 24
0.20416964911266
 34
-0.0273129921259843
 15
10.7798908081711
 25
8.1920731707317
 35
0
146
0
 13
0
 23
0
 33
0
 16
1
 26
0
 36
0
 17
0
 27
1
 37
0
 76
0
330
1F
  0
RASTERVARIABLES
  5
523
330
51E
100
AcDbRasterVariables
 90
0
 70
1
 71
0
 72
0
  0
DICTIONARY
  5
524
100
AcDbDictionary
281
1
  0
DICTIONARY
  5
526
100
AcDbDictionary
280
1
  3
XINFO
360
527
  0
XRECORD
  5
527
102
{ACAD_REACTORS
330
526
102
}
330
526
100
AcDbXrecord
280
0
310
5900000001000E00
311
3A6D24F9A197EAD7
  0
ENDSEC
  0
EOF
