999
The file was created in CADSoftTools software
999
ABViewer 14; 
  0
SECTION
  2
HEADER
  9
$ACADVER
  1
AC1018
  9
$DWGCODEPAGE
  3
ANSI_1252
  9
$CLAYER
  8
0
  9
$CELTYPE
  6
BYLAYER
  9
$CELTSCALE
 40
1
  9
$CELWEIGHT
370
-1
  9
$DIMALT
 70
0
  9
$DIMALTF
 40
25.4
  9
$DIMPOST
  1

  9
$DIMAPOST
  1

  9
$DIMSCALE
 40
1
  9
$DIMASZ
 40
0.18
  9
$DIMCLRD
 70
1
  9
$DIMCLRE
 70
1
  9
$DIMCLRT
 70
4
  9
$DIMEXE
 40
0.1
  9
$DIMEXO
 40
0.0625
  9
$DIMGAP
 40
0.09
  9
$DIMLFAC
 40
1
  9
$DIMDEC
 70
3
  9
$DIMTAD
 70
0
  9
$DIMCEN
 40
0.03
  9
$DIMTIH
 70
1
  9
$DIMTIX
 70
0
  9
$DIMTOH
 70
1
  9
$DIMSE1
 70
0
  9
$DIMSE2
 70
0
  9
$DIMSD1
 70
0
  9
$DIMSD2
 70
0
  9
$DIMLWD
 70
-2
  9
$DIMLWE
 70
-2
  9
$DIMSAH
 70
0
  9
$DIMBLK
  1

  9
$DIMBLK1
  1

  9
$DIMBLK2
  1

  9
$DIMLDRBLK
  1

  9
$DIMSTYLE
  2
STANDARD
  9
$DIMTP
 40
0
  9
$DIMTM
 40
0
  9
$DIMTXT
 40
0.125
  9
$DIMLUNIT
 70
2
  9
$DIMDSEP
 70
46
  9
$DIMTXSTY
  7
STANDARD
  9
$TEXTSIZE
 40
0.1
  9
$TEXTSTYLE
  7
STANDARD
  9
$HANDSEED
  5
000000000000419B
  9
$FILLETRAD
 40
0.188
  9
$INSUNITS
 70
0
  9
$LIMMIN
 10
0.0399999999999991
 20
0.0399999999999956
  9
$LIMMAX
 10
16.06
 20
10.06
  9
$FILLMODE
 70
1
  9
$LTSCALE
 40
1
  9
$MEASUREMENT
 70
0
  9
$ATTMODE
 70
1
  9
$PDMODE
 70
34
  9
$PDSIZE
 40
0.005
  9
$TILEMODE
 70
1
  9
$UCSORG
 10
0
 20
0
 30
0
  9
$UCSXDIR
 10
1
 20
0
 30
0
  9
$UCSYDIR
 10
0
 20
1
 30
0
  9
$INSBASE
 10
0
 20
0
 30
0
  9
$XCLIPFRAME
290
1
  9
$DIMASSOC
280
2
  9
$TDCREATE
 40
2451815.72719398
  9
$TDINDWG
 40
0.10203556712963
  9
$TDUPDATE
 40
2459324.51693515
  0
ENDSEC
  0
SECTION
  2
CLASSES
  0
CLASS
  1
IMAGE
  2
AcDbRasterImage
  3
ISM
 90
2175
 91
1
280
0
281
1
  0
CLASS
  1
IMAGEDEF
  2
AcDbRasterImageDef
  3
ISM
 90
0
 91
1
280
0
281
0
  0
CLASS
  1
WIPEOUT
  2
AcDbWipeout
  3
"WipeOut"
 90
2175
 91
1
280
0
281
1
  0
CLASS
  1
WIPEOUTVARIABLES
  2
AcDbWipeoutVariables
  3
"WipeOut"
 90
0
 91
1
280
0
281
0
  0
CLASS
  1
MPOLYGON
  2
AcDbMPolygon
  3
"AcMPolygonObj15"
 90
3071
 91
1
280
0
281
1
  0
ENDSEC
  0
SECTION
  2
TABLES
  0
TABLE
  2
APPID
  5
416B
100
AcDbSymbolTable
  0
APPID
  5
11
100
AcDbSymbolTableRecord
100
AcDbRegAppTableRecord
  2
ACAD
 70
64
  0
APPID
  5
4153
100
AcDbSymbolTableRecord
100
AcDbRegAppTableRecord
  2
CSTINVENTORY
 70
0
  0
APPID
  5
416C
100
AcDbSymbolTableRecord
100
AcDbRegAppTableRecord
  2
AcDbAttr
 70
0
  0
APPID
  5
416D
100
AcDbSymbolTableRecord
100
AcDbRegAppTableRecord
  2
PE_URL
 70
0
  0
ENDTAB
  0
TABLE
  2
BLOCK_RECORD
  5
416E
100
AcDbSymbolTable
  0
BLOCK_RECORD
  5
19
100
AcDbSymbolTableRecord
100
AcDbBlockTableRecord
  2
*MODEL_SPACE
  0
BLOCK_RECORD
  5
16
100
AcDbSymbolTableRecord
100
AcDbBlockTableRecord
  2
*PAPER_SPACE
  0
BLOCK_RECORD
  5
2F94
100
AcDbSymbolTableRecord
100
AcDbBlockTableRecord
  2
CL
  0
BLOCK_RECORD
  5
2FAE
100
AcDbSymbolTableRecord
100
AcDbBlockTableRecord
  2
POLYCASELOGO
  0
BLOCK_RECORD
  5
3377
100
AcDbSymbolTableRecord
100
AcDbBlockTableRecord
  2
REVGRID
  0
BLOCK_RECORD
  5
3390
100
AcDbSymbolTableRecord
100
AcDbBlockTableRecord
  2
TITLEBLK
  0
BLOCK_RECORD
  5
3C30
100
AcDbSymbolTableRecord
100
AcDbBlockTableRecord
  2
*D4
  0
BLOCK_RECORD
  5
3C4A
100
AcDbSymbolTableRecord
100
AcDbBlockTableRecord
  2
*D5
  0
BLOCK_RECORD
  5
3C58
100
AcDbSymbolTableRecord
100
AcDbBlockTableRecord
  2
*D6
  0
BLOCK_RECORD
  5
3C66
100
AcDbSymbolTableRecord
100
AcDbBlockTableRecord
  2
*D7
  0
BLOCK_RECORD
  5
3C76
100
AcDbSymbolTableRecord
100
AcDbBlockTableRecord
  2
*D8
  0
BLOCK_RECORD
  5
3C84
100
AcDbSymbolTableRecord
100
AcDbBlockTableRecord
  2
*D9
  0
BLOCK_RECORD
  5
3D12
100
AcDbSymbolTableRecord
100
AcDbBlockTableRecord
  2
*D10
  0
BLOCK_RECORD
  5
3D20
100
AcDbSymbolTableRecord
100
AcDbBlockTableRecord
  2
*D11
  0
BLOCK_RECORD
  5
3D2E
100
AcDbSymbolTableRecord
100
AcDbBlockTableRecord
  2
*D12
  0
BLOCK_RECORD
  5
3D4D
100
AcDbSymbolTableRecord
100
AcDbBlockTableRecord
  2
*D13
  0
BLOCK_RECORD
  5
3D5B
100
AcDbSymbolTableRecord
100
AcDbBlockTableRecord
  2
*D14
  0
BLOCK_RECORD
  5
3D78
100
AcDbSymbolTableRecord
100
AcDbBlockTableRecord
  2
*D15
  0
BLOCK_RECORD
  5
3D86
100
AcDbSymbolTableRecord
100
AcDbBlockTableRecord
  2
*D16
  0
BLOCK_RECORD
  5
3DA5
100
AcDbSymbolTableRecord
100
AcDbBlockTableRecord
  2
*D17
  0
BLOCK_RECORD
  5
3DB4
100
AcDbSymbolTableRecord
100
AcDbBlockTableRecord
  2
*D18
  0
BLOCK_RECORD
  5
3F9A
100
AcDbSymbolTableRecord
100
AcDbBlockTableRecord
  2
*D19
  0
BLOCK_RECORD
  5
3FD8
100
AcDbSymbolTableRecord
100
AcDbBlockTableRecord
  2
_CLOSEDFILLED
  0
BLOCK_RECORD
  5
415B
100
AcDbSymbolTableRecord
100
AcDbBlockTableRecord
  2
ABViewer_RedLine
  0
BLOCK_RECORD
  5
416A
100
AcDbSymbolTableRecord
100
AcDbBlockTableRecord
  2
ABViewer
  0
ENDTAB
  0
TABLE
  2
STYLE
  5
3
100
AcDbSymbolTable
  0
STYLE
  5
10
100
AcDbSymbolTableRecord
100
AcDbTextStyleTableRecord
  2
STANDARD
 70
0
 40
0
 41
1
 50
0
 71
0
 42
0.100000001490116
  3
arial.ttf
  4

1001
ACAD
1000
Arial
1071
0
  0
STYLE
  5
67
100
AcDbSymbolTableRecord
100
AcDbTextStyleTableRecord
  2
ROMANS
 70
0
 40
0.125
 41
1
 50
0
 71
0
 42
0.125
  3
romab___.ttf
  4

1001
ACAD
1000

1071
33554432
  0
STYLE
  5
68
100
AcDbSymbolTableRecord
100
AcDbTextStyleTableRecord
  2
SANSSERIFBOLDOBLIQUE
 70
0
 40
0.125
 41
1.07500004768372
 50
0
 71
0
 42
1.20000004768372
  3
sasbo___.pfb
  4

1001
ACAD
1000

1071
0
  0
ENDTAB
  0
TABLE
  2
LTYPE
  5
5
100
AcDbSymbolTable
  0
LTYPE
  5
15
100
AcDbSymbolTableRecord
100
AcDbLinetypeTableRecord
  2
CONTINUOUS
 70
0
  3

 72
65
 73
0
 40
0
  0
LTYPE
  5
13
100
AcDbSymbolTableRecord
100
AcDbLinetypeTableRecord
  2
BYBLOCK
 70
0
  3

 72
65
 73
0
 40
0
  0
LTYPE
  5
14
100
AcDbSymbolTableRecord
100
AcDbLinetypeTableRecord
  2
BYLAYER
 70
0
  3

 72
65
 73
0
 40
0
  0
LTYPE
  5
65
100
AcDbSymbolTableRecord
100
AcDbLinetypeTableRecord
  2
CENTER2
 70
0
  3
_ _ 
 72
65
 73
4
 40
1.125
 49
0.75
 74
0
 49
-0.125
 74
0
 49
0.125
 74
0
 49
-0.125
 74
0
  0
LTYPE
  5
2E4C
100
AcDbSymbolTableRecord
100
AcDbLinetypeTableRecord
  2
HIDDEN2
 70
0
  3
_ 
 72
65
 73
2
 40
0.1875
 49
0.125
 74
0
 49
-0.0625
 74
0
  0
LTYPE
  5
415C
100
AcDbSymbolTableRecord
100
AcDbLinetypeTableRecord
  2
CENTER
 70
0
  3
_ _ 
 72
65
 73
4
 40
2
 49
1.25
 74
0
 49
-0.25
 74
0
 49
0.25
 74
0
 49
-0.25
 74
0
  0
LTYPE
  5
415D
100
AcDbSymbolTableRecord
100
AcDbLinetypeTableRecord
  2
ISO dash
 70
0
  3
_ 
 72
65
 73
2
 40
1.5
 49
1.2
 74
0
 49
-0.3
 74
0
  0
LTYPE
  5
415E
100
AcDbSymbolTableRecord
100
AcDbLinetypeTableRecord
  2
ISO dot
 70
0
  3
. 
 72
65
 73
2
 40
0.3
 49
0
 74
0
 49
-0.3
 74
0
  0
LTYPE
  5
415F
100
AcDbSymbolTableRecord
100
AcDbLinetypeTableRecord
  2
ISO dash dot
 70
0
  3
_ . 
 72
65
 73
4
 40
1.8
 49
1.2
 74
0
 49
-0.3
 74
0
 49
0
 74
0
 49
-0.3
 74
0
  0
LTYPE
  5
4160
100
AcDbSymbolTableRecord
100
AcDbLinetypeTableRecord
  2
ISO dash double-dot
 70
0
  3
_ . . 
 72
65
 73
6
 40
2.1
 49
1.2
 74
0
 49
-0.3
 74
0
 49
0
 74
0
 49
-0.3
 74
0
 49
0
 74
0
 49
-0.3
 74
0
  0
LTYPE
  5
4161
100
AcDbSymbolTableRecord
100
AcDbLinetypeTableRecord
  2
ISO dash triple-dot
 70
0
  3
_ . . . 
 72
65
 73
8
 40
2.4
 49
1.2
 74
0
 49
-0.3
 74
0
 49
0
 74
0
 49
-0.3
 74
0
 49
0
 74
0
 49
-0.3
 74
0
 49
0
 74
0
 49
-0.3
 74
0
  0
LTYPE
  5
4162
100
AcDbSymbolTableRecord
100
AcDbLinetypeTableRecord
  2
ISO dash long gaps
 70
0
  3
_ 
 72
65
 73
2
 40
3
 49
1.2
 74
0
 49
-1.8
 74
0
  0
ENDTAB
  0
TABLE
  2
LAYER
  5
2
100
AcDbSymbolTable
  0
LAYER
  5
F
100
AcDbSymbolTableRecord
100
AcDbLayerTableRecord
  2
0
 70
0
 62
7
  6
CONTINUOUS
290
1
370
-3
390
0
  0
LAYER
  5
3227
100
AcDbSymbolTableRecord
100
AcDbLayerTableRecord
  2
DEFPOINTS
 70
0
 62
7
  6
CONTINUOUS
290
0
370
-3
390
0
  0
LAYER
  5
33DB
100
AcDbSymbolTableRecord
100
AcDbLayerTableRecord
  2
LP-61
 70
0
 62
14
  6
CONTINUOUS
290
1
370
-3
390
0
  0
ENDTAB
  0
TABLE
  2
VPORT
  5
416F
100
AcDbSymbolTable
  0
VPORT
  5
4171
100
AcDbSymbolTableRecord
100
AcDbViewportTableRecord
  2
*ACTIVE
 70
0
 10
0
 20
0
 11
1
 21
1
 12
7.76118207497172
 22
5.96389683544731
 32
0
 13
0
 23
0
 14
1
 24
1
 15
1
 25
1
 16
0
 26
0
 36
1
 17
0
 27
0
 37
0
 40
8.11038808787612
 41
2.28933092224232
 42
50
 43
0
 44
0
 50
0
 51
0
 71
0
 72
100
 73
1
 74
1
 75
0
 76
0
 77
0
 78
0
  0
ENDTAB
  0
TABLE
  2
VIEW
  5
4172
100
AcDbSymbolTable
  0
ENDTAB
  0
TABLE
  2
UCS
  5
4173
100
AcDbSymbolTable
  0
ENDTAB
  0
TABLE
  2
DIMSTYLE
  5
A
100
AcDbSymbolTable
 70
1
100
AcDbDimStyleTable
 71
0
  0
DIMSTYLE
105
1D
100
AcDbSymbolTableRecord
100
AcDbDimStyleTableRecord
  2
STANDARD
 70
0
  3

 40
1
 41
0.18
 42
0.0625
 44
0.1
 47
0
 48
0
 73
1
 74
1
 75
0
 76
0
 77
0
140
0.125
141
0.03
144
1
147
0.09
173
0
174
0
176
1
177
1
178
4
277
2
278
46
281
0
282
0
271
3
340
10
371
-2
372
-2
  0
ENDTAB
  0
ENDSEC
  0
SECTION
  2
BLOCKS
  0
BLOCK
  5
4174
100
AcDbEntity
  8
0
100
AcDbBlockBegin
  2
*MODEL_SPACE
 70
0
 10
0
 20
0
  0
ENDBLK
  5
4175
100
AcDbEntity
  8
0
100
AcDbBlockEnd
  0
BLOCK
  5
4176
100
AcDbEntity
  8
0
100
AcDbBlockBegin
  2
*PAPER_SPACE
 70
0
 10
0
 20
0
  0
ENDBLK
  5
4177
100
AcDbEntity
  8
0
100
AcDbBlockEnd
  0
BLOCK
  5
2F97
100
AcDbEntity
  8
0
100
AcDbBlockBegin
  2
CL
 70
64
 10
0
 20
0
 30
0
  3
CL
  1

  0
TEXT
  5
2F95
100
AcDbEntity
  8
0
100
AcDbText
370
-1
 62
4
 10
-0.0446487846840817
 20
-0.000641941189321926
 30
0
 40
0.125
  1
C
 50
0
 41
1
 51
0
  7
STANDARD
 71
0
 72
0
 11
0
 21
0
 31
0
100
AcDbText
 73
0
  0
TEXT
  5
2F96
100
AcDbEntity
  8
0
100
AcDbText
370
-1
 62
4
 10
0.0023360547861877
 20
-0.065809302625766
 30
0
 40
0.125
  1
L
 50
0
 41
1
 51
0
  7
STANDARD
 71
0
 72
0
 11
0
 21
0
 31
0
100
AcDbText
 73
0
  0
ENDBLK
  5
4178
100
AcDbEntity
  8
0
100
AcDbBlockEnd
  0
BLOCK
  5
2FDD
100
AcDbEntity
  8
0
100
AcDbBlockBegin
  2
POLYCASELOGO
 70
64
 10
0
 20
0
 30
0
  3
POLYCASELOGO
  1

  0
TEXT
  5
2FAF
100
AcDbEntity
  8
0
100
AcDbText
370
-1
 62
5
 10
0.55437860092753
 20
0.259687557773574
 30
0
 40
0.256071446956374
  1
POLYCASE
 50
0
 41
1.07500004768372
 51
0
  7
SANSSERIFBOLDOBLIQUE
 71
0
 72
0
 11
0
 21
0
 31
0
100
AcDbText
 73
0
  0
LWPOLYLINE
  5
2FB0
100
AcDbEntity
  8
0
100
AcDbPolyline
370
-1
 62
5
  6
BYLAYER
 38
0
 90
2
 70
0
 43
0.0283704365880094
 10
0.565371182481597
 20
0.0874383236000913
 10
2.5153711824816
 20
0.0874383236000913
  0
TEXT
  5
2FB1
100
AcDbEntity
  8
0
100
AcDbText
370
-1
 62
5
 10
0.560515659983023
 20
0.132313978941076
 30
0
 40
0.075654497568025
  1
YOUR PERFECT FIT
 50
0
 41
1.79999995231628
 51
0
  7
ROMANS
 71
0
 72
0
 11
0
 21
0
 31
0
100
AcDbText
 73
0
  0
ARC
  5
2FB2
100
AcDbEntity
  8
0
100
AcDbCircle
370
-1
 62
5
  6
CONTINUOUS
 10
0.388743245837309
 20
0.377480018246063
 30
0
 40
0.031265452549206
100
AcDbArc
 50
266.77063318221
 51
34.9895392417837
  0
ARC
  5
2FB3
100
AcDbEntity
  8
0
100
AcDbCircle
370
-1
 62
5
  6
CONTINUOUS
 10
0.416855386687077
 20
0.37012360675042
 30
0
 40
0.037429262845715
100
AcDbArc
 50
284.508381471348
 51
357.553205837306
  0
HATCH
  5
2FB4
100
AcDbEntity
  8
0
100
AcDbHatch
370
-1
 62
5
 10
0
 20
0
 30
0
210
0
220
0
230
1
  2
ANSI37
 70
0
 71
0
 91
1
 92
1
 93
11
 72
2
 10
0.293173015176171
 20
0.294583859786737
 40
0.15887671699609
 50
44.8945221443723
 51
75.7210164269389
 73
1
 72
1
 10
0.332358933538771
 20
0.448552281891841
 11
0.326592922265334
 21
0.466885240812528
 72
2
 10
0.296966688964295
 20
0.283708725664111
 40
0.185556862986864
 50
279.187232202563
 51
321.211415301309
 73
0
 72
2
 10
0.391360930001218
 20
0.361469514068697
 40
0.0632842065627896
 50
322.550137386427
 51
353.59822043822
 73
0
 72
2
 10
0.416855386687079
 20
0.370123606750418
 40
0.037429262845715
 50
2.44679416269443
 51
75.4916185286524
 73
0
 72
2
 10
0.384239737636181
 20
0.451177177154813
 40
0.12457984453079
 50
70.3013609867947
 51
93.4897107908676
 73
0
 72
2
 10
0.378510658383288
 20
0.54422579368889
 40
0.217405363848219
 50
90.4886177031712
 51
92.0851875139451
 73
0
 72
1
 10
0.370600287157966
 20
0.326964388333375
 11
0.364796648547317
 21
0.345416982890306
 72
2
 10
0.368138231815232
 20
0.548807497579617
 40
0.203417962934248
 50
269.058749643597
 51
275.315245111676
 73
1
 72
2
 10
0.388743245837309
 20
0.377480018246061
 40
0.031265452549206
 50
266.77063318221
 51
394.989539241784
 73
1
 72
2
 10
0.362440616900416
 20
0.364725498726969
 40
0.060306102378538
 50
30.5830763204751
 51
44.1348985484438
 73
1
 97
0
 75
0
 76
1
 52
0
 41
0.0453750276742311
 77
0
 78
2
 53
45
 43
-3.28946721545791
 44
-3.00127764802876
 45
-0.00401062372062201
 46
0.00401062372062201
 79
0
 53
135
 43
-3.28946721545791
 44
-3.00127764802876
 45
-0.00401062372062201
 46
-0.00401062372062201
 79
0
 98
0
  0
HATCH
  5
2FB5
100
AcDbEntity
  8
0
100
AcDbHatch
370
-1
 62
5
 10
0
 20
0
 30
0
210
0
220
0
230
1
  2
ANSI37
 70
0
 71
0
 91
1
 92
1
 93
4
 72
2
 10
0.368138231815232
 20
0.548807497579617
 40
0.203417962934248
 50
241.272553888067
 51
261.697864276423
 73
1
 72
1
 10
0.338766084424035
 20
0.347521272015252
 11
0.344431530206007
 21
0.329508059785395
 72
2
 10
0.378510658383288
 20
0.54422579368889
 40
0.217405363848219
 50
99.0185280917996
 51
114.185417794988
 73
0
 72
1
 10
0.289441663732722
 20
0.345903312810114
 11
0.270366686289043
 21
0.370427026311773
 97
0
 75
0
 76
1
 52
0
 41
0.0453750276742311
 77
0
 78
2
 53
45
 43
-3.28946721545791
 44
-3.00127764802876
 45
-0.00401062372062201
 46
0.00401062372062201
 79
0
 53
135
 43
-3.28946721545791
 44
-3.00127764802876
 45
-0.00401062372062201
 46
-0.00401062372062201
 79
0
 98
0
  0
ARC
  5
2FB6
100
AcDbEntity
  8
0
100
AcDbCircle
370
-1
 62
5
  6
BYLAYER
 10
-1.00428210226392
 20
-0.757961875977971
 30
0
 40
1.68409394075274
100
AcDbArc
 50
34.1844741169297
 51
41.3025482504007
  0
ARC
  5
2FB7
100
AcDbEntity
  8
0
100
AcDbCircle
370
-1
 62
5
  6
CONTINUOUS
 10
0.378510658383288
 20
0.544225793688893
 30
0
 40
0.217405363848219
100
AcDbArc
 50
245.814582205012
 51
260.9814719082
  0
HATCH
  5
2FB8
100
AcDbEntity
  8
0
100
AcDbHatch
370
-1
 62
5
 10
0
 20
0
 30
0
210
0
220
0
230
1
  2
ANSI37
 70
0
 71
0
 91
1
 92
33
 93
10
 72
1
 10
0.344431530206007
 20
0.329508059785395
 11
0.370600287157965
 21
0.326964388333376
 72
1
 10
0.370600287157966
 20
0.326964388333375
 11
0.438757152087033
 21
0.110260510097361
 72
2
 10
-1.00428210226392
 20
-0.757961875977973
 40
1.68409394075274
 50
328.961407243523
 51
331.832095730524
 73
0
 72
1
 10
0.480361267766286
 20
0.0370264667701803
 11
0.41986123086731
 21
0.0755952402932767
 72
2
 10
-1.13904507603075
 20
-0.741793883133662
 40
1.76020278740355
 50
27.6695951618572
 51
28.0594249481762
 73
1
 72
1
 10
0.414263828581825
 20
0.0861827467505973
 11
0.401120116118054
 21
0.110382761510188
 72
2
 10
-1.13904507603075
 20
-0.741793883133662
 40
1.76020278740355
 50
28.9558477935631
 51
37.6534878701684
 73
1
 72
1
 10
0.254542153127181
 20
0.333486772096
 11
0.260867837046719
 21
0.353599203019662
 72
2
 10
-1.00428210226392
 20
-0.757961875977973
 40
1.68409394075274
 50
318.697451749599
 51
325.81552588307
 73
0
 72
1
 10
0.388855738137691
 20
0.188261860207735
 11
0.344431530206007
 21
0.329508059785395
 97
0
 75
0
 76
1
 52
0
 41
0.0453750276742311
 77
0
 78
2
 53
45
 43
-3.28946721545791
 44
-3.00127764802876
 45
-0.00401062372062201
 46
0.00401062372062201
 79
0
 53
135
 43
-3.28946721545791
 44
-3.00127764802876
 45
-0.00401062372062201
 46
-0.00401062372062201
 79
0
 98
0
  0
HATCH
  5
2FB9
100
AcDbEntity
  8
0
100
AcDbHatch
370
-1
 62
5
 10
0
 20
0
 30
0
210
0
220
0
230
1
  2
ANSI37
 70
0
 71
0
 91
1
 92
1
 93
6
 72
1
 10
0.18437234334616
 20
0.110382761510188
 11
0.401120116118054
 21
0.110382761510188
 72
1
 10
0.401120116118054
 20
0.110382761510188
 11
0.414263828581825
 21
0.0861827467505973
 72
1
 10
0.414263828581825
 20
0.0861827467505965
 11
0.151392317128108
 21
0.0861827467505973
 72
1
 10
0.15139231712811
 20
0.0861827467505965
 11
0.236430326617777
 21
0.356560007692098
 72
1
 10
0.236430326617777
 20
0.356560007692099
 11
0.254542153127183
 21
0.333486772096
 72
1
 10
0.254542153127181
 20
0.333486772096
 11
0.184372343346158
 21
0.110382761510187
 97
0
 75
0
 76
1
 52
0
 41
0.0453750276742311
 77
0
 78
2
 53
45
 43
-3.28946721545791
 44
-3.00127764802876
 45
-0.00401062372062201
 46
0.00401062372062201
 79
0
 53
135
 43
-3.28946721545791
 44
-3.00127764802876
 45
-0.00401062372062201
 46
-0.00401062372062201
 79
0
 98
0
  0
LINE
  5
2FBA
100
AcDbEntity
  8
0
100
AcDbLine
370
-1
 62
5
  6
BYLAYER
 10
0.236430326617775
 20
0.356560007692101
 30
0
 11
0.15139231712811
 21
0.0861827467505982
 31
0
  0
HATCH
  5
2FBB
100
AcDbEntity
  8
0
100
AcDbHatch
370
-1
 62
5
 10
0
 20
0
 30
0
210
0
220
0
230
1
  2
ANSI37
 70
0
 71
0
 91
1
 92
1
 93
14
 72
1
 10
0.298861157069361
 20
0.555058032717652
 11
0.326592922265329
 21
0.466885240812527
 72
1
 10
0.326592922265332
 20
0.466885240812527
 11
0.332358933538769
 21
0.448552281891839
 72
1
 10
0.332358933538771
 20
0.448552281891841
 11
0.364796648547317
 21
0.345416982890306
 72
1
 10
0.364796648547317
 20
0.345416982890306
 11
0.370600287157965
 21
0.326964388333375
 72
1
 10
0.370600287157966
 20
0.326964388333375
 11
0.344431530206007
 21
0.329508059785394
 72
1
 10
0.344431530206007
 20
0.329508059785395
 11
0.338766084424035
 21
0.347521272015252
 72
1
 10
0.338766084424035
 20
0.347521272015252
 11
0.298861157069362
 21
0.474398476937804
 72
1
 10
0.298861157069361
 20
0.474398476937806
 11
0.260867837046719
 21
0.353599203019664
 72
1
 10
0.260867837046721
 20
0.353599203019662
 11
0.254542153127181
 21
0.333486772096
 72
1
 10
0.254542153127181
 20
0.333486772096
 11
0.236430326617775
 21
0.3565600076921
 72
1
 10
0.236430326617777
 20
0.356560007692099
 11
0.242103905929854
 21
0.374599080376649
 72
1
 10
0.242103905929854
 20
0.374599080376649
 11
0.268936890366026
 21
0.459914210378842
 72
1
 10
0.268936890366025
 20
0.459914210378843
 11
0.273936762313545
 21
0.475811239135059
 72
1
 10
0.273936762313545
 20
0.475811239135059
 11
0.298861157069362
 21
0.555058032717652
 97
0
 75
0
 76
1
 52
0
 41
0.0453750276742311
 77
0
 78
2
 53
45
 43
-3.28946721545791
 44
-3.00127764802876
 45
-0.00401062372062201
 46
0.00401062372062201
 79
0
 53
135
 43
-3.28946721545791
 44
-3.00127764802876
 45
-0.00401062372062201
 46
-0.00401062372062201
 79
0
 98
0
  0
LINE
  5
2FBC
100
AcDbEntity
  8
0
100
AcDbLine
370
-1
 62
5
  6
BYLAYER
 10
0.18437234334616
 20
0.11038276151019
 30
0
 11
0.401120116118054
 21
0.11038276151019
 31
0
  0
LINE
  5
2FBD
100
AcDbEntity
  8
0
100
AcDbLine
370
-1
 62
5
  6
BYLAYER
 10
0.15139231712811
 20
0.0861827467505982
 30
0
 11
0.414263828581825
 21
0.0861827467505982
 31
0
  0
ARC
  5
2FBE
100
AcDbEntity
  8
0
100
AcDbCircle
370
-1
 62
5
  6
BYLAYER
 10
-1.13904507603075
 20
-0.74179388313366
 30
0
 40
1.76020278740355
100
AcDbArc
 50
28.9558477935631
 51
37.6534878701684
  0
LINE
  5
2FBF
100
AcDbEntity
  8
0
100
AcDbLine
370
-1
 62
5
  6
BYLAYER
 10
0.254542153127181
 20
0.333486772096002
 30
0
 11
0.18437234334616
 21
0.11038276151019
 31
0
  0
LINE
  5
2FC0
100
AcDbEntity
  8
0
100
AcDbLine
370
-1
 62
5
  6
BYLAYER
 10
0.370600287157965
 20
0.326964388333375
 30
0
 11
0.438757152087033
 21
0.110260510097362
 31
0
  0
LINE
  5
2FC1
100
AcDbEntity
  8
0
100
AcDbLine
370
-1
 62
5
  6
BYLAYER
 10
0.41986123086731
 20
0.0755952402932785
 30
0
 11
0.480361267766286
 21
0.0370264667701807
 31
0
  0
LINE
  5
2FC2
100
AcDbEntity
  8
0
100
AcDbLine
370
-1
 62
5
  6
BYLAYER
 10
0.401120116118053
 20
0.11038276151019
 30
0
 11
0.414263828581825
 21
0.0861827467505982
 31
0
  0
ARC
  5
2FC3
100
AcDbEntity
  8
0
100
AcDbCircle
370
-1
 62
5
  6
BYLAYER
 10
-1.13904507603075
 20
-0.74179388313366
 30
0
 40
1.76020278740355
100
AcDbArc
 50
27.6695951618572
 51
28.0594249481762
  0
ARC
  5
2FC4
100
AcDbEntity
  8
0
100
AcDbCircle
370
-1
 62
5
  6
BYLAYER
 10
-1.00428210226392
 20
-0.757961875977971
 30
0
 40
1.68409394075274
100
AcDbArc
 50
28.1679042694759
 51
31.0385927564772
  0
ARC
  5
2FC5
100
AcDbEntity
  8
0
100
AcDbCircle
370
-1
 62
5
  6
CONTINUOUS
 10
0.378510658383288
 20
0.544225793688893
 30
0
 40
0.217405363848219
100
AcDbArc
 50
267.914812486055
 51
269.511382296829
  0
ARC
  5
2FC6
100
AcDbEntity
  8
0
100
AcDbCircle
370
-1
 62
5
  6
CONTINUOUS
 10
0.384239737636181
 20
0.451177177154813
 30
0
 40
0.12457984453079
100
AcDbArc
 50
266.510289209132
 51
289.698639013205
  0
LINE
  5
2FC7
100
AcDbEntity
  8
0
100
AcDbLine
370
-1
 62
5
  6
BYLAYER
 10
0.344431530206007
 20
0.329508059785395
 30
0
 11
0.388855738137691
 21
0.188261860207737
 31
0
  0
HATCH
  5
2FC8
100
AcDbEntity
  8
0
100
AcDbHatch
370
-1
 62
5
 10
0
 20
0
 30
0
210
0
220
0
230
1
  2
ANSI37
 70
0
 71
0
 91
1
 92
1
 93
3
 72
1
 10
0.242103905929854
 20
0.374599080376649
 11
0.236430326617777
 21
0.356560007692099
 72
2
 10
-1.13904507603075
 20
-0.741793883133662
 40
1.76020278740355
 50
38.6083008163922
 51
47.2021467969613
 73
1
 72
2
 10
-1.00428210226392
 20
-0.757961875977973
 40
1.68409394075274
 50
309.057304441787
 51
317.739331834531
 73
0
 97
0
 75
0
 76
1
 52
0
 41
0.0453750276742311
 77
0
 78
2
 53
45
 43
-3.28946721545791
 44
-3.00127764802876
 45
-0.00401062372062201
 46
0.00401062372062201
 79
0
 53
135
 43
-3.28946721545791
 44
-3.00127764802876
 45
-0.00401062372062201
 46
-0.00401062372062201
 79
0
 98
0
  0
ARC
  5
2FC9
100
AcDbEntity
  8
0
100
AcDbCircle
370
-1
 62
5
  6
BYLAYER
 10
-1.13904507603075
 20
-0.74179388313366
 30
0
 40
1.76020278740355
100
AcDbArc
 50
38.6083008163922
 51
47.2021467969613
  0
ARC
  5
2FCA
100
AcDbEntity
  8
0
100
AcDbCircle
370
-1
 62
5
  6
BYLAYER
 10
-1.00428210226392
 20
-0.757961875977971
 30
0
 40
1.68409394075274
100
AcDbArc
 50
42.2606681654687
 51
50.9426955582131
  0
ARC
  5
2FCB
100
AcDbEntity
  8
0
100
AcDbCircle
370
-1
 62
5
  6
CONTINUOUS
 10
0.368138231815232
 20
0.548807497579618
 30
0
 40
0.203417962934248
100
AcDbArc
 50
241.272553888067
 51
261.697864276423
  0
ARC
  5
2FCC
100
AcDbEntity
  8
0
100
AcDbCircle
370
-1
 62
5
  6
CONTINUOUS
 10
0.296966688964293
 20
0.283708725664113
 30
0
 40
0.185556862986864
100
AcDbArc
 50
38.7885846986909
 51
80.8127677974371
  0
LINE
  5
2FCD
100
AcDbEntity
  8
0
100
AcDbLine
370
-1
 62
5
  6
BYLAYER
 10
0.298861157069361
 20
0.474398476937806
 30
0
 11
0.338766084424035
 21
0.347521272015252
 31
0
  0
LINE
  5
2FCE
100
AcDbEntity
  8
0
100
AcDbLine
370
-1
 62
5
  6
BYLAYER
 10
0.298861157069361
 20
0.555058032717655
 30
0
 11
0.326592922265329
 21
0.466885240812529
 31
0
  0
LINE
  5
2FCF
100
AcDbEntity
  8
0
100
AcDbLine
370
-1
 62
5
  6
BYLAYER
 10
0.298861157069361
 20
0.555058032717655
 30
0
 11
0.273936762313545
 21
0.47581123913506
 31
0
  0
HATCH
  5
2FD0
100
AcDbEntity
  8
0
100
AcDbHatch
370
-1
 62
5
 10
0
 20
0
 30
0
210
0
220
0
230
1
  2
ANSI37
 70
0
 71
0
 91
1
 92
1
 93
4
 72
1
 10
0.273936762313545
 20
0.475811239135059
 11
0.268936890366025
 21
0.459914210378843
 72
2
 10
0.261484399686907
 20
0.400151077729051
 40
0.0602260046943093
 50
82.8918820987646
 51
145.876092922075
 73
1
 72
1
 10
0.211627727137364
 20
0.433936930444746
 11
0.19017607968455
 21
0.455397380379077
 72
2
 10
0.257853804694369
 20
0.359754333317444
 40
0.117165980189384
 50
234.716493737007
 51
277.889697938738
 73
0
 97
0
 75
0
 76
1
 52
0
 41
0.0453750276742311
 77
0
 78
2
 53
45
 43
-3.28946721545791
 44
-3.00127764802876
 45
-0.00401062372062201
 46
0.00401062372062201
 79
0
 53
135
 43
-3.28946721545791
 44
-3.00127764802876
 45
-0.00401062372062201
 46
-0.00401062372062201
 79
0
 98
0
  0
ARC
  5
2FD1
100
AcDbEntity
  8
0
100
AcDbCircle
370
-1
 62
5
  6
CONTINUOUS
 10
0.257853804694369
 20
0.359754333317445
 30
0
 40
0.117165980189384
100
AcDbArc
 50
82.1103020612617
 51
125.283506262993
  0
ARC
  5
2FD2
100
AcDbEntity
  8
0
100
AcDbCircle
370
-1
 62
5
  6
CONTINUOUS
 10
0.261484399686905
 20
0.400151077729054
 30
0
 40
0.0602260046943093
100
AcDbArc
 50
82.8918820987646
 51
145.876092922075
  0
LINE
  5
2FD3
100
AcDbEntity
  8
0
100
AcDbLine
370
-1
 62
5
  6
CONTINUOUS
 10
0.211627727137362
 20
0.43393693044475
 30
0
 11
0.190176079684548
 21
0.455397380379077
 31
0
  0
LINE
  5
2FD4
100
AcDbEntity
  8
0
100
AcDbLine
370
-1
 62
5
  6
BYLAYER
 10
0.268936890366026
 20
0.459914210378843
 30
0
 11
0.242103905929854
 21
0.374599080376651
 31
0
  0
LINE
  5
2FD5
100
AcDbEntity
  8
0
100
AcDbLine
370
-1
 62
5
  6
CONTINUOUS
 10
0.270366686289041
 20
0.370427026311772
 30
0
 11
0.28944166373272
 21
0.345903312810114
 31
0
  0
LINE
  5
2FD6
100
AcDbEntity
  8
0
100
AcDbLine
370
-1
 62
5
  6
BYLAYER
 10
0.298861157069361
 20
0.474398476937806
 30
0
 11
0.260867837046719
 21
0.353599203019664
 31
0
  0
LINE
  5
2FD7
100
AcDbEntity
  8
0
100
AcDbLine
370
-1
 62
5
  6
BYLAYER
 10
0.332358933538769
 20
0.448552281891841
 30
0
 11
0.364796648547317
 21
0.345416982890306
 31
0
  0
ARC
  5
2FD8
100
AcDbEntity
  8
0
100
AcDbCircle
370
-1
 62
5
  6
CONTINUOUS
 10
0.368138231815232
 20
0.548807497579618
 30
0
 40
0.203417962934248
100
AcDbArc
 50
269.058749643597
 51
275.315245111676
  0
ARC
  5
2FD9
100
AcDbEntity
  8
0
100
AcDbCircle
370
-1
 62
5
  6
CONTINUOUS
 10
0.362440616900416
 20
0.364725498726971
 30
0
 40
0.060306102378538
100
AcDbArc
 50
30.5830763204751
 51
44.1348985484438
  0
ARC
  5
2FDA
100
AcDbEntity
  8
0
100
AcDbCircle
370
-1
 62
5
  6
CONTINUOUS
 10
0.293173015176167
 20
0.294583859786739
 30
0
 40
0.15887671699609
100
AcDbArc
 50
44.8945221443723
 51
75.7210164269389
  0
ARC
  5
2FDB
100
AcDbEntity
  8
0
100
AcDbCircle
370
-1
 62
5
  6
CONTINUOUS
 10
0.391360930001218
 20
0.361469514068697
 30
0
 40
0.0632842065627896
100
AcDbArc
 50
6.40177956177961
 51
37.4498626135726
  0
TEXT
  5
2FDC
100
AcDbEntity
  8
0
100
AcDbText
370
-1
 62
5
 10
2.60822145752656
 20
0.541230537446628
 30
0
 40
0.0283704365880094
  1
TM
 50
0
 41
1.39999997615814
 51
0
  7
ROMANS
 71
0
 72
0
 11
0
 21
0
 31
0
100
AcDbText
 73
0
  0
ENDBLK
  5
4179
100
AcDbEntity
  8
0
100
AcDbBlockEnd
  0
BLOCK
  5
3384
100
AcDbEntity
  8
0
100
AcDbBlockBegin
  2
REVGRID
 70
64
 10
0
 20
0
 30
0
  3
REVGRID
  1

  0
LINE
  5
3378
100
AcDbEntity
  8
0
100
AcDbLine
370
-1
 62
14
  6
BYLAYER
 10
-3.56949721301203
 20
0.600000000000002
 30
0
 11
0
 21
0.599999999999994
 31
0
  0
LINE
  5
3379
100
AcDbEntity
  8
0
100
AcDbLine
370
-1
 62
14
  6
BYLAYER
 10
-3.56949721301203
 20
0.400000000000002
 30
0
 11
0
 21
0.399999999999996
 31
0
  0
LINE
  5
337A
100
AcDbEntity
  8
0
100
AcDbLine
370
-1
 62
14
  6
BYLAYER
 10
-3.56949721301203
 20
0.800000000000001
 30
0
 11
8.88178419700125E-16
 21
0.799999999999993
 31
0
  0
LINE
  5
337B
100
AcDbEntity
  8
0
100
AcDbLine
370
-1
 62
14
  6
BYLAYER
 10
-3.56949721301203
 20
1
 30
0
 11
1.77635683940025E-15
 21
0.999999999999993
 31
0
  0
LWPOLYLINE
  5
337C
100
AcDbEntity
  8
0
100
AcDbPolyline
370
-1
 62
14
  6
BYLAYER
 38
0
 90
2
 70
0
 43
0.02
 10
-3.56949721301203
 20
1.2
 10
0
 20
1.19999999999999
  0
TEXT
  5
337D
100
AcDbEntity
  8
0
100
AcDbText
370
-1
 62
4
 10
-2.33905965698351
 20
0.0487971290527129
 30
0
 40
0.09
  1
DESCRIPTION
 50
0
 41
1
 51
0
  7
STANDARD
 71
0
 72
1
 11
-1.90974860650602
 21
0.0487971290527129
 31
0
100
AcDbText
 73
0
  0
LWPOLYLINE
  5
337E
100
AcDbEntity
  8
0
100
AcDbPolyline
370
-1
 62
14
  6
BYLAYER
 38
0
 90
2
 70
0
 43
0.02
 10
-3.56949721301203
 20
0.200000000000003
 10
0
 20
0.199999999999995
  0
LWPOLYLINE
  5
337F
100
AcDbEntity
  8
0
100
AcDbPolyline
370
-1
 62
14
  6
BYLAYER
 38
0
 90
2
 70
0
 43
0.02
 10
-3.56949721301203
 20
0
 10
-3.56949721301203
 20
1.2
  0
TEXT
  5
3380
100
AcDbEntity
  8
0
100
AcDbText
370
-1
 62
4
 10
-3.54235789278088
 20
0.0487971290527129
 30
0
 40
0.09
  1
REV
 50
0
 41
1
 51
0
  7
STANDARD
 71
0
 72
1
 11
-3.41650523248075
 21
0.0487971290527129
 31
0
100
AcDbText
 73
0
  0
LWPOLYLINE
  5
3381
100
AcDbEntity
  8
0
100
AcDbPolyline
370
-1
 62
14
  6
BYLAYER
 38
0
 90
2
 70
0
 10
-3.26949721301203
 20
5.55111512312578E-17
 10
-3.26949721301203
 20
1.2
  0
LWPOLYLINE
  5
3382
100
AcDbEntity
  8
0
100
AcDbPolyline
370
-1
 62
14
  6
BYLAYER
 38
0
 90
2
 70
0
 10
-0.550000000000001
 20
5.55111512312578E-17
 10
-0.550000000000001
 20
1.2
  0
TEXT
  5
3383
100
AcDbEntity
  8
0
100
AcDbText
370
-1
 62
4
 10
-0.433283599277718
 20
0.0487971290527057
 30
0
 40
0.09
  1
DATE
 50
0
 41
1
 51
0
  7
STANDARD
 71
0
 72
1
 11
-0.272008019468714
 21
0.0487971290527057
 31
0
100
AcDbText
 73
0
  0
ENDBLK
  5
417A
100
AcDbEntity
  8
0
100
AcDbBlockEnd
  0
BLOCK
  5
33BD
100
AcDbEntity
  8
0
100
AcDbBlockBegin
  2
TITLEBLK
 70
66
 10
0
 20
0
 30
0
  3
TITLEBLK
  1

  0
ATTDEF
  5
3391
100
AcDbEntity
  8
0
100
AcDbText
370
-1
 62
4
 10
-2.2431941978822
 20
0.93
 30
0
 40
0.09
  1
M.M.T.
 50
0
 41
1
 51
0
  7
STANDARD
 71
0
 72
1
 11
-2.04846022789584
 21
0.975
 31
0
100
AcDbAttributeDefinition
  3
DRWN_BY
  2
DRWN_BY
 70
4
 74
2
1001
AcDbAttr
1070
0
1070
0
  0
ATTDEF
  5
3392
100
AcDbEntity
  8
0
100
AcDbText
370
-1
 62
4
 10
-1.37900765934527
 20
0.93
 30
0
 40
0.09
  1

 50
0
 41
1
 51
0
  7
STANDARD
 71
0
 72
1
 11
-1.37900765934527
 21
0.975
 31
0
100
AcDbAttributeDefinition
  3
APPRV_BY
  2
APPRV_BY
 70
4
 74
2
1001
AcDbAttr
1070
0
1070
0
  0
ATTDEF
  5
3393
100
AcDbEntity
  8
0
100
AcDbText
370
-1
 62
4
 10
-0.955061669515428
 20
0.93
 30
0
 40
0.09
  1
FULL
 50
0
 41
1
 51
0
  7
STANDARD
 71
0
 72
1
 11
-0.806279268424023
 21
0.975
 31
0
100
AcDbAttributeDefinition
  3
SCALE
  2
SCALE
 70
4
 74
2
1001
AcDbAttr
1070
0
1070
0
  0
ATTDEF
  5
3394
100
AcDbEntity
  8
0
100
AcDbText
370
-1
 62
4
 10
-0.543920786497102
 20
0.93
 30
0
 40
0.09
  1
mm/dd/yy
 50
0
 41
1
 51
0
  7
STANDARD
 71
0
 72
1
 11
-0.275731836974591
 21
0.975
 31
0
100
AcDbAttributeDefinition
  3
DATE
  2
DATE
 70
4
 74
2
1001
AcDbAttr
1070
0
1070
0
  0
ATTDEF
  5
3395
100
AcDbEntity
  8
0
100
AcDbText
370
-1
 62
4
 10
-1.82096521145976
 20
0.63
 30
0
 40
0.09
  1
-
 50
0
 41
1
 51
0
  7
STANDARD
 71
0
 72
1
 11
-1.8
 21
0.675
 31
0
100
AcDbAttributeDefinition
  3
JOB_NUMBER
  2
JOB_NUMBER
 70
4
 74
2
1001
AcDbAttr
1070
0
1070
0
  0
ATTDEF
  5
3396
100
AcDbEntity
  8
0
100
AcDbText
370
-1
 62
4
 10
-0.620965211459756
 20
0.63
 30
0
 40
0.09
  1
-
 50
0
 41
1
 51
0
  7
STANDARD
 71
0
 72
1
 11
-0.600000000000001
 21
0.675
 31
0
100
AcDbAttributeDefinition
  3
PRODUCT
  2
PRODUCT
 70
4
 74
2
1001
AcDbAttr
1070
0
1070
0
  0
ATTDEF
  5
3397
100
AcDbEntity
  8
0
100
AcDbText
370
-1
 62
4
 10
-1.82096521145976
 20
0.48
 30
0
 40
0.09
  1
-
 50
0
 41
1
 51
0
  7
STANDARD
 71
0
 72
1
 11
-1.8
 21
0.525
 31
0
100
AcDbAttributeDefinition
  3
JOB_NUMBER
  2
JOB_NUMBER
 70
4
 74
2
1001
AcDbAttr
1070
0
1070
0
  0
ATTDEF
  5
3398
100
AcDbEntity
  8
0
100
AcDbText
370
-1
 62
4
 10
-0.620965211459756
 20
0.48
 30
0
 40
0.09
  1
-
 50
0
 41
1
 51
0
  7
STANDARD
 71
0
 72
1
 11
-0.600000000000001
 21
0.525
 31
0
100
AcDbAttributeDefinition
  3
PRODUCT
  2
PRODUCT
 70
4
 74
2
1001
AcDbAttr
1070
0
1070
0
  0
ATTDEF
  5
3399
100
AcDbEntity
  8
0
100
AcDbText
370
-1
 62
4
 10
-2.34270889408835
 20
0.196599716710878
 30
0
 40
0.09
  1

 50
0
 41
1
 51
0
  7
STANDARD
 71
0
 72
0
 11
0
 21
0
 31
0
100
AcDbAttributeDefinition
  3
CUSTOMER_NAME
  2
CUSTOMER_NAME
 70
4
 74
0
1001
AcDbAttr
1070
0
1070
0
  0
ATTDEF
  5
339A
100
AcDbEntity
  8
0
100
AcDbText
370
-1
 62
4
 10
-1.94011507192214
 20
0.0273723706496532
 30
0
 40
0.09
  1
Secondary Operations Drawing
 50
0
 41
1
 51
0
  7
STANDARD
 71
0
 72
0
 11
0
 21
0
 31
0
100
AcDbAttributeDefinition
  3
DRAWING_TITLE
  2
DRAWING_TITLE
 70
4
 74
0
1001
AcDbAttr
1070
0
1070
0
  0
INSERT
  5
339B
100
AcDbEntity
  8
0
100
AcDbBlockReference
370
-1
  6
BYLAYER
  2
POLYCASELOGO
 10
-7.33050278698797
 20
0.6
 30
0
 41
1
 42
1
 43
1
  0
LWPOLYLINE
  5
339C
100
AcDbEntity
  8
0
100
AcDbPolyline
370
-1
 62
14
  6
BYLAYER
 38
0
 90
2
 70
0
 43
0.02
 10
-7.33050278698797
 20
0.6
 10
-2.4
 20
0.6
  0
LWPOLYLINE
  5
339D
100
AcDbEntity
  8
0
100
AcDbPolyline
370
-1
 62
14
  6
BYLAYER
 38
0
 90
2
 70
0
 43
0.02
 10
-7.33050278698797
 20
1.2
 40
0.02
 41
0.02
 10
-1.77635683940025E-15
 20
1.2
 40
0.02
 41
0.02
  0
TEXT
  5
339E
100
AcDbEntity
  8
0
100
AcDbText
370
-1
 62
4
 10
-7.28088840174298
 20
0.330352153415919
 30
0
 40
0.09
  1
OTHERWISE SPECIFIED
 50
0
 41
1
 51
0
  7
STANDARD
 71
0
 72
1
 11
-6.55118853816863
 21
0.330352153415919
 31
0
100
AcDbText
 73
0
  0
LWPOLYLINE
  5
339F
100
AcDbEntity
  8
0
100
AcDbPolyline
370
-1
 62
14
  6
BYLAYER
 38
0
 90
2
 70
0
 43
0.02
 10
-7.33050278698797
 20
-4.85722573273506E-17
 10
-7.33050278698797
 20
1.2
  0
TEXT
  5
33A0
100
AcDbEntity
  8
0
100
AcDbText
370
-1
 62
4
 10
-5.72866319720194
 20
0.0382015110144847
 30
0
 40
0.09
  1
WAY DETRIMENTAL TO THE INTEREST OF POLYCASE
 50
0
 41
1
 51
0
  7
STANDARD
 71
0
 72
0
 11
0
 21
0
 31
0
100
AcDbText
 73
0
  0
TEXT
  5
33A1
100
AcDbEntity
  8
0
100
AcDbText
370
-1
 62
4
 10
-5.72866319720194
 20
0.327355671996749
 30
0
 40
0.09
  1
ARE THE PROPERTY OF POLYCASE AND IT IS NOT
 50
0
 41
1
 51
0
  7
STANDARD
 71
0
 72
0
 11
0
 21
0
 31
0
100
AcDbText
 73
0
  0
TEXT
  5
33A2
100
AcDbEntity
  8
0
100
AcDbText
370
-1
 62
4
 10
-5.72866319720194
 20
0.471932752487881
 30
0
 40
0.09
  1
THIS DRAWING AND THE INFORMATION CONTAINED
 50
0
 41
1
 51
0
  7
STANDARD
 71
0
 72
0
 11
0
 21
0
 31
0
100
AcDbText
 73
0
  0
TEXT
  5
33A3
100
AcDbEntity
  8
0
100
AcDbText
370
-1
 62
4
 10
-4.404237797125
 20
0.924022563635504
 30
0
 40
0.09
  1
AVON, OHIO 44011-1083 U.S.A.
 50
0
 41
1
 51
0
  7
STANDARD
 71
0
 72
1
 11
-3.47599768798448
 21
0.924022563635504
 31
0
100
AcDbText
 73
0
  0
TEXT
  5
33A4
100
AcDbEntity
  8
0
100
AcDbText
370
-1
 62
4
 10
-4.50099086670208
 20
0.779445483144371
 30
0
 40
0.09
  1
PH#: 1-800-248-1233, 440-934-0444
 50
0
 41
1
 51
0
  7
STANDARD
 71
0
 72
1
 11
-3.47599768798448
 21
0.779445483144371
 31
0
100
AcDbText
 73
0
  0
TEXT
  5
33A5
100
AcDbEntity
  8
0
100
AcDbText
370
-1
 62
4
 10
-4.40724598266388
 20
1.06859964412664
 30
0
 40
0.09
  1
1305 CHESTER IND. PARKWAY
 50
0
 41
1
 51
0
  7
STANDARD
 71
0
 72
1
 11
-3.47599768798448
 21
1.06859964412664
 31
0
100
AcDbText
 73
0
  0
TEXT
  5
33A6
100
AcDbEntity
  8
0
100
AcDbText
370
-1
 62
4
 10
-5.72866319720194
 20
0.182778591505617
 30
0
 40
0.09
  1
TO BE REPRODUCED, COPIED OR USED IN ANY
 50
0
 41
1
 51
0
  7
STANDARD
 71
0
 72
0
 11
0
 21
0
 31
0
100
AcDbText
 73
0
  0
TEXT
  5
33A7
100
AcDbEntity
  8
0
100
AcDbText
370
-1
 62
4
 10
-6.96266534580847
 20
0.0411979924336537
 30
0
 40
0.09
  1
X.XXX=±0.005
 50
0
 41
1
 51
0
  7
STANDARD
 71
0
 72
1
 11
-6.55118853816863
 21
0.0411979924336537
 31
0
100
AcDbText
 73
0
  0
LWPOLYLINE
  5
33A8
100
AcDbEntity
  8
0
100
AcDbPolyline
370
-1
 62
14
  6
BYLAYER
 38
0
 90
2
 70
0
 43
0.02
 10
-5.77559494829334
 20
-4.85722573273506E-17
 10
-5.77559494829334
 20
0.6
  0
TEXT
  5
33A9
100
AcDbEntity
  8
0
100
AcDbText
370
-1
 62
4
 10
-7.24457530488077
 20
0.474929233907051
 30
0
 40
0.09
  1
TOLERANCES UNLESS
 50
0
 41
1
 51
0
  7
STANDARD
 71
0
 72
1
 11
-6.55118853816863
 21
0.474929233907051
 31
0
100
AcDbText
 73
0
  0
TEXT
  5
33AA
100
AcDbEntity
  8
0
100
AcDbText
370
-1
 62
4
 10
-6.92024379055608
 20
0.185775072924786
 30
0
 40
0.09
  1
X.XX=±0.010
 50
0
 41
1
 51
0
  7
STANDARD
 71
0
 72
1
 11
-6.55118853816863
 21
0.185775072924786
 31
0
100
AcDbText
 73
0
  0
TEXT
  5
33AB
100
AcDbEntity
  8
0
100
AcDbText
370
-1
 62
4
 10
-4.05418322686579
 20
0.634868402653238
 30
0
 40
0.09
  1
FAX#: 440-934-0088
 50
0
 41
1
 51
0
  7
STANDARD
 71
0
 72
1
 11
-3.47599768798448
 21
0.634868402653238
 31
0
100
AcDbText
 73
0
  0
LWPOLYLINE
  5
33AC
100
AcDbEntity
  8
0
100
AcDbPolyline
370
-1
 62
14
  6
BYLAYER
 38
0
 90
2
 70
0
 43
0.02
 10
-4.5485967196432
 20
0.6
 10
-4.5485967196432
 20
1.2
  0
LWPOLYLINE
  5
33AD
100
AcDbEntity
  8
0
100
AcDbPolyline
370
-1
 62
14
  6
BYLAYER
 38
0
 90
2
 70
0
 43
0.02
 10
-2.4
 20
0.45
 10
-1.77635683940025E-15
 20
0.45
  0
LWPOLYLINE
  5
33AE
100
AcDbEntity
  8
0
100
AcDbPolyline
370
-1
 62
14
  6
BYLAYER
 38
0
 90
2
 70
0
 43
0.02
 10
-2.4
 20
0.9
 10
-1.77635683940025E-15
 20
0.9
  0
LWPOLYLINE
  5
33AF
100
AcDbEntity
  8
0
100
AcDbPolyline
370
-1
 62
14
  6
BYLAYER
 38
0
 90
2
 70
0
 43
0.02
 10
-2.4
 20
0.149999999999999
 10
-1.77635683940025E-15
 20
0.149999999999999
  0
TEXT
  5
33B0
100
AcDbEntity
  8
0
100
AcDbText
370
-1
 62
4
 10
-0.437160015611479
 20
1.0657031656057
 30
0
 40
0.09
  1
DATE:
 50
0
 41
1
 51
0
  7
STANDARD
 71
0
 72
1
 11
-0.252678433073962
 21
1.0657031656057
 31
0
100
AcDbText
 73
0
  0
TEXT
  5
33B1
100
AcDbEntity
  8
0
100
AcDbText
370
-1
 62
4
 10
-2.34638583507366
 20
0.0273723706496532
 30
0
 40
0.09
  1
TITLE:
 50
0
 41
1
 51
0
  7
STANDARD
 71
0
 72
0
 11
0
 21
0
 31
0
100
AcDbText
 73
0
  0
LWPOLYLINE
  5
33B2
100
AcDbEntity
  8
0
100
AcDbPolyline
370
-1
 62
14
  6
BYLAYER
 38
0
 90
2
 70
0
 43
0.02
 10
-2.4
 20
-4.85722573273506E-17
 10
-2.4
 20
1.2
  0
TEXT
  5
33B3
100
AcDbEntity
  8
0
100
AcDbText
370
-1
 62
4
 10
-1.621022441785
 20
1.0657031656057
 30
0
 40
0.09
  1
APP. BY
 50
0
 41
1
 51
0
  7
STANDARD
 71
0
 72
0
 11
0
 21
0
 31
0
100
AcDbText
 73
0
  0
TEXT
  5
33B4
100
AcDbEntity
  8
0
100
AcDbText
370
-1
 62
4
 10
-2.34638583507366
 20
0.315703165605705
 30
0
 40
0.09
  1
CUSTOMER:
 50
0
 41
1
 51
0
  7
STANDARD
 71
0
 72
0
 11
0
 21
0
 31
0
100
AcDbText
 73
0
  0
TEXT
  5
33B5
100
AcDbEntity
  8
0
100
AcDbText
370
-1
 62
4
 10
-2.3487701406266
 20
0.765703165605704
 30
0
 40
0.09
  1
JOB NO:
 50
0
 41
1
 51
0
  7
STANDARD
 71
0
 72
0
 11
0
 21
0
 31
0
100
AcDbText
 73
0
  0
TEXT
  5
33B6
100
AcDbEntity
  8
0
100
AcDbText
370
-1
 62
4
 10
-2.34753878399991
 20
1.0657031656057
 30
0
 40
0.09
  1
DRWN BY
 50
0
 41
1
 51
0
  7
STANDARD
 71
0
 72
0
 11
0
 21
0
 31
0
100
AcDbText
 73
0
  0
LWPOLYLINE
  5
33B7
100
AcDbEntity
  8
0
100
AcDbPolyline
370
-1
 62
14
  6
BYLAYER
 38
0
 90
2
 70
0
 43
0.02
 10
-1.69692045579169
 20
0.9
 10
-1.69692045579169
 20
1.2
  0
LWPOLYLINE
  5
33B8
100
AcDbEntity
  8
0
100
AcDbPolyline
370
-1
 62
14
  6
BYLAYER
 38
0
 90
2
 70
0
 43
0.02
 10
-1.2
 20
0.45
 10
-1.2
 20
0.9
  0
TEXT
  5
33B9
100
AcDbEntity
  8
0
100
AcDbText
370
-1
 62
4
 10
-1.1487701406266
 20
0.765703165605704
 30
0
 40
0.09
  1
PRODUCT:
 50
0
 41
1
 51
0
  7
STANDARD
 71
0
 72
0
 11
0
 21
0
 31
0
100
AcDbText
 73
0
  0
TEXT
  5
33BA
100
AcDbEntity
  8
0
100
AcDbText
370
-1
 62
4
 10
-1.0326701378861
 20
1.0657031656057
 30
0
 40
0.09
  1
SCALE:
 50
0
 41
1
 51
0
  7
STANDARD
 71
0
 72
1
 11
-0.803863862306288
 21
1.0657031656057
 31
0
100
AcDbText
 73
0
  0
LWPOLYLINE
  5
33BB
100
AcDbEntity
  8
0
100
AcDbPolyline
370
-1
 62
14
  6
BYLAYER
 38
0
 90
2
 70
0
 43
0.02
 10
-1.06109486289886
 20
0.9
 10
-1.06109486289886
 20
1.2
  0
LWPOLYLINE
  5
33BC
100
AcDbEntity
  8
0
100
AcDbPolyline
370
-1
 62
14
  6
BYLAYER
 38
0
 90
2
 70
0
 43
0.02
 10
-0.551463673949181
 20
0.9
 10
-0.551463673949181
 20
1.2
  0
ENDBLK
  5
417B
100
AcDbEntity
  8
0
100
AcDbBlockEnd
  0
BLOCK
  5
3CCF
100
AcDbEntity
  8
0
100
AcDbBlockBegin
  2
*D4
 70
65
 10
0
 20
0
 30
0
  3
*D4
  1

  0
LINE
  5
3CD0
100
AcDbEntity
  8
0
100
AcDbLine
370
-1
 62
1
  6
BYBLOCK
 10
4.52607495679096
 20
5.76814227943595
 30
0
 11
4.52607495679096
 21
4.71814227943595
 31
0
  0
LINE
  5
3CD1
100
AcDbEntity
  8
0
100
AcDbLine
370
-1
 62
1
  6
BYBLOCK
 10
8.90607495679096
 20
5.76814227943595
 30
0
 11
8.90607495679096
 21
4.71814227943595
 31
0
  0
LINE
  5
3CD2
100
AcDbEntity
  8
0
100
AcDbLine
370
-1
 62
1
  6
BYBLOCK
 10
4.70607495679096
 20
4.81814227943595
 30
0
 11
6.00427243291647
 21
4.81814227943595
 31
0
  0
LINE
  5
3CD3
100
AcDbEntity
  8
0
100
AcDbLine
370
-1
 62
1
  6
BYBLOCK
 10
8.72607495679096
 20
4.81814227943595
 30
0
 11
7.42787748066545
 21
4.81814227943595
 31
0
  0
SOLID
  5
3CD4
100
AcDbEntity
  8
0
100
AcDbTrace
370
-1
 62
1
  6
BYBLOCK
 10
4.70607495679096
 20
4.84814227943595
 30
0
 11
4.70607495679096
 21
4.78814227943595
 31
0
 12
4.52607495679096
 22
4.81814227943595
 32
0
 13
4.52607495679096
 23
4.81814227943595
 33
0
  0
SOLID
  5
3CD5
100
AcDbEntity
  8
0
100
AcDbTrace
370
-1
 62
1
  6
BYBLOCK
 10
8.72607495679096
 20
4.84814227943595
 30
0
 11
8.72607495679096
 21
4.78814227943595
 31
0
 12
8.90607495679096
 22
4.81814227943595
 32
0
 13
8.90607495679096
 23
4.81814227943595
 33
0
  0
MTEXT
  5
3CD6
100
AcDbEntity
  8
0
100
AcDbMText
370
-1
 62
4
 10
6.71607495679096
 20
4.81814227943595
 30
0
 40
0.125
  1
\A1;4.380 (2 PLCS.)
 50
0
 41
0
  7
STANDARD
 71
5
 11
1
 21
0
 31
0
 73
1
 44
1
  0
POINT
  5
3CD7
100
AcDbEntity
  8
DEFPOINTS
100
AcDbPoint
370
-1
 62
0
  6
BYBLOCK
 10
4.52607495679096
 20
5.83064227943595
 30
0
  0
POINT
  5
3CD8
100
AcDbEntity
  8
DEFPOINTS
100
AcDbPoint
370
-1
 62
0
  6
BYBLOCK
 10
8.90607495679096
 20
5.83064227943595
 30
0
  0
POINT
  5
3CD9
100
AcDbEntity
  8
DEFPOINTS
100
AcDbPoint
370
-1
 62
0
  6
BYBLOCK
 10
8.90607495679096
 20
4.81814227943595
 30
0
  0
ENDBLK
  5
417C
100
AcDbEntity
  8
0
100
AcDbBlockEnd
  0
BLOCK
  5
3C4B
100
AcDbEntity
  8
0
100
AcDbBlockBegin
  2
*D5
 70
65
 10
0
 20
0
 30
0
  3
*D5
  1

  0
LINE
  5
3C4C
100
AcDbEntity
  8
0
100
AcDbLine
370
-1
 62
1
  6
BYBLOCK
 10
3.71607495679096
 20
7.08064227943595
 30
0
 11
3.71607495679096
 21
4.31814227943595
 31
0
  0
LINE
  5
3C4D
100
AcDbEntity
  8
0
100
AcDbLine
370
-1
 62
1
  6
BYBLOCK
 10
9.71607495679096
 20
7.08064227943595
 30
0
 11
9.71607495679096
 21
4.31814227943595
 31
0
  0
LINE
  5
3C4E
100
AcDbEntity
  8
0
100
AcDbLine
370
-1
 62
1
  6
BYBLOCK
 10
3.89607495679096
 20
4.41814227943595
 30
0
 11
6.4150415325072
 21
4.41814227943595
 31
0
  0
LINE
  5
3C4F
100
AcDbEntity
  8
0
100
AcDbLine
370
-1
 62
1
  6
BYBLOCK
 10
9.53607495679096
 20
4.41814227943595
 30
0
 11
7.01710838107473
 21
4.41814227943595
 31
0
  0
SOLID
  5
3C50
100
AcDbEntity
  8
0
100
AcDbTrace
370
-1
 62
1
  6
BYBLOCK
 10
3.89607495679096
 20
4.44814227943595
 30
0
 11
3.89607495679096
 21
4.38814227943595
 31
0
 12
3.71607495679096
 22
4.41814227943595
 32
0
 13
3.71607495679096
 23
4.41814227943595
 33
0
  0
SOLID
  5
3C51
100
AcDbEntity
  8
0
100
AcDbTrace
370
-1
 62
1
  6
BYBLOCK
 10
9.53607495679096
 20
4.44814227943595
 30
0
 11
9.53607495679096
 21
4.38814227943595
 31
0
 12
9.71607495679096
 22
4.41814227943595
 32
0
 13
9.71607495679096
 23
4.41814227943595
 33
0
  0
MTEXT
  5
3C52
100
AcDbEntity
  8
0
100
AcDbMText
370
-1
 62
4
 10
6.71607495679096
 20
4.41814227943595
 30
0
 40
0.125
  1
\A1;6.000
 50
0
 41
0
  7
STANDARD
 71
5
 11
1
 21
0
 31
0
 73
1
 44
1
  0
POINT
  5
3C53
100
AcDbEntity
  8
DEFPOINTS
100
AcDbPoint
370
-1
 62
0
  6
BYBLOCK
 10
3.71607495679096
 20
7.14314227943595
 30
0
  0
POINT
  5
3C54
100
AcDbEntity
  8
DEFPOINTS
100
AcDbPoint
370
-1
 62
0
  6
BYBLOCK
 10
9.71607495679096
 20
7.14314227943595
 30
0
  0
POINT
  5
3C55
100
AcDbEntity
  8
DEFPOINTS
100
AcDbPoint
370
-1
 62
0
  6
BYBLOCK
 10
9.71607495679096
 20
4.41814227943595
 30
0
  0
ENDBLK
  5
417D
100
AcDbEntity
  8
0
100
AcDbBlockEnd
  0
BLOCK
  5
3C59
100
AcDbEntity
  8
0
100
AcDbBlockBegin
  2
*D6
 70
65
 10
0
 20
0
 30
0
  3
*D6
  1

  0
LINE
  5
3C5A
100
AcDbEntity
  8
0
100
AcDbLine
370
-1
 62
1
  6
BYBLOCK
 10
9.96607495679096
 20
5.88252496370574
 30
0
 11
9.96607495679096
 21
3.91814227943595
 31
0
  0
LINE
  5
3C5B
100
AcDbEntity
  8
0
100
AcDbLine
370
-1
 62
1
  6
BYBLOCK
 10
3.46607495679096
 20
5.88252496370574
 30
0
 11
3.46607495679096
 21
3.91814227943595
 31
0
  0
LINE
  5
3C5C
100
AcDbEntity
  8
0
100
AcDbLine
370
-1
 62
1
  6
BYBLOCK
 10
9.78607495679096
 20
4.01814227943595
 30
0
 11
7.01710838107473
 21
4.01814227943595
 31
0
  0
LINE
  5
3C5D
100
AcDbEntity
  8
0
100
AcDbLine
370
-1
 62
1
  6
BYBLOCK
 10
3.64607495679096
 20
4.01814227943595
 30
0
 11
6.4150415325072
 21
4.01814227943595
 31
0
  0
SOLID
  5
3C5E
100
AcDbEntity
  8
0
100
AcDbTrace
370
-1
 62
1
  6
BYBLOCK
 10
9.78607495679096
 20
4.04814227943595
 30
0
 11
9.78607495679096
 21
3.98814227943595
 31
0
 12
9.96607495679096
 22
4.01814227943595
 32
0
 13
9.96607495679096
 23
4.01814227943595
 33
0
  0
SOLID
  5
3C5F
100
AcDbEntity
  8
0
100
AcDbTrace
370
-1
 62
1
  6
BYBLOCK
 10
3.64607495679096
 20
4.04814227943595
 30
0
 11
3.64607495679096
 21
3.98814227943595
 31
0
 12
3.46607495679096
 22
4.01814227943595
 32
0
 13
3.46607495679096
 23
4.01814227943595
 33
0
  0
MTEXT
  5
3C60
100
AcDbEntity
  8
0
100
AcDbMText
370
-1
 62
4
 10
6.71607495679096
 20
4.01814227943595
 30
0
 40
0.125
  1
\A1;6.500
 50
0
 41
0
  7
STANDARD
 71
5
 11
1
 21
0
 31
0
 73
1
 44
1
  0
POINT
  5
3C61
100
AcDbEntity
  8
DEFPOINTS
100
AcDbPoint
370
-1
 62
0
  6
BYBLOCK
 10
9.96607495679096
 20
5.94502496370574
 30
0
  0
POINT
  5
3C62
100
AcDbEntity
  8
DEFPOINTS
100
AcDbPoint
370
-1
 62
0
  6
BYBLOCK
 10
3.46607495679096
 20
5.94502496370574
 30
0
  0
POINT
  5
3C63
100
AcDbEntity
  8
DEFPOINTS
100
AcDbPoint
370
-1
 62
0
  6
BYBLOCK
 10
3.46607495679096
 20
4.01814227943595
 30
0
  0
ENDBLK
  5
417E
100
AcDbEntity
  8
0
100
AcDbBlockEnd
  0
BLOCK
  5
3CC3
100
AcDbEntity
  8
0
100
AcDbBlockBegin
  2
*D7
 70
65
 10
0
 20
0
 30
0
  3
*D7
  1

  0
LINE
  5
3CC4
100
AcDbEntity
  8
0
100
AcDbLine
370
-1
 62
1
  6
BYBLOCK
 10
4.26607495679096
 20
8.78064227943595
 30
0
 11
4.26607495679096
 21
9.56814227943595
 31
0
  0
LINE
  5
3CC5
100
AcDbEntity
  8
0
100
AcDbLine
370
-1
 62
1
  6
BYBLOCK
 10
9.16607495679096
 20
8.78064227943595
 30
0
 11
9.16607495679096
 21
9.56814227943595
 31
0
  0
LINE
  5
3CC6
100
AcDbEntity
  8
0
100
AcDbLine
370
-1
 62
1
  6
BYBLOCK
 10
4.44607495679096
 20
9.46814227943595
 30
0
 11
6.00427243291647
 21
9.46814227943595
 31
0
  0
LINE
  5
3CC7
100
AcDbEntity
  8
0
100
AcDbLine
370
-1
 62
1
  6
BYBLOCK
 10
8.98607495679096
 20
9.46814227943595
 30
0
 11
7.42787748066545
 21
9.46814227943595
 31
0
  0
SOLID
  5
3CC8
100
AcDbEntity
  8
0
100
AcDbTrace
370
-1
 62
1
  6
BYBLOCK
 10
4.44607495679096
 20
9.49814227943595
 30
0
 11
4.44607495679096
 21
9.43814227943595
 31
0
 12
4.26607495679096
 22
9.46814227943595
 32
0
 13
4.26607495679096
 23
9.46814227943595
 33
0
  0
SOLID
  5
3CC9
100
AcDbEntity
  8
0
100
AcDbTrace
370
-1
 62
1
  6
BYBLOCK
 10
8.98607495679096
 20
9.49814227943595
 30
0
 11
8.98607495679096
 21
9.43814227943595
 31
0
 12
9.16607495679096
 22
9.46814227943595
 32
0
 13
9.16607495679096
 23
9.46814227943595
 33
0
  0
MTEXT
  5
3CCA
100
AcDbEntity
  8
0
100
AcDbMText
370
-1
 62
4
 10
6.71607495679096
 20
9.46814227943595
 30
0
 40
0.125
  1
\A1;4.900 (2 PLCS.)
 50
0
 41
0
  7
STANDARD
 71
5
 11
1
 21
0
 31
0
 73
1
 44
1
  0
POINT
  5
3CCB
100
AcDbEntity
  8
DEFPOINTS
100
AcDbPoint
370
-1
 62
0
  6
BYBLOCK
 10
4.26607495679096
 20
8.71814227943595
 30
0
  0
POINT
  5
3CCC
100
AcDbEntity
  8
DEFPOINTS
100
AcDbPoint
370
-1
 62
0
  6
BYBLOCK
 10
9.16607495679096
 20
8.71814227943595
 30
0
  0
POINT
  5
3CCD
100
AcDbEntity
  8
DEFPOINTS
100
AcDbPoint
370
-1
 62
0
  6
BYBLOCK
 10
9.16607495679096
 20
9.46814227943595
 30
0
  0
ENDBLK
  5
417F
100
AcDbEntity
  8
0
100
AcDbBlockEnd
  0
BLOCK
  5
3CB7
100
AcDbEntity
  8
0
100
AcDbBlockBegin
  2
*D8
 70
65
 10
0
 20
0
 30
0
  3
*D8
  1

  0
LINE
  5
3CB8
100
AcDbEntity
  8
0
100
AcDbLine
370
-1
 62
1
  6
BYBLOCK
 10
4.20357495679096
 20
8.71814227943595
 30
0
 11
2.68813167082325
 21
8.71814227943595
 31
0
  0
LINE
  5
3CB9
100
AcDbEntity
  8
0
100
AcDbLine
370
-1
 62
1
  6
BYBLOCK
 10
4.20357495679096
 20
5.56814227943595
 30
0
 11
2.68813167082325
 21
5.56814227943595
 31
0
  0
LINE
  5
3CBA
100
AcDbEntity
  8
0
100
AcDbLine
370
-1
 62
1
  6
BYBLOCK
 10
2.78813167082325
 20
8.53814227943595
 30
0
 11
2.78813167082325
 21
7.42196390290116
 31
0
  0
LINE
  5
3CBB
100
AcDbEntity
  8
0
100
AcDbLine
370
-1
 62
1
  6
BYBLOCK
 10
2.78813167082325
 20
5.74814227943595
 30
0
 11
2.78813167082325
 21
6.86432065597073
 31
0
  0
SOLID
  5
3CBC
100
AcDbEntity
  8
0
100
AcDbTrace
370
-1
 62
1
  6
BYBLOCK
 10
2.75813167082325
 20
8.53814227943595
 30
0
 11
2.81813167082325
 21
8.53814227943595
 31
0
 12
2.78813167082325
 22
8.71814227943595
 32
0
 13
2.78813167082325
 23
8.71814227943595
 33
0
  0
SOLID
  5
3CBD
100
AcDbEntity
  8
0
100
AcDbTrace
370
-1
 62
1
  6
BYBLOCK
 10
2.75813167082325
 20
5.74814227943595
 30
0
 11
2.81813167082325
 21
5.74814227943595
 31
0
 12
2.78813167082325
 22
5.56814227943595
 32
0
 13
2.78813167082325
 23
5.56814227943595
 33
0
  0
MTEXT
  5
3CBE
100
AcDbEntity
  8
0
100
AcDbMText
370
-1
 62
4
 10
2.78813167082325
 20
7.14314227943595
 30
0
 40
0.125
  1
\A1;3.150\P(2 PLCS.)
 50
0
 41
0
  7
STANDARD
 71
5
 11
1
 21
0
 31
0
 73
1
 44
1
  0
POINT
  5
3CBF
100
AcDbEntity
  8
DEFPOINTS
100
AcDbPoint
370
-1
 62
0
  6
BYBLOCK
 10
4.26607495679096
 20
8.71814227943595
 30
0
  0
POINT
  5
3CC0
100
AcDbEntity
  8
DEFPOINTS
100
AcDbPoint
370
-1
 62
0
  6
BYBLOCK
 10
4.26607495679096
 20
5.56814227943595
 30
0
  0
POINT
  5
3CC1
100
AcDbEntity
  8
DEFPOINTS
100
AcDbPoint
370
-1
 62
0
  6
BYBLOCK
 10
2.78813167082325
 20
5.56814227943595
 30
0
  0
ENDBLK
  5
4180
100
AcDbEntity
  8
0
100
AcDbBlockEnd
  0
BLOCK
  5
3C9F
100
AcDbEntity
  8
0
100
AcDbBlockBegin
  2
*D9
 70
65
 10
0
 20
0
 30
0
  3
*D9
  1

  0
LINE
  5
3CA0
100
AcDbEntity
  8
0
100
AcDbLine
370
-1
 62
1
  6
BYBLOCK
 10
8.96857495679096
 20
8.45564227943595
 30
0
 11
10.66669159409
 21
8.45564227943595
 31
0
  0
LINE
  5
3CA1
100
AcDbEntity
  8
0
100
AcDbLine
370
-1
 62
1
  6
BYBLOCK
 10
8.96857495679096
 20
5.83064227943595
 30
0
 11
10.66669159409
 21
5.83064227943595
 31
0
  0
LINE
  5
3CA2
100
AcDbEntity
  8
0
100
AcDbLine
370
-1
 62
1
  6
BYBLOCK
 10
10.56669159409
 20
8.27564227943595
 30
0
 11
10.56669159409
 21
7.42196390290116
 31
0
  0
LINE
  5
3CA3
100
AcDbEntity
  8
0
100
AcDbLine
370
-1
 62
1
  6
BYBLOCK
 10
10.56669159409
 20
6.01064227943595
 30
0
 11
10.56669159409
 21
6.86432065597073
 31
0
  0
SOLID
  5
3CA4
100
AcDbEntity
  8
0
100
AcDbTrace
370
-1
 62
1
  6
BYBLOCK
 10
10.53669159409
 20
8.27564227943595
 30
0
 11
10.59669159409
 21
8.27564227943595
 31
0
 12
10.56669159409
 22
8.45564227943595
 32
0
 13
10.56669159409
 23
8.45564227943595
 33
0
  0
SOLID
  5
3CA5
100
AcDbEntity
  8
0
100
AcDbTrace
370
-1
 62
1
  6
BYBLOCK
 10
10.53669159409
 20
6.01064227943595
 30
0
 11
10.59669159409
 21
6.01064227943595
 31
0
 12
10.56669159409
 22
5.83064227943595
 32
0
 13
10.56669159409
 23
5.83064227943595
 33
0
  0
MTEXT
  5
3CA6
100
AcDbEntity
  8
0
100
AcDbMText
370
-1
 62
4
 10
10.56669159409
 20
7.14314227943595
 30
0
 40
0.125
  1
\A1;2.625\P(2 PLCS.)
 50
0
 41
0
  7
STANDARD
 71
5
 11
1
 21
0
 31
0
 73
1
 44
1
  0
POINT
  5
3CA7
100
AcDbEntity
  8
DEFPOINTS
100
AcDbPoint
370
-1
 62
0
  6
BYBLOCK
 10
8.90607495679096
 20
8.45564227943595
 30
0
  0
POINT
  5
3CA8
100
AcDbEntity
  8
DEFPOINTS
100
AcDbPoint
370
-1
 62
0
  6
BYBLOCK
 10
8.90607495679096
 20
5.83064227943595
 30
0
  0
POINT
  5
3CA9
100
AcDbEntity
  8
DEFPOINTS
100
AcDbPoint
370
-1
 62
0
  6
BYBLOCK
 10
10.56669159409
 20
5.83064227943595
 30
0
  0
ENDBLK
  5
4181
100
AcDbEntity
  8
0
100
AcDbBlockEnd
  0
BLOCK
  5
3D13
100
AcDbEntity
  8
0
100
AcDbBlockBegin
  2
*D10
 70
65
 10
0
 20
0
 30
0
  3
*D10
  1

  0
LINE
  5
3D14
100
AcDbEntity
  8
0
100
AcDbLine
370
-1
 62
1
  6
BYBLOCK
 10
14.3032490709252
 20
9.06814227943595
 30
0
 11
14.9657490709252
 21
9.06814227943594
 31
0
  0
LINE
  5
3D15
100
AcDbEntity
  8
0
100
AcDbLine
370
-1
 62
1
  6
BYBLOCK
 10
14.3032490709252
 20
5.21814227943595
 30
0
 11
14.9657490709252
 21
5.21814227943595
 31
0
  0
LINE
  5
3D16
100
AcDbEntity
  8
0
100
AcDbLine
370
-1
 62
1
  6
BYBLOCK
 10
14.8657490709252
 20
8.88814227943594
 30
0
 11
14.8657490709252
 21
7.29700653591616
 31
0
  0
LINE
  5
3D17
100
AcDbEntity
  8
0
100
AcDbLine
370
-1
 62
1
  6
BYBLOCK
 10
14.8657490709252
 20
5.39814227943595
 30
0
 11
14.8657490709252
 21
6.98927802295573
 31
0
  0
SOLID
  5
3D18
100
AcDbEntity
  8
0
100
AcDbTrace
370
-1
 62
1
  6
BYBLOCK
 10
14.8357490709252
 20
8.88814227943594
 30
0
 11
14.8957490709252
 21
8.88814227943594
 31
0
 12
14.8657490709252
 22
9.06814227943594
 32
0
 13
14.8657490709252
 23
9.06814227943594
 33
0
  0
SOLID
  5
3D19
100
AcDbEntity
  8
0
100
AcDbTrace
370
-1
 62
1
  6
BYBLOCK
 10
14.8357490709252
 20
5.39814227943595
 30
0
 11
14.8957490709252
 21
5.39814227943595
 31
0
 12
14.8657490709252
 22
5.21814227943595
 32
0
 13
14.8657490709252
 23
5.21814227943595
 33
0
  0
MTEXT
  5
3D1A
100
AcDbEntity
  8
0
100
AcDbMText
370
-1
 62
4
 10
14.8657490709252
 20
7.14314227943595
 30
0
 40
0.125
  1
\A1;3.850
 50
0
 41
0
  7
STANDARD
 71
5
 11
1
 21
0
 31
0
 73
1
 44
1
  0
POINT
  5
3D1B
100
AcDbEntity
  8
DEFPOINTS
100
AcDbPoint
370
-1
 62
0
  6
BYBLOCK
 10
14.2407490709252
 20
9.06814227943595
 30
0
  0
POINT
  5
3D1C
100
AcDbEntity
  8
DEFPOINTS
100
AcDbPoint
370
-1
 62
0
  6
BYBLOCK
 10
14.2407490709252
 20
5.21814227943595
 30
0
  0
POINT
  5
3D1D
100
AcDbEntity
  8
DEFPOINTS
100
AcDbPoint
370
-1
 62
0
  6
BYBLOCK
 10
14.8657490709252
 20
5.21814227943595
 30
0
  0
ENDBLK
  5
4182
100
AcDbEntity
  8
0
100
AcDbBlockEnd
  0
BLOCK
  5
3D21
100
AcDbEntity
  8
0
100
AcDbBlockBegin
  2
*D11
 70
65
 10
0
 20
0
 30
0
  3
*D11
  1

  0
LINE
  5
3D22
100
AcDbEntity
  8
0
100
AcDbLine
370
-1
 62
1
  6
BYBLOCK
 10
13.0532490709252
 20
9.03814227943595
 30
0
 11
12.0157490709252
 21
9.03814227943595
 31
0
  0
LINE
  5
3D23
100
AcDbEntity
  8
0
100
AcDbLine
370
-1
 62
1
  6
BYBLOCK
 10
13.0532490709252
 20
5.24814227943595
 30
0
 11
12.0157490709252
 21
5.24814227943595
 31
0
  0
LINE
  5
3D24
100
AcDbEntity
  8
0
100
AcDbLine
370
-1
 62
1
  6
BYBLOCK
 10
12.1157490709252
 20
8.85814227943595
 30
0
 11
12.1157490709252
 21
7.29700653591616
 31
0
  0
LINE
  5
3D25
100
AcDbEntity
  8
0
100
AcDbLine
370
-1
 62
1
  6
BYBLOCK
 10
12.1157490709252
 20
5.42814227943595
 30
0
 11
12.1157490709252
 21
6.98927802295573
 31
0
  0
SOLID
  5
3D26
100
AcDbEntity
  8
0
100
AcDbTrace
370
-1
 62
1
  6
BYBLOCK
 10
12.0857490709252
 20
8.85814227943595
 30
0
 11
12.1457490709252
 21
8.85814227943595
 31
0
 12
12.1157490709252
 22
9.03814227943595
 32
0
 13
12.1157490709252
 23
9.03814227943595
 33
0
  0
SOLID
  5
3D27
100
AcDbEntity
  8
0
100
AcDbTrace
370
-1
 62
1
  6
BYBLOCK
 10
12.0857490709252
 20
5.42814227943595
 30
0
 11
12.1457490709252
 21
5.42814227943595
 31
0
 12
12.1157490709252
 22
5.24814227943595
 32
0
 13
12.1157490709252
 23
5.24814227943595
 33
0
  0
MTEXT
  5
3D28
100
AcDbEntity
  8
0
100
AcDbMText
370
-1
 62
4
 10
12.1157490709252
 20
7.14314227943595
 30
0
 40
0.125
  1
\A1;3.790
 50
0
 41
0
  7
STANDARD
 71
5
 11
1
 21
0
 31
0
 73
1
 44
1
  0
POINT
  5
3D29
100
AcDbEntity
  8
DEFPOINTS
100
AcDbPoint
370
-1
 62
0
  6
BYBLOCK
 10
13.1157490709252
 20
9.03814227943595
 30
0
  0
POINT
  5
3D2A
100
AcDbEntity
  8
DEFPOINTS
100
AcDbPoint
370
-1
 62
0
  6
BYBLOCK
 10
13.1157490709252
 20
5.24814227943595
 30
0
  0
POINT
  5
3D2B
100
AcDbEntity
  8
DEFPOINTS
100
AcDbPoint
370
-1
 62
0
  6
BYBLOCK
 10
12.1157490709252
 20
5.24814227943595
 30
0
  0
ENDBLK
  5
4183
100
AcDbEntity
  8
0
100
AcDbBlockEnd
  0
BLOCK
  5
3D3D
100
AcDbEntity
  8
0
100
AcDbBlockBegin
  2
*D12
 70
65
 10
0
 20
0
 30
0
  3
*D12
  1

  0
LINE
  5
3D3E
100
AcDbEntity
  8
0
100
AcDbLine
370
-1
 62
1
  6
BYBLOCK
 10
13.0532490709252
 20
5.35114227943595
 30
0
 11
12.5157490709252
 21
5.35114227943595
 31
0
  0
LINE
  5
3D3F
100
AcDbEntity
  8
0
100
AcDbLine
370
-1
 62
1
  6
BYBLOCK
 10
13.0532490709252
 20
5.24814227943595
 30
0
 11
12.5157490709252
 21
5.24814227943595
 31
0
  0
LINE
  5
3D40
100
AcDbEntity
  8
0
100
AcDbLine
370
-1
 62
1
  6
BYBLOCK
 10
12.6157490709252
 20
5.53114227943595
 30
0
 11
12.6157490709252
 21
5.71114227943595
 31
0
  0
LINE
  5
3D41
100
AcDbEntity
  8
0
100
AcDbLine
370
-1
 62
1
  6
BYBLOCK
 10
12.6157490709252
 20
5.06814227943595
 30
0
 11
12.6157490709252
 21
4.88814227943595
 31
0
  0
LINE
  5
3D42
100
AcDbEntity
  8
0
100
AcDbLine
370
-1
 62
1
  6
BYBLOCK
 10
12.6157490709252
 20
4.88814227943595
 30
0
 11
12.4357490709252
 21
4.88814227943595
 31
0
  0
SOLID
  5
3D43
100
AcDbEntity
  8
0
100
AcDbTrace
370
-1
 62
1
  6
BYBLOCK
 10
12.5857490709252
 20
5.53114227943595
 30
0
 11
12.6457490709252
 21
5.53114227943595
 31
0
 12
12.6157490709252
 22
5.35114227943595
 32
0
 13
12.6157490709252
 23
5.35114227943595
 33
0
  0
SOLID
  5
3D44
100
AcDbEntity
  8
0
100
AcDbTrace
370
-1
 62
1
  6
BYBLOCK
 10
12.5857490709252
 20
5.06814227943595
 30
0
 11
12.6457490709252
 21
5.06814227943595
 31
0
 12
12.6157490709252
 22
5.24814227943595
 32
0
 13
12.6157490709252
 23
5.24814227943595
 33
0
  0
MTEXT
  5
3D45
100
AcDbEntity
  8
0
100
AcDbMText
370
-1
 62
4
 10
11.5907183751544
 20
4.88814227943595
 30
0
 40
0.125
  1
\A1;0.103 (WALL THK.)
 50
0
 41
0
  7
STANDARD
 71
5
 11
1
 21
0
 31
0
 73
1
 44
1
  0
POINT
  5
3D46
100
AcDbEntity
  8
DEFPOINTS
100
AcDbPoint
370
-1
 62
0
  6
BYBLOCK
 10
13.1157490709252
 20
5.35114227943595
 30
0
  0
POINT
  5
3D47
100
AcDbEntity
  8
DEFPOINTS
100
AcDbPoint
370
-1
 62
0
  6
BYBLOCK
 10
13.1157490709252
 20
5.24814227943595
 30
0
  0
POINT
  5
3D48
100
AcDbEntity
  8
DEFPOINTS
100
AcDbPoint
370
-1
 62
0
  6
BYBLOCK
 10
12.6157490709252
 20
5.24814227943595
 30
0
  0
ENDBLK
  5
4184
100
AcDbEntity
  8
0
100
AcDbBlockEnd
  0
BLOCK
  5
3D69
100
AcDbEntity
  8
0
100
AcDbBlockBegin
  2
*D13
 70
65
 10
0
 20
0
 30
0
  3
*D13
  1

  0
LINE
  5
3D6A
100
AcDbEntity
  8
0
100
AcDbLine
370
-1
 62
1
  6
BYBLOCK
 10
14.3657490709252
 20
5.28064227943595
 30
0
 11
14.3657490709252
 21
4.71814227943595
 31
0
  0
LINE
  5
3D6B
100
AcDbEntity
  8
0
100
AcDbLine
370
-1
 62
1
  6
BYBLOCK
 10
14.2657490709252
 20
5.31453915676484
 30
0
 11
14.2657490709252
 21
4.71814227943595
 31
0
  0
LINE
  5
3D6C
100
AcDbEntity
  8
0
100
AcDbLine
370
-1
 62
1
  6
BYBLOCK
 10
14.0857490709252
 20
4.81814227943595
 30
0
 11
13.9057490709252
 21
4.81814227943595
 31
0
  0
LINE
  5
3D6D
100
AcDbEntity
  8
0
100
AcDbLine
370
-1
 62
1
  6
BYBLOCK
 10
14.5457490709252
 20
4.81814227943595
 30
0
 11
14.7257490709252
 21
4.81814227943595
 31
0
  0
SOLID
  5
3D6E
100
AcDbEntity
  8
0
100
AcDbTrace
370
-1
 62
1
  6
BYBLOCK
 10
14.0857490709252
 20
4.84814227943595
 30
0
 11
14.0857490709252
 21
4.78814227943595
 31
0
 12
14.2657490709252
 22
4.81814227943595
 32
0
 13
14.2657490709252
 23
4.81814227943595
 33
0
  0
SOLID
  5
3D6F
100
AcDbEntity
  8
0
100
AcDbTrace
370
-1
 62
1
  6
BYBLOCK
 10
14.5457490709252
 20
4.84814227943595
 30
0
 11
14.5457490709252
 21
4.78814227943595
 31
0
 12
14.3657490709252
 22
4.81814227943595
 32
0
 13
14.3657490709252
 23
4.81814227943595
 33
0
  0
MTEXT
  5
3D70
100
AcDbEntity
  8
0
100
AcDbMText
370
-1
 62
4
 10
15.0264414310889
 20
4.81814227943595
 30
0
 40
0.125
  1
\A1;0.100
 50
0
 41
0
  7
STANDARD
 71
5
 11
1
 21
0
 31
0
 73
1
 44
1
  0
POINT
  5
3D71
100
AcDbEntity
  8
DEFPOINTS
100
AcDbPoint
370
-1
 62
0
  6
BYBLOCK
 10
14.3657490709252
 20
5.34314227943595
 30
0
  0
POINT
  5
3D72
100
AcDbEntity
  8
DEFPOINTS
100
AcDbPoint
370
-1
 62
0
  6
BYBLOCK
 10
14.2657490709252
 20
5.37703915676484
 30
0
  0
POINT
  5
3D73
100
AcDbEntity
  8
DEFPOINTS
100
AcDbPoint
370
-1
 62
0
  6
BYBLOCK
 10
14.2657490709252
 20
4.81814227943595
 30
0
  0
ENDBLK
  5
4185
100
AcDbEntity
  8
0
100
AcDbBlockEnd
  0
BLOCK
  5
3D5C
100
AcDbEntity
  8
0
100
AcDbBlockBegin
  2
*D14
 70
65
 10
0
 20
0
 30
0
  3
*D14
  1

  0
LINE
  5
3D5D
100
AcDbEntity
  8
0
100
AcDbLine
370
-1
 62
1
  6
BYBLOCK
 10
14.3657490709252
 20
5.28064227943595
 30
0
 11
14.3657490709252
 21
4.31814227943595
 31
0
  0
LINE
  5
3D5E
100
AcDbEntity
  8
0
100
AcDbLine
370
-1
 62
1
  6
BYBLOCK
 10
13.1157490709252
 20
5.18564227943595
 30
0
 11
13.1157490709252
 21
4.31814227943595
 31
0
  0
LINE
  5
3D5F
100
AcDbEntity
  8
0
100
AcDbLine
370
-1
 62
1
  6
BYBLOCK
 10
14.1857490709252
 20
4.41814227943595
 30
0
 11
14.0478790163549
 21
4.41814227943595
 31
0
  0
LINE
  5
3D60
100
AcDbEntity
  8
0
100
AcDbLine
370
-1
 62
1
  6
BYBLOCK
 10
13.2957490709252
 20
4.41814227943595
 30
0
 11
13.4336191254955
 21
4.41814227943595
 31
0
  0
SOLID
  5
3D61
100
AcDbEntity
  8
0
100
AcDbTrace
370
-1
 62
1
  6
BYBLOCK
 10
14.1857490709252
 20
4.44814227943595
 30
0
 11
14.1857490709252
 21
4.38814227943595
 31
0
 12
14.3657490709252
 22
4.41814227943595
 32
0
 13
14.3657490709252
 23
4.41814227943595
 33
0
  0
SOLID
  5
3D62
100
AcDbEntity
  8
0
100
AcDbTrace
370
-1
 62
1
  6
BYBLOCK
 10
13.2957490709252
 20
4.44814227943595
 30
0
 11
13.2957490709252
 21
4.38814227943595
 31
0
 12
13.1157490709252
 22
4.41814227943595
 32
0
 13
13.1157490709252
 23
4.41814227943595
 33
0
  0
MTEXT
  5
3D63
100
AcDbEntity
  8
0
100
AcDbMText
370
-1
 62
4
 10
13.7407490709252
 20
4.41814227943595
 30
0
 40
0.125
  1
\A1;1.250
 50
0
 41
0
  7
STANDARD
 71
5
 11
1
 21
0
 31
0
 73
1
 44
1
  0
POINT
  5
3D64
100
AcDbEntity
  8
DEFPOINTS
100
AcDbPoint
370
-1
 62
0
  6
BYBLOCK
 10
14.3657490709252
 20
5.34314227943595
 30
0
  0
POINT
  5
3D65
100
AcDbEntity
  8
DEFPOINTS
100
AcDbPoint
370
-1
 62
0
  6
BYBLOCK
 10
13.1157490709252
 20
5.24814227943595
 30
0
  0
POINT
  5
3D66
100
AcDbEntity
  8
DEFPOINTS
100
AcDbPoint
370
-1
 62
0
  6
BYBLOCK
 10
13.1157490709252
 20
4.41814227943595
 30
0
  0
ENDBLK
  5
4186
100
AcDbEntity
  8
0
100
AcDbBlockEnd
  0
BLOCK
  5
3D79
100
AcDbEntity
  8
0
100
AcDbBlockBegin
  2
*D15
 70
65
 10
0
 20
0
 30
0
  3
*D15
  1

  0
LINE
  5
3D7A
100
AcDbEntity
  8
0
100
AcDbLine
370
-1
 62
1
  6
BYBLOCK
 10
2.49295672601157
 20
3.28064227943595
 30
0
 11
2.49295672601157
 21
3.71814227943595
 31
0
  0
LINE
  5
3D7B
100
AcDbEntity
  8
0
100
AcDbLine
370
-1
 62
1
  6
BYBLOCK
 10
8.03795672601157
 20
3.28064227943595
 30
0
 11
8.03795672601157
 21
3.71814227943595
 31
0
  0
LINE
  5
3D7C
100
AcDbEntity
  8
0
100
AcDbLine
370
-1
 62
1
  6
BYBLOCK
 10
2.67295672601157
 20
3.61814227943595
 30
0
 11
4.96408223760775
 21
3.61814227943595
 31
0
  0
LINE
  5
3D7D
100
AcDbEntity
  8
0
100
AcDbLine
370
-1
 62
1
  6
BYBLOCK
 10
7.85795672601157
 20
3.61814227943595
 30
0
 11
5.56683121441539
 21
3.61814227943595
 31
0
  0
SOLID
  5
3D7E
100
AcDbEntity
  8
0
100
AcDbTrace
370
-1
 62
1
  6
BYBLOCK
 10
2.67295672601157
 20
3.64814227943595
 30
0
 11
2.67295672601157
 21
3.58814227943595
 31
0
 12
2.49295672601157
 22
3.61814227943595
 32
0
 13
2.49295672601157
 23
3.61814227943595
 33
0
  0
SOLID
  5
3D7F
100
AcDbEntity
  8
0
100
AcDbTrace
370
-1
 62
1
  6
BYBLOCK
 10
7.85795672601157
 20
3.64814227943595
 30
0
 11
7.85795672601157
 21
3.58814227943595
 31
0
 12
8.03795672601157
 22
3.61814227943595
 32
0
 13
8.03795672601157
 23
3.61814227943595
 33
0
  0
MTEXT
  5
3D80
100
AcDbEntity
  8
0
100
AcDbMText
370
-1
 62
4
 10
5.26545672601157
 20
3.61814227943595
 30
0
 40
0.125
  1
\A1;5.545
 50
0
 41
0
  7
STANDARD
 71
5
 11
1
 21
0
 31
0
 73
1
 44
1
  0
POINT
  5
3D81
100
AcDbEntity
  8
DEFPOINTS
100
AcDbPoint
370
-1
 62
0
  6
BYBLOCK
 10
2.49295672601157
 20
3.21814227943595
 30
0
  0
POINT
  5
3D82
100
AcDbEntity
  8
DEFPOINTS
100
AcDbPoint
370
-1
 62
0
  6
BYBLOCK
 10
8.03795672601157
 20
3.21814227943595
 30
0
  0
POINT
  5
3D83
100
AcDbEntity
  8
DEFPOINTS
100
AcDbPoint
370
-1
 62
0
  6
BYBLOCK
 10
8.03795672601157
 20
3.61814227943595
 30
0
  0
ENDBLK
  5
4187
100
AcDbEntity
  8
0
100
AcDbBlockEnd
  0
BLOCK
  5
3D95
100
AcDbEntity
  8
0
100
AcDbBlockBegin
  2
*D16
 70
65
 10
0
 20
0
 30
0
  3
*D16
  1

  0
LINE
  5
3D96
100
AcDbEntity
  8
0
100
AcDbLine
370
-1
 62
1
  6
BYBLOCK
 10
3.23195672601157
 20
2.29814227943595
 30
0
 11
3.83452432969298
 21
2.29814227943595
 31
0
  0
LINE
  5
3D97
100
AcDbEntity
  8
0
100
AcDbLine
370
-1
 62
1
  6
BYBLOCK
 10
3.23597139094506
 20
2.06814227943595
 30
0
 11
3.83452432969298
 21
2.06814227943595
 31
0
  0
LINE
  5
3D98
100
AcDbEntity
  8
0
100
AcDbLine
370
-1
 62
1
  6
BYBLOCK
 10
3.73452432969298
 20
2.47814227943595
 30
0
 11
3.73452432969298
 21
2.65814227943595
 31
0
  0
LINE
  5
3D99
100
AcDbEntity
  8
0
100
AcDbLine
370
-1
 62
1
  6
BYBLOCK
 10
3.73452432969298
 20
1.88814227943595
 30
0
 11
3.73452432969298
 21
1.70814227943595
 31
0
  0
LINE
  5
3D9A
100
AcDbEntity
  8
0
100
AcDbLine
370
-1
 62
1
  6
BYBLOCK
 10
3.73452432969298
 20
1.70814227943595
 30
0
 11
3.55452432969298
 21
1.70814227943595
 31
0
  0
SOLID
  5
3D9B
100
AcDbEntity
  8
0
100
AcDbTrace
370
-1
 62
1
  6
BYBLOCK
 10
3.70452432969298
 20
2.47814227943595
 30
0
 11
3.76452432969298
 21
2.47814227943595
 31
0
 12
3.73452432969298
 22
2.29814227943595
 32
0
 13
3.73452432969298
 23
2.29814227943595
 33
0
  0
SOLID
  5
3D9C
100
AcDbEntity
  8
0
100
AcDbTrace
370
-1
 62
1
  6
BYBLOCK
 10
3.70452432969298
 20
1.88814227943595
 30
0
 11
3.76452432969298
 21
1.88814227943595
 31
0
 12
3.73452432969298
 22
2.06814227943595
 32
0
 13
3.73452432969298
 23
2.06814227943595
 33
0
  0
MTEXT
  5
3D9D
100
AcDbEntity
  8
0
100
AcDbMText
370
-1
 62
4
 10
2.97633367484987
 20
1.70814227943595
 30
0
 40
0.125
  1
\A1;0.230 (TYP.)
 50
0
 41
0
  7
STANDARD
 71
5
 11
1
 21
0
 31
0
 73
1
 44
1
  0
POINT
  5
3D9E
100
AcDbEntity
  8
DEFPOINTS
100
AcDbPoint
370
-1
 62
0
  6
BYBLOCK
 10
3.16945672601157
 20
2.29814227943595
 30
0
  0
POINT
  5
3D9F
100
AcDbEntity
  8
DEFPOINTS
100
AcDbPoint
370
-1
 62
0
  6
BYBLOCK
 10
3.17347139094506
 20
2.06814227943595
 30
0
  0
POINT
  5
3DA0
100
AcDbEntity
  8
DEFPOINTS
100
AcDbPoint
370
-1
 62
0
  6
BYBLOCK
 10
3.73452432969298
 20
2.06814227943595
 30
0
  0
ENDBLK
  5
4188
100
AcDbEntity
  8
0
100
AcDbBlockEnd
  0
BLOCK
  5
3DCE
100
AcDbEntity
  8
0
100
AcDbBlockBegin
  2
*D17
 70
65
 10
0
 20
0
 30
0
  3
*D17
  1

  0
LINE
  5
3DCF
100
AcDbEntity
  8
0
100
AcDbLine
370
-1
 62
1
  6
BYBLOCK
 10
8.57795672601157
 20
2.09314227943595
 30
0
 11
9.11545672601157
 21
2.09314227943595
 31
0
  0
LINE
  5
3DD0
100
AcDbEntity
  8
0
100
AcDbLine
370
-1
 62
1
  6
BYBLOCK
 10
8.45295672601157
 20
1.96814227943595
 30
0
 11
9.11545672601157
 21
1.96814227943595
 31
0
  0
LINE
  5
3DD1
100
AcDbEntity
  8
0
100
AcDbLine
370
-1
 62
1
  6
BYBLOCK
 10
9.01545672601157
 20
2.27314227943595
 30
0
 11
9.01545672601157
 21
2.45314227943595
 31
0
  0
LINE
  5
3DD2
100
AcDbEntity
  8
0
100
AcDbLine
370
-1
 62
1
  6
BYBLOCK
 10
9.01545672601157
 20
1.78814227943595
 30
0
 11
9.01545672601157
 21
1.60814227943595
 31
0
  0
LINE
  5
3DD3
100
AcDbEntity
  8
0
100
AcDbLine
370
-1
 62
1
  6
BYBLOCK
 10
9.01545672601157
 20
1.60814227943595
 30
0
 11
8.83545672601157
 21
1.60814227943595
 31
0
  0
SOLID
  5
3DD4
100
AcDbEntity
  8
0
100
AcDbTrace
370
-1
 62
1
  6
BYBLOCK
 10
8.98545672601157
 20
2.27314227943595
 30
0
 11
9.04545672601157
 21
2.27314227943595
 31
0
 12
9.01545672601157
 22
2.09314227943595
 32
0
 13
9.01545672601157
 23
2.09314227943595
 33
0
  0
SOLID
  5
3DD5
100
AcDbEntity
  8
0
100
AcDbTrace
370
-1
 62
1
  6
BYBLOCK
 10
8.98545672601157
 20
1.78814227943595
 30
0
 11
9.04545672601157
 21
1.78814227943595
 31
0
 12
9.01545672601157
 22
1.96814227943595
 32
0
 13
9.01545672601157
 23
1.96814227943595
 33
0
  0
MTEXT
  5
3DD6
100
AcDbEntity
  8
0
100
AcDbMText
370
-1
 62
4
 10
8.12616955002248
 20
1.60814227943595
 30
0
 40
0.125
  1
\A1;0.125 (2 PLCS.)
 50
0
 41
0
  7
STANDARD
 71
5
 11
1
 21
0
 31
0
 73
1
 44
1
  0
POINT
  5
3DD7
100
AcDbEntity
  8
DEFPOINTS
100
AcDbPoint
370
-1
 62
0
  6
BYBLOCK
 10
8.51545672601157
 20
2.09314227943595
 30
0
  0
POINT
  5
3DD8
100
AcDbEntity
  8
DEFPOINTS
100
AcDbPoint
370
-1
 62
0
  6
BYBLOCK
 10
8.39045672601157
 20
1.96814227943595
 30
0
  0
POINT
  5
3DD9
100
AcDbEntity
  8
DEFPOINTS
100
AcDbPoint
370
-1
 62
0
  6
BYBLOCK
 10
9.01545672601157
 20
1.96814227943595
 30
0
  0
ENDBLK
  5
4189
100
AcDbEntity
  8
0
100
AcDbBlockEnd
  0
BLOCK
  5
3DC2
100
AcDbEntity
  8
0
100
AcDbBlockBegin
  2
*D18
 70
65
 10
0
 20
0
 30
0
  3
*D18
  1

  0
LINE
  5
3DC3
100
AcDbEntity
  8
0
100
AcDbLine
370
-1
 62
1
  6
BYBLOCK
 10
8.45295672601157
 20
1.96814227943595
 30
0
 11
9.61545672601157
 21
1.96814227943595
 31
0
  0
LINE
  5
3DC4
100
AcDbEntity
  8
0
100
AcDbLine
370
-1
 62
1
  6
BYBLOCK
 10
7.87170672601157
 20
3.15614227943595
 30
0
 11
9.61545672601157
 21
3.15614227943595
 31
0
  0
LINE
  5
3DC5
100
AcDbEntity
  8
0
100
AcDbLine
370
-1
 62
1
  6
BYBLOCK
 10
9.51545672601157
 20
2.14814227943595
 30
0
 11
9.51545672601157
 21
2.28332065597074
 31
0
  0
LINE
  5
3DC6
100
AcDbEntity
  8
0
100
AcDbLine
370
-1
 62
1
  6
BYBLOCK
 10
9.51545672601157
 20
2.97614227943595
 30
0
 11
9.51545672601157
 21
2.84096390290116
 31
0
  0
SOLID
  5
3DC7
100
AcDbEntity
  8
0
100
AcDbTrace
370
-1
 62
1
  6
BYBLOCK
 10
9.48545672601157
 20
2.14814227943595
 30
0
 11
9.54545672601157
 21
2.14814227943595
 31
0
 12
9.51545672601157
 22
1.96814227943595
 32
0
 13
9.51545672601157
 23
1.96814227943595
 33
0
  0
SOLID
  5
3DC8
100
AcDbEntity
  8
0
100
AcDbTrace
370
-1
 62
1
  6
BYBLOCK
 10
9.48545672601157
 20
2.97614227943595
 30
0
 11
9.54545672601157
 21
2.97614227943595
 31
0
 12
9.51545672601157
 22
3.15614227943595
 32
0
 13
9.51545672601157
 23
3.15614227943595
 33
0
  0
MTEXT
  5
3DC9
100
AcDbEntity
  8
0
100
AcDbMText
370
-1
 62
4
 10
9.51545672601157
 20
2.56214227943595
 30
0
 40
0.125
  1
\A1;1.188\P(4 PLCS.)
 50
0
 41
0
  7
STANDARD
 71
5
 11
1
 21
0
 31
0
 73
1
 44
1
  0
POINT
  5
3DCA
100
AcDbEntity
  8
DEFPOINTS
100
AcDbPoint
370
-1
 62
0
  6
BYBLOCK
 10
8.39045672601157
 20
1.96814227943595
 30
0
  0
POINT
  5
3DCB
100
AcDbEntity
  8
DEFPOINTS
100
AcDbPoint
370
-1
 62
0
  6
BYBLOCK
 10
7.80920672601157
 20
3.15614227943595
 30
0
  0
POINT
  5
3DCC
100
AcDbEntity
  8
DEFPOINTS
100
AcDbPoint
370
-1
 62
0
  6
BYBLOCK
 10
9.51545672601157
 20
3.15614227943595
 30
0
  0
ENDBLK
  5
418A
100
AcDbEntity
  8
0
100
AcDbBlockEnd
  0
BLOCK
  5
3FA6
100
AcDbEntity
  8
0
100
AcDbBlockBegin
  2
*D19
 70
65
 10
0
 20
0
 30
0
  3
*D19
  1

  0
LINE
  5
3FA7
100
AcDbEntity
  8
0
100
AcDbLine
370
-1
 62
1
  6
BYBLOCK
 10
9.31116873195383
 20
9.36000232447546
 30
0
 11
9.13116873195383
 21
9.36000232447546
 31
0
  0
LINE
  5
3FA8
100
AcDbEntity
  8
0
100
AcDbLine
370
-1
 62
1
  6
BYBLOCK
 10
9.13116873195383
 20
9.36000232447546
 30
0
 11
8.36977975019926
 21
7.50297415665864
 31
0
  0
MTEXT
  5
3FA9
100
AcDbEntity
  8
0
100
AcDbMText
370
-1
 62
4
 10
10.0884555668788
 20
9.36000232447546
 30
0
 40
0.125
  1
\A1;\U+22050.190 (2 PLCS.)
 50
0
 41
0
  7
STANDARD
 71
5
 11
1
 21
0
 31
0
 73
1
 44
1
  0
SOLID
  5
3FAA
100
AcDbEntity
  8
0
100
AcDbTrace
370
-1
 62
1
  6
BYBLOCK
 10
8.34202223203981
 20
7.51435485020639
 30
0
 11
8.39753726835871
 21
7.49159346311089
 31
0
 12
8.30149558891277
 22
7.33642904770193
 32
0
 13
8.30149558891277
 23
7.33642904770193
 33
0
  0
LINE
  5
3FAB
100
AcDbEntity
  8
0
100
AcDbLine
370
-1
 62
1
  6
BYBLOCK
 10
8.23545672601157
 20
7.24853024019701
 30
0
 11
8.29545672601157
 21
7.24853024019701
 31
0
  0
LINE
  5
3FAC
100
AcDbEntity
  8
0
100
AcDbLine
370
-1
 62
1
  6
BYBLOCK
 10
8.26545672601157
 20
7.21853024019701
 30
0
 11
8.26545672601157
 21
7.27853024019701
 31
0
  0
POINT
  5
3FAD
100
AcDbEntity
  8
DEFPOINTS
100
AcDbPoint
370
-1
 62
0
  6
BYBLOCK
 10
8.30149558891277
 20
7.33642904770193
 30
0
  0
POINT
  5
3FAE
100
AcDbEntity
  8
DEFPOINTS
100
AcDbPoint
370
-1
 62
0
  6
BYBLOCK
 10
8.22941786311037
 20
7.16063143269208
 30
0
  0
ENDBLK
  5
418B
100
AcDbEntity
  8
0
100
AcDbBlockEnd
  0
BLOCK
  5
3FD7
100
AcDbEntity
  8
0
100
AcDbBlockBegin
  2
_CLOSEDFILLED
 70
0
 10
0
 20
0
 30
0
  3
_CLOSEDFILLED
  1

  0
SOLID
  5
3FD5
100
AcDbEntity
  8
0
100
AcDbTrace
370
-2
 62
0
 10
-1
 20
0.166666666666667
 30
0
 11
0
 21
0
 31
0
 12
-1
 22
0.166666666666667
 32
0
 13
-1
 23
-0.166666666666667
 33
0
  0
LINE
  5
3FD6
100
AcDbEntity
  8
0
100
AcDbLine
370
-2
 62
0
 10
-1
 20
0
 30
0
 11
-2
 21
0
 31
0
  0
ENDBLK
  5
418C
100
AcDbEntity
  8
0
100
AcDbBlockEnd
  0
BLOCK
  5
415A
100
AcDbEntity
  8
0
100
AcDbBlockBegin
  2
ABViewer_RedLine
 70
0
 10
0
 20
0
 30
0
  3
ABViewer_RedLine
  1

  0
ENDBLK
  5
418D
100
AcDbEntity
  8
0
100
AcDbBlockEnd
  0
BLOCK
  5
4169
100
AcDbEntity
  8
0
100
AcDbBlockBegin
  2
ABViewer
 70
0
 10
0
 20
0
 30
0
  3
ABViewer
  1

  0
MTEXT
  5
4164
100
AcDbEntity
  8
0
100
AcDbMText
370
-1
 62
1
 10
0
 20
0
 30
0
 40
0.05
  1
ABViewer 14 trial version - www.cadsofttools.com
 50
0
 41
0
  7
STANDARD
 71
1
 73
1
 44
1
  0
ENDBLK
  5
418E
100
AcDbEntity
  8
0
100
AcDbBlockEnd
  0
ENDSEC
  0
SECTION
  2
ENTITIES
  0
MTEXT
  5
22C3
100
AcDbEntity
  8
0
100
AcDbMText
370
-1
 62
4
 10
-0.807033668966832
 20
67.5171197253598
 30
0
 40
0.125
  1
\A1;
 50
0
 41
0
  7
STANDARD
 71
1
 11
1
 21
0
 31
0
 73
1
 44
1
  0
MTEXT
  5
22C4
100
AcDbEntity
  8
0
100
AcDbMText
370
-1
 62
4
 10
-1.96510072456921
 20
67.8414878002797
 30
0
 40
0.125
  1
\A1;
 50
0
 41
0
  7
STANDARD
 71
1
 11
1
 21
0
 31
0
 73
1
 44
1
  0
MTEXT
  5
22C5
100
AcDbEntity
  8
0
100
AcDbMText
370
-1
 62
4
 10
-6.04192668290686
 20
65.3836474358754
 30
0
 40
0.125
  1
\A1;
 50
0
 41
0
  7
STANDARD
 71
1
 11
1
 21
0
 31
0
 73
1
 44
1
  0
MTEXT
  5
22C6
100
AcDbEntity
  8
0
100
AcDbMText
370
-1
 62
4
 10
-5.53788045616155
 20
64.8379991816747
 30
0
 40
0.125
  1
\A1;
 50
0
 41
0
  7
STANDARD
 71
1
 11
1
 21
0
 31
0
 73
1
 44
1
  0
MTEXT
  5
22C7
100
AcDbEntity
  8
0
100
AcDbMText
370
-1
 62
4
 10
-5.90997348714969
 20
63.5942638459802
 30
0
 40
0.125
  1
\A1;
 50
0
 41
0
  7
STANDARD
 71
1
 11
1
 21
0
 31
0
 73
1
 44
1
  0
MTEXT
  5
22C8
100
AcDbEntity
  8
0
100
AcDbMText
370
-1
 62
4
 10
-5.85725428449784
 20
63.3435849213222
 30
0
 40
0.125
  1
\A1;
 50
0
 41
0
  7
STANDARD
 71
1
 11
1
 21
0
 31
0
 73
1
 44
1
  0
MTEXT
  5
22CC
100
AcDbEntity
  8
0
100
AcDbMText
370
-1
 62
4
 10
8.90371437552847
 20
51.9744143515594
 30
0
 40
0.125
  1
\A1;
 50
0
 41
0
  7
STANDARD
 71
1
 11
1
 21
0
 31
0
 73
1
 44
1
  0
MTEXT
  5
22CD
100
AcDbEntity
  8
0
100
AcDbMText
370
-1
 62
4
 10
14.8887037371706
 20
50.0237019190095
 30
0
 40
0.125
  1
\A1;
 50
0
 41
0
  7
STANDARD
 71
1
 11
1
 21
0
 31
0
 73
1
 44
1
  0
MTEXT
  5
2330
100
AcDbEntity
  8
0
100
AcDbMText
370
-1
 62
4
 10
-11.7815070326641
 20
44.5816592959873
 30
0
 40
0.125
  1
\A1;
 50
0
 41
0
  7
STANDARD
 71
1
 11
1
 21
0
 31
0
 73
1
 44
1
  0
MTEXT
  5
2331
100
AcDbEntity
  8
0
100
AcDbMText
370
-1
 62
4
 10
-15.7225893231133
 20
40.827554925965
 30
0
 40
0.125
  1
\A1;
 50
0
 41
0
  7
STANDARD
 71
1
 11
1
 21
0
 31
0
 73
1
 44
1
  0
MTEXT
  5
2332
100
AcDbEntity
  8
0
100
AcDbMText
370
-1
 62
4
 10
-15.4076345334646
 20
41.5780483246002
 30
0
 40
0.125
  1
\A1;
 50
0
 41
0
  7
STANDARD
 71
1
 11
1
 21
0
 31
0
 73
1
 44
1
  0
MTEXT
  5
2333
100
AcDbEntity
  8
0
100
AcDbMText
370
-1
 62
4
 10
-15.835650007162
 20
42.1267961868691
 30
0
 40
0.125
  1
\A1;
 50
0
 41
0
  7
STANDARD
 71
1
 11
1
 21
0
 31
0
 73
1
 44
1
  0
MTEXT
  5
2334
100
AcDbEntity
  8
0
100
AcDbMText
370
-1
 62
4
 10
-7.37291363948297
 20
43.7825022159338
 30
0
 40
0.125
  1
\A1;
 50
0
 41
0
  7
STANDARD
 71
1
 11
1
 21
0
 31
0
 73
1
 44
1
  0
MTEXT
  5
2335
100
AcDbEntity
  8
0
100
AcDbMText
370
-1
 62
4
 10
-1.50073435664244
 20
41.8454502305796
 30
0
 40
0.125
  1
\A1;
 50
0
 41
0
  7
STANDARD
 71
1
 11
1
 21
0
 31
0
 73
1
 44
1
  0
MTEXT
  5
2345
100
AcDbEntity
  8
0
100
AcDbMText
370
-1
 62
5
 10
-11.4958318856625
 20
44.5058417650388
 30
0
 40
0.125
  1
\A1;
 50
0
 41
0
  7
STANDARD
 71
1
 11
1
 21
0
 31
0
 73
1
 44
1
  0
MTEXT
  5
2354
100
AcDbEntity
  8
0
100
AcDbMText
370
-1
 62
5
 10
-15.5841874348662
 20
41.8887657912819
 30
0
 40
0.125
  1
\A1;
 50
0
 41
0
  7
STANDARD
 71
1
 11
1
 21
0
 31
0
 73
1
 44
1
  0
MTEXT
  5
2355
100
AcDbEntity
  8
0
100
AcDbMText
370
-1
 62
5
 10
-15.3172110556729
 20
41.2416824671397
 30
0
 40
0.125
  1
\A1;
 50
0
 41
0
  7
STANDARD
 71
1
 11
1
 21
0
 31
0
 73
1
 44
1
  0
MTEXT
  5
2363
100
AcDbEntity
  8
0
100
AcDbMText
370
-1
 62
5
 10
-15.5946988347531
 20
40.5304322358309
 30
0
 40
0.125
  1
\A1;
 50
0
 41
0
  7
STANDARD
 71
1
 11
1
 21
0
 31
0
 73
1
 44
1
  0
MTEXT
  5
236A
100
AcDbEntity
  8
0
100
AcDbMText
370
-1
 62
5
 10
-15.623381673402
 20
39.505556144199
 30
0
 40
0.125
  1
\A1;
 50
0
 41
0
  7
STANDARD
 71
1
 11
1
 21
0
 31
0
 73
1
 44
1
  0
MTEXT
  5
2390
100
AcDbEntity
  8
0
100
AcDbMText
370
-1
 62
5
 10
-7.38593043719215
 20
44.0288761304553
 30
0
 40
0.125
  1
\A1;
 50
0
 41
0
  7
STANDARD
 71
1
 11
1
 21
0
 31
0
 73
1
 44
1
  0
MTEXT
  5
23A8
100
AcDbEntity
  8
0
100
AcDbMText
370
-1
 62
5
 10
-1.53056895073905
 20
41.6501411501166
 30
0
 40
0.125
  1
\A1;
 50
0
 41
0
  7
STANDARD
 71
1
 11
1
 21
0
 31
0
 73
1
 44
1
  0
MTEXT
  5
2417
100
AcDbEntity
  8
0
100
AcDbMText
370
-1
 62
5
 10
-6.12993439701594
 20
37.8467255849699
 30
0
 40
0.125
  1
\A1;
 50
0
 41
0
  7
STANDARD
 71
1
 11
1
 21
0
 31
0
 73
1
 44
1
  0
MTEXT
  5
2E23
100
AcDbEntity
  8
0
100
AcDbMText
370
-1
 62
4
 10
5.04845743837621
 20
7.27924198836949
 30
0
 40
0.125
  1
\A1;
 50
0
 41
0
  7
STANDARD
 71
1
 11
1
 21
0
 31
0
 73
1
 44
1
  0
LWPOLYLINE
  5
3237
100
AcDbEntity
  8
0
100
AcDbPolyline
370
-1
 62
14
  6
BYLAYER
 38
0
 90
4
 70
1
 43
0.02
 10
16.05
 20
0.0499999999999961
 10
16.05
 20
10.05
 10
0.0500000000000004
 20
10.05
 10
0.05
 20
0.05
  0
INSERT
  5
3386
100
AcDbEntity
  8
0
100
AcDbBlockReference
370
-1
  6
BYLAYER
  2
REVGRID
 10
8.71949721301203
 20
0.0499999999999925
 30
0
 41
1
 42
1
 43
1
  0
INSERT
  5
33BF
100
AcDbEntity
  8
0
100
AcDbBlockReference
370
-1
  6
BYLAYER
 66
1
  2
TITLEBLK
 10
16.05
 20
0.0499999999999961
 30
0
 41
1
 42
1
 43
1
  0
ATTRIB
  5
33C0
100
AcDbEntity
  8
0
100
AcDbText
370
-1
 62
4
 10
13.8068058021178
 20
0.979999999999996
 30
0
 40
0.09
  1
M.M.T.
 50
0
 41
1
 51
0
  7
STANDARD
 71
0
 72
1
 11
14.0015397721042
 21
1.025
 31
0
100
AcDbAttribute
  2
DRWN_BY
 70
4
 74
2
1001
AcDbAttr
1070
0
1070
0
  0
ATTRIB
  5
33C1
100
AcDbEntity
  8
0
100
AcDbText
370
-1
 62
4
 10
14.5530591892223
 20
0.979999999999996
 30
0
 40
0.09
  1
B.B.
 50
0
 41
1
 51
0
  7
STANDARD
 71
0
 72
1
 11
14.6709923406547
 21
1.025
 31
0
100
AcDbAttribute
  2
APPRV_BY
 70
4
 74
2
1001
AcDbAttr
1070
0
1070
0
  0
ATTRIB
  5
33C2
100
AcDbEntity
  8
0
100
AcDbText
370
-1
 62
4
 10
15.0949383304846
 20
0.979999999999996
 30
0
 40
0.09
  1
FULL
 50
0
 41
1
 51
0
  7
STANDARD
 71
0
 72
1
 11
15.243720731576
 21
1.025
 31
0
100
AcDbAttribute
  2
SCALE
 70
4
 74
2
1001
AcDbAttr
1070
0
1070
0
  0
ATTRIB
  5
33C3
100
AcDbEntity
  8
0
100
AcDbText
370
-1
 62
4
 10
15.5649230061359
 20
0.979999999999996
 30
0
 40
0.09
  1
9/27/00
 50
0
 41
1
 51
0
  7
STANDARD
 71
0
 72
1
 11
15.7742681630254
 21
1.025
 31
0
100
AcDbAttribute
  2
DATE
 70
4
 74
2
1001
AcDbAttr
1070
0
1070
0
  0
ATTRIB
  5
33C4
100
AcDbEntity
  8
0
100
AcDbText
370
-1
 62
4
 10
14.2290347885402
 20
0.679999999999996
 30
0
 40
0.09
  1
-
 50
0
 41
1
 51
0
  7
STANDARD
 71
0
 72
1
 11
14.25
 21
0.724999999999996
 31
0
100
AcDbAttribute
  2
JOB_NUMBER
 70
4
 74
2
1001
AcDbAttr
1070
0
1070
0
  0
ATTRIB
  5
33C5
100
AcDbEntity
  8
0
100
AcDbText
370
-1
 62
4
 10
15.1142189631651
 20
0.679999999999996
 30
0
 40
0.09
  1
LP-61BFMB
 50
0
 41
1
 51
0
  7
STANDARD
 71
0
 72
1
 11
15.45
 21
0.724999999999996
 31
0
100
AcDbAttribute
  2
PRODUCT
 70
4
 74
2
1001
AcDbAttr
1070
0
1070
0
  0
ATTRIB
  5
33C6
100
AcDbEntity
  8
0
100
AcDbText
370
-1
 62
4
 10
14.2290347885402
 20
0.529999999999996
 30
0
 40
0.09
  1
-
 50
0
 41
1
 51
0
  7
STANDARD
 71
0
 72
1
 11
14.25
 21
0.574999999999996
 31
0
100
AcDbAttribute
  2
JOB_NUMBER
 70
4
 74
2
1001
AcDbAttr
1070
0
1070
0
  0
ATTRIB
  5
33C7
100
AcDbEntity
  8
0
100
AcDbText
370
-1
 62
4
 10
15.4290347885402
 20
0.529999999999996
 30
0
 40
0.09
  1
-
 50
0
 41
1
 51
0
  7
STANDARD
 71
0
 72
1
 11
15.45
 21
0.574999999999996
 31
0
100
AcDbAttribute
  2
PRODUCT
 70
4
 74
2
1001
AcDbAttr
1070
0
1070
0
  0
ATTRIB
  5
33C8
100
AcDbEntity
  8
0
100
AcDbText
370
-1
 62
4
 10
13.7072911059117
 20
0.246599716710875
 30
0
 40
0.09
  1

 50
0
 41
1
 51
0
  7
STANDARD
 71
0
 72
0
 11
0
 21
0
 31
0
100
AcDbAttribute
  2
CUSTOMER_NAME
 70
4
 74
0
1001
AcDbAttr
1070
0
1070
0
  0
ATTRIB
  5
33C9
100
AcDbEntity
  8
0
100
AcDbText
370
-1
 62
4
 10
14.1098849280779
 20
0.0773723706496493
 30
0
 40
0.09
  1
Product Detail Drawing
 50
0
 41
1
 51
0
  7
STANDARD
 71
0
 72
0
 11
0
 21
0
 31
0
100
AcDbAttribute
  2
DRAWING_TITLE
 70
4
 74
0
1001
AcDbAttr
1070
0
1070
0
  0
SEQEND
  5
418F
100
AcDbEntity
  8
0
  0
LINE
  5
33DE
100
AcDbEntity
  8
LP-61
100
AcDbLine
370
-1
 62
1
  6
CENTER2
 10
8.61545672601157
 20
7.24853024019701
 30
0
 11
1.91545672601157
 21
7.24853024019701
 31
0
  0
LINE
  5
33E1
100
AcDbEntity
  8
LP-61
100
AcDbLine
370
-1
 62
1
  6
CENTER2
 10
5.26545672601157
 20
9.27353024019701
 30
0
 11
5.26545672601157
 21
5.22353024019701
 31
0
  0
LINE
  5
33EB
100
AcDbEntity
  8
LP-61
100
AcDbLine
370
-1
  6
BYLAYER
 10
13.1157490709252
 20
9.14353024019701
 30
0
 11
13.1157490709252
 21
5.35353024019701
 31
0
  0
LINE
  5
33EC
100
AcDbEntity
  8
LP-61
100
AcDbLine
370
-1
  6
BYLAYER
 10
8.03795672601157
 20
3.21814227943595
 30
0
 11
2.49295672601157
 21
3.21814227943595
 31
0
  0
CIRCLE
  5
33F5
100
AcDbEntity
  8
LP-61
100
AcDbCircle
370
-1
  6
BYLAYER
 10
2.26545672601157
 20
7.24853024019701
 30
0
 40
0.095
  0
LINE
  5
33F7
100
AcDbEntity
  8
LP-61
100
AcDbLine
370
-1
 62
1
  6
BYLAYER
 10
2.26545672601157
 20
7.21853024019701
 30
0
 11
2.26545672601157
 21
7.27853024019701
 31
0
  0
CIRCLE
  5
33FA
100
AcDbEntity
  8
LP-61
100
AcDbCircle
370
-1
  6
BYLAYER
 10
8.26545672601157
 20
7.24853024019701
 30
0
 40
0.095
  0
LINE
  5
33FB
100
AcDbEntity
  8
LP-61
100
AcDbLine
370
-1
 62
1
  6
BYLAYER
 10
8.26545672601157
 20
7.21853024019701
 30
0
 11
8.26545672601157
 21
7.27853024019701
 31
0
  0
LINE
  5
33FD
100
AcDbEntity
  8
LP-61
100
AcDbLine
370
-1
  6
BYLAYER
 10
14.3657490709252
 20
9.04853024019701
 30
0
 11
14.3657490709252
 21
5.44853024019701
 31
0
  0
LINE
  5
33FE
100
AcDbEntity
  8
LP-61
100
AcDbLine
370
-1
  6
BYLAYER
 10
7.94245672601157
 20
1.96814227943595
 30
0
 11
2.58845672601157
 21
1.96814227943595
 31
0
  0
LINE
  5
33FF
100
AcDbEntity
  8
LP-61
100
AcDbLine
370
-1
 62
1
  6
CENTER2
 10
5.26545672601157
 20
3.31814227943595
 30
0
 11
5.26545672601157
 21
1.86814227943595
 31
0
  0
LINE
  5
3400
100
AcDbEntity
  8
LP-61
100
AcDbLine
370
-1
 62
1
  6
CENTER2
 10
13.0157490709252
 20
7.24853024019701
 30
0
 11
14.4657490709252
 21
7.24853024019701
 31
0
  0
LINE
  5
3410
100
AcDbEntity
  8
LP-61
100
AcDbLine
370
-1
  6
BYLAYER
 10
14.2407490709252
 20
9.17353024019701
 30
0
 11
14.2407490709252
 21
5.32353024019701
 31
0
  0
LINE
  5
3417
100
AcDbEntity
  8
LP-61
100
AcDbLine
370
-1
  6
BYLAYER
 10
8.06745672601157
 20
2.09314227943595
 30
0
 11
2.46345672601157
 21
2.09314227943595
 31
0
  0
LWPOLYLINE
  5
341E
100
AcDbEntity
  8
LP-61
100
AcDbPolyline
370
-1
  6
BYLAYER
 38
0
 90
4
 70
0
 10
2.58845672601157
 20
1.96814227943595
 10
2.14045672601157
 20
1.96814227943595
 42
-0.414213562373095
 10
2.01545672601157
 20
2.09314227943595
 10
2.46345672601157
 20
2.09314227943595
  0
LINE
  5
3421
100
AcDbEntity
  8
LP-61
100
AcDbLine
370
-1
 62
4
 48
0.5
  6
HIDDEN2
 10
2.17045672601157
 20
2.09314227943595
 30
0
 11
2.15952064307083
 21
1.96814227943595
 31
0
  0
LINE
  5
3422
100
AcDbEntity
  8
LP-61
100
AcDbLine
370
-1
 62
4
 48
0.5
  6
HIDDEN2
 10
2.36045672601157
 20
2.09314227943595
 30
0
 11
2.37139280895231
 21
1.96814227943595
 31
0
  0
LINE
  5
3424
100
AcDbEntity
  8
LP-61
100
AcDbLine
370
-1
 62
4
 48
0.5
  6
HIDDEN2
 10
14.2407490709252
 20
7.34353024019701
 30
0
 11
14.3657490709252
 21
7.35446632313775
 31
0
  0
LINE
  5
3425
100
AcDbEntity
  8
LP-61
100
AcDbLine
370
-1
 62
4
 48
0.5
  6
HIDDEN2
 10
14.2407490709252
 20
7.15353024019701
 30
0
 11
14.3657490709252
 21
7.14259415725627
 31
0
  0
LWPOLYLINE
  5
3427
100
AcDbEntity
  8
LP-61
100
AcDbPolyline
370
-1
  6
BYLAYER
 38
0
 90
3
 70
0
 10
14.3657490709252
 20
9.04853024019701
 42
0.414213562373095
 10
14.2407490709252
 20
9.17353024019701
 10
13.1157490709252
 20
9.14353024019701
  0
LWPOLYLINE
  5
3429
100
AcDbEntity
  8
LP-61
100
AcDbPolyline
370
-1
  6
BYLAYER
 38
0
 90
3
 70
0
 10
2.58795672601157
 20
1.96814227943595
 42
-0.414213562373095
 10
2.46295672601157
 20
2.09314227943595
 10
2.49295672601157
 20
3.21814227943595
  0
LINE
  5
3436
100
AcDbEntity
  8
LP-61
100
AcDbLine
370
-1
 62
4
  6
HIDDEN2
 10
7.90905984868268
 20
2.06814227943595
 30
0
 11
2.62185360334046
 21
2.06814227943595
 31
0
  0
LINE
  5
3437
100
AcDbEntity
  8
LP-61
100
AcDbLine
370
-1
 62
4
  6
HIDDEN2
 10
14.2657490709252
 20
9.01463336286812
 30
0
 11
14.2657490709252
 21
5.4824271175259
 31
0
  0
CIRCLE
  5
3441
100
AcDbEntity
  8
LP-61
100
AcDbCircle
370
-1
  6
BYLAYER
 10
2.81545672601157
 20
5.67353024019701
 30
0
 40
0.09375
  0
CIRCLE
  5
3442
100
AcDbEntity
  8
LP-61
100
AcDbCircle
370
-1
  6
BYLAYER
 10
2.81545672601157
 20
5.67353024019701
 30
0
 40
0.043
  0
LINE
  5
3443
100
AcDbEntity
  8
LP-61
100
AcDbLine
370
-1
 62
1
  6
BYLAYER
 10
2.78545672601157
 20
5.67353024019701
 30
0
 11
2.84545672601157
 21
5.67353024019701
 31
0
  0
LINE
  5
3444
100
AcDbEntity
  8
LP-61
100
AcDbLine
370
-1
 62
1
  6
BYLAYER
 10
2.81545672601157
 20
5.64353024019701
 30
0
 11
2.81545672601157
 21
5.70353024019701
 31
0
  0
LINE
  5
3446
100
AcDbEntity
  8
LP-61
100
AcDbLine
370
-1
  6
BYLAYER
 10
2.73143801923431
 20
5.63193794029094
 30
0
 11
2.6414292998267
 21
5.54192922088333
 31
0
  0
LINE
  5
3447
100
AcDbEntity
  8
LP-61
100
AcDbLine
370
-1
  6
BYLAYER
 10
2.7738644261055
 20
5.58951153341974
 30
0
 11
2.68420144331899
 21
5.49984855063323
 31
0
  0
ARC
  5
3451
100
AcDbEntity
  8
LP-61
100
AcDbCircle
370
-1
  6
BYLAYER
 10
2.81545672601157
 20
5.67353024019701
 30
0
 40
0.1127411106419
100
AcDbArc
 50
240.432109303137
 51
209.567890696864
  0
LINE
  5
3452
100
AcDbEntity
  8
LP-61
100
AcDbLine
370
-1
 62
4
 48
0.5
  6
HIDDEN2
 10
2.72064156124488
 20
3.09511903082207
 30
0
 11
2.59703033363741
 21
3.09511903082207
 31
0
  0
ARC
  5
3454
100
AcDbEntity
  8
LP-61
100
AcDbCircle
370
-1
  6
BYLAYER
 10
2.81545672601157
 20
8.82353024019701
 30
0
 40
0.1127411106419
100
AcDbArc
 50
150.432109303136
 51
119.567890696863
  0
CIRCLE
  5
3455
100
AcDbEntity
  8
LP-61
100
AcDbCircle
370
-1
  6
BYLAYER
 10
2.81545672601157
 20
8.82353024019701
 30
0
 40
0.09375
  0
LINE
  5
3456
100
AcDbEntity
  8
LP-61
100
AcDbLine
370
-1
  6
BYLAYER
 10
2.7738644261055
 20
8.90754894697427
 30
0
 11
2.68420144331898
 21
8.99721192976079
 31
0
  0
CIRCLE
  5
3457
100
AcDbEntity
  8
LP-61
100
AcDbCircle
370
-1
  6
BYLAYER
 10
2.81545672601157
 20
8.82353024019701
 30
0
 40
0.043
  0
LINE
  5
3458
100
AcDbEntity
  8
LP-61
100
AcDbLine
370
-1
  6
BYLAYER
 10
2.73143801923431
 20
8.86512254010308
 30
0
 11
2.6414292998267
 21
8.95513125951068
 31
0
  0
LINE
  5
3459
100
AcDbEntity
  8
LP-61
100
AcDbLine
370
-1
 62
1
  6
BYLAYER
 10
2.81545672601157
 20
8.85353024019701
 30
0
 11
2.81545672601157
 21
8.79353024019701
 31
0
  0
LINE
  5
345A
100
AcDbEntity
  8
LP-61
100
AcDbLine
370
-1
 62
1
  6
BYLAYER
 10
2.78545672601157
 20
8.82353024019701
 30
0
 11
2.84545672601157
 21
8.82353024019701
 31
0
  0
ARC
  5
345B
100
AcDbEntity
  8
LP-61
100
AcDbCircle
370
-1
  6
BYLAYER
 10
7.71545672601157
 20
5.67353024019701
 30
0
 40
0.1127411106419
100
AcDbArc
 50
330.432109303136
 51
299.567890696863
  0
CIRCLE
  5
345C
100
AcDbEntity
  8
LP-61
100
AcDbCircle
370
-1
  6
BYLAYER
 10
7.71545672601157
 20
5.67353024019701
 30
0
 40
0.09375
  0
LINE
  5
345D
100
AcDbEntity
  8
LP-61
100
AcDbLine
370
-1
  6
BYLAYER
 10
7.75704902591764
 20
5.58951153341974
 30
0
 11
7.84671200870415
 21
5.49984855063323
 31
0
  0
CIRCLE
  5
345E
100
AcDbEntity
  8
LP-61
100
AcDbCircle
370
-1
  6
BYLAYER
 10
7.71545672601157
 20
5.67353024019701
 30
0
 40
0.043
  0
LINE
  5
345F
100
AcDbEntity
  8
LP-61
100
AcDbLine
370
-1
  6
BYLAYER
 10
7.79947543278883
 20
5.63193794029094
 30
0
 11
7.88948415219644
 21
5.54192922088333
 31
0
  0
LINE
  5
3460
100
AcDbEntity
  8
LP-61
100
AcDbLine
370
-1
 62
1
  6
BYLAYER
 10
7.71545672601157
 20
5.64353024019701
 30
0
 11
7.71545672601157
 21
5.70353024019701
 31
0
  0
LINE
  5
3461
100
AcDbEntity
  8
LP-61
100
AcDbLine
370
-1
 62
1
  6
BYLAYER
 10
7.74545672601157
 20
5.67353024019701
 30
0
 11
7.68545672601157
 21
5.67353024019701
 31
0
  0
CIRCLE
  5
3462
100
AcDbEntity
  8
LP-61
100
AcDbCircle
370
-1
  6
BYLAYER
 10
7.71545672601157
 20
8.82353024019701
 30
0
 40
0.09375
  0
ARC
  5
3463
100
AcDbEntity
  8
LP-61
100
AcDbCircle
370
-1
  6
BYLAYER
 10
7.71545672601157
 20
8.82353024019701
 30
0
 40
0.1127411106419
100
AcDbArc
 50
60.4321093031369
 51
29.5678906968641
  0
CIRCLE
  5
3464
100
AcDbEntity
  8
LP-61
100
AcDbCircle
370
-1
  6
BYLAYER
 10
7.71545672601157
 20
8.82353024019701
 30
0
 40
0.043
  0
LINE
  5
3465
100
AcDbEntity
  8
LP-61
100
AcDbLine
370
-1
 62
1
  6
BYLAYER
 10
7.74545672601157
 20
8.82353024019701
 30
0
 11
7.68545672601157
 21
8.82353024019701
 31
0
  0
LINE
  5
3466
100
AcDbEntity
  8
LP-61
100
AcDbLine
370
-1
 62
1
  6
BYLAYER
 10
7.71545672601157
 20
8.85353024019701
 30
0
 11
7.71545672601157
 21
8.79353024019701
 31
0
  0
LINE
  5
3467
100
AcDbEntity
  8
LP-61
100
AcDbLine
370
-1
  6
BYLAYER
 10
7.79947543278883
 20
8.86512254010308
 30
0
 11
7.88948415219645
 21
8.95513125951069
 31
0
  0
LINE
  5
3468
100
AcDbEntity
  8
LP-61
100
AcDbLine
370
-1
  6
BYLAYER
 10
7.75704902591764
 20
8.90754894697427
 30
0
 11
7.84671200870415
 21
8.99721192976078
 31
0
  0
CIRCLE
  5
346D
100
AcDbEntity
  8
LP-61
100
AcDbCircle
370
-1
  6
BYLAYER
 10
3.07545672601157
 20
8.56103024019701
 30
0
 40
0.094
  0
CIRCLE
  5
346E
100
AcDbEntity
  8
LP-61
100
AcDbCircle
370
-1
  6
BYLAYER
 10
3.07545672601157
 20
8.56103024019701
 30
0
 40
0.043
  0
LINE
  5
346F
100
AcDbEntity
  8
LP-61
100
AcDbLine
370
-1
 62
1
  6
BYLAYER
 10
3.04545672601157
 20
8.56103024019701
 30
0
 11
3.10545672601157
 21
8.56103024019701
 31
0
  0
LINE
  5
3470
100
AcDbEntity
  8
LP-61
100
AcDbLine
370
-1
 62
1
  6
BYLAYER
 10
3.07545672601157
 20
8.53103024019701
 30
0
 11
3.07545672601157
 21
8.59103024019701
 31
0
  0
CIRCLE
  5
3471
100
AcDbEntity
  8
LP-61
100
AcDbCircle
370
-1
  6
BYLAYER
 10
3.07545672601157
 20
5.93603024019701
 30
0
 40
0.094
  0
LINE
  5
3472
100
AcDbEntity
  8
LP-61
100
AcDbLine
370
-1
 62
1
  6
BYLAYER
 10
3.07545672601157
 20
5.96603024019701
 30
0
 11
3.07545672601157
 21
5.90603024019701
 31
0
  0
LINE
  5
3473
100
AcDbEntity
  8
LP-61
100
AcDbLine
370
-1
 62
1
  6
BYLAYER
 10
3.04545672601157
 20
5.93603024019701
 30
0
 11
3.10545672601157
 21
5.93603024019701
 31
0
  0
CIRCLE
  5
3474
100
AcDbEntity
  8
LP-61
100
AcDbCircle
370
-1
  6
BYLAYER
 10
3.07545672601157
 20
5.93603024019701
 30
0
 40
0.043
  0
LINE
  5
347F
100
AcDbEntity
  8
LP-61
100
AcDbLine
370
-1
 62
4
  6
HIDDEN2
 10
3.11845672601157
 20
2.29814227943595
 30
0
 11
3.11845672601157
 21
2.06814227943595
 31
0
  0
LINE
  5
3480
100
AcDbEntity
  8
LP-61
100
AcDbLine
370
-1
 62
4
  6
HIDDEN2
 10
3.16945672601157
 20
2.29814227943595
 30
0
 11
3.17347139094506
 21
2.06814227943595
 31
0
  0
LINE
  5
3482
100
AcDbEntity
  8
LP-61
100
AcDbLine
370
-1
 62
4
  6
HIDDEN2
 10
3.16945672601157
 20
2.29814227943595
 30
0
 11
2.98145672601157
 21
2.29814227943595
 31
0
  0
LINE
  5
3483
100
AcDbEntity
  8
LP-61
100
AcDbLine
370
-1
 62
4
  6
HIDDEN2
 10
2.98145672601157
 20
2.29814227943595
 30
0
 11
2.97744206107808
 21
2.06814227943595
 31
0
  0
LINE
  5
3484
100
AcDbEntity
  8
LP-61
100
AcDbLine
370
-1
 62
4
  6
HIDDEN2
 10
3.03245672601157
 20
2.29814227943595
 30
0
 11
3.03245672601157
 21
2.06814227943595
 31
0
  0
ARC
  5
348E
100
AcDbEntity
  8
LP-61
100
AcDbCircle
370
-1
 62
4
 48
0.5
  6
HIDDEN2
 10
5.26545672601157
 20
1.93480894610261
 30
0
 40
0.193333333333335
100
AcDbArc
 50
43.6028189727039
 51
136.397181027295
  0
ARC
  5
348F
100
AcDbEntity
  8
LP-61
100
AcDbCircle
370
-1
 62
4
 48
0.5
  6
HIDDEN2
 10
5.26545672601157
 20
1.92157340819319
 30
0
 40
0.0882817068753478
100
AcDbArc
 50
31.8369019297608
 51
148.163098070239
  0
CIRCLE
  5
3490
100
AcDbEntity
  8
LP-61
100
AcDbCircle
370
-1
  6
BYLAYER
 10
5.26545672601157
 20
7.24853024019701
 30
0
 40
0.14
  0
CIRCLE
  5
3491
100
AcDbEntity
  8
LP-61
100
AcDbCircle
370
-1
 62
4
 48
0.5
  6
HIDDEN2
 10
5.26545672601157
 20
7.24853024019701
 30
0
 40
0.075
  0
ARC
  5
3493
100
AcDbEntity
  8
LP-61
100
AcDbCircle
370
-1
 62
4
 48
0.5
  6
HIDDEN2
 10
14.3990824042585
 20
7.248530240197
 30
0
 40
0.193333333333335
100
AcDbArc
 50
133.602818972704
 51
226.397181027295
  0
ARC
  5
3494
100
AcDbEntity
  8
LP-61
100
AcDbCircle
370
-1
 62
4
 48
0.5
  6
HIDDEN2
 10
14.412317942168
 20
7.24853024019701
 30
0
 40
0.0882817068753478
100
AcDbArc
 50
121.836901929761
 51
238.163098070239
  0
LINE
  5
3497
100
AcDbEntity
  8
LP-61
100
AcDbLine
370
-1
 62
4
  6
HIDDEN2
 10
7.80920672601157
 20
3.15614227943595
 30
0
 11
7.82819783665347
 21
2.06814227943595
 31
0
  0
LINE
  5
3498
100
AcDbEntity
  8
LP-61
100
AcDbLine
370
-1
 62
4
  6
HIDDEN2
 10
7.62170672601157
 20
3.15614227943595
 30
0
 11
7.60271561536967
 21
2.06814227943595
 31
0
  0
LWPOLYLINE
  5
349B
100
AcDbEntity
  8
LP-61
100
AcDbPolyline
370
-1
  6
BYLAYER
 38
0
 90
4
 70
0
 10
7.94245672601157
 20
1.96814227943595
 10
8.39045672601157
 20
1.96814227943595
 42
0.414213562373095
 10
8.51545672601157
 20
2.09314227943595
 10
8.06745672601157
 20
2.09314227943595
  0
LINE
  5
349C
100
AcDbEntity
  8
LP-61
100
AcDbLine
370
-1
 62
4
 48
0.5
  6
HIDDEN2
 10
8.36045672601157
 20
2.09314227943595
 30
0
 11
8.37139280895231
 21
1.96814227943595
 31
0
  0
LINE
  5
349D
100
AcDbEntity
  8
LP-61
100
AcDbLine
370
-1
 62
4
 48
0.5
  6
HIDDEN2
 10
8.17045672601157
 20
2.09314227943595
 30
0
 11
8.15952064307083
 21
1.96814227943595
 31
0
  0
LINE
  5
34A6
100
AcDbEntity
  8
LP-61
100
AcDbLine
370
-1
 62
4
  6
HIDDEN2
 10
7.62170672601157
 20
3.15614227943595
 30
0
 11
7.80920672601157
 21
3.15614227943595
 31
0
  0
LINE
  5
34A7
100
AcDbEntity
  8
LP-61
100
AcDbLine
370
-1
 62
4
  6
HIDDEN2
 10
7.75845672601157
 20
3.15614227943595
 30
0
 11
7.75845672601157
 21
2.65614227943595
 31
0
  0
LINE
  5
34A8
100
AcDbEntity
  8
LP-61
100
AcDbLine
370
-1
 62
4
  6
HIDDEN2
 10
7.67245672601157
 20
3.15614227943595
 30
0
 11
7.67245672601157
 21
2.65614227943595
 31
0
  0
LINE
  5
34A9
100
AcDbEntity
  8
LP-61
100
AcDbLine
370
-1
 62
4
 48
0.5
  6
HIDDEN2
 10
7.67245672601157
 20
2.65614227943595
 30
0
 11
7.75845672601157
 21
2.65614227943595
 31
0
  0
LINE
  5
34AE
100
AcDbEntity
  8
LP-61
100
AcDbLine
370
-1
 62
4
  6
HIDDEN2
 10
13.1777490709252
 20
8.72978024019701
 30
0
 11
14.2657490709252
 21
8.7107891295551
 31
0
  0
LINE
  5
34AF
100
AcDbEntity
  8
LP-61
100
AcDbLine
370
-1
 62
4
  6
HIDDEN2
 10
13.1777490709252
 20
8.91728024019701
 30
0
 11
14.2657490709252
 21
8.9362713508389
 31
0
  0
LINE
  5
34B1
100
AcDbEntity
  8
LP-61
100
AcDbLine
370
-1
 62
4
 48
0.5
  6
HIDDEN2
 10
13.2387723195391
 20
8.91834540496369
 30
0
 11
13.2387723195391
 21
9.03945663257116
 31
0
  0
LINE
  5
34B2
100
AcDbEntity
  8
LP-61
100
AcDbLine
370
-1
 62
4
  6
HIDDEN2
 10
13.1777490709252
 20
8.780530240197
 30
0
 11
13.6777490709252
 21
8.780530240197
 31
0
  0
LINE
  5
34B3
100
AcDbEntity
  8
LP-61
100
AcDbLine
370
-1
 62
4
  6
HIDDEN2
 10
13.1777490709252
 20
8.866530240197
 30
0
 11
13.6777490709252
 21
8.866530240197
 31
0
  0
LINE
  5
34B4
100
AcDbEntity
  8
LP-61
100
AcDbLine
370
-1
 62
4
 48
0.5
  6
HIDDEN2
 10
13.6777490709252
 20
8.780530240197
 30
0
 11
13.6777490709252
 21
8.866530240197
 31
0
  0
LINE
  5
34B5
100
AcDbEntity
  8
LP-61
100
AcDbLine
370
-1
 62
4
  6
HIDDEN2
 10
13.1777490709252
 20
8.72978024019701
 30
0
 11
13.1777490709252
 21
8.91728024019701
 31
0
  0
LINE
  5
34B7
100
AcDbEntity
  8
LP-61
100
AcDbLine
370
-1
 62
4
  6
HIDDEN2
 10
14.0357490709252
 20
8.518030240197
 30
0
 11
14.2657490709252
 21
8.518030240197
 31
0
  0
LINE
  5
34B8
100
AcDbEntity
  8
LP-61
100
AcDbLine
370
-1
 62
4
  6
HIDDEN2
 10
14.0357490709252
 20
8.467030240197
 30
0
 11
14.2657490709252
 21
8.46301557526351
 31
0
  0
LINE
  5
34B9
100
AcDbEntity
  8
LP-61
100
AcDbLine
370
-1
 62
4
  6
HIDDEN2
 10
14.0357490709252
 20
8.604030240197
 30
0
 11
14.2657490709252
 21
8.604030240197
 31
0
  0
LINE
  5
34BA
100
AcDbEntity
  8
LP-61
100
AcDbLine
370
-1
 62
4
  6
HIDDEN2
 10
14.0357490709252
 20
8.467030240197
 30
0
 11
14.0357490709252
 21
8.65503024019701
 31
0
  0
LINE
  5
34BB
100
AcDbEntity
  8
LP-61
100
AcDbLine
370
-1
 62
4
  6
HIDDEN2
 10
14.0357490709252
 20
8.655030240197
 30
0
 11
14.2657490709252
 21
8.65904490513049
 31
0
  0
LINE
  5
34BD
100
AcDbEntity
  8
LP-61
100
AcDbLine
370
-1
 62
4
  6
HIDDEN2
 10
13.1777490709252
 20
5.76728024019701
 30
0
 11
14.2657490709252
 21
5.78627135083891
 31
0
  0
LINE
  5
34BE
100
AcDbEntity
  8
LP-61
100
AcDbLine
370
-1
 62
4
  6
HIDDEN2
 10
13.1777490709252
 20
5.57978024019701
 30
0
 11
14.2657490709252
 21
5.56078912955511
 31
0
  0
LWPOLYLINE
  5
34C1
100
AcDbEntity
  8
LP-61
100
AcDbPolyline
370
-1
  6
BYLAYER
 38
0
 90
3
 70
0
 10
14.3657490709252
 20
5.44853024019701
 42
-0.414213562373095
 10
14.2407490709252
 20
5.32353024019701
 10
13.1157490709252
 20
5.35353024019701
  0
LINE
  5
34C2
100
AcDbEntity
  8
LP-61
100
AcDbLine
370
-1
 62
4
  6
HIDDEN2
 10
13.1777490709252
 20
5.71653024019701
 30
0
 11
13.6777490709252
 21
5.71653024019701
 31
0
  0
LINE
  5
34C3
100
AcDbEntity
  8
LP-61
100
AcDbLine
370
-1
 62
4
  6
HIDDEN2
 10
13.1777490709252
 20
5.63053024019701
 30
0
 11
13.6777490709252
 21
5.63053024019701
 31
0
  0
LINE
  5
34C4
100
AcDbEntity
  8
LP-61
100
AcDbLine
370
-1
 62
4
  6
HIDDEN2
 10
13.1777490709252
 20
5.76728024019701
 30
0
 11
13.1777490709252
 21
5.57978024019701
 31
0
  0
LINE
  5
34C5
100
AcDbEntity
  8
LP-61
100
AcDbLine
370
-1
 62
4
 48
0.5
  6
HIDDEN2
 10
13.2387723195391
 20
5.57871507543032
 30
0
 11
13.2387723195391
 21
5.45760384782285
 31
0
  0
LINE
  5
34C6
100
AcDbEntity
  8
LP-61
100
AcDbLine
370
-1
 62
4
 48
0.5
  6
HIDDEN2
 10
13.6777490709252
 20
5.71653024019701
 30
0
 11
13.6777490709252
 21
5.63053024019701
 31
0
  0
LINE
  5
34C8
100
AcDbEntity
  8
LP-61
100
AcDbLine
370
-1
 62
4
  6
HIDDEN2
 10
14.0357490709252
 20
5.89303024019701
 30
0
 11
14.2657490709252
 21
5.89303024019701
 31
0
  0
LINE
  5
34CA
100
AcDbEntity
  8
LP-61
100
AcDbLine
370
-1
 62
4
  6
HIDDEN2
 10
14.0357490709252
 20
5.97903024019701
 30
0
 11
14.2657490709252
 21
5.97903024019701
 31
0
  0
LINE
  5
34CB
100
AcDbEntity
  8
LP-61
100
AcDbLine
370
-1
 62
4
  6
HIDDEN2
 10
14.0357490709252
 20
6.03003024019701
 30
0
 11
14.0357490709252
 21
5.84203024019701
 31
0
  0
CIRCLE
  5
34D0
100
AcDbEntity
  8
DEFPOINTS
100
AcDbCircle
370
-1
 62
4
  6
BYLAYER
 10
4.77285115655703
 20
7.24853024019701
 30
0
 40
0.16
  0
LINE
  5
3966
100
AcDbEntity
  8
LP-61
100
AcDbLine
370
-1
 62
4
  6
HIDDEN2
 10
2.59595672601157
 20
3.21814227943595
 30
0
 11
2.60585421257144
 21
2.08400265486797
 31
0
  0
ARC
  5
3967
100
AcDbEntity
  8
LP-61
100
AcDbCircle
370
-1
 62
4
  6
HIDDEN2
 10
2.62185360334046
 20
2.08414227943595
 30
0
 40
0.016
100
AcDbArc
 50
180.5
 51
270
  0
LINE
  5
39C2
100
AcDbEntity
  8
LP-61
100
AcDbLine
370
-1
 62
4
  6
HIDDEN2
 10
7.49845672601157
 20
2.29814227943595
 30
0
 11
7.49845672601157
 21
2.06814227943595
 31
0
  0
LINE
  5
39C3
100
AcDbEntity
  8
LP-61
100
AcDbLine
370
-1
 62
4
  6
HIDDEN2
 10
7.54945672601157
 20
2.29814227943595
 30
0
 11
7.55347139094506
 21
2.06814227943595
 31
0
  0
LINE
  5
39C4
100
AcDbEntity
  8
LP-61
100
AcDbLine
370
-1
 62
4
  6
HIDDEN2
 10
7.36145672601157
 20
2.29814227943595
 30
0
 11
7.35744206107808
 21
2.06814227943595
 31
0
  0
LINE
  5
39C5
100
AcDbEntity
  8
LP-61
100
AcDbLine
370
-1
 62
4
  6
HIDDEN2
 10
7.41245672601157
 20
2.29814227943595
 30
0
 11
7.41245672601157
 21
2.06814227943595
 31
0
  0
LINE
  5
39C6
100
AcDbEntity
  8
LP-61
100
AcDbLine
370
-1
 62
4
  6
HIDDEN2
 10
7.36145672601157
 20
2.29814227943595
 30
0
 11
7.54945672601157
 21
2.29814227943595
 31
0
  0
LINE
  5
39D7
100
AcDbEntity
  8
LP-61
100
AcDbLine
370
-1
 62
4
  6
HIDDEN2
 10
2.72170672601157
 20
3.15614227943595
 30
0
 11
2.70271561536967
 21
2.06814227943595
 31
0
  0
LINE
  5
39D8
100
AcDbEntity
  8
LP-61
100
AcDbLine
370
-1
 62
4
  6
HIDDEN2
 10
2.90920672601157
 20
3.15614227943595
 30
0
 11
2.92819783665347
 21
2.06814227943595
 31
0
  0
LINE
  5
39DA
100
AcDbEntity
  8
LP-61
100
AcDbLine
370
-1
 62
4
  6
HIDDEN2
 10
2.77245672601157
 20
3.15614227943595
 30
0
 11
2.77245672601157
 21
2.65614227943595
 31
0
  0
LINE
  5
39DB
100
AcDbEntity
  8
LP-61
100
AcDbLine
370
-1
 62
4
  6
HIDDEN2
 10
2.85845672601157
 20
3.15614227943595
 30
0
 11
2.85845672601157
 21
2.65614227943595
 31
0
  0
LINE
  5
39DC
100
AcDbEntity
  8
LP-61
100
AcDbLine
370
-1
 62
4
 48
0.5
  6
HIDDEN2
 10
2.85845672601157
 20
2.65614227943595
 30
0
 11
2.77245672601157
 21
2.65614227943595
 31
0
  0
LINE
  5
39DD
100
AcDbEntity
  8
LP-61
100
AcDbLine
370
-1
 62
4
  6
HIDDEN2
 10
2.90920672601157
 20
3.15614227943595
 30
0
 11
2.72170672601157
 21
3.15614227943595
 31
0
  0
LINE
  5
39DF
100
AcDbEntity
  8
LP-61
100
AcDbLine
370
-1
 62
4
 48
0.5
  6
HIDDEN2
 10
7.81023635253383
 20
3.09715501548161
 30
0
 11
7.93348068315256
 21
3.09725361096188
 31
0
  0
ARC
  5
39E0
100
AcDbEntity
  8
LP-61
100
AcDbCircle
370
-1
 62
4
  6
HIDDEN2
 10
7.90946620266466
 20
2.08625732447568
 30
0
 40
0.016
100
AcDbArc
 50
270.045836621166
 51
359.545836621166
  0
CIRCLE
  5
3A5C
100
AcDbEntity
  8
LP-61
100
AcDbCircle
370
-1
  6
BYLAYER
 10
7.45545672601157
 20
8.56103024019701
 30
0
 40
0.094
  0
LINE
  5
3A5D
100
AcDbEntity
  8
LP-61
100
AcDbLine
370
-1
 62
1
  6
BYLAYER
 10
7.45545672601157
 20
8.53103024019701
 30
0
 11
7.45545672601157
 21
8.59103024019701
 31
0
  0
CIRCLE
  5
3A5E
100
AcDbEntity
  8
LP-61
100
AcDbCircle
370
-1
  6
BYLAYER
 10
7.45545672601157
 20
8.56103024019701
 30
0
 40
0.043
  0
CIRCLE
  5
3A5F
100
AcDbEntity
  8
LP-61
100
AcDbCircle
370
-1
  6
BYLAYER
 10
7.45545672601157
 20
5.93603024019701
 30
0
 40
0.043
  0
CIRCLE
  5
3A60
100
AcDbEntity
  8
LP-61
100
AcDbCircle
370
-1
  6
BYLAYER
 10
7.45545672601157
 20
5.93603024019701
 30
0
 40
0.094
  0
LINE
  5
3A61
100
AcDbEntity
  8
LP-61
100
AcDbLine
370
-1
 62
1
  6
BYLAYER
 10
7.45545672601157
 20
5.96603024019701
 30
0
 11
7.45545672601157
 21
5.90603024019701
 31
0
  0
LINE
  5
3A62
100
AcDbEntity
  8
LP-61
100
AcDbLine
370
-1
 62
1
  6
BYLAYER
 10
7.48545672601157
 20
5.93603024019701
 30
0
 11
7.42545672601157
 21
5.93603024019701
 31
0
  0
LINE
  5
3A63
100
AcDbEntity
  8
LP-61
100
AcDbLine
370
-1
 62
1
  6
BYLAYER
 10
7.48545672601157
 20
8.56103024019701
 30
0
 11
7.42545672601157
 21
8.56103024019701
 31
0
  0
LINE
  5
3A94
100
AcDbEntity
  8
LP-61
100
AcDbLine
370
-1
 62
4
  6
HIDDEN2
 10
7.93495672601157
 20
3.21814227943595
 30
0
 11
7.92505923945171
 21
2.08400265486797
 31
0
  0
LWPOLYLINE
  5
3A95
100
AcDbEntity
  8
LP-61
100
AcDbPolyline
370
-1
  6
BYLAYER
 38
0
 90
3
 70
0
 10
7.94295672601157
 20
1.96814227943595
 42
0.414213562373095
 10
8.06795672601157
 20
2.09314227943595
 10
8.03795672601157
 20
3.21814227943595
  0
LINE
  5
3AEB
100
AcDbEntity
  8
LP-61
100
AcDbLine
370
-1
 62
4
  6
HIDDEN2
 10
13.1157490709252
 20
5.45653024019701
 30
0
 11
14.2498886954932
 21
5.46642772675687
 31
0
  0
ARC
  5
3AEC
100
AcDbEntity
  8
LP-61
100
AcDbCircle
370
-1
 62
4
  6
HIDDEN2
 10
14.2497490709252
 20
5.4824271175259
 30
0
 40
0.016
100
AcDbArc
 50
270.5
 51
0
  0
LINE
  5
3AF9
100
AcDbEntity
  8
LP-61
100
AcDbLine
370
-1
 62
4
  6
HIDDEN2
 10
13.1157490709252
 20
9.04053024019701
 30
0
 11
14.2498886954932
 21
9.03063275363714
 31
0
  0
ARC
  5
3AFA
100
AcDbEntity
  8
LP-61
100
AcDbCircle
370
-1
 62
4
  6
HIDDEN2
 10
14.2497490709252
 20
9.01463336286812
 30
0
 40
0.016
100
AcDbArc
 50
0
 51
89.5
  0
LINE
  5
3B58
100
AcDbEntity
  8
LP-61
100
AcDbLine
370
-1
 62
4
  6
HIDDEN2
 10
14.0357490709252
 20
6.03003024019701
 30
0
 11
14.2657490709252
 21
6.0340449051305
 31
0
  0
LINE
  5
3B59
100
AcDbEntity
  8
LP-61
100
AcDbLine
370
-1
 62
4
  6
HIDDEN2
 10
14.0357490709252
 20
5.84203024019701
 30
0
 11
14.2657490709252
 21
5.83801557526352
 31
0
  0
LWPOLYLINE
  5
3B96
100
AcDbEntity
  8
LP-61
100
AcDbPolyline
370
-1
  6
BYLAYER
 38
0
 90
8
 70
1
 10
2.80595672601157
 20
9.14353024019701
 10
7.72495672601157
 20
9.14353024019701
 42
-0.414213562373095
 10
8.03795672601157
 20
8.83053024019701
 10
8.03795672601157
 20
5.66653024019701
 42
-0.414213562373095
 10
7.72495672601157
 20
5.35353024019701
 10
2.80595672601157
 20
5.35353024019701
 42
-0.414213562373095
 10
2.49295672601157
 20
5.66653024019701
 10
2.49295672601157
 20
8.830530240197
 42
-0.414213562373095
  0
LWPOLYLINE
  5
3B97
100
AcDbEntity
  8
LP-61
100
AcDbPolyline
370
-1
  6
BYLAYER
 38
0
 90
8
 70
1
 10
7.71595672601157
 20
5.45653024019701
 10
2.81495672601157
 20
5.45653024019701
 42
-0.414213562373095
 10
2.59595672601157
 20
5.67553024019701
 10
2.59595672601157
 20
8.82153024019701
 42
-0.414213562373095
 10
2.81495672601157
 20
9.04053024019701
 10
7.71595672601157
 20
9.04053024019701
 42
-0.414213562373095
 10
7.93495672601157
 20
8.82153024019701
 10
7.93495672601157
 20
5.67553024019701
 42
-0.414213562373095
  0
LWPOLYLINE
  5
3BB6
100
AcDbEntity
  8
LP-61
100
AcDbPolyline
370
-1
  6
BYLAYER
 38
0
 90
6
 70
0
 10
2.5637119932834
 20
5.42428550746883
 10
2.0705206511485
 20
5.91747684960373
 42
-0.198912367379658
 10
2.01545672601157
 20
6.0504129244668
 10
2.01545672601157
 20
8.44664755592721
 42
-0.198912367379658
 10
2.0705206511485
 20
8.57958363079028
 10
2.5637119932834
 20
9.07277497292518
  0
LWPOLYLINE
  5
3BB7
100
AcDbEntity
  8
LP-61
100
AcDbPolyline
370
-1
  6
BYLAYER
 38
0
 90
6
 70
0
 10
7.96720145873974
 20
5.42428550746883
 10
8.46039280087464
 20
5.91747684960373
 42
0.198912367379658
 10
8.51545672601157
 20
6.0504129244668
 10
8.51545672601157
 20
8.44664755592721
 42
0.198912367379658
 10
8.46039280087464
 20
8.57958363079028
 10
7.96720145873974
 20
9.07277497292518
  0
LWPOLYLINE
  5
3BB8
100
AcDbEntity
  8
LP-61
100
AcDbPolyline
370
-1
  6
BYLAYER
 38
0
 90
8
 70
1
 10
7.72395672601157
 20
5.32353024019701
 42
0.414213562373094
 10
8.06795672601157
 20
5.66753024019701
 10
8.06795672601157
 20
8.82953024019701
 42
0.414213562373095
 10
7.72395672601157
 20
9.17353024019701
 10
2.80695672601157
 20
9.17353024019701
 42
0.414213562373096
 10
2.46295672601157
 20
8.82953024019701
 10
2.46295672601157
 20
5.66753024019701
 42
0.414213562373095
 10
2.80695672601157
 20
5.32353024019701
  0
MTEXT
  5
3BF7
100
AcDbEntity
  8
0
100
AcDbMText
370
-1
 62
4
 10
7.46980917526461
 20
78.5816418730084
 30
0
 40
0.125
  1
\A1;
 50
0
 41
0
  7
STANDARD
 71
1
 11
1
 21
0
 31
0
 73
1
 44
1
  0
MTEXT
  5
3BF8
100
AcDbEntity
  8
0
100
AcDbMText
370
-1
 62
4
 10
6.31174211966223
 20
78.9060099479283
 30
0
 40
0.125
  1
\A1;
 50
0
 41
0
  7
STANDARD
 71
1
 11
1
 21
0
 31
0
 73
1
 44
1
  0
MTEXT
  5
3BF9
100
AcDbEntity
  8
0
100
AcDbMText
370
-1
 62
4
 10
2.23491616132458
 20
76.448169583524
 30
0
 40
0.125
  1
\A1;
 50
0
 41
0
  7
STANDARD
 71
1
 11
1
 21
0
 31
0
 73
1
 44
1
  0
MTEXT
  5
3BFA
100
AcDbEntity
  8
0
100
AcDbMText
370
-1
 62
4
 10
2.73896238806989
 20
75.9025213293234
 30
0
 40
0.125
  1
\A1;
 50
0
 41
0
  7
STANDARD
 71
1
 11
1
 21
0
 31
0
 73
1
 44
1
  0
MTEXT
  5
3BFB
100
AcDbEntity
  8
0
100
AcDbMText
370
-1
 62
4
 10
2.36686935708175
 20
74.6587859936289
 30
0
 40
0.125
  1
\A1;
 50
0
 41
0
  7
STANDARD
 71
1
 11
1
 21
0
 31
0
 73
1
 44
1
  0
MTEXT
  5
3BFC
100
AcDbEntity
  8
0
100
AcDbMText
370
-1
 62
4
 10
2.41958855973361
 20
74.4081070689708
 30
0
 40
0.125
  1
\A1;
 50
0
 41
0
  7
STANDARD
 71
1
 11
1
 21
0
 31
0
 73
1
 44
1
  0
MTEXT
  5
3BFD
100
AcDbEntity
  8
0
100
AcDbMText
370
-1
 62
4
 10
17.1805572197599
 20
63.0389364992081
 30
0
 40
0.125
  1
\A1;
 50
0
 41
0
  7
STANDARD
 71
1
 11
1
 21
0
 31
0
 73
1
 44
1
  0
MTEXT
  5
3BFE
100
AcDbEntity
  8
0
100
AcDbMText
370
-1
 62
4
 10
23.165546581402
 20
61.0882240666582
 30
0
 40
0.125
  1
\A1;
 50
0
 41
0
  7
STANDARD
 71
1
 11
1
 21
0
 31
0
 73
1
 44
1
  0
MTEXT
  5
3BFF
100
AcDbEntity
  8
0
100
AcDbMText
370
-1
 62
4
 10
-3.50466418843262
 20
55.6461814436359
 30
0
 40
0.125
  1
\A1;
 50
0
 41
0
  7
STANDARD
 71
1
 11
1
 21
0
 31
0
 73
1
 44
1
  0
MTEXT
  5
3C00
100
AcDbEntity
  8
0
100
AcDbMText
370
-1
 62
4
 10
-7.44574647888189
 20
51.8920770736136
 30
0
 40
0.125
  1
\A1;
 50
0
 41
0
  7
STANDARD
 71
1
 11
1
 21
0
 31
0
 73
1
 44
1
  0
MTEXT
  5
3C01
100
AcDbEntity
  8
0
100
AcDbMText
370
-1
 62
4
 10
-7.13079168923316
 20
52.6425704722488
 30
0
 40
0.125
  1
\A1;
 50
0
 41
0
  7
STANDARD
 71
1
 11
1
 21
0
 31
0
 73
1
 44
1
  0
MTEXT
  5
3C02
100
AcDbEntity
  8
0
100
AcDbMText
370
-1
 62
4
 10
-7.55880716293051
 20
53.1913183345177
 30
0
 40
0.125
  1
\A1;
 50
0
 41
0
  7
STANDARD
 71
1
 11
1
 21
0
 31
0
 73
1
 44
1
  0
MTEXT
  5
3C03
100
AcDbEntity
  8
0
100
AcDbMText
370
-1
 62
4
 10
0.903929204748473
 20
54.8470243635824
 30
0
 40
0.125
  1
\A1;
 50
0
 41
0
  7
STANDARD
 71
1
 11
1
 21
0
 31
0
 73
1
 44
1
  0
MTEXT
  5
3C04
100
AcDbEntity
  8
0
100
AcDbMText
370
-1
 62
4
 10
6.776108487589
 20
52.9099723782282
 30
0
 40
0.125
  1
\A1;
 50
0
 41
0
  7
STANDARD
 71
1
 11
1
 21
0
 31
0
 73
1
 44
1
  0
MTEXT
  5
3C05
100
AcDbEntity
  8
0
100
AcDbMText
370
-1
 62
5
 10
-3.21898904143108
 20
55.5703639126874
 30
0
 40
0.125
  1
\A1;
 50
0
 41
0
  7
STANDARD
 71
1
 11
1
 21
0
 31
0
 73
1
 44
1
  0
MTEXT
  5
3C06
100
AcDbEntity
  8
0
100
AcDbMText
370
-1
 62
5
 10
-7.30734459063473
 20
52.9532879389306
 30
0
 40
0.125
  1
\A1;
 50
0
 41
0
  7
STANDARD
 71
1
 11
1
 21
0
 31
0
 73
1
 44
1
  0
MTEXT
  5
3C07
100
AcDbEntity
  8
0
100
AcDbMText
370
-1
 62
5
 10
-7.04036821144146
 20
52.3062046147884
 30
0
 40
0.125
  1
\A1;
 50
0
 41
0
  7
STANDARD
 71
1
 11
1
 21
0
 31
0
 73
1
 44
1
  0
MTEXT
  5
3C08
100
AcDbEntity
  8
0
100
AcDbMText
370
-1
 62
5
 10
-7.31785599052169
 20
51.5949543834795
 30
0
 40
0.125
  1
\A1;
 50
0
 41
0
  7
STANDARD
 71
1
 11
1
 21
0
 31
0
 73
1
 44
1
  0
MTEXT
  5
3C09
100
AcDbEntity
  8
0
100
AcDbMText
370
-1
 62
5
 10
-7.34653882917059
 20
50.5700782918477
 30
0
 40
0.125
  1
\A1;
 50
0
 41
0
  7
STANDARD
 71
1
 11
1
 21
0
 31
0
 73
1
 44
1
  0
MTEXT
  5
3C0A
100
AcDbEntity
  8
0
100
AcDbMText
370
-1
 62
5
 10
0.890912407039289
 20
55.093398278104
 30
0
 40
0.125
  1
\A1;
 50
0
 41
0
  7
STANDARD
 71
1
 11
1
 21
0
 31
0
 73
1
 44
1
  0
MTEXT
  5
3C0B
100
AcDbEntity
  8
0
100
AcDbMText
370
-1
 62
5
 10
6.74627389349239
 20
52.7146632977652
 30
0
 40
0.125
  1
\A1;
 50
0
 41
0
  7
STANDARD
 71
1
 11
1
 21
0
 31
0
 73
1
 44
1
  0
MTEXT
  5
3C0C
100
AcDbEntity
  8
0
100
AcDbMText
370
-1
 62
5
 10
2.1469084472155
 20
48.9112477326185
 30
0
 40
0.125
  1
\A1;
 50
0
 41
0
  7
STANDARD
 71
1
 11
1
 21
0
 31
0
 73
1
 44
1
  0
MTEXT
  5
3C0D
100
AcDbEntity
  8
0
100
AcDbMText
370
-1
 62
4
 10
13.3253002826076
 20
18.3437641360181
 30
0
 40
0.125
  1
\A1;
 50
0
 41
0
  7
STANDARD
 71
1
 11
1
 21
0
 31
0
 73
1
 44
1
  0
INSERT
  5
3C22
100
AcDbEntity
  8
LP-61
100
AcDbBlockReference
370
-1
  6
BYLAYER
  2
CL
 10
5.26545672601157
 20
9.27353024019701
 30
0
 41
1
 42
1
 43
1
  0
INSERT
  5
3C23
100
AcDbEntity
  8
LP-61
100
AcDbBlockReference
370
-1
  6
BYLAYER
  2
CL
 10
5.26545672601157
 20
3.31814227943595
 30
0
 41
1
 42
1
 43
1
  0
INSERT
  5
3C24
100
AcDbEntity
  8
LP-61
100
AcDbBlockReference
370
-1
  6
BYLAYER
  2
CL
 10
1.91545672601157
 20
7.24853024019701
 30
0
 41
1
 42
1
 43
1
  0
INSERT
  5
3C25
100
AcDbEntity
  8
LP-61
100
AcDbBlockReference
370
-1
  6
BYLAYER
  2
CL
 10
13.0157490709252
 20
7.24853024019701
 30
0
 41
1
 42
1
 43
1
  0
DIMENSION
  5
3C3D
100
AcDbEntity
  8
0
100
AcDbDimension
370
-1
  1
<> (2 PLCS.)
  3
STANDARD
  2
*D4
 10
7.45545672601157
 20
4.92353024019701
 30
0
 11
5.26545672601157
 21
4.92353024019701
 31
0
 70
32
 12
-1.45061823077939
 22
0.10538796076106
 32
0
100
AcDbAlignedDimension
 13
3.07545672601157
 23
5.93603024019701
 33
0
 14
7.45545672601157
 24
5.93603024019701
 34
0
100
AcDbRotatedDimension
1001
ACAD
1000
DSTYLE
1002
{
1002
}
  0
DIMENSION
  5
3C57
100
AcDbEntity
  8
0
100
AcDbDimension
370
-1
  3
STANDARD
  2
*D5
 10
8.26545672601157
 20
4.52353024019701
 30
0
 11
5.26545672601157
 21
4.52353024019701
 31
0
 70
32
 12
-1.45061823077939
 22
0.10538796076106
 32
0
100
AcDbAlignedDimension
 13
2.26545672601157
 23
7.24853024019701
 33
0
 14
8.26545672601157
 24
7.24853024019701
 34
0
100
AcDbRotatedDimension
1001
ACAD
1000
DSTYLE
1002
{
1002
}
  0
DIMENSION
  5
3C65
100
AcDbEntity
  8
0
100
AcDbDimension
370
-1
  3
STANDARD
  2
*D6
 10
2.01545672601157
 20
4.12353024019701
 30
0
 11
5.26545672601157
 21
4.12353024019701
 31
0
 70
32
 12
-1.45061823077939
 22
0.10538796076106
 32
0
100
AcDbAlignedDimension
 13
8.51545672601157
 23
6.0504129244668
 33
0
 14
2.01545672601157
 24
6.0504129244668
 34
0
100
AcDbRotatedDimension
1001
ACAD
1000
DSTYLE
1002
{
1002
}
  0
DIMENSION
  5
3C73
100
AcDbEntity
  8
0
100
AcDbDimension
370
-1
  1
<> (2 PLCS.)
  3
STANDARD
  2
*D7
 10
7.71545672601157
 20
9.57353024019701
 30
0
 11
5.26545672601157
 21
9.57353024019701
 31
0
 70
32
 12
-1.45061823077939
 22
0.10538796076106
 32
0
100
AcDbAlignedDimension
 13
2.81545672601157
 23
8.82353024019701
 33
0
 14
7.71545672601157
 24
8.82353024019701
 34
0
100
AcDbRotatedDimension
1001
ACAD
1000
DSTYLE
1002
{
1002
}
  0
DIMENSION
  5
3C83
100
AcDbEntity
  8
0
100
AcDbDimension
370
-1
  1
<>\P(2 PLCS.)
  3
STANDARD
  2
*D8
 10
1.33751344004386
 20
5.67353024019701
 30
0
 11
1.33751344004386
 21
7.24853024019701
 31
0
 70
160
 12
-1.45061823077939
 22
0.10538796076106
 32
0
100
AcDbAlignedDimension
 13
2.81545672601157
 23
8.82353024019701
 33
0
 14
2.81545672601157
 24
5.67353024019701
 34
0
 50
90
100
AcDbRotatedDimension
1001
ACAD
1000
DSTYLE
1002
{
1002
}
  0
DIMENSION
  5
3C91
100
AcDbEntity
  8
0
100
AcDbDimension
370
-1
  1
<>\P(2 PLCS.)
  3
STANDARD
  2
*D9
 10
9.11607336331065
 20
5.93603024019701
 30
0
 11
9.11607336331065
 21
7.24853024019701
 31
0
 70
160
 12
-1.45061823077939
 22
0.10538796076106
 32
0
100
AcDbAlignedDimension
 13
7.45545672601157
 23
8.56103024019701
 33
0
 14
7.45545672601157
 24
5.93603024019701
 34
0
 50
90
100
AcDbRotatedDimension
1001
ACAD
1000
DSTYLE
1002
{
1002
}
  0
LEADER
  5
3D0B
100
AcDbEntity
  8
0
100
AcDbLeader
370
-1
 62
1
  6
BYLAYER
  3
STANDARD
 71
1
 72
0
 73
3
 74
0
 40
1
 41
1
 76
3
 10
3.04546301538076
 20
8.6501165877627
 30
0
 10
2.01311605627499
 20
9.56934937842113
 30
0
 10
1.73922311585303
 20
9.56934937842113
 30
0
340
0
1001
ACAD
1000
DSTYLE
1002
{
1070
40
1040
1
1070
41
1040
0.18
1070
341
1005
3FD8
1002
}
  0
MTEXT
  5
3D0C
100
AcDbEntity
  8
0
100
AcDbMText
370
-1
 62
4
 10
1.64922311585303
 20
9.56934937842113
 30
0
 40
0.125
  1
\A1;O.D. 0.188\PI.D. 0.086\P(4 PLCS.)
 50
0
 41
0
  7
STANDARD
 71
6
 11
1
 21
0
 31
0
 73
1
 44
1
  0
DIMENSION
  5
3D1F
100
AcDbEntity
  8
0
100
AcDbDimension
370
-1
  3
STANDARD
  2
*D10
 10
14.8657490709252
 20
5.32353024019701
 30
0
 11
14.8657490709252
 21
7.24853024019701
 31
0
 70
32
 12
0
 22
0.10538796076106
 32
0
100
AcDbAlignedDimension
 13
14.2407490709252
 23
9.17353024019701
 33
0
 14
14.2407490709252
 24
5.32353024019701
 34
0
 50
90
100
AcDbRotatedDimension
1001
ACAD
1000
DSTYLE
1002
{
1002
}
  0
DIMENSION
  5
3D2D
100
AcDbEntity
  8
0
100
AcDbDimension
370
-1
  3
STANDARD
  2
*D11
 10
12.1157490709252
 20
5.35353024019701
 30
0
 11
12.1157490709252
 21
7.24853024019701
 31
0
 70
32
 12
0
 22
0.10538796076106
 32
0
100
AcDbAlignedDimension
 13
13.1157490709252
 23
9.14353024019701
 33
0
 14
13.1157490709252
 24
5.35353024019701
 34
0
 50
90
100
AcDbRotatedDimension
1001
ACAD
1000
DSTYLE
1002
{
1002
}
  0
DIMENSION
  5
3D3C
100
AcDbEntity
  8
0
100
AcDbDimension
370
-1
  1
<> (WALL THK.)
  3
STANDARD
  2
*D12
 10
12.6157490709252
 20
5.35353024019701
 30
0
 11
11.5907183751544
 21
4.99353024019701
 31
0
 70
32
 12
0
 22
0.10538796076106
 32
0
100
AcDbAlignedDimension
 13
13.1157490709252
 23
5.45653024019701
 33
0
 14
13.1157490709252
 24
5.35353024019701
 34
0
 50
90
100
AcDbRotatedDimension
1001
ACAD
1000
DSTYLE
1002
{
1002
}
  0
DIMENSION
  5
3D5A
100
AcDbEntity
  8
0
100
AcDbDimension
370
-1
  3
STANDARD
  2
*D13
 10
14.2657490709252
 20
4.92353024019701
 30
0
 11
15.0264414310889
 21
4.92353024019701
 31
0
 70
160
 12
0
 22
0.10538796076106
 32
0
100
AcDbAlignedDimension
 13
14.3657490709252
 23
5.44853024019701
 33
0
 14
14.2657490709252
 24
5.4824271175259
 34
0
100
AcDbRotatedDimension
1001
ACAD
1000
DSTYLE
1002
{
1002
}
  0
DIMENSION
  5
3D68
100
AcDbEntity
  8
0
100
AcDbDimension
370
-1
  3
STANDARD
  2
*D14
 10
13.1157490709252
 20
4.52353024019701
 30
0
 11
13.7407490709252
 21
4.52353024019701
 31
0
 70
32
 12
0
 22
0.10538796076106
 32
0
100
AcDbAlignedDimension
 13
14.3657490709252
 23
5.44853024019701
 33
0
 14
13.1157490709252
 24
5.35353024019701
 34
0
100
AcDbRotatedDimension
1001
ACAD
1000
DSTYLE
1002
{
1002
}
  0
DIMENSION
  5
3D85
100
AcDbEntity
  8
0
100
AcDbDimension
370
-1
  3
STANDARD
  2
*D15
 10
8.03795672601157
 20
3.61814227943595
 30
0
 11
5.26545672601157
 21
3.61814227943595
 31
0
 70
32
 12
0
 22
0
 32
0
100
AcDbAlignedDimension
 13
2.49295672601157
 23
3.21814227943595
 33
0
 14
8.03795672601157
 24
3.21814227943595
 34
0
100
AcDbRotatedDimension
1001
ACAD
1000
DSTYLE
1002
{
1002
}
  0
DIMENSION
  5
3D94
100
AcDbEntity
  8
0
100
AcDbDimension
370
-1
  1
<> (TYP.)
  3
STANDARD
  2
*D16
 10
3.73452432969298
 20
2.06814227943595
 30
0
 11
2.97633367484987
 21
1.70814227943595
 31
0
 70
32
 12
0
 22
0
 32
0
100
AcDbAlignedDimension
 13
3.16945672601157
 23
2.29814227943595
 33
0
 14
3.17347139094506
 24
2.06814227943595
 34
0
 50
90
100
AcDbRotatedDimension
1001
ACAD
1000
DSTYLE
1002
{
1002
}
  0
DIMENSION
  5
3DB3
100
AcDbEntity
  8
0
100
AcDbDimension
370
-1
  1
<> (2 PLCS.)
  3
STANDARD
  2
*D17
 10
9.01545672601157
 20
1.96814227943595
 30
0
 11
8.12616955002248
 21
1.60814227943595
 31
0
 70
32
 12
0
 22
0
 32
0
100
AcDbAlignedDimension
 13
8.51545672601157
 23
2.09314227943595
 33
0
 14
8.39045672601157
 24
1.96814227943595
 34
0
 50
90
100
AcDbRotatedDimension
1001
ACAD
1000
DSTYLE
1002
{
1002
}
  0
DIMENSION
  5
3DC1
100
AcDbEntity
  8
0
100
AcDbDimension
370
-1
  1
<>\P(4 PLCS.)
  3
STANDARD
  2
*D18
 10
9.51545672601157
 20
3.15614227943595
 30
0
 11
9.51545672601157
 21
2.56214227943595
 31
0
 70
32
 12
0
 22
0
 32
0
100
AcDbAlignedDimension
 13
8.39045672601157
 23
1.96814227943595
 33
0
 14
7.80920672601157
 24
3.15614227943595
 34
0
 50
90
100
AcDbRotatedDimension
1001
ACAD
1000
DSTYLE
1002
{
1002
}
  0
MTEXT
  5
3DDC
100
AcDbEntity
  8
0
100
AcDbMText
370
-1
 62
4
 10
12.6040542341696
 20
2.00496506025487
 30
0
 40
0.125
  1
\A1;\LNOTE:\P\lPC BOARD BOSSES WILL ACCEPT\PA #4 X 1/4" SHEET METAL SCREW
 50
0
 41
0
  7
STANDARD
 71
4
 11
1
 21
0
 31
0
 73
1
 44
1
  0
DIMENSION
  5
3FA5
100
AcDbEntity
  8
0
100
AcDbDimension
370
-1
  1
<> (2 PLCS.)
  3
STANDARD
  2
*D19
 10
8.30149558891277
 20
7.33642904770193
 30
0
 11
10.0884555668788
 21
9.36000232447546
 31
0
 70
163
100
AcDbDiametricDimension
 15
8.22941786311037
 25
7.16063143269208
 35
0
1001
ACAD
1000
DSTYLE
1002
{
1002
}
  0
INSERT
  5
4190
100
AcDbEntity
  8
0
100
AcDbBlockReference
370
-1
  6
BYLAYER
  2
ABViewer
 10
10.72
 20
0.398789110923783
 30
0
 41
3.47403183418456
 42
3.47403183418456
 43
1
  0
ENDSEC
  0
SECTION
  2
OBJECTS
  0
DICTIONARY
  5
4191
100
AcDbDictionary
  3
ACAD_GROUP
350
4192
  3
ACAD_MATERIAL
350
4193
  3
ACAD_WIPEOUT_VARS
350
4194
  3
ACAD_MLINESTYLE
350
4195
  3
ACAD_IMAGE_VARS
350
4196
  3
AcDbVariableDictionary
350
4197
  3
ACAD_LAYOUT
350
4198
  0
DICTIONARY
  5
4192
330
4191
100
AcDbDictionary
  0
DICTIONARY
  5
4193
330
4191
100
AcDbDictionary
  0
WIPEOUTVARIABLES
  5
4194
330
4191
100
AcDbWipeoutVariables
 70
1
  0
DICTIONARY
  5
4195
330
4191
100
AcDbDictionary
  3
STANDARD
350
1C
  0
MLINESTYLE
  5
1C
330
4195
100
AcDbMlineStyle
  2
STANDARD
 70
0
  3

 62
0
 51
90
 52
90
 71
2
 49
0.5
 62
256
  6
BYLAYER
 49
-0.5
 62
256
  6
BYLAYER
  0
DICTIONARY
  5
4198
100
AcDbDictionary
281
1
  3
Model
350
3FC4
  0
LAYOUT
  5
3FC4
102
{ACAD_REACTORS
330
4198
102
}
330
4198
100
AcDbPlotSettings
  1

  2
\\POLYCASE\hplj5100_p
  4

  6

 40
0
 41
0
 42
0
 43
0
 44
0
 45
0
 46
0
 47
0
 48
0
 49
0
 70
1712
 72
0
 73
0
 74
0
 75
0
 76
0
 77
0
 78
100
140
0
141
0
142
1
143
1
147
1
148
0
149
0
100
AcDbLayout
  1
Model
 70
1
 71
1
 10
0.04
 20
0.0399999999999961
 11
16.06
 21
10.06
 12
0
 22
0
 32
0
 14
0.04
 24
0.0399999999999961
 34
0
 15
16.06
 25
10.06
 35
0
146
0
 13
0
 23
0
 33
0
 16
1
 26
0
 36
0
 17
0
 27
1
 37
0
 76
0
330
19
  0
RASTERVARIABLES
  5
4196
330
4191
100
AcDbRasterVariables
 90
0
 70
1
 71
0
 72
0
  0
DICTIONARY
  5
4197
100
AcDbDictionary
281
1
  0
DICTIONARY
  5
4199
100
AcDbDictionary
280
1
  3
XINFO
360
419A
  0
XRECORD
  5
419A
102
{ACAD_REACTORS
330
4199
102
}
330
4199
100
AcDbXrecord
280
0
310
5900000001000E00
311
BDC346D76E011754
  0
ENDSEC
  0
EOF
